<svg width="249" height="30" viewBox="0 0 249 30" fill="none" xmlns="http://www.w3.org/2000/svg">
<g clip-path="url(#clip0_298_102)">
<path d="M0.786923 1.7865C0.537172 1.6687 0.430212 1.3708 0.548022 1.121C0.665832 0.8713 0.963798 0.764299 1.21355 0.882099L0.786923 1.7865ZM249 1.3343L245.686 6.0617L243.249 0.8277L249 1.3343ZM1.21355 0.882099C2.08922 1.2952 2.96728 1.704 3.84771 2.1085L3.43019 3.0172C2.54672 2.6112 1.66562 2.201 0.786923 1.7865L1.21355 0.882099ZM9.15301 4.4819C10.9278 5.2545 12.7118 6.0099 14.5049 6.7479L14.1243 7.6727C12.325 6.9321 10.5348 6.1741 8.75386 5.3987L9.15301 4.4819ZM19.9015 8.9058C21.7057 9.6063 23.5187 10.2892 25.3402 10.9545L24.9972 11.8938C23.1694 11.2262 21.3501 10.5409 19.5396 9.838L19.9015 8.9058ZM30.8195 12.8932C32.6502 13.5203 34.4892 14.1296 36.3363 14.7209L36.0314 15.6733C34.1779 15.0799 32.3325 14.4685 30.4954 13.8392L30.8195 12.8932ZM41.8894 16.4372C43.7437 16.9898 45.6057 17.5245 47.4752 18.0409L47.209 19.0048C45.3329 18.4866 43.4645 17.9501 41.6038 17.3955L41.8894 16.4372ZM53.0933 19.532C54.968 20.0093 56.85 20.4685 58.739 20.9092L58.5118 21.883C56.6162 21.4408 54.7277 20.9801 52.8466 20.501L53.0933 19.532ZM64.4129 22.1727C66.3049 22.5742 68.2037 22.9572 70.1092 23.3215L69.9214 24.3038C68.0093 23.9381 66.1039 23.5538 64.2053 23.151L64.4129 22.1727ZM75.829 24.3559C77.7355 24.6809 79.6483 24.9874 81.5673 25.2751L81.419 26.264C79.4935 25.9753 77.574 25.6678 75.661 25.3417L75.829 24.3559ZM87.3236 26.0792C89.2415 26.3275 91.1653 26.5572 93.0947 26.768L92.9861 27.7621C91.0501 27.5506 89.1197 27.3201 87.1952 27.0709L87.3236 26.0792ZM98.878 27.3415C100.804 27.5131 102.736 27.666 104.673 27.7999L104.604 28.7975C102.66 28.6632 100.722 28.5098 98.7893 28.3375L98.878 27.3415ZM110.474 28.1431C112.405 28.2382 114.341 28.3145 116.282 28.3717L116.253 29.3713C114.305 29.3139 112.362 29.2374 110.424 29.1419L110.474 28.1431ZM122.093 28.4857C123.061 28.4952 124.03 28.5 125 28.5V29.5C124.026 29.5 123.054 29.4952 122.083 29.4857L122.093 28.4857ZM125 28.5C125.97 28.5 126.939 28.4952 127.908 28.4857L127.917 29.4857C126.946 29.4952 125.974 29.5 125 29.5V28.5ZM133.718 28.3717C135.659 28.3145 137.595 28.2382 139.526 28.1431L139.576 29.1419C137.638 29.2374 135.695 29.3139 133.747 29.3713L133.718 28.3717ZM145.327 27.7999C147.264 27.666 149.196 27.5131 151.122 27.3415L151.211 28.3375C149.278 28.5098 147.34 28.6632 145.396 28.7975L145.327 27.7999ZM156.906 26.768C158.835 26.5572 160.759 26.3275 162.677 26.0792L162.805 27.0709C160.881 27.3201 158.95 27.5506 157.014 27.7621L156.906 26.768ZM168.433 25.2751C170.352 24.9874 172.265 24.6809 174.171 24.3559L174.339 25.3417C172.426 25.6678 170.507 25.9753 168.581 26.264L168.433 25.2751ZM179.891 23.3215C181.796 22.9572 183.695 22.5742 185.587 22.1727L185.795 23.151C183.896 23.5538 181.991 23.9381 180.079 24.3038L179.891 23.3215ZM191.261 20.9092C193.15 20.4685 195.032 20.0093 196.907 19.5319L197.154 20.501C195.272 20.9801 193.384 21.4408 191.488 21.883L191.261 20.9092ZM202.525 18.0409C204.395 17.5245 206.257 16.9898 208.111 16.4372L208.396 17.3955C206.536 17.9501 204.667 18.4866 202.791 19.0048L202.525 18.0409ZM213.664 14.7209C215.511 14.1296 217.35 13.5203 219.181 12.8932L219.505 13.8392C217.668 14.4685 215.822 15.0799 213.969 15.6733L213.664 14.7209ZM224.66 10.9545C226.481 10.2892 228.294 9.6063 230.099 8.9058L230.461 9.838C228.65 10.5409 226.831 11.2262 225.003 11.8938L224.66 10.9545ZM235.495 6.7479C237.288 6.0099 239.072 5.2545 240.847 4.4818L241.246 5.3987C239.465 6.174 237.675 6.9321 235.876 7.6727L235.495 6.7479ZM0.57361 2.2387C0.0741074 2.0031 -0.139811 1.4072 0.0958077 0.9077C0.331427 0.408199 0.927361 0.1943 1.42687 0.429899L0.57361 2.2387ZM249 1.3343L242.371 10.7891L237.498 0.320999L249 1.3343ZM1.42687 0.429899C2.30102 0.842199 3.17756 1.2503 4.05646 1.6542L3.22144 3.4715C2.33644 3.0649 1.45382 2.6539 0.57361 2.2387L1.42687 0.429899ZM9.35258 4.0234C11.1243 4.7947 12.9053 5.5488 14.6952 6.2856L13.934 8.135C12.1316 7.3932 10.3383 6.6338 8.55428 5.8572L9.35258 4.0234ZM20.0824 8.4397C21.8836 9.139 23.6934 9.8207 25.5118 10.4848L24.8257 12.3635C22.9947 11.6948 21.1723 11.0082 19.3586 10.3041L20.0824 8.4397ZM30.9815 12.4202C32.8091 13.0462 34.6449 13.6544 36.4887 14.2447L35.8789 16.1495C34.0223 15.5551 32.1737 14.9426 30.3334 14.3123L30.9815 12.4202ZM42.0322 15.958C43.8833 16.5097 45.742 17.0434 47.6084 17.5589L47.0759 19.4868C45.1966 18.9676 43.3249 18.4302 41.461 17.8747L42.0322 15.958ZM53.2167 19.0474C55.0881 19.524 56.9668 19.9823 58.8526 20.4222L58.3982 22.3699C56.4993 21.9269 54.6076 21.4654 52.7232 20.9856L53.2167 19.0474ZM64.5166 21.6836C66.4054 22.0844 68.3009 22.4667 70.2031 22.8305L69.8274 24.7948C67.9121 24.4286 66.0034 24.0436 64.1015 23.6401L64.5166 21.6836ZM75.9131 23.863C77.8162 24.1875 79.7258 24.4934 81.6414 24.7806L81.3449 26.7585C79.416 26.4693 77.4933 26.1613 75.5769 25.8346L75.9131 23.863ZM87.3878 25.5833C89.3024 25.8313 91.2229 26.0605 93.149 26.2709L92.9318 28.2591C90.9924 28.0473 89.0588 27.8164 87.131 27.5667L87.3878 25.5833ZM98.9224 26.8435C100.845 27.0148 102.774 27.1674 104.707 27.3011L104.569 29.2963C102.622 29.1618 100.681 29.0081 98.7449 28.8356L98.9224 26.8435ZM110.498 27.6437C112.426 27.7387 114.359 27.8148 116.297 27.8719L116.238 29.871C114.287 29.8135 112.341 29.7369 110.4 29.6413L110.498 27.6437ZM122.097 27.9858C123.064 27.9952 124.031 28 125 28V30C124.025 30 123.051 29.9952 122.078 29.9857L122.097 27.9858ZM125 28C125.969 28 126.936 27.9952 127.903 27.9858L127.922 29.9857C126.949 29.9952 125.975 30 125 30V28ZM133.703 27.8719C135.641 27.8148 137.574 27.7387 139.502 27.6437L139.6 29.6413C137.659 29.7369 135.713 29.8135 133.762 29.871L133.703 27.8719ZM145.293 27.3011C147.226 27.1674 149.155 27.0148 151.078 26.8435L151.255 28.8356C149.319 29.0081 147.378 29.1618 145.431 29.2963L145.293 27.3011ZM156.851 26.2709C158.777 26.0605 160.698 25.8313 162.612 25.5833L162.869 27.5667C160.941 27.8164 159.008 28.0473 157.068 28.2591L156.851 26.2709ZM168.359 24.7806C170.274 24.4934 172.184 24.1875 174.087 23.863L174.423 25.8346C172.507 26.1613 170.584 26.4693 168.655 26.7585L168.359 24.7806ZM179.797 22.8304C181.699 22.4667 183.595 22.0844 185.484 21.6836L185.899 23.6401C183.997 24.0436 182.088 24.4286 180.173 24.7948L179.797 22.8304ZM191.148 20.4222C193.033 19.9823 194.912 19.524 196.784 19.0474L197.277 20.9856C195.393 21.4654 193.501 21.9269 191.602 22.3699L191.148 20.4222ZM202.392 17.5589C204.258 17.0434 206.117 16.5097 207.968 15.958L208.539 17.8747C206.675 18.4302 204.804 18.9676 202.924 19.4868L202.392 17.5589ZM213.511 14.2447C215.355 13.6544 217.191 13.0462 219.019 12.4202L219.667 14.3123C217.827 14.9426 215.978 15.5551 214.121 16.1495L213.511 14.2447ZM224.488 10.4848C226.307 9.8207 228.117 9.139 229.918 8.4397L230.642 10.3041C228.828 11.0082 227.006 11.6947 225.175 12.3635L224.488 10.4848ZM235.305 6.2856C237.095 5.5488 238.876 4.7947 240.648 4.0234L241.446 5.8572C239.662 6.6338 237.869 7.3932 236.066 8.135L235.305 6.2856Z" fill="#E83434"/>
</g>
<defs>
<clipPath id="clip0_298_102">
<rect width="249" height="30" fill="white" transform="matrix(1 0 0 -1 0 30)"/>
</clipPath>
</defs>
</svg>
