<svg width="249" height="30" viewBox="0 0 249 30" fill="none" xmlns="http://www.w3.org/2000/svg">
<g clip-path="url(#clip0_298_100)">
<path d="M0.786923 28.2135C0.537172 28.3313 0.430212 28.6292 0.548022 28.879C0.665832 29.1287 0.963798 29.2357 1.21355 29.1179L0.786923 28.2135ZM249 28.6657L245.686 23.9383L243.249 29.1723L249 28.6657ZM1.21355 29.1179C2.08922 28.7048 2.96728 28.296 3.84771 27.8915L3.43019 26.9828C2.54672 27.3888 1.66562 27.799 0.786923 28.2135L1.21355 29.1179ZM9.15301 25.5181C10.9278 24.7455 12.7118 23.9901 14.5049 23.2521L14.1243 22.3273C12.325 23.0679 10.5348 23.8259 8.75386 24.6013L9.15301 25.5181ZM19.9015 21.0942C21.7057 20.3937 23.5187 19.7108 25.3402 19.0455L24.9972 18.1062C23.1694 18.7738 21.3501 19.4591 19.5396 20.162L19.9015 21.0942ZM30.8195 17.1068C32.6502 16.4797 34.4892 15.8704 36.3363 15.2791L36.0314 14.3267C34.1779 14.9201 32.3325 15.5315 30.4954 16.1608L30.8195 17.1068ZM41.8894 13.5628C43.7437 13.0102 45.6057 12.4755 47.4752 11.9591L47.209 10.9952C45.3329 11.5134 43.4645 12.0499 41.6038 12.6045L41.8894 13.5628ZM53.0933 10.468C54.968 9.99068 56.85 9.53154 58.739 9.09083L58.5118 8.11698C56.6162 8.55922 54.7277 9.01995 52.8466 9.49897L53.0933 10.468ZM64.4129 7.82725C66.3049 7.42583 68.2037 7.04283 70.1092 6.67845L69.9214 5.69625C68.0093 6.06189 66.1039 6.44621 64.2053 6.84902L64.4129 7.82725ZM75.829 5.6441C77.7355 5.31907 79.6483 5.01262 81.5673 4.72494L81.419 3.73599C79.4935 4.02466 77.574 4.33217 75.661 4.65832L75.829 5.6441ZM87.3236 3.92084C89.2415 3.67246 91.1653 3.4428 93.0947 3.23202L92.9861 2.23794C91.0501 2.44943 89.1197 2.67989 87.1952 2.92912L87.3236 3.92084ZM98.878 2.65852C100.804 2.48685 102.736 2.33398 104.673 2.2001L104.604 1.20248C102.66 1.33682 100.722 1.49021 98.7893 1.66247L98.878 2.65852ZM110.474 1.85686C112.405 1.76176 114.341 1.68551 116.282 1.6283L116.253 0.628738C114.305 0.686139 112.362 0.762644 110.424 0.858074L110.474 1.85686ZM122.093 1.51425C123.061 1.50476 124.03 1.5 125 1.5V0.5C124.026 0.5 123.054 0.504773 122.083 0.514296L122.093 1.51425ZM125 1.5C125.97 1.5 126.939 1.50476 127.908 1.51425L127.917 0.514297C126.946 0.504773 125.974 0.5 125 0.5V1.5ZM133.718 1.6283C135.659 1.68551 137.595 1.76176 139.526 1.85687L139.576 0.858076C137.638 0.762645 135.695 0.68614 133.747 0.628739L133.718 1.6283ZM145.327 2.2001C147.264 2.33398 149.196 2.48685 151.122 2.65852L151.211 1.66247C149.278 1.49021 147.34 1.33682 145.396 1.20248L145.327 2.2001ZM156.906 3.23202C158.835 3.4428 160.759 3.67247 162.677 3.92084L162.805 2.92912C160.881 2.67989 158.95 2.44944 157.014 2.23794L156.906 3.23202ZM168.433 4.72494C170.352 5.01262 172.265 5.31907 174.171 5.6441L174.339 4.65832C172.426 4.33217 170.507 4.02467 168.581 3.736L168.433 4.72494ZM179.891 6.67845C181.796 7.04284 183.695 7.42583 185.587 7.82725L185.795 6.84902C183.896 6.44622 181.991 6.0619 180.079 5.69625L179.891 6.67845ZM191.261 9.09083C193.15 9.53154 195.032 9.99068 196.907 10.4681L197.154 9.49897C195.272 9.01995 193.384 8.55922 191.488 8.11698L191.261 9.09083ZM202.525 11.9591C204.395 12.4755 206.257 13.0102 208.111 13.5628L208.396 12.6045C206.536 12.0499 204.667 11.5134 202.791 10.9952L202.525 11.9591ZM213.664 15.2791C215.511 15.8704 217.35 16.4797 219.181 17.1068L219.505 16.1608C217.668 15.5315 215.822 14.9201 213.969 14.3267L213.664 15.2791ZM224.66 19.0455C226.481 19.7108 228.294 20.3937 230.099 21.0942L230.461 20.162C228.65 19.4591 226.831 18.7738 225.003 18.1062L224.66 19.0455ZM235.495 23.2521C237.288 23.9901 239.072 24.7455 240.847 25.5182L241.246 24.6013C239.465 23.826 237.675 23.0679 235.876 22.3273L235.495 23.2521ZM0.57361 27.7613C0.0741074 27.9969 -0.139811 28.5928 0.0958077 29.0923C0.331427 29.5918 0.927361 29.8057 1.42687 29.5701L0.57361 27.7613ZM249 28.6657L242.371 19.2109L237.498 29.679L249 28.6657ZM1.42687 29.5701C2.30102 29.1578 3.17756 28.7497 4.05646 28.3458L3.22144 26.5285C2.33644 26.9351 1.45382 27.3461 0.57361 27.7613L1.42687 29.5701ZM9.35258 25.9766C11.1243 25.2053 12.9053 24.4512 14.6952 23.7144L13.934 21.865C12.1316 22.6068 10.3383 23.3662 8.55428 24.1428L9.35258 25.9766ZM20.0824 21.5603C21.8836 20.861 23.6934 20.1793 25.5118 19.5152L24.8257 17.6365C22.9947 18.3052 21.1723 18.9918 19.3586 19.6959L20.0824 21.5603ZM30.9815 17.5798C32.8091 16.9538 34.6449 16.3456 36.4887 15.7553L35.8789 13.8505C34.0223 14.4449 32.1737 15.0574 30.3334 15.6877L30.9815 17.5798ZM42.0322 14.042C43.8833 13.4903 45.742 12.9566 47.6084 12.4411L47.0759 10.5132C45.1966 11.0324 43.3249 11.5698 41.461 12.1253L42.0322 14.042ZM53.2167 10.9526C55.0881 10.476 56.9668 10.0177 58.8526 9.57776L58.3982 7.63006C56.4993 8.07306 54.6076 8.53458 52.7232 9.01443L53.2167 10.9526ZM64.5166 8.31636C66.4054 7.91564 68.3009 7.53331 70.2031 7.16955L69.8274 5.20515C67.9121 5.57142 66.0034 5.95641 64.1015 6.35991L64.5166 8.31636ZM75.9131 6.13698C77.8162 5.81252 79.7258 5.5066 81.6414 5.21942L81.3449 3.24152C79.416 3.53069 77.4933 3.83872 75.5769 4.16543L75.9131 6.13698ZM87.3878 4.4167C89.3024 4.16875 91.2229 3.93948 93.149 3.72906L92.9318 1.74089C90.9924 1.95275 89.0588 2.1836 87.131 2.43326L87.3878 4.4167ZM98.9224 3.15654C100.845 2.98517 102.774 2.83256 104.707 2.69891L104.569 0.703673C102.622 0.838239 100.681 0.991889 98.7449 1.16444L98.9224 3.15654ZM110.498 2.35626C112.426 2.26131 114.359 2.1852 116.297 2.12809L116.238 0.128955C114.287 0.186453 112.341 0.263088 110.4 0.358679L110.498 2.35626ZM122.097 2.01422C123.064 2.00475 124.031 2 125 2V0C124.025 0 123.051 0.00478077 122.078 0.0143203L122.097 2.01422ZM125 2C125.969 2 126.936 2.00475 127.903 2.01422L127.922 0.0143206C126.949 0.00478089 125.975 0 125 0V2ZM133.703 2.12809C135.641 2.1852 137.574 2.26132 139.502 2.35626L139.6 0.358681C137.659 0.263089 135.713 0.186454 133.762 0.128956L133.703 2.12809ZM145.293 2.69891C147.226 2.83257 149.155 2.98517 151.078 3.15655L151.255 1.16444C149.319 0.991891 147.378 0.83824 145.431 0.703675L145.293 2.69891ZM156.851 3.72907C158.777 3.93948 160.698 4.16875 162.612 4.4167L162.869 2.43326C160.941 2.18361 159.008 1.95275 157.068 1.74089L156.851 3.72907ZM168.359 5.21942C170.274 5.5066 172.184 5.81252 174.087 6.13699L174.423 4.16543C172.507 3.83872 170.584 3.53069 168.655 3.24152L168.359 5.21942ZM179.797 7.16956C181.699 7.53331 183.595 7.91564 185.484 8.31636L185.899 6.35991C183.997 5.95641 182.088 5.57142 180.173 5.20515L179.797 7.16956ZM191.148 9.57776C193.033 10.0177 194.912 10.476 196.784 10.9526L197.277 9.01444C195.393 8.53458 193.501 8.07306 191.602 7.63006L191.148 9.57776ZM202.392 12.4411C204.258 12.9566 206.117 13.4903 207.968 14.042L208.539 12.1253C206.675 11.5698 204.804 11.0324 202.924 10.5132L202.392 12.4411ZM213.511 15.7553C215.355 16.3456 217.191 16.9538 219.019 17.5798L219.667 15.6877C217.827 15.0574 215.978 14.4449 214.121 13.8505L213.511 15.7553ZM224.488 19.5152C226.307 20.1793 228.117 20.861 229.918 21.5603L230.642 19.6959C228.828 18.9918 227.006 18.3053 225.175 17.6365L224.488 19.5152ZM235.305 23.7144C237.095 24.4512 238.876 25.2053 240.648 25.9766L241.446 24.1428C239.662 23.3662 237.869 22.6068 236.066 21.865L235.305 23.7144Z" fill="#E83434"/>
</g>
<defs>
<clipPath id="clip0_298_100">
<rect width="249" height="30" fill="white"/>
</clipPath>
</defs>
</svg>
