<svg width="1175" height="633" viewBox="0 0 1175 633" fill="none" xmlns="http://www.w3.org/2000/svg">
<g filter="url(#filter0_dddd_555_162)">
<path d="M1135.36 300.449C1097.71 338.421 1035.55 373.817 962.238 403.257C888.177 432.764 802.27 457.007 710.35 473.268C699.163 475.511 687.168 477.194 675.954 479.123C669.957 479.965 664.74 481.053 658.742 481.894L641.475 484.04L606.189 488.398C594.166 489.768 582.089 490.513 570.792 491.504C546.72 493.932 523.263 494.73 499.081 495.907C487.004 496.652 475.597 496.392 463.465 496.511C451.332 496.631 439.981 496.997 427.794 496.49L392.793 495.465C381.359 494.893 369.898 494.008 358.437 493.123L341.621 491.762L325.504 489.71C314.74 488.133 303.279 487.248 293.269 485.605C250.941 478.92 212.133 469.089 178.431 456.919C145.455 444.37 119.763 428.346 101.548 411.035L89.7416 397.574C86.2899 392.834 84.3443 387.962 81.6458 383.156C80.6731 380.72 78.9471 378.351 77.9744 375.915L76.5627 368.475C75.3704 363.537 73.4249 358.665 73.7389 353.595L74.6806 338.385L75.1047 334.565L76.2816 330.68L78.635 322.91C80.7692 312.637 88.9833 302.462 94.1849 292.55C98.2918 287.462 102.426 282.687 106.533 277.6C108.6 275.212 110.64 272.512 112.708 270.124L120.415 262.829C126.056 257.922 130.943 253.081 136.612 248.486L155.875 234.504C161.544 229.91 169.499 225.43 176.7 221.016C183.902 216.602 190.323 211.941 198.306 207.774C214.271 199.439 229.427 190.545 247.734 182.951C281.977 166.708 320.206 152.638 360.024 139.374C441.275 113.963 530.633 94.4601 623.02 83.5155C532.496 98.3936 447.096 119.756 372.007 146.201C335.257 159.826 299.314 174.011 268.083 189.989C252.063 197.698 238.385 206.147 223.174 214.416C215.945 218.517 210.277 223.112 203.801 227.147C197.352 231.495 190.876 235.53 185.207 240.124L168.176 253.595C163.261 258.124 159.099 262.586 154.184 267.114L147.202 274.03C145.135 276.418 143.82 278.739 141.725 280.814C138.344 285.523 134.182 289.986 130.801 294.695C126.298 303.914 119.535 313.332 118.072 322.6L115.663 329.745L114.459 333.318L114.008 336.824L113.709 350.717C113.148 352.973 114.094 355.096 115.066 357.532L116.423 364.346L117.78 371.161C118.726 373.284 120.424 375.341 121.369 377.464C124.012 381.644 125.93 386.203 128.547 390.071L139.463 402.034C156.007 417.601 179.247 431.634 209.046 442.571C238.845 453.508 273.778 462.418 311.532 468.875C320.789 470.583 331.498 471.535 341.48 472.865L356.064 474.736L371.346 475.916C382.027 476.555 391.982 477.572 402.663 478.21L434.651 479.5C445.332 480.139 456.683 479.773 467.309 479.786C477.935 479.798 489.342 480.058 499.913 479.446C521.836 478.467 544.566 478.048 566.379 475.818C577.676 474.827 589.001 474.148 599.544 473.223L632.599 469.376L649.14 467.609C654.384 466.834 660.382 465.993 665.626 465.217C676.868 463.6 688.138 462.296 698.572 460.12C742.731 453.092 785.192 444.008 826.763 433.426C868.334 422.845 907.508 410.897 945.011 397.205C1024.56 369.738 1089.23 336.959 1135.36 300.449Z" fill="url(#paint0_linear_555_162)"/>
</g>
<path d="M749.601 144.746C769.386 130.433 771.385 112.014 758.464 74.4358C760.47 73.5693 762.831 73.0564 764.837 72.1899C771.653 69.3095 772.354 65.711 765.674 62.6388C760.117 59.9689 753.236 59.2021 746.795 57.801C744.521 57.3258 742.159 57.8387 739.443 57.998C732.708 42.3377 718.015 33.7907 701.642 26.7932C683.051 18.6619 662.963 14.4098 642.404 11.1215C646.838 13.3892 651.301 15.3276 655.735 17.5953C668.298 24.0204 679.594 31.69 688.384 41.5193C690.84 44.3241 693.268 47.4583 695.283 50.8976C701.357 60.8861 700.771 63.1672 689.502 68.415C681.861 71.9055 673.865 75.0424 666.282 77.8741C659.496 80.4251 652.383 82.2932 644.494 79.8068C641.864 78.978 638.322 79.7473 634.396 80.4923C643.235 85.3571 649.684 91.0641 647.58 101.86C661.797 93.8178 676.08 89.4229 691.994 88.4432C700.939 87.6847 710.125 88.5973 719.041 88.1682C726.778 87.9955 731.067 91.9099 732.938 96.9959C738.31 110.583 742.886 124.451 747.846 138.343C748.498 139.709 749.064 142.063 749.601 144.746Z" fill="url(#paint1_linear_555_162)"/>
<defs>
<filter id="filter0_dddd_555_162" x="34.7051" y="76.5156" width="1139.65" height="556.235" filterUnits="userSpaceOnUse" color-interpolation-filters="sRGB">
<feFlood flood-opacity="0" result="BackgroundImageFix"/>
<feColorMatrix in="SourceAlpha" type="matrix" values="0 0 0 0 0 0 0 0 0 0 0 0 0 0 0 0 0 0 127 0" result="hardAlpha"/>
<feOffset dy="6"/>
<feGaussianBlur stdDeviation="6.5"/>
<feColorMatrix type="matrix" values="0 0 0 0 0 0 0 0 0 0 0 0 0 0 0 0 0 0 0.1 0"/>
<feBlend mode="normal" in2="BackgroundImageFix" result="effect1_dropShadow_555_162"/>
<feColorMatrix in="SourceAlpha" type="matrix" values="0 0 0 0 0 0 0 0 0 0 0 0 0 0 0 0 0 0 127 0" result="hardAlpha"/>
<feOffset dy="24"/>
<feGaussianBlur stdDeviation="12"/>
<feColorMatrix type="matrix" values="0 0 0 0 0 0 0 0 0 0 0 0 0 0 0 0 0 0 0.09 0"/>
<feBlend mode="normal" in2="effect1_dropShadow_555_162" result="effect2_dropShadow_555_162"/>
<feColorMatrix in="SourceAlpha" type="matrix" values="0 0 0 0 0 0 0 0 0 0 0 0 0 0 0 0 0 0 127 0" result="hardAlpha"/>
<feOffset dy="54"/>
<feGaussianBlur stdDeviation="16.5"/>
<feColorMatrix type="matrix" values="0 0 0 0 0 0 0 0 0 0 0 0 0 0 0 0 0 0 0.05 0"/>
<feBlend mode="normal" in2="effect2_dropShadow_555_162" result="effect3_dropShadow_555_162"/>
<feColorMatrix in="SourceAlpha" type="matrix" values="0 0 0 0 0 0 0 0 0 0 0 0 0 0 0 0 0 0 127 0" result="hardAlpha"/>
<feOffset dy="97"/>
<feGaussianBlur stdDeviation="19.5"/>
<feColorMatrix type="matrix" values="0 0 0 0 0 0 0 0 0 0 0 0 0 0 0 0 0 0 0.01 0"/>
<feBlend mode="normal" in2="effect3_dropShadow_555_162" result="effect4_dropShadow_555_162"/>
<feBlend mode="normal" in="SourceGraphic" in2="effect4_dropShadow_555_162" result="shape"/>
</filter>
<linearGradient id="paint0_linear_555_162" x1="583.379" y1="86.9945" x2="618.524" y2="487.455" gradientUnits="userSpaceOnUse">
<stop stop-color="#E7572B"/>
<stop offset="1" stop-color="#EE842C"/>
</linearGradient>
<linearGradient id="paint1_linear_555_162" x1="707.732" y1="15.2564" x2="699.736" y2="141.59" gradientUnits="userSpaceOnUse">
<stop stop-color="#E6542A"/>
<stop offset="1" stop-color="#EE822C"/>
</linearGradient>
</defs>
</svg>
