<?xml version="1.0" encoding="utf-8"?>
<!-- Generator: Adobe Illustrator 28.0.0, SVG Export Plug-In . SVG Version: 6.00 Build 0)  -->
<svg version="1.1" id="Layer_1" xmlns="http://www.w3.org/2000/svg" xmlns:xlink="http://www.w3.org/1999/xlink" x="0px" y="0px"
	 viewBox="0 0 772.9 272.8" style="enable-background:new 0 0 772.9 272.8;" xml:space="preserve">
<style type="text/css">
	.st0{fill:#0E324B;}
	.st1{fill:#C69A00;}
</style>
<g>
	<path class="st0" d="M23.6,236.47c0-3.6-2-6.3-5.3-6.3c-0.4,0-1,0-1.5,0.1c-0.2,5.5-0.2,8.1-0.2,11.8c0,4.3,0,6.1,0.3,9.9
		c0.1,1.8,0.9,2.7,3.1,3.2v0.2c-1.8-0.1-3.9-0.2-5.6-0.2s-3.7,0.1-5.6,0.2v-0.2c2.1-0.4,3-1.3,3.1-3.2c0.2-3.3,0.2-6,0.2-9.9
		c0-3.7,0-6.4-0.2-9.8c-0.1-2.1-1-2.9-3.1-3.3v-0.3c1.6,0.1,3.9,0.2,5.2,0.2c2,0,3.4-0.2,5.1-0.2c6,0,9.2,2.7,9.2,6.8
		c0,5.3-4.9,8-10.2,8.2v-0.2C22.9,243.17,23.6,238.67,23.6,236.47"/>
	<path class="st0" d="M58.7,255.17v0.2c-12.1,0-9.8-2.2-15.8-10.9h-0.7c-0.8,0-1.8,0-2.7-0.1c0,2.8,0.1,4.6,0.3,7.7
		c0.1,1.8,0.9,2.7,3.1,3.2v0.2c-1.8-0.1-3.9-0.2-5.6-0.2c-1.7,0-3.7,0.1-5.6,0.2v-0.2c2.1-0.4,3-1.3,3.1-3.2c0.2-3.3,0.2-6,0.2-9.9
		c0-1.4,0-7.5-0.2-10.1c-0.1-2-1-2.6-3.1-3.1v-0.3c1.8,0.1,3.7,0.2,5.1,0.2c1.9,0,3.8-0.2,5.3-0.2c6.1,0,9.4,3.1,9.4,7.4
		c0,2.8-1.4,5.3-3.8,6.8C51.9,250.57,54.4,254.97,58.7,255.17 M47,236.77c0-3.4-1.8-6.4-5.5-6.4c-0.6,0-1.1,0-1.7,0.1
		c-0.2,5.3-0.2,8-0.2,11.6v0.8c0.6,0.2,1.2,0.3,2,0.3C46,243.07,47,239.37,47,236.77"/>
	<path class="st0" d="M57.9,242.07c0-7.8,5.9-13.8,14.2-13.8c8.1,0,14.4,5.7,14.4,13.6c0,7.8-5.8,13.8-14.1,13.8
		C64.2,255.67,57.9,249.97,57.9,242.07 M81.6,242.87c0-6.5-3.4-13.1-9.8-13.1c-5.5,0-9,4.9-9,11.3c0,6.6,3.5,13.1,9.8,13.1
		C78.1,254.17,81.6,249.47,81.6,242.87"/>
	<path class="st0" d="M107.3,234.37h-0.2c-0.6-3.1-2.2-4.1-5.6-4.1c-1,0-2.2,0-3.9,0.2c-0.2,5.1-0.2,7.4-0.2,10.4
		c0.9,0,2.1,0,3.8-0.1c2.8-0.1,3.2-1.1,3.6-2.8h0.2c-0.1,1.2-0.2,2.4-0.2,3.5c0,1.1,0.1,2.3,0.2,3.5h-0.2c-0.5-2-0.7-2.7-3.6-2.8
		c-1.3-0.1-2.6-0.1-3.8-0.1c0,4.3,0,6.1,0.3,9.9c0.1,1.8,0.9,2.7,3.1,3.2v0.2c-1.8-0.1-3.9-0.2-5.6-0.2s-3.7,0.1-5.6,0.2v-0.2
		c2.1-0.4,3-1.3,3.1-3.2c0.2-3.3,0.2-6,0.2-9.9c0-3.7,0-6.4-0.2-9.7c-0.1-1.9-1-3-3.1-3.4v-0.3c2.6,0.1,5.9,0.2,9.4,0.2
		c3.2,0,6.3-0.1,8.4-0.3C107.1,230.07,107.1,232.47,107.3,234.37"/>
	<path class="st0" d="M129.5,255.37c-3.1-0.2-6.1-0.2-8.5-0.2c-2.3,0-6.8,0-9.4,0.2v-0.2c2.1-0.4,3-1.1,3.1-3.3
		c0.2-3.4,0.2-5.6,0.2-9.8c0-3.7,0-6.4-0.2-9.7c-0.1-1.9-1-3-3.1-3.4v-0.3c2.6,0.1,5.9,0.2,9.4,0.2c3.3,0,6.3-0.1,8.4-0.3
		c-0.2,1.4-0.2,3.8,0,5.7h-0.2c-0.6-3.1-2.2-4.1-5.7-4.1c-1,0-2.1,0-3.8,0.2c-0.2,5.1-0.2,7.4-0.2,10.4c0.9,0,2.1,0,3.8-0.1
		c2.8-0.1,3.2-1.1,3.6-2.8h0.2c-0.1,1.2-0.2,2.4-0.2,3.5c0,1.1,0.1,2.3,0.2,3.5h-0.2c-0.5-2-0.7-2.7-3.6-2.8
		c-1.3-0.1-2.6-0.1-3.8-0.1c0,4.1,0,7,0.1,8.6c0.1,2.7,2.4,2.8,4.5,2.8c3.1,0,4.5-0.9,5.2-4.4h0.2
		C129.3,251.27,129.3,253.27,129.5,255.37"/>
	<path class="st0" d="M134.4,253.57c0.1-1.7,0.2-3.3,0-5h0.2c0.7,3.6,3.3,5.6,6.1,5.6c2.5,0,4.6-1.4,4.6-4.1c0-6-10.5-8.1-10.5-15.1
		c0-4.5,4.1-6.7,8.3-6.7c2.3,0,3.9,0.6,5.1,1.4c-0.1,1.4-0.2,3.3,0,4.5H148c-0.6-3.1-2.4-4.4-4.7-4.4c-2.7,0-4,1.6-4,3.5
		c0,5.2,10.5,7.4,10.5,14.8c0,4.5-3.9,7.5-8.8,7.5C137.8,255.67,135.7,254.47,134.4,253.57"/>
	<path class="st0" d="M154.4,253.57c0.1-1.7,0.2-3.3,0-5h0.2c0.7,3.6,3.3,5.6,6.1,5.6c2.5,0,4.6-1.4,4.6-4.1c0-6-10.5-8.1-10.5-15.1
		c0-4.5,4.1-6.7,8.3-6.7c2.3,0,3.9,0.6,5.1,1.4c-0.1,1.4-0.2,3.3,0,4.5H168c-0.6-3.1-2.4-4.4-4.7-4.4c-2.7,0-4,1.6-4,3.5
		c0,5.2,10.5,7.4,10.5,14.8c0,4.5-3.9,7.5-8.8,7.5C157.8,255.67,155.6,254.47,154.4,253.57"/>
	<path class="st0" d="M182.3,232.17c-0.2,3.7-0.3,5.5-0.3,9.8s0,6.1,0.3,9.8c0.1,1.9,1,2.8,3.1,3.3v0.2c-1.8-0.1-3.9-0.2-5.6-0.2
		c-1.7,0-3.7,0.1-5.6,0.2v-0.2c2.1-0.4,3-1.4,3.1-3.3c0.2-3.3,0.2-6,0.2-9.8s0-6.5-0.2-9.8c-0.1-1.9-1-2.8-3.1-3.3v-0.2
		c1.9,0.1,3.9,0.2,5.6,0.2c1.7,0,3.7-0.1,5.6-0.2v0.2C183.2,229.37,182.4,230.27,182.3,232.17"/>
	<path class="st0" d="M188.4,242.07c0-7.8,5.9-13.8,14.2-13.8c8.1,0,14.4,5.7,14.4,13.6c0,7.8-5.8,13.8-14.1,13.8
		C194.7,255.67,188.4,249.97,188.4,242.07 M212,242.87c0-6.5-3.4-13.1-9.8-13.1c-5.5,0-9,4.9-9,11.3c0,6.6,3.5,13.1,9.8,13.1
		C208.5,254.17,212,249.47,212,242.87"/>
	<path class="st0" d="M248.1,228.67v0.2c-1.8,0.4-2.8,1.2-3,3.3c-0.1,2.9-0.2,5.4-0.2,9.2v14.4h-0.1c-6.3-6.3-12.8-12.4-19.5-18.4
		v4.4c0,4.1,0.1,6.9,0.2,10.1c0.1,2.1,1.1,2.9,3,3.3v0.2c-1.9-0.1-3.3-0.2-4.4-0.2c-1.2,0-2.3,0.1-4.2,0.2v-0.2
		c1.8-0.4,2.8-1.2,3-3.3c0.1-3.2,0.2-6,0.2-10.1v-13.5h0.1c6.5,6.4,13,12.5,19.5,18.4v-5.6c0-3.7-0.1-6-0.2-8.8
		c-0.1-2.1-1.1-2.8-3-3.3v-0.3c1.9,0.1,3.1,0.2,4.4,0.2C245.1,228.97,246.3,228.87,248.1,228.67"/>
	<path class="st0" d="M276.6,255.17v0.2c-1.3-0.1-3.6-0.2-5.3-0.2c-1.7,0-4.2,0.1-6,0.2v-0.2c2.3-0.2,3.3-1.3,2.4-3.4
		c-0.4-1.1-1-2.4-1.6-3.8c-1.5,0-3.4-0.1-5.3-0.1c-1.8,0-3.6,0-4.9,0.1c-0.5,1.2-0.9,2.4-1.4,3.7c-0.8,2.2-0.2,3.2,2.1,3.5v0.2
		c-1.2-0.1-2.8-0.2-4-0.2c-1.4,0-2.8,0.1-3.8,0.2v-0.2c1.2-0.2,2.3-1.3,3.3-3.5c3.1-7,7.6-17.5,9.9-23.3h0.1
		c3.8,8.4,6,13.2,10.9,23.4C274.1,253.77,274.8,254.77,276.6,255.17 M265.4,246.07c-1.5-3.5-3.3-7.2-4.6-9.9c-1.3,3-2.6,6.4-4,9.9
		c1.3,0.1,2.9,0.1,4.1,0.1C262.2,246.17,263.9,246.17,265.4,246.07"/>
	<path class="st0" d="M296.6,255.37c-3.1-0.2-6.1-0.3-8.5-0.3c-2.3,0-6.9,0-9.4,0.2v-0.2c2.1-0.4,3-1.1,3.1-3.3
		c0.2-3.4,0.2-5.6,0.2-9.8c0-3.8,0-6.5-0.2-9.9c-0.1-1.9-1-2.8-3.1-3.2v-0.2c1.9,0.1,3.9,0.2,5.6,0.2c1.7,0,3.7-0.1,5.6-0.2v0.2
		c-2.2,0.4-3,1.3-3.1,3.2c-0.2,3.8-0.3,5.6-0.3,9.9c0,4.1,0,7,0.1,8.7c0.1,2.7,2.4,2.8,4.5,2.8c3.1,0,4.5-0.9,5.2-4.3h0.2
		C296.4,251.27,296.4,253.27,296.6,255.37"/>
	<path class="st0" d="M336.3,241.57c0,7.4-5.4,13.8-14.3,13.8c-1.7,0-4.2-0.2-6.4-0.2c-1.7,0-4.7,0.1-5.9,0.2v-0.2
		c2.3-0.5,2.9-1.1,3.1-3.1c0.1-2.1,0.2-5,0.2-9.9c0-4.7-0.1-7.9-0.2-9.9c-0.1-2.2-1-2.8-3.1-3.2v-0.4c1.3,0.1,3.6,0.2,5,0.2
		c2,0,4-0.2,6.2-0.2C330.4,228.67,336.3,233.77,336.3,241.57 M331.4,242.47c0-6-2.9-12.4-10.9-12.4c-0.8,0-1.7,0.1-2.7,0.2
		c-0.3,5.2-0.3,8.1-0.3,12.1c0,4.5,0,6.5,0.1,8.1c0.3,2.7,2.4,3.4,4.8,3.4C328.5,253.87,331.4,248.47,331.4,242.47"/>
	<path class="st0" d="M340.1,242.07c0-7.8,5.9-13.8,14.2-13.8c8.1,0,14.4,5.7,14.4,13.6c0,7.8-5.8,13.8-14.1,13.8
		C346.4,255.67,340.1,249.97,340.1,242.07 M363.8,242.87c0-6.5-3.4-13.1-9.8-13.1c-5.5,0-9,4.9-9,11.3c0,6.6,3.5,13.1,9.8,13.1
		C360.3,254.17,363.8,249.47,363.8,242.87"/>
	<path class="st0" d="M372.5,242.07c0-8.1,6.2-13.7,14.8-13.7c3.3,0,6.2,0.8,8.2,1.6c-0.3,2-0.3,3.8,0,5.7h-0.2
		c-1.4-4.4-4.3-5.7-7.8-5.7c-6.7,0-10.1,5-10.1,11.2c0,6.3,2.8,13,10.7,13c3.3,0,6.8-1.1,7.9-6.2h0.2c-0.3,2.6-0.2,4.7,0,6.3
		c-2,0.7-5.4,1.6-9,1.6C378.4,255.67,372.5,249.87,372.5,242.07"/>
	<path class="st0" d="M426.6,228.67v0.2c-1.8,0.2-2.9,1-3,3.1c-0.2,3.4-0.3,8.7-0.3,13c0,7-3.9,10.7-10.2,10.7
		c-6.4,0-10.8-3.8-10.8-11c0-4.7,0-9.2-0.2-12.6c-0.1-1.9-1-2.7-3.1-3.1v-0.3c1.8,0.1,3.8,0.2,5.6,0.2c1.8,0,3.7-0.1,5.6-0.2v0.2
		c-2.1,0.4-3,1.2-3.1,3.1c-0.2,3.7-0.3,8.2-0.3,12.7c0,6.3,2.4,9.2,7,9.2c4.4,0,7.1-2.8,7.1-8.8c0-3.1-0.1-10-0.3-13
		c-0.1-2.2-1.1-3-3-3.2v-0.2c1.8,0.1,3.1,0.2,4.5,0.2C423.3,228.97,424.8,228.87,426.6,228.67"/>
	<path class="st0" d="M462.7,255.17v0.2c-1.7-0.2-3.7-0.2-5.8-0.2c-1.6,0-3.7,0-5.5,0.2v-0.2c2.1-0.5,2.9-1,2.8-3.1
		c-0.3-4.3-0.6-8.5-1.2-12.7c-3.4,5.5-6.5,10.9-9.5,16.4h-0.1c-3-5.3-6.3-10.8-9.8-16.3c-0.5,4.3-0.9,8.2-1.2,12.4
		c-0.1,2.1,0.4,2.7,2.8,3.3v0.2c-1.7-0.2-2.9-0.2-4.3-0.2c-1.3,0-2.5,0-4.2,0.2v-0.2c2.1-0.5,3-1.1,3.3-3.2c1-7.7,1.8-15.9,2.4-23.6
		h0.1c3.6,6.4,7.3,12.5,12.4,20.3c4.5-7.2,8.2-13.5,11.9-20.3h0.1c0.6,8.2,1.4,15.8,2.4,23.8
		C459.6,254.17,460.5,254.67,462.7,255.17"/>
	<path class="st0" d="M483.1,255.37c-3.1-0.2-6.1-0.2-8.5-0.2c-2.3,0-6.8,0-9.4,0.2v-0.2c2.1-0.4,3-1.1,3.1-3.3
		c0.2-3.4,0.2-5.6,0.2-9.8c0-3.7,0-6.4-0.2-9.7c-0.1-1.9-1-3-3.1-3.4v-0.3c2.6,0.1,5.9,0.2,9.4,0.2c3.3,0,6.3-0.1,8.4-0.3
		c-0.2,1.4-0.2,3.8,0,5.7h-0.2c-0.6-3.1-2.2-4.1-5.7-4.1c-1,0-2.1,0-3.8,0.2c-0.2,5.1-0.2,7.4-0.2,10.4c0.9,0,2.1,0,3.8-0.1
		c2.8-0.1,3.2-1.1,3.6-2.8h0.2c-0.1,1.2-0.2,2.4-0.2,3.5c0,1.1,0.1,2.3,0.2,3.5h-0.2c-0.5-2-0.7-2.7-3.6-2.8
		c-1.3-0.1-2.6-0.1-3.8-0.1c0,4.1,0,7,0.1,8.6c0.1,2.7,2.4,2.8,4.5,2.8c3.1,0,4.5-0.9,5.2-4.4h0.2
		C482.9,251.27,482.9,253.27,483.1,255.37"/>
	<path class="st0" d="M515,228.67v0.2c-1.8,0.4-2.8,1.2-3,3.3c-0.1,2.9-0.2,5.4-0.2,9.2v14.4h-0.1c-6.3-6.3-12.8-12.4-19.5-18.4v4.4
		c0,4.1,0.1,6.9,0.2,10.1c0.1,2.1,1.1,2.9,3,3.3v0.2c-1.9-0.1-3.3-0.2-4.4-0.2c-1.2,0-2.3,0.1-4.2,0.2v-0.2c1.8-0.4,2.8-1.2,3-3.3
		c0.1-3.2,0.2-6,0.2-10.1v-13.5h0.1c6.5,6.4,13,12.5,19.5,18.4v-5.6c0-3.7-0.1-6-0.2-8.8c-0.1-2.1-1.1-2.8-3-3.3v-0.3
		c1.9,0.1,3.1,0.2,4.4,0.2S513.2,228.87,515,228.67"/>
	<path class="st0" d="M542.4,227.57c-0.6,2.1-1,4.8-1.1,6.1h-0.2c0.1-1.5-0.1-2.7-1.8-2.9c-1.3-0.2-4.1-0.3-6.6-0.4
		c-0.1,3.6-0.2,7.5-0.2,11.7c0,4.3,0,6.1,0.3,9.9c0.1,1.8,0.9,2.7,3.1,3.2v0.2c-1.8-0.1-3.9-0.2-5.6-0.2s-3.7,0.1-5.6,0.2v-0.2
		c2.1-0.4,3-1.4,3.1-3.2c0.2-3.3,0.3-6,0.3-9.9c0-3.7,0-7.9-0.2-11.7c-2.5,0-5.4,0.2-6.8,0.4c-1.8,0.3-2.3,1.7-2.8,3.2h-0.2
		c0.4-1.2,1.1-4.8,1.4-6.5h0.2c-0.1,0.9,0.2,1,0.6,1.1c1.1,0.1,7.3,0.3,10,0.3s9.6-0.2,10.9-0.3
		C541.9,228.47,542.2,228.37,542.4,227.57"/>
	<path class="st0" d="M554.3,242.07c0-8.1,6.2-13.7,14.8-13.7c3.3,0,6.2,0.8,8.2,1.6c-0.3,2-0.3,3.8,0,5.7h-0.2
		c-1.4-4.4-4.3-5.7-7.8-5.7c-6.7,0-10.1,5-10.1,11.2c0,6.3,2.8,13,10.7,13c3.3,0,6.8-1.1,7.9-6.2h0.2c-0.3,2.6-0.2,4.7,0,6.3
		c-2,0.7-5.4,1.6-9,1.6C560.2,255.67,554.3,249.87,554.3,242.07"/>
	<path class="st0" d="M600.4,255.37c-3.1-0.2-6.1-0.3-8.5-0.3c-2.3,0-6.9,0-9.4,0.2v-0.2c2.1-0.4,3-1.1,3.1-3.3
		c0.2-3.4,0.2-5.6,0.2-9.8c0-3.8,0-6.5-0.2-9.9c-0.1-1.9-1-2.8-3.1-3.2v-0.2c1.9,0.1,3.9,0.2,5.6,0.2c1.7,0,3.7-0.1,5.6-0.2v0.2
		c-2.2,0.4-3,1.3-3.1,3.2c-0.2,3.8-0.3,5.6-0.3,9.9c0,4.1,0,7,0.1,8.7c0.1,2.7,2.4,2.8,4.5,2.8c3.1,0,4.5-0.9,5.2-4.3h0.2
		C600.2,251.27,600.2,253.27,600.4,255.37"/>
	<path class="st0" d="M622.6,255.37c-3.1-0.2-6.1-0.2-8.5-0.2c-2.3,0-6.8,0-9.4,0.2v-0.2c2.1-0.4,3-1.1,3.1-3.3
		c0.2-3.4,0.2-5.6,0.2-9.8c0-3.7,0-6.4-0.2-9.7c-0.1-1.9-1-3-3.1-3.4v-0.3c2.6,0.1,5.9,0.2,9.4,0.2c3.3,0,6.3-0.1,8.4-0.3
		c-0.2,1.4-0.2,3.8,0,5.7h-0.2c-0.6-3.1-2.2-4.1-5.7-4.1c-1,0-2.1,0-3.8,0.2c-0.2,5.1-0.2,7.4-0.2,10.4c0.9,0,2.1,0,3.8-0.1
		c2.8-0.1,3.2-1.1,3.6-2.8h0.2c-0.1,1.2-0.2,2.4-0.2,3.5c0,1.1,0.1,2.3,0.2,3.5H620c-0.5-2-0.7-2.7-3.6-2.8
		c-1.3-0.1-2.6-0.1-3.8-0.1c0,4.1,0,7,0.1,8.6c0.1,2.7,2.4,2.8,4.5,2.8c3.1,0,4.5-0.9,5.2-4.4h0.2
		C622.4,251.27,622.4,253.27,622.6,255.37"/>
	<path class="st0" d="M653,255.17v0.2c-1.3-0.1-3.6-0.2-5.3-0.2c-1.6,0-4.2,0.1-6,0.2v-0.2c2.3-0.2,3.3-1.3,2.4-3.4
		c-0.4-1.1-1-2.4-1.6-3.8c-1.5,0-3.4-0.1-5.3-0.1c-1.8,0-3.6,0-4.9,0.1c-0.5,1.2-0.9,2.4-1.4,3.7c-0.8,2.2-0.2,3.2,2.1,3.5v0.2
		c-1.2-0.1-2.8-0.2-4-0.2c-1.4,0-2.8,0.1-3.8,0.2v-0.2c1.2-0.2,2.3-1.3,3.3-3.5c3.1-7,7.6-17.5,9.9-23.3h0.1
		c3.8,8.4,6,13.2,10.9,23.4C650.5,253.77,651.2,254.77,653,255.17 M641.8,246.07c-1.5-3.5-3.3-7.2-4.6-9.9c-1.3,3-2.6,6.4-4,9.9
		c1.3,0.1,2.9,0.1,4.1,0.1C638.6,246.17,640.3,246.17,641.8,246.07"/>
	<path class="st0" d="M682,255.17v0.2c-12.1,0-9.8-2.2-15.8-10.9h-0.6c-0.8,0-1.8,0-2.7-0.1c0,2.8,0.1,4.6,0.3,7.7
		c0.1,1.8,0.9,2.7,3.1,3.2v0.2c-1.8-0.1-3.9-0.2-5.6-0.2s-3.7,0.1-5.6,0.2v-0.2c2.1-0.4,3-1.3,3.1-3.2c0.2-3.3,0.2-6,0.2-9.9
		c0-1.4,0-7.5-0.2-10.1c-0.1-2-1-2.6-3.1-3.1v-0.3c1.8,0.1,3.7,0.2,5.1,0.2c1.9,0,3.8-0.2,5.3-0.2c6.1,0,9.4,3.1,9.4,7.4
		c0,2.8-1.4,5.3-3.8,6.8C675.2,250.57,677.7,254.97,682,255.17 M670.3,236.77c0-3.4-1.8-6.4-5.5-6.4c-0.6,0-1.1,0-1.7,0.1
		c-0.2,5.3-0.2,8-0.2,11.6v0.8c0.6,0.2,1.2,0.3,2,0.3C669.3,243.07,670.3,239.37,670.3,236.77"/>
	<path class="st0" d="M691.8,232.17c-0.2,3.7-0.3,5.5-0.3,9.8s0,6.1,0.3,9.8c0.1,1.9,1,2.8,3.1,3.3v0.2c-1.8-0.1-3.9-0.2-5.6-0.2
		c-1.7,0-3.7,0.1-5.6,0.2v-0.2c2.1-0.4,3-1.4,3.1-3.3c0.2-3.3,0.2-6,0.2-9.8s0-6.5-0.2-9.8c-0.1-1.9-1-2.8-3.1-3.3v-0.2
		c1.9,0.1,3.9,0.2,5.6,0.2c1.7,0,3.7-0.1,5.6-0.2v0.2C692.7,229.37,691.9,230.27,691.8,232.17"/>
	<path class="st0" d="M725.9,228.67v0.2c-1.8,0.4-2.8,1.2-3,3.3c-0.1,2.9-0.2,5.4-0.2,9.2v14.4h-0.1c-6.3-6.3-12.8-12.4-19.5-18.4
		v4.4c0,4.1,0.1,6.9,0.2,10.1c0.1,2.1,1.1,2.9,3,3.3v0.2c-1.9-0.1-3.3-0.2-4.4-0.2c-1.2,0-2.3,0.1-4.2,0.2v-0.2
		c1.8-0.4,2.8-1.2,3-3.3c0.1-3.2,0.2-6,0.2-10.1v-13.5h0.1c6.5,6.4,13,12.5,19.5,18.4v-5.6c0-3.7-0.1-6-0.2-8.8
		c-0.1-2.1-1.1-2.8-3-3.3v-0.3c1.9,0.1,3.1,0.2,4.4,0.2S724.1,228.87,725.9,228.67"/>
	<path class="st0" d="M755.6,243.07v0.2c-1.8,0.3-2.6,1.1-2.7,3c-0.3,2.2-0.3,4.4-0.1,7.9c-2,0.7-5.4,1.6-9,1.6
		c-9,0-14.8-5.8-14.8-13.7c0-8.1,6.2-13.7,14.8-13.7c3.3,0,6.2,0.8,8.2,1.6c-0.3,2-0.3,3.8,0,5.7h-0.2c-1.3-4.2-4.3-5.7-7.9-5.7
		c-6.7,0-10,5.2-10,11.2s2.8,13.1,10.4,13.1c1.3,0,2.6-0.2,3.7-0.7c0-3.3,0-4.9-0.3-7.2c-0.2-2-1.1-2.6-3.5-3v-0.2
		c2,0.1,3.9,0.2,5.7,0.2C751.9,243.27,754,243.17,755.6,243.07"/>
	<path class="st0" d="M118.3,186.87c-21.7-45.6-31.9-67-48.8-104.9h-0.3c-10.2,26.1-30.6,73.5-44.4,104.7
		c-4.5,10-9.6,14.8-14.9,15.6v1c4.6-0.5,10.6-1,17.1-1c5.3,0,12.4,0.5,17.9,1v-1c-10.5-1.2-13.1-5.8-9.5-15.6
		c2.2-5.5,4.1-11,6.3-16.4l3.5-8.6c6.1-15.8,12.3-31,17.9-44.6c5.8,12.3,13.8,29,20.6,44.6l3.7,8.5c2.7,6.3,5.1,11.9,7,16.9
		c3.7,9.5-0.8,14.3-10.9,15.3v1c8.1-0.7,19.7-1,27-1s17.9,0.5,23.6,1v-1C125.9,200.77,122.7,196.37,118.3,186.87"/>
	<path class="st1" d="M174.5,159.87c-5.8-12.3-9.8-20.6-16.6-36.2l-3.7-8.5c-2.7-6.3-5.1-11.9-7-16.9c-3.7-9.5,0.8-14.3,10.9-15.3
		v-1c-8.1,0.7-19.7,1-27,1c-7.3,0-17.9-0.5-23.6-1v1c8.1,1.5,11.3,6,15.8,15.4c21.7,45.6,31.9,67,48.8,104.9h0.3
		c3.4-8.8,8.1-20.2,13.2-32.5c18.4-42.9,36.4-76.6,43.3-88.9c2.1-3.8,4.5-7.4,7.1-10.9c39.8-52.5,78.2-53.3,78.2-53.3
		C218.1,4.97,174.5,159.87,174.5,159.87"/>
	<path class="st0" d="M340.5,168.87c-11,27.3-26.3,27.6-26.3,27.6h-28.3v-48.8H311c1.4,0,2.8,0.3,4,0.9c6.6,3.4,6.5,13.4,6.5,13.4
		h2.8v-37.1h-2.7c0,15.3-9.3,15-9.3,15H286v-46.9h25.6c18.3,1.7,18,21.3,18,21.3h3v-30.2h-84.5v4c13.6,0,14,8.3,14,8.3v90.5
		c0,11.3-14,11.3-14,11.3v3.3h86.1l9.3-32.6H340.5z"/>
	<path class="st0" d="M756.2,168.87c-11,27.3-26.3,27.6-26.3,27.6h-28.3v-48.8h25.1c1.4,0,2.8,0.3,4,0.9c6.6,3.4,6.5,13.4,6.5,13.4
		h2.8v-37.1h-2.8c0,15.3-9.3,15-9.3,15h-26.3v-46.9h25.6c18.3,1.7,18,21.3,18,21.3h3v-30.2h-84.5v4c13.6,0,14,8.3,14,8.3v90.5
		c0,11.3-14,11.3-14,11.3v3.3h86.1l9.3-32.6H756.2z"/>
	<path class="st0" d="M362.8,203.27h47.6v-3.5c0,0-14.6-0.7-13-12.3v-62.5l85.5,80.5V94.97c0,0,0.3-6.3,9-6.3v-4.7h-45.3v3
		c0,0,12.3,1.3,12.3,9v68.2l-85.1-81.8v107.7c0,0,0,9-11,9V203.27z"/>
	<path class="st0" d="M517.1,82.37v5.4c0,0,12.6-1.4,12.6,7.9v66.8c0,0-3,40.2,47.6,42.9c0,0,50.2,5,54.5-39.2v-72.5
		c0,0-1-4.7,5.7-4.7v-3.7h-29.3v3c0,0,11-0.3,11,5.7v71.8c0,0,0.3,23.6-26.9,30.4c-8.4,2.1-17.4,1.1-24.8-3.3
		c-7.6-4.5-15.1-13.3-15.1-30.1v-67.1c0,0,0-6.7,5.7-6.7h5.7v-6.7L517.1,82.37z"/>
</g>
</svg>
