<?xml version="1.0" encoding="utf-8"?>
<!-- Generator: Adobe Illustrator 16.0.0, SVG Export Plug-In . SVG Version: 6.00 Build 0)  -->
<!DOCTYPE svg PUBLIC "-//W3C//DTD SVG 1.1//EN" "http://www.w3.org/Graphics/SVG/1.1/DTD/svg11.dtd">
<svg version="1.1" id="Layer_1" xmlns="http://www.w3.org/2000/svg" xmlns:xlink="http://www.w3.org/1999/xlink" x="0px" y="0px"
	 width="1642.098px" height="379.71px" viewBox="0 0 1642.098 379.71" enable-background="new 0 0 1642.098 379.71"
	 xml:space="preserve">
<g>
	<g>
		<g>
			<g>
				<g>
					<path fill="#083332" d="M569.178,348.961c-1.438,0-2.575-0.303-3.417-0.934c-0.843-0.626-1.47-1.515-1.875-2.669
						c-0.405-1.155-0.667-2.53-0.794-4.119c-0.125-1.588-0.187-3.357-0.187-5.29c0-0.815,0-2.592,0-5.343c0-2.747,0-5.957,0-9.642
						s0.017-7.566,0.047-11.661c0.031-4.086,0.06-7.894,0.092-11.419c0.031-3.529,0.08-6.514,0.141-8.946
						c0.062-2.437,0.158-3.841,0.282-4.209c0.373-1.126,0.969-2.236,1.779-3.325c0.811-1.093,2.029-1.642,3.652-1.642
						c0.872,0,1.67,0.201,2.387,0.61c0.715,0.401,1.329,0.95,1.824,1.638c0.501,0.68,0.893,1.449,1.173,2.297
						c0.278,0.835,0.424,1.724,0.424,2.665c0,1.81-0.035,3.964-0.094,6.461c-0.068,2.498-0.16,5.135-0.283,7.911
						c-0.126,2.784-0.237,5.584-0.327,8.434c-0.094,2.837-0.205,5.486-0.325,7.956c-0.131,2.469-0.224,4.664-0.285,6.604
						c-0.062,1.933-0.094,3.37-0.094,4.308c0,2.931,0.155,5.179,0.469,6.739c0.313,1.564,1.091,2.342,2.342,2.342l22.66-0.094
						c1.685,0,3.044,0.393,4.076,1.167c1.029,0.786,1.543,1.892,1.543,3.325c0,4.561-2.248,6.837-6.742,6.837H569.178z"/>
				</g>
			</g>
			<g>
				<g>
					<path fill="#083332" d="M621.805,282.944c0-0.934,0.125-1.875,0.374-2.809c0.25-0.938,0.643-1.777,1.173-2.53
						c0.528-0.745,1.183-1.334,1.967-1.777c0.778-0.434,1.699-0.655,2.762-0.655c1.059,0,1.981,0.221,2.762,0.655
						c0.78,0.442,1.421,1.032,1.92,1.777c0.5,0.753,0.872,1.593,1.124,2.53c0.248,0.934,0.375,1.875,0.375,2.809
						c0,0.938-0.127,1.875-0.375,2.809c-0.252,0.934-0.624,1.777-1.124,2.53c-0.499,0.753-1.14,1.343-1.92,1.777
						c-0.78,0.438-1.703,0.655-2.762,0.655c-1.063,0-1.983-0.217-2.762-0.655c-0.784-0.434-1.439-1.023-1.967-1.777
						c-0.53-0.753-0.923-1.597-1.173-2.53C621.929,284.819,621.805,283.882,621.805,282.944z M627.893,294.744
						c0.874,0,1.687,0.09,2.437,0.278c0.749,0.188,1.404,0.598,1.967,1.22c0.559,0.622,0.997,1.482,1.311,2.571
						c0.309,1.097,0.469,2.575,0.469,4.455c0,2.244-0.035,4.569-0.094,6.969c-0.065,2.407-0.129,4.794-0.186,7.165
						c-0.065,2.375-0.129,4.655-0.188,6.841c-0.063,2.182-0.094,4.156-0.094,5.9c0,1.933,0.012,3.976,0.047,6.134
						c0.028,2.153-0.125,4.135-0.467,5.945c-0.344,1.81-0.938,3.308-1.781,4.492c-0.844,1.187-2.142,1.785-3.888,1.785
						c-1.748,0-2.997-0.503-3.746-1.499c-0.747-0.995-1.234-2.203-1.452-3.607c-0.219-1.409-0.264-2.841-0.137-4.307
						c0.125-1.47,0.187-2.67,0.187-3.607v-29.684c0-1.061-0.049-2.231-0.142-3.513c-0.096-1.282,0-2.481,0.283-3.607
						c0.281-1.122,0.827-2.063,1.638-2.809C624.863,295.117,626.145,294.744,627.893,294.744z"/>
				</g>
			</g>
			<g>
				<g>
					<path fill="#083332" d="M680.896,319.179c2.434,0,5.181,0.098,8.24,0.287s5.959,0.688,8.711,1.499
						c2.743,0.811,5.055,2.043,6.928,3.697c1.873,1.654,2.811,3.951,2.811,6.883c0,3.562-0.891,6.543-2.671,8.95
						c-1.777,2.399-4.025,4.303-6.742,5.708c-2.716,1.409-5.729,2.408-9.036,2.993c-3.308,0.594-6.522,0.896-9.646,0.896
						c-3.122,0-6.414-0.319-9.882-0.942c-3.459-0.626-6.645-1.621-9.548-2.993c-2.902-1.375-5.292-3.14-7.165-5.294
						c-1.871-2.154-2.809-4.758-2.809-7.82c0-1.81,0.36-3.198,1.075-4.168c0.721-0.966,1.531-1.715,2.436-2.244
						c0.905-0.532,1.716-0.95,2.437-1.265c0.714-0.307,1.075-0.688,1.075-1.122c0-0.438-0.281-0.831-0.839-1.175
						c-0.565-0.34-1.202-0.794-1.922-1.351c-0.718-0.565-1.355-1.343-1.918-2.346c-0.563-1.003-0.843-2.342-0.843-4.025
						c0-1.061,0.155-1.949,0.469-2.669c0.309-0.721,0.639-1.363,0.982-1.916c0.344-0.569,0.669-1.032,0.984-1.409
						c0.31-0.373,0.467-0.721,0.467-1.032c0-0.315-0.127-0.655-0.376-1.032c-0.248-0.368-0.53-0.843-0.839-1.4
						c-0.313-0.565-0.612-1.236-0.891-2.014c-0.282-0.778-0.422-1.732-0.422-2.858c0-5.617,2.263-9.982,6.791-13.11
						c4.522-3.12,10.815-4.684,18.869-4.684c1.685,0,3.777,0.114,6.274,0.332c2.494,0.217,5.038,0.496,7.628,0.839
						c2.591,0.344,4.997,0.725,7.212,1.13c2.215,0.41,3.854,0.794,4.917,1.163c1.061,0.381,1.873,0.986,2.434,1.83
						c0.563,0.839,0.841,1.797,0.841,2.854c0,1.441-0.25,2.707-0.747,3.8c-0.502,1.089-1.188,1.638-2.062,1.638
						c-0.688,0-1.343-0.156-1.965-0.475c-0.623-0.307-1.185-0.467-1.687-0.467c-0.248,0-0.469,0.16-0.655,0.467
						c-0.184,0.442-0.061,1.052,0.375,1.826c0.436,0.786,0.657,2.047,0.657,3.795c0,2.813-0.702,5.171-2.108,7.071
						c-1.405,1.899-3.214,3.431-5.43,4.585c-2.217,1.163-4.698,1.998-7.445,2.53c-2.749,0.528-5.466,0.794-8.147,0.794
						c-3.059,0-5.745-0.103-8.054-0.328c-2.31-0.217-4.557-1.011-6.741-2.391c-0.5-0.307-0.905-0.369-1.218-0.18
						c-0.311,0.18-0.5,0.344-0.563,0.467c-0.127,0.434-0.076,0.909,0.144,1.4c0.217,0.504,0.577,0.909,1.072,1.221
						c1.314,0.745,2.766,1.265,4.358,1.543c1.589,0.283,3.212,0.471,4.866,0.565s3.279,0.11,4.872,0.045
						C678.038,319.22,679.521,319.179,680.896,319.179z M677.147,326.582c-1.061,0-2.481,0.078-4.258,0.238
						c-1.781,0.155-3.544,0.45-5.292,0.888c-1.746,0.43-3.247,1.061-4.498,1.871c-1.245,0.811-1.869,1.908-1.869,3.276
						c0,0.999,0.453,1.908,1.355,2.714c0.905,0.815,2.168,1.486,3.794,2.019c1.623,0.532,3.541,0.941,5.761,1.212
						c2.215,0.287,4.632,0.426,7.257,0.426c2.557,0,4.948-0.094,7.163-0.278c2.215-0.188,4.135-0.549,5.759-1.081
						c1.623-0.528,2.903-1.294,3.838-2.297c0.938-0.995,1.407-2.338,1.407-4.025c0-0.868-0.674-1.621-2.015-2.244
						c-1.343-0.623-3.028-1.138-5.057-1.547c-2.031-0.401-4.246-0.705-6.649-0.889C681.44,326.68,679.211,326.582,677.147,326.582z
						 M690.823,300.361c0-1.998-1.204-3.75-3.609-5.245c-2.401-1.499-5.695-2.248-9.878-2.248c-5.184,0-9.038,0.61-11.564,1.826
						c-2.526,1.22-3.791,3.329-3.791,6.322c0,2.121,1.277,3.84,3.838,5.15c2.562,1.311,6.492,1.974,11.8,1.974
						c2.246,0,4.197-0.246,5.853-0.704c1.652-0.475,3.023-1.077,4.119-1.83c1.091-0.75,1.902-1.589,2.434-2.535
						C690.555,302.143,690.823,301.238,690.823,300.361z"/>
				</g>
			</g>
			<g>
				<g>
					<path fill="#083332" d="M727.248,347.745c-0.749,0-1.515-0.184-2.295-0.561c-0.782-0.377-1.468-0.872-2.062-1.499
						c-0.592-0.623-1.074-1.327-1.451-2.113c-0.373-0.774-0.559-1.535-0.559-2.289c0-7.554,0.014-15.091,0.043-22.617
						c0.032-7.521,0.047-15.055,0.047-22.613c0-1.056,0.033-2.621,0.096-4.684c0.059-2.055,0.28-4.151,0.653-6.272
						c0.377-2.121,0.969-3.963,1.781-5.519c0.811-1.564,1.967-2.35,3.464-2.35c0.747,0,1.513,0.188,2.295,0.565
						c0.78,0.376,1.482,0.876,2.106,1.499c0.624,0.622,1.126,1.327,1.499,2.113c0.375,0.778,0.563,1.54,0.563,2.292
						c0,0.68-0.047,1.355-0.14,2.006c-0.096,0.659-0.204,1.335-0.331,2.023c-0.498,3.554-0.872,7.124-1.12,10.719
						c-0.252,3.587-0.377,7.161-0.377,10.719c0,0.254,0.015,0.705,0.047,1.359c0.031,0.655,0.094,1.327,0.186,2.011
						c0.095,0.688,0.219,1.314,0.377,1.875c0.153,0.561,0.389,0.839,0.702,0.839c0.123,0,0.293-0.246,0.516-0.745
						c0.217-0.5,0.479-1.155,0.795-1.969c0.309-0.811,0.688-1.761,1.124-2.854c0.434-1.089,0.936-2.203,1.499-3.32
						c0.498-1.069,1.249-2.203,2.246-3.427c1.001-1.212,2.25-2.354,3.746-3.415c1.5-1.056,3.23-1.949,5.195-2.666
						c1.968-0.716,4.201-1.077,6.697-1.077c4.621,0,8.256,0.934,10.909,2.809c2.655,1.867,4.649,4.291,5.992,7.255
						c1.343,2.964,2.203,6.281,2.578,9.925c0.376,3.652,0.561,7.259,0.561,10.817c0,0.745,0,1.842,0,3.276
						c0,1.441-0.062,3.013-0.184,4.733c-0.127,1.719-0.315,3.452-0.565,5.2c-0.248,1.744-0.626,3.354-1.122,4.823
						c-0.501,1.466-1.138,2.653-1.92,3.554c-0.78,0.905-1.765,1.359-2.95,1.359c-2.188,0-3.793-0.61-4.823-1.83
						c-1.029-1.216-1.543-2.821-1.543-4.819c0-3.308,0.201-6.583,0.608-9.834c0.403-3.243,0.61-6.494,0.61-9.736
						c0-1.499-0.047-3.243-0.144-5.245c-0.092-1.998-0.422-3.886-0.982-5.667c-0.561-1.777-1.421-3.275-2.573-4.5
						c-1.157-1.212-2.764-1.822-4.823-1.822c-2.123,0-4.078,0.594-5.853,1.785c-1.781,1.183-3.418,2.759-4.917,4.729
						c-1.498,1.966-2.841,4.16-4.028,6.592c-1.184,2.44-2.231,4.905-3.133,7.402c-0.909,2.502-1.658,4.905-2.248,7.214
						c-0.596,2.309-1.046,4.274-1.361,5.896c-0.125,0.811-0.235,1.592-0.326,2.346c-0.094,0.745-0.329,1.494-0.704,2.239
						c-0.375,0.885-0.95,1.675-1.732,2.391C729.136,347.389,728.247,347.745,727.248,347.745z"/>
				</g>
			</g>
			<g>
				<g>
					<path fill="#083332" d="M789.802,320.866c0-8.426,0.047-15.771,0.139-22.052c0.094-6.265,0.669-11.087,1.734-14.461
						c0.311-0.941,0.874-1.83,1.685-2.674c0.813-0.839,1.779-1.265,2.903-1.265c0.813,0,1.574,0.205,2.295,0.605
						c0.716,0.41,1.357,0.93,1.918,1.548c0.563,0.626,1.016,1.331,1.359,2.113c0.342,0.778,0.516,1.507,0.516,2.194
						c0,0.688-0.035,1.663-0.094,2.907c-0.063,1.253-0.113,2.498-0.142,3.746c-0.035,1.253-0.035,2.358,0,3.325
						c0.029,0.966,0.142,1.544,0.328,1.732c0.376,0.369,1.407,0.565,3.093,0.565c1.184,0,2.602-0.082,4.26-0.237
						c1.652-0.156,3.366-0.311,5.149-0.467c1.778-0.156,3.56-0.311,5.339-0.475c1.777-0.151,3.351-0.233,4.727-0.233
						c1.622,0,2.825,0.471,3.605,1.413c0.782,0.934,1.171,2.117,1.171,3.554c0,2.063-0.514,3.685-1.544,4.868
						c-1.029,1.187-2.641,1.781-4.823,1.781c-2.125,0-4.542,0.033-7.261,0.09c-2.713,0.061-5.135,0.098-7.255,0.098
						c-1.56,0-2.979-0.017-4.26-0.049c-1.281-0.028-2.201,0.238-2.762,0.794c-0.252,0.254-0.454,0.811-0.608,1.695
						c-0.158,0.868-0.251,1.834-0.281,2.895c-0.032,1.068-0.051,2.141-0.051,3.23c0,1.097,0,2.014,0,2.76
						c0,5.937,1.016,10.317,3.046,13.163c2.027,2.841,5.634,4.262,10.815,4.262c1.374,0,2.684-0.266,3.935-0.798
						c1.247-0.536,2.416-1.093,3.513-1.683c1.089-0.594,2.057-1.163,2.901-1.691c0.843-0.528,1.513-0.79,2.012-0.79
						c0.811,0,1.531,0.196,2.154,0.606c0.622,0.401,1.154,0.938,1.593,1.597c0.438,0.647,0.764,1.351,0.984,2.101
						c0.217,0.75,0.328,1.499,0.328,2.248c0,1.81-0.346,3.186-1.032,4.119c-0.69,0.938-1.81,1.81-3.372,2.62
						c-2.184,1.126-4.43,2.08-6.741,2.858c-2.311,0.786-4.714,1.171-7.21,1.171c-4.432,0-8.179-0.672-11.237-2.015
						c-3.061-1.343-5.542-3.284-7.446-5.851c-1.904-2.559-3.277-5.679-4.119-9.364C790.221,329.734,789.802,325.554,789.802,320.866
						z"/>
				</g>
			</g>
			<g>
				<g>
					<path fill="#083332" d="M879.978,320.866c0-8.426,0.045-15.771,0.144-22.052c0.092-6.265,0.669-11.087,1.731-14.461
						c0.312-0.941,0.87-1.83,1.683-2.674c0.813-0.839,1.779-1.265,2.903-1.265c0.813,0,1.574,0.205,2.293,0.605
						c0.719,0.41,1.361,0.93,1.924,1.548c0.56,0.626,1.012,1.331,1.355,2.113c0.344,0.778,0.514,1.507,0.514,2.194
						c0,0.688-0.028,1.663-0.09,2.907c-0.065,1.253-0.11,2.498-0.144,3.746c-0.03,1.253-0.03,2.358,0,3.325
						c0.033,0.966,0.144,1.544,0.33,1.732c0.372,0.369,1.402,0.565,3.089,0.565c1.184,0,2.606-0.082,4.26-0.237
						c1.652-0.156,3.372-0.311,5.151-0.467c1.779-0.156,3.558-0.311,5.337-0.475c1.779-0.151,3.355-0.233,4.727-0.233
						c1.626,0,2.827,0.471,3.609,1.413c0.78,0.934,1.169,2.117,1.169,3.554c0,2.063-0.516,3.685-1.543,4.868
						c-1.032,1.187-2.639,1.781-4.823,1.781c-2.121,0-4.541,0.033-7.257,0.09c-2.714,0.061-5.134,0.098-7.257,0.098
						c-1.561,0-2.985-0.017-4.258-0.049c-1.282-0.028-2.203,0.238-2.764,0.794c-0.25,0.254-0.455,0.811-0.61,1.695
						c-0.154,0.868-0.25,1.834-0.281,2.895c-0.033,1.068-0.047,2.141-0.047,3.23c0,1.097,0,2.014,0,2.76
						c0,5.937,1.016,10.317,3.044,13.163c2.029,2.841,5.632,4.262,10.815,4.262c1.372,0,2.687-0.266,3.933-0.798
						c1.247-0.536,2.418-1.093,3.511-1.683c1.091-0.594,2.063-1.163,2.905-1.691c0.842-0.528,1.509-0.79,2.013-0.79
						c0.811,0,1.527,0.196,2.153,0.606c0.625,0.401,1.155,0.938,1.591,1.597c0.436,0.647,0.764,1.351,0.984,2.101
						c0.219,0.75,0.328,1.499,0.328,2.248c0,1.81-0.344,3.186-1.03,4.119c-0.688,0.938-1.812,1.81-3.369,2.62
						c-2.19,1.126-4.437,2.08-6.744,2.858c-2.313,0.786-4.714,1.171-7.21,1.171c-4.436,0-8.18-0.672-11.236-2.015
						c-3.063-1.343-5.544-3.284-7.446-5.851c-1.908-2.559-3.28-5.679-4.121-9.364C880.401,329.734,879.978,325.554,879.978,320.866z
						"/>
				</g>
			</g>
			<g>
				<g>
					<path fill="#083332" d="M989.542,316.657c0,4.557-0.673,8.819-2.012,12.782c-1.343,3.963-3.264,7.431-5.759,10.396
						c-2.498,2.964-5.513,5.286-9.041,6.973c-3.527,1.691-7.439,2.53-11.75,2.53c-4.369,0-8.222-0.839-11.563-2.53
						c-3.341-1.687-6.154-3.996-8.431-6.928c-2.28-2.931-3.996-6.371-5.15-10.301c-1.157-3.935-1.734-8.115-1.734-12.549
						c0-4.495,0.625-8.737,1.877-12.729c1.245-4,3.071-7.493,5.478-10.49c2.401-3.005,5.38-5.372,8.942-7.124
						c3.558-1.744,7.646-2.621,12.267-2.621c4.684,0,8.721,0.843,12.127,2.53c3.402,1.687,6.193,3.996,8.377,6.932
						c2.187,2.928,3.795,6.383,4.828,10.347C989.028,307.838,989.542,312.104,989.542,316.657z M978.68,316.657
						c0-3.309-0.235-6.33-0.706-9.085c-0.463-2.744-1.31-5.13-2.526-7.161c-1.218-2.031-2.872-3.603-4.962-4.729
						c-2.095-1.126-4.731-1.691-7.913-1.691c-3.247,0-5.961,0.565-8.148,1.691c-2.182,1.126-3.935,2.698-5.242,4.729
						c-1.311,2.031-2.236,4.463-2.762,7.3c-0.532,2.846-0.797,5.981-0.797,9.413c0,3.431,0.217,6.542,0.653,9.318
						c0.436,2.78,1.247,5.134,2.436,7.067c1.183,1.941,2.809,3.419,4.873,4.447c2.06,1.036,4.68,1.547,7.863,1.547
						c3.371,0,6.162-0.512,8.383-1.547c2.215-1.028,3.978-2.506,5.288-4.447c1.31-1.933,2.229-4.315,2.762-7.165
						C978.414,323.511,978.68,320.28,978.68,316.657z"/>
				</g>
			</g>
			<path fill="#BE9648" d="M1099.103,296.148c0,0.938-0.063,1.888-0.188,2.862c-0.125,0.958-0.376,1.867-0.75,2.71
				c-0.376,0.844-0.921,1.531-1.642,2.056c-0.714,0.532-1.634,0.798-2.76,0.798c-0.814,0-1.547-0.217-2.203-0.651
				c-0.653-0.442-1.204-0.991-1.638-1.642c-0.438-0.651-0.766-1.372-0.983-2.149c-0.223-0.786-0.325-1.548-0.325-2.301
				c0-1.933-0.692-3.513-2.063-4.725c-1.374-1.22-3.044-2.17-5.012-2.858c-1.967-0.688-4.058-1.155-6.271-1.404
				c-2.219-0.25-4.135-0.373-5.759-0.373c-1.938,0-4.151,0.188-6.649,0.565c-2.501,0.373-4.868,0.999-7.118,1.867
				c-2.244,0.876-4.154,2.076-5.712,3.611c-1.56,1.523-2.344,3.415-2.344,5.658c0,2.195,0.768,3.857,2.299,5.012
				c1.527,1.155,3.523,2.047,5.994,2.674c2.463,0.618,5.29,1.077,8.471,1.355c3.184,0.278,6.414,0.606,9.696,0.979
				c3.275,0.381,6.506,0.905,9.687,1.593c3.186,0.688,6.009,1.781,8.478,3.275c2.467,1.502,4.463,3.489,5.992,5.953
				c1.529,2.465,2.295,5.634,2.295,9.499c0,4.438-0.891,8.07-2.67,10.916c-1.779,2.842-4.123,5.085-7.021,6.739
				c-2.903,1.654-6.181,2.792-9.835,3.415c-3.65,0.63-7.318,0.941-11.003,0.941c-2.309,0-4.762-0.106-7.347-0.328
				c-2.596-0.221-5.188-0.565-7.777-1.032s-5.102-1.105-7.538-1.924c-2.436-0.811-4.649-1.81-6.645-2.993
				c-1.439-0.872-2.481-1.765-3.137-2.674c-0.659-0.901-0.984-2.26-0.984-4.07c0-0.745,0.108-1.527,0.325-2.342
				c0.217-0.811,0.565-1.543,1.032-2.203c0.467-0.651,1.032-1.18,1.685-1.589c0.657-0.409,1.388-0.606,2.201-0.606
				c0.436,0,1.578,0.389,3.418,1.171c1.842,0.778,4.057,1.634,6.647,2.576c2.59,0.938,5.405,1.793,8.429,2.575
				c3.029,0.778,5.883,1.171,8.571,1.171c2.682,0,5.273-0.106,7.771-0.328c2.494-0.221,4.71-0.671,6.649-1.359
				c1.935-0.688,3.477-1.67,4.635-2.952c1.153-1.282,1.73-2.977,1.73-5.106c0-1.744-0.748-3.054-2.246-3.931
				c-1.5-0.876-3.482-1.547-5.949-2.014c-2.463-0.467-5.259-0.827-8.375-1.077c-3.128-0.25-6.325-0.594-9.603-1.027
				c-3.278-0.434-6.479-1.081-9.595-1.92c-3.126-0.843-5.916-2.092-8.383-3.747c-2.469-1.654-4.449-3.808-5.945-6.46
				c-1.5-2.653-2.25-6.035-2.25-10.163c0-3.996,0.985-7.394,2.952-10.203c1.965-2.809,4.479-5.105,7.538-6.886
				c3.058-1.777,6.46-3.087,10.207-3.931c3.746-0.843,7.427-1.265,11.048-1.265c3.183,0,6.522,0.25,10.023,0.749
				c3.495,0.5,6.723,1.433,9.691,2.809c2.962,1.376,5.413,3.251,7.35,5.622C1098.133,289.438,1099.103,292.468,1099.103,296.148z"/>
			<path fill="#BE9648" d="M1168.772,328.825c0,0.753,0.062,1.752,0.187,3.001c0.127,1.245,0.235,2.591,0.327,4.025
				c0.096,1.441,0.125,2.89,0.096,4.356c-0.035,1.466-0.188,2.796-0.469,3.98c-0.281,1.188-0.737,2.153-1.359,2.898
				c-0.625,0.753-1.529,1.13-2.712,1.13c-1.63,0-2.985-0.582-4.078-1.736c-1.091-1.155-1.634-2.817-1.634-5.012
				c0-2.432-0.098-4.021-0.282-4.774c-0.188-0.745-0.532-1.126-1.034-1.126c-0.436,0-0.947,0.692-1.543,2.063
				s-1.515,2.903-2.762,4.59c-1.249,1.687-2.969,3.21-5.151,4.585c-2.186,1.376-5.056,2.063-8.615,2.063
				c-3.933,0-7.443-0.626-10.534-1.871c-3.094-1.253-5.697-3.279-7.82-6.088c-2.123-2.809-3.73-6.478-4.823-11.002
				c-1.091-4.532-1.64-10.043-1.64-16.529c0-2.309-0.015-4.291-0.045-5.945c-0.035-1.654-0.066-3.157-0.093-4.504
				c-0.034-1.339-0.063-2.604-0.096-3.783c-0.029-1.191-0.047-2.44-0.047-3.75c0-1.057,0.029-2.326,0.098-3.796
				c0.06-1.461,0.278-2.854,0.651-4.164c0.376-1.31,0.982-2.436,1.826-3.374c0.843-0.934,2.016-1.4,3.513-1.4
				c1.621,0,2.839,0.451,3.652,1.359c0.811,0.901,1.371,1.982,1.687,3.227c0.246,1.06,0.371,2.141,0.371,3.234
				c0,1.097-0.063,2.604-0.184,4.537c-0.062,1.31-0.108,2.498-0.144,3.562c-0.032,1.064-0.043,2.154-0.043,3.275
				c0,1.126,0,2.342,0,3.652s0,2.809,0,4.496c0,9.171,1.292,16.124,3.888,20.832c2.586,4.717,5.941,7.075,10.062,7.075
				c2.811,0,5.153-0.803,7.024-2.383c1.875-1.597,3.419-3.66,4.639-6.187c1.218-2.526,2.149-5.384,2.805-8.569
				c0.659-3.177,1.157-6.346,1.5-9.499c0.344-3.152,0.575-6.17,0.705-9.044c0.125-2.87,0.245-5.27,0.372-7.21
				c0.062-0.868,0.187-1.981,0.377-3.325c0.187-1.339,0.514-2.632,0.98-3.881c0.469-1.253,1.095-2.326,1.873-3.234
				c0.782-0.901,1.793-1.359,3.044-1.359c0.811,0,1.513,0.205,2.106,0.614c0.594,0.401,1.093,0.917,1.499,1.539
				c0.405,0.631,0.717,1.331,0.938,2.109c0.217,0.782,0.354,1.515,0.418,2.203c0.44,6.678,0.622,13.188,0.564,19.526
				C1168.803,315.552,1168.772,322.086,1168.772,328.825z"/>
			<path fill="#BE9648" d="M1213.348,283.882c3.619,0,6.85,0.643,9.689,1.92c2.843,1.277,5.337,2.919,7.492,4.914
				c2.156,2.002,3.963,4.213,5.432,6.649c1.465,2.437,2.637,4.84,3.513,7.21c0.37,1.003,0.733,2.141,1.075,3.418
				c0.344,1.286,0.514,2.449,0.514,3.513c0,1.441-0.39,2.682-1.167,3.742c-0.782,1.064-1.984,1.597-3.607,1.597
				c-1.31,0-2.436-0.548-3.37-1.638c-0.938-1.097-1.844-2.473-2.716-4.123c-0.875-1.658-1.796-3.431-2.762-5.335
				c-0.971-1.908-2.108-3.685-3.417-5.339c-1.313-1.654-2.889-3.026-4.731-4.123c-1.842-1.085-4.072-1.638-6.696-1.638
				c-2.184,0-4.213,0.438-6.084,1.314c-1.877,0.872-3.517,2.195-4.917,3.976c-1.406,1.781-2.502,4-3.277,6.646
				c-0.782,2.657-1.171,5.765-1.171,9.318c0,4.119,0.421,7.526,1.263,10.211c0.842,2.682,2.041,4.84,3.609,6.461
				c1.554,1.622,3.396,2.76,5.523,3.415c2.121,0.659,4.493,0.983,7.114,0.983c2.934,0,5.461-0.229,7.586-0.696
				c2.121-0.467,4.089-1.048,5.896-1.736c1.812-0.688,3.563-1.433,5.245-2.244c1.687-0.811,3.499-1.597,5.431-2.342
				c0.749-0.315,1.437-0.271,2.06,0.139c0.622,0.401,1.156,0.966,1.595,1.687c0.436,0.721,0.764,1.515,0.984,2.387
				c0.215,0.872,0.326,1.654,0.326,2.342c0,1.625-0.561,3.075-1.685,4.352c-1.122,1.286-2.575,2.403-4.356,3.37
				c-1.776,0.966-3.789,1.781-6.035,2.436c-2.25,0.655-4.467,1.171-6.651,1.548c-2.184,0.376-4.26,0.655-6.228,0.839
				c-1.965,0.184-3.575,0.282-4.821,0.282c-8.991,0-15.999-2.624-21.027-7.869c-5.026-5.241-7.536-13.102-7.536-23.6
				c0-5.487,0.749-10.343,2.248-14.556c1.496-4.213,3.509-7.759,6.037-10.625c2.528-2.878,5.496-5.061,8.896-6.559
				C1206.024,284.631,1209.599,283.882,1213.348,283.882z"/>
			<path fill="#BE9648" d="M1285.265,283.882c3.615,0,6.848,0.643,9.689,1.92c2.841,1.277,5.339,2.919,7.49,4.914
				c2.156,2.002,3.968,4.213,5.434,6.649c1.468,2.437,2.635,4.84,3.511,7.21c0.375,1.003,0.737,2.141,1.081,3.418
				c0.336,1.286,0.514,2.449,0.514,3.513c0,1.441-0.395,2.682-1.171,3.742c-0.786,1.064-1.986,1.597-3.607,1.597
				c-1.314,0-2.434-0.548-3.371-1.638c-0.936-1.097-1.841-2.473-2.717-4.123c-0.872-1.658-1.793-3.431-2.762-5.335
				c-0.968-1.908-2.106-3.685-3.419-5.339c-1.308-1.654-2.889-3.026-4.729-4.123c-1.843-1.085-4.072-1.638-6.692-1.638
				c-2.188,0-4.213,0.438-6.088,1.314c-1.871,0.872-3.511,2.195-4.917,3.976c-1.4,1.781-2.495,4-3.277,6.646
				c-0.782,2.657-1.171,5.765-1.171,9.318c0,4.119,0.422,7.526,1.267,10.211c0.841,2.682,2.043,4.84,3.603,6.461
				c1.56,1.622,3.404,2.76,5.523,3.415c2.125,0.659,4.497,0.983,7.12,0.983c2.934,0,5.462-0.229,7.583-0.696
				c2.123-0.467,4.09-1.048,5.902-1.736c1.808-0.688,3.558-1.433,5.245-2.244c1.685-0.811,3.492-1.597,5.431-2.342
				c0.748-0.315,1.434-0.271,2.058,0.139c0.625,0.401,1.157,0.966,1.591,1.687c0.44,0.721,0.768,1.515,0.986,2.387
				c0.215,0.872,0.328,1.654,0.328,2.342c0,1.625-0.565,3.075-1.685,4.352c-1.128,1.286-2.576,2.403-4.358,3.37
				c-1.777,0.966-3.792,1.781-6.037,2.436c-2.248,0.655-4.467,1.171-6.651,1.548c-2.184,0.376-4.262,0.655-6.228,0.839
				c-1.961,0.184-3.574,0.282-4.819,0.282c-8.991,0-16.001-2.624-21.024-7.869c-5.024-5.241-7.536-13.102-7.536-23.6
				c0-5.487,0.75-10.343,2.246-14.556c1.5-4.213,3.513-7.759,6.039-10.625c2.53-2.878,5.493-5.061,8.895-6.559
				S1281.515,283.882,1285.265,283.882z"/>
			<path fill="#BE9648" d="M1381.713,305.512c0,3.247-0.624,6.272-1.871,9.089c-1.25,2.801-2.984,5.253-5.197,7.345
				c-2.217,2.092-4.866,3.734-7.96,4.917c-3.089,1.191-6.477,1.781-10.162,1.781c-2.43,0-4.54-0.238-6.319-0.705
				c-1.777-0.467-3.309-0.982-4.586-1.547c-1.281-0.557-2.311-1.073-3.091-1.54c-0.784-0.475-1.393-0.705-1.826-0.705
				c-0.44,0-0.657,0.373-0.657,1.122c0,1.499,0.532,2.964,1.595,4.405c1.059,1.433,2.481,2.743,4.26,3.931
				c1.777,1.188,3.82,2.138,6.131,2.854c2.312,0.725,4.745,1.077,7.306,1.077c2.807,0,5.21-0.328,7.21-0.982
				c1.998-0.655,3.746-1.359,5.245-2.109c1.499-0.749,2.809-1.454,3.928-2.108c1.128-0.651,2.187-0.979,3.188-0.979
				c1.309,0,2.543,0.496,3.697,1.495c1.157,0.999,1.734,2.28,1.734,3.84c0,1.687-0.502,3.169-1.497,4.455
				c-1.003,1.277-2.311,2.383-3.935,3.316c-1.625,0.938-3.449,1.72-5.48,2.342c-2.029,0.623-4.07,1.122-6.129,1.499
				c-2.063,0.377-4.06,0.639-5.994,0.803c-1.938,0.151-3.591,0.229-4.964,0.229c-4.248,0-8.074-0.671-11.471-2.014
				c-3.406-1.343-6.308-3.325-8.709-5.945c-2.407-2.621-4.248-5.88-5.529-9.786c-1.277-3.898-1.916-8.418-1.916-13.532
				c0-5.556,0.715-10.453,2.149-14.703c1.438-4.242,3.421-7.82,5.949-10.719c2.526-2.907,5.523-5.11,8.989-6.608
				s7.227-2.244,11.286-2.244c3.306,0,6.465,0.5,9.458,1.499c2.997,0.999,5.617,2.44,7.863,4.307
				c2.248,1.871,4.026,4.152,5.341,6.837C1381.06,299.117,1381.713,302.143,1381.713,305.512z M1341.638,307.387
				c0,0.999,0.42,2.154,1.263,3.464s1.967,2.547,3.368,3.702c1.406,1.154,2.999,2.117,4.778,2.898
				c1.781,0.778,3.604,1.175,5.476,1.175c2.187,0,4.168-0.299,5.947-0.893s3.311-1.45,4.594-2.576
				c1.275-1.122,2.274-2.448,2.995-3.979c0.715-1.531,1.075-3.23,1.075-5.105c0-1.871-0.344-3.558-1.032-5.057
				c-0.684-1.499-1.638-2.776-2.857-3.836c-1.21-1.061-2.619-1.887-4.211-2.485c-1.59-0.589-3.294-0.884-5.102-0.884
				c-2.563,0-4.856,0.434-6.884,1.306c-2.031,0.88-3.747,1.969-5.149,3.28c-1.404,1.31-2.469,2.759-3.186,4.356
				C1341.992,304.341,1341.638,305.889,1341.638,307.387z"/>
			<path fill="#BE9648" d="M1429.095,281.069c2.185,0,4.731,0.319,7.636,0.942c2.903,0.622,5.665,1.593,8.285,2.898
				c2.623,1.314,4.838,2.969,6.651,4.962c1.808,2.002,2.715,4.373,2.715,7.12c0,0.688-0.106,1.421-0.326,2.203
				c-0.223,0.774-0.548,1.479-0.985,2.109c-0.44,0.623-0.97,1.138-1.593,1.54c-0.624,0.409-1.343,0.61-2.151,0.61
				c-0.811,0-1.47-0.283-1.969-0.839c-0.5-0.565-1.028-1.281-1.59-2.162c-0.563-0.868-1.221-1.806-1.968-2.801
				c-0.751-0.999-1.734-1.94-2.948-2.817c-1.218-0.868-2.778-1.588-4.684-2.146c-1.906-0.565-4.26-0.843-7.073-0.843
				c-1.744,0-3.744,0.262-5.994,0.794c-2.243,0.524-4.366,1.326-6.362,2.383c-2.002,1.064-3.671,2.424-5.01,4.078
				c-1.343,1.654-2.014,3.603-2.014,5.854c0,1.118,0.295,2.039,0.886,2.756c0.596,0.721,1.376,1.298,2.344,1.732
				c0.968,0.442,2.062,0.749,3.278,0.941c1.22,0.188,2.448,0.279,3.701,0.279c2.182,0,4.397-0.074,6.645-0.229
				c2.248-0.16,4.465-0.242,6.651-0.242c3.304,0,6.35,0.274,9.13,0.798c2.774,0.532,5.179,1.499,7.21,2.907
				c2.029,1.4,3.615,3.292,4.776,5.662c1.154,2.379,1.731,5.425,1.731,9.176c0,4.185-0.907,7.747-2.716,10.678
				c-1.812,2.932-4.088,5.307-6.837,7.116c-2.745,1.81-5.788,3.12-9.128,3.931c-3.343,0.814-6.567,1.22-9.691,1.22
				c-2.688,0-5.421-0.266-8.195-0.794c-2.778-0.536-5.417-1.282-7.914-2.252c-2.498-0.966-4.776-2.104-6.836-3.419
				c-2.062-1.306-3.744-2.747-5.059-4.303c-1.059-1.253-1.729-2.408-2.01-3.464c-0.283-1.064-0.108-2.437,0.514-4.119
				c0.376-1.13,1.076-2.19,2.108-3.186c1.029-0.999,2.166-1.498,3.419-1.498c0.497,0,0.966,0.09,1.404,0.278
				c1.061,0.376,2.119,1.126,3.183,2.252c1.058,1.122,2.356,2.276,3.885,3.464c1.529,1.183,3.434,2.243,5.714,3.181
				c2.276,0.938,5.13,1.404,8.569,1.404c1.307,0,3.069-0.106,5.288-0.328c2.215-0.221,4.385-0.704,6.508-1.449
				c2.121-0.753,3.949-1.81,5.479-3.186c1.531-1.376,2.293-3.218,2.293-5.527c0-1.687-0.437-2.956-1.311-3.841
				c-0.874-0.876-1.965-1.523-3.275-1.965c-1.31-0.434-2.719-0.684-4.215-0.75c-1.501-0.062-2.844-0.094-4.025-0.094
				c-2.187,0-4.404,0.065-6.651,0.188s-4.463,0.188-6.645,0.188c-2.813,0-5.531-0.217-8.15-0.655
				c-2.623-0.438-4.95-1.265-6.975-2.481c-2.031-1.22-3.638-2.891-4.823-5.012c-1.188-2.121-1.781-4.872-1.781-8.242
				c0-4.058,0.919-7.645,2.759-10.764c1.842-3.128,4.234-5.749,7.165-7.87c2.936-2.121,6.244-3.709,9.927-4.774
				C1421.729,281.601,1425.414,281.069,1429.095,281.069z"/>
			<path fill="#BE9648" d="M1501.389,281.069c2.185,0,4.729,0.319,7.632,0.942c2.905,0.622,5.669,1.593,8.285,2.898
				c2.626,1.314,4.842,2.969,6.651,4.962c1.81,2.002,2.717,4.373,2.717,7.12c0,0.688-0.106,1.421-0.326,2.203
				c-0.223,0.774-0.546,1.479-0.983,2.109c-0.44,0.623-0.97,1.138-1.595,1.54c-0.624,0.409-1.345,0.61-2.151,0.61
				c-0.811,0-1.47-0.283-1.967-0.839c-0.501-0.565-1.03-1.281-1.595-2.162c-0.559-0.868-1.218-1.806-1.967-2.801
				c-0.747-0.999-1.732-1.94-2.946-2.817c-1.218-0.868-2.778-1.588-4.682-2.146c-1.906-0.565-4.26-0.843-7.073-0.843
				c-1.746,0-3.746,0.262-5.992,0.794c-2.248,0.524-4.371,1.326-6.369,2.383c-1.998,1.064-3.667,2.424-5.008,4.078
				c-1.345,1.654-2.012,3.603-2.012,5.854c0,1.118,0.292,2.039,0.886,2.756c0.594,0.721,1.374,1.298,2.346,1.732
				c0.962,0.442,2.058,0.749,3.273,0.941c1.218,0.188,2.451,0.279,3.7,0.279c2.186,0,4.399-0.074,6.646-0.229
				c2.248-0.16,4.465-0.242,6.649-0.242c3.307,0,6.353,0.274,9.133,0.798c2.773,0.532,5.181,1.499,7.21,2.907
				c2.026,1.4,3.615,3.292,4.776,5.662c1.154,2.379,1.733,5.425,1.733,9.176c0,4.185-0.909,7.747-2.719,10.678
				c-1.81,2.932-4.088,5.307-6.837,7.116c-2.746,1.81-5.788,3.12-9.127,3.931c-3.345,0.814-6.571,1.22-9.695,1.22
				c-2.686,0-5.417-0.266-8.192-0.794c-2.778-0.536-5.415-1.282-7.913-2.252c-2.5-0.966-4.776-2.104-6.835-3.419
				c-2.063-1.306-3.746-2.747-5.059-4.303c-1.059-1.253-1.734-2.408-2.015-3.464c-0.278-1.064-0.108-2.437,0.516-4.119
				c0.375-1.13,1.079-2.19,2.111-3.186c1.027-0.999,2.166-1.498,3.417-1.498c0.5,0,0.966,0.09,1.402,0.278
				c1.064,0.376,2.123,1.126,3.183,2.252c1.059,1.122,2.358,2.276,3.89,3.464c1.527,1.183,3.434,2.243,5.712,3.181
				c2.276,0.938,5.13,1.404,8.567,1.404c1.313,0,3.071-0.106,5.29-0.328c2.215-0.221,4.387-0.704,6.508-1.449
				c2.123-0.753,3.949-1.81,5.479-3.186c1.533-1.376,2.295-3.218,2.295-5.527c0-1.687-0.437-2.956-1.311-3.841
				c-0.874-0.876-1.967-1.523-3.277-1.965c-1.311-0.434-2.717-0.684-4.215-0.75c-1.499-0.062-2.841-0.094-4.027-0.094
				c-2.184,0-4.401,0.065-6.649,0.188c-2.248,0.123-4.46,0.188-6.646,0.188c-2.809,0-5.528-0.217-8.148-0.655
				c-2.622-0.438-4.95-1.265-6.977-2.481c-2.028-1.22-3.634-2.891-4.819-5.012c-1.189-2.121-1.783-4.872-1.783-8.242
				c0-4.058,0.919-7.645,2.764-10.764c1.84-3.128,4.229-5.749,7.163-7.87c2.932-2.121,6.242-3.709,9.927-4.774
				C1494.023,281.601,1497.704,281.069,1501.389,281.069z"/>
		</g>
	</g>
	<g>
		<path fill="#083332" d="M456.114,146.971c0-58.315,46.133-102.195,102.166-102.195c28.598,0,52.379,11.321,69.915,29.447
			c1.994,1.99,1.436,3.963,0,5.65l-22.629,24.067c-1.716,1.973-3.972,1.973-5.939,0.565c-11.065-9.63-24.629-15.849-41.064-15.849
			c-32.538,0-57.163,24.627-57.163,58.315c0,33.381,24.625,58.009,57.163,58.009c16.435,0,30-6.219,41.064-15.845
			c1.967-1.404,4.223-1.404,5.939,0.565l22.629,24.063c1.436,1.683,1.994,3.689,0,5.659c-17.536,18.125-41.317,29.434-69.915,29.434
			C502.247,248.854,456.114,205.266,456.114,146.971z"/>
		<path fill="#083332" d="M801.768,240.081l-43.935-68.454c25.217-9.659,37.318-31.412,37.318-59.528
			c0-38.474-22.627-64.981-70.472-64.981h-60.823c-2.59,0-4.312,1.572-4.312,4.192v35.428h63.977
			c15.141,0,28.965,4.762,28.965,25.36c0,20.468-13.825,25.221-28.965,25.221h-63.977v103.604c0,2.616,1.722,4.192,4.312,4.192
			h36.337c2.449,0,4.162-1.576,4.162-4.192V176.95h10.244l40.473,65.444c1.014,1.99,2.762,2.723,5.069,2.723h38.753
			C802.359,245.116,803.653,243.229,801.768,240.081z"/>
		<path fill="#083332" d="M831.15,240.924V51.286c0-2.539,1.683-4.229,4.25-4.229H937.6c2.526,0,4.217,1.691,4.217,4.229v31.125
			c0,2.559-1.691,4.274-4.217,4.274h-61.727v38.757h58.033c2.532,0,4.224,1.719,4.224,4.25v31.125c0,2.563-1.691,4.25-4.224,4.25
			h-58.033v40.477h61.417c2.553,0,4.526,1.72,4.526,4.25v31.129c0,2.559-1.974,4.246-4.526,4.246H835.4
			C832.833,245.17,831.15,243.483,831.15,240.924z"/>
		<path fill="#BE9648" d="M976.068,240.924V51.286c0-2.539,1.719-4.229,4.25-4.229h61.446c65.936,0,101.316,43.568,101.316,99.046
			c0,55.503-35.381,99.067-101.316,99.067h-61.446C977.787,245.17,976.068,243.483,976.068,240.924z M1041.166,205.544
			c37.101,0,56.353-20.947,56.353-59.442c0-38.474-19.252-59.417-56.353-59.417h-20.374v118.859H1041.166z"/>
		<path fill="#083332" d="M1173.084,240.924V51.286c0-2.539,1.688-4.229,4.25-4.229h102.164c2.561,0,4.252,1.691,4.252,4.229v31.125
			c0,2.559-1.691,4.274-4.252,4.274h-61.686v38.757h57.998c2.567,0,4.256,1.719,4.256,4.25v31.125c0,2.563-1.689,4.25-4.256,4.25
			h-57.998v40.477h61.407c2.561,0,4.53,1.72,4.53,4.25v31.129c0,2.559-1.97,4.246-4.53,4.246h-101.886
			C1174.772,245.17,1173.084,243.483,1173.084,240.924z"/>
		<path fill="#083332" d="M1428.389,242.361l-65.663-122.568v121.131c0,2.559-1.72,4.246-4.248,4.246h-36.251
			c-2.534,0-4.226-1.687-4.226-4.246V51.286c0-2.539,1.691-4.229,4.226-4.229h42.186c2.281,0,3.971,0.843,5.097,2.813
			l65.659,122.573V51.286c0-2.539,1.72-4.229,4.256-4.229h36.221c2.557,0,4.25,1.691,4.25,4.229v189.638
			c0,2.559-1.693,4.246-4.25,4.246h-42.167C1431.23,245.17,1429.513,244.326,1428.389,242.361z"/>
		<path fill="#083332" d="M1510.208,240.924v-32.538c0-1.998,0.53-3.407,1.409-5.098l82.069-116.603h-76.415
			c-2.567,0-4.252-1.715-4.252-4.274V51.286c0-2.539,1.685-4.229,4.252-4.229h117.453c2.557,0,4.528,1.691,4.528,4.229V83.84
			c0,1.978-0.842,3.411-1.691,5.094l-82.067,116.611h82.067c2.563,0,4.537,1.72,4.537,4.25v31.129c0,2.559-1.974,4.246-4.537,4.246
			h-123.135C1511.895,245.17,1510.208,243.483,1510.208,240.924z"/>
	</g>
	<path fill="#BE9648" d="M369.883,200.275v146.712H258.157c-25.238,0-34.173,26.061-34.173,32.722H197.37
		c0-6.662-8.914-32.722-34.178-32.722H51.447V200.275h26.611v120.099h85.134c21.557,0,37.392,10.801,47.482,24.083
		c10.095-13.282,25.925-24.083,47.482-24.083h85.134V200.275H369.883z"/>
	<path fill="#083332" d="M210.675,0L0,132.092l101.482,63.659v105.491h218.389V195.734l101.438-63.643L210.675,0z M50.08,132.092
		L210.675,31.388L371.23,132.092L210.675,232.829L50.08,132.092z M293.258,274.633H128.096v-62.21l82.579,51.794l82.583-51.794
		V274.633z"/>
	<path fill="#BE9648" d="M210.636,80.454c-44.307,0-83.604,21.773-107.827,55.151l22.574,14.154
		c19.458-25.905,50.434-42.691,85.252-42.691c34.839,0,65.825,16.795,85.289,42.704l22.574-14.158
		C294.267,102.228,254.957,80.454,210.636,80.454z"/>
	<path fill="#BE9648" d="M210.636,128.706c-27.101,0-51.266,12.778-66.826,32.611l22.708,14.236
		c10.705-12.377,26.507-20.239,44.119-20.239c17.632,0,33.447,7.87,44.157,20.259l22.709-14.245
		C261.934,141.493,237.757,128.706,210.636,128.706z"/>
	<path fill="#BE9648" d="M185.197,187.268l25.481,15.976l25.44-15.952c-6.612-6.387-15.587-10.334-25.483-10.334
		C200.76,176.958,191.8,180.896,185.197,187.268z"/>
</g>
</svg>
