<svg width="60" height="60" viewBox="0 0 60 60" fill="none" xmlns="http://www.w3.org/2000/svg">
<path d="M20.4793 53.9489C21.4197 55.3417 27.7498 52.7081 34.6154 48.0652C41.4829 43.4224 46.2858 38.5305 45.3434 37.1377C44.401 35.7448 38.0728 38.3804 31.2053 43.0233C24.3398 47.6642 19.5369 52.558 20.4793 53.9489Z" fill="#150958"/>
<path d="M44.6044 32.8781C45.0806 35.729 47.7794 37.6533 50.6303 37.1752C53.4812 36.6991 55.4036 34.0003 54.9275 31.1493C54.4513 28.2984 51.7525 26.376 48.9016 26.8522C46.0526 27.3303 44.1283 30.0271 44.6044 32.8781Z" fill="#150958"/>
<path d="M42.9865 33.1586C42.9232 31.8033 42.3068 31.0565 42.1508 30.8352C42.1448 30.8273 42.1409 30.8253 42.1409 30.8253C39.8807 27.9171 33.3411 25.1985 25.381 24.1514C24.8259 24.0763 24.2766 24.0151 23.7333 23.9617C17.7746 16.5371 15.1292 8.98004 17.8181 6.6744C20.6611 4.24034 28.394 8.60268 35.0876 16.4166C40.59 22.8455 43.6424 29.6043 42.9865 33.1586Z" fill="#ED1C24"/>
<path d="M41.9751 35.0494C39.3612 37.5466 32.0057 38.6985 23.6129 37.5941C13.4085 36.2526 5.53532 32.1569 6.02134 28.4426C6.48366 24.9358 14.258 23.0253 23.7315 23.9617C24.0713 24.3885 24.4249 24.8133 24.7885 25.238C29.6329 30.8925 35.0166 34.7392 38.7013 35.5117C38.7013 35.5117 38.7053 35.5117 38.7073 35.5136C39.5114 35.6816 40.2364 35.7033 40.8548 35.567C40.9477 35.5472 41.0386 35.5215 41.1334 35.4899C41.574 35.3418 41.9751 35.0494 41.9751 35.0494Z" fill="#0082C6"/>
</svg>
