<svg width="29" height="28" viewBox="0 0 29 28" fill="none" xmlns="http://www.w3.org/2000/svg">
<path d="M22.2997 4.64797H21.1517V2.32397H18.7997V4.64797H9.50369V2.32397H7.17969V4.64797H6.00369C5.36902 4.64797 4.82302 4.87664 4.36569 5.33397C3.90835 5.79131 3.67969 6.34664 3.67969 6.99997V23.296C3.67969 23.9306 3.90369 24.4766 4.35169 24.934C4.79969 25.3913 5.35035 25.62 6.00369 25.62H22.2997C22.953 25.62 23.5037 25.3913 23.9517 24.934C24.3997 24.4766 24.6237 23.9306 24.6237 23.296V6.99997C24.6237 6.34664 24.395 5.79131 23.9377 5.33397C23.4804 4.87664 22.9344 4.64797 22.2997 4.64797ZM22.2997 23.296H6.00369V10.472H22.2997V23.296ZM8.32769 12.796H14.1517V18.62H8.32769V12.796Z" fill="white"/>
</svg>
