<svg width="125" height="34" viewBox="0 0 125 34" fill="none" xmlns="http://www.w3.org/2000/svg">
<path d="M9.9499 32.9491C10.5961 33.9062 14.946 32.0965 19.6638 28.906C24.383 25.7156 27.6834 22.3541 27.0358 21.3969C26.3882 20.4398 22.0397 22.2509 17.3205 25.4413C12.6027 28.6304 9.3023 31.9933 9.9499 32.9491Z" fill="#150958"/>
<path d="M26.528 18.4698C26.8552 20.4289 28.7097 21.7513 30.6688 21.4227C32.6279 21.0955 33.9489 19.241 33.6217 17.2819C33.2945 15.3228 31.4399 14.0018 29.4809 14.329C27.5231 14.6576 26.2008 16.5108 26.528 18.4698Z" fill="#150958"/>
<path d="M25.4161 18.6626C25.3727 17.7313 24.9491 17.2181 24.8418 17.066C24.8378 17.0606 24.835 17.0592 24.835 17.0592C23.2819 15.0608 18.7881 13.1927 13.3182 12.4731C12.9367 12.4215 12.5592 12.3795 12.1859 12.3428C8.09124 7.24078 6.27336 2.0478 8.12111 0.463428C10.0748 -1.20919 15.3886 1.78849 19.9883 7.15796C23.7693 11.5757 25.8668 16.2202 25.4161 18.6626Z" fill="#ED1C24"/>
<path d="M25.4065 18.759C25.393 18.8649 25.3699 18.9667 25.3373 19.0672C25.2816 19.2274 25.2124 19.3754 25.1282 19.5084C25.1146 19.5288 25.1011 19.5492 25.0875 19.5709C24.9992 19.6999 24.8974 19.8139 24.7793 19.9144C22.8256 21.5883 17.5118 18.5907 12.9121 13.2198C12.6623 12.9279 12.4193 12.636 12.1844 12.3428C12.5578 12.3794 12.9366 12.4229 13.3181 12.4731C20.3289 13.3936 25.7419 16.208 25.4065 18.759Z" fill="#150958"/>
<path d="M24.721 19.9619C22.9249 21.6779 17.8704 22.4695 12.1031 21.7105C5.09089 20.7887 -0.319313 17.9743 0.0146672 15.4219C0.332355 13.0121 5.67468 11.6993 12.1846 12.3428C12.4181 12.636 12.6611 12.9279 12.9109 13.2198C16.2398 17.1054 19.9394 19.7487 22.4714 20.2796C22.4714 20.2796 22.4741 20.2796 22.4755 20.2809C23.0281 20.3963 23.5263 20.4113 23.9513 20.3176C24.0151 20.304 24.0775 20.2864 24.1427 20.2646C24.4454 20.1628 24.721 19.9619 24.721 19.9619Z" fill="#0082C6"/>
<path d="M69.655 18.2282C69.5478 15.7559 67.5059 13.8185 65.0065 13.8185C64.2666 13.8185 63.5511 13.991 62.8777 14.3317C62.1867 14.6806 61.6205 15.187 61.1535 15.874C60.2697 14.5788 58.8889 13.8389 57.3426 13.8389C56.9041 13.8389 56.4547 13.8973 56.0067 14.014C54.0693 14.5177 52.7605 16.1836 52.6709 18.2567C52.6302 19.2016 52.6302 20.1601 52.6302 21.0887C52.6302 21.4308 52.6302 21.7716 52.6288 22.1124L52.6261 22.4287C52.6221 22.9215 52.6166 23.4306 52.6492 23.933C52.6967 24.6742 53.1814 25.1372 53.9471 25.1711C54.8961 25.2132 55.4405 24.6539 55.446 23.6506C55.45 22.965 55.4473 22.2794 55.4446 21.5938C55.4405 20.414 55.4365 19.1948 55.465 17.9987C55.4826 17.2751 55.5953 16.5759 55.7922 15.9772C56.0583 15.168 56.6868 14.7132 57.5639 14.6983H57.606C58.3839 14.6983 58.9813 15.0811 59.2867 15.7776C59.542 16.3587 59.6791 16.88 59.6954 17.3253C59.7375 18.5078 59.7347 19.7134 59.7334 20.8796C59.7334 21.3874 59.732 21.8965 59.7348 22.4043V22.5455C59.7375 23.0152 59.7388 23.5026 59.7646 23.9818C59.7904 24.4937 60.0782 24.8847 60.5738 25.0815C60.7761 25.1616 60.9811 25.2024 61.182 25.2024C61.9735 25.2024 62.5505 24.5914 62.5532 23.7483C62.5559 23.1048 62.5532 22.4626 62.5505 21.8191C62.5451 20.6298 62.5396 19.3985 62.5722 18.1915C62.5926 17.4027 62.7121 16.6356 62.9171 15.9745C63.1601 15.1884 63.7737 14.7363 64.6453 14.7037C65.4165 14.6766 66.0111 15.0255 66.413 15.7491C66.804 16.4537 66.8597 17.2412 66.8624 17.9879C66.8651 19.1812 66.8651 20.3746 66.8651 21.568C66.8651 22.2604 66.8637 22.9514 66.8651 23.6438C66.8664 24.6145 67.3552 25.1576 68.2431 25.1739H68.2825C69.1744 25.1739 69.689 24.6376 69.6931 23.7035C69.6944 23.375 69.6971 23.0478 69.6998 22.7192C69.7094 21.2476 69.7189 19.7243 69.655 18.2282Z" fill="#150958"/>
<path d="M74.241 13.9502C74.1106 13.9204 73.9816 13.9054 73.8554 13.9054C73.0503 13.9054 72.4828 14.5001 72.4733 15.354L72.4706 23.6682C72.476 24.6376 72.9743 25.1725 73.8744 25.1739H73.8785C74.7609 25.1739 75.2918 24.6145 75.3013 23.6764V15.4572C75.2986 14.644 74.9225 14.1091 74.241 13.9502Z" fill="#150958"/>
<path d="M73.8852 10.009C73.0258 10.009 72.3267 10.7082 72.3267 11.5676C72.3267 12.427 73.0258 13.1262 73.8852 13.1262C74.7446 13.1262 75.4438 12.427 75.4438 11.5676C75.4438 10.7082 74.7446 10.009 73.8852 10.009Z" fill="#ED1C24"/>
<path d="M40.8471 29.4464H39.408V28.6685H43.1415V29.4464H41.7024V33.2057H40.8471V29.4464Z" fill="#150958"/>
<path d="M50.3235 30.9629C50.3099 32.1359 49.5917 33.3089 47.9965 33.3089C46.4026 33.3089 45.6627 32.1617 45.6627 30.9683C45.6627 29.7749 46.4271 28.5761 47.9965 28.5761C49.5592 28.5775 50.3371 29.7763 50.3235 30.9629ZM46.5058 30.9819C46.5248 31.7272 46.9267 32.5242 47.9965 32.5242C49.0663 32.5242 49.4682 31.7204 49.4804 30.9751C49.4926 30.2107 49.065 29.3541 47.9965 29.3541C46.928 29.3541 46.4868 30.2175 46.5058 30.9819Z" fill="#150958"/>
<path d="M57.1361 28.6739V31.2738C57.1361 32.6151 56.3134 33.3021 55.1716 33.3021C54.0828 33.3021 53.1555 32.6409 53.1555 31.2738V28.6739H54.004V31.2738C54.004 32.0911 54.4711 32.5241 55.177 32.5241C55.883 32.5241 56.2849 32.0517 56.2849 31.2738V28.6739H57.1361Z" fill="#150958"/>
<path d="M64.2026 33.2057H63.1857L61.8633 31.6892H61.0406V33.2057H60.1853V28.6617C60.9049 28.6617 61.6244 28.6685 62.3439 28.6685C63.4138 28.6752 63.9772 29.388 63.9772 30.1727C63.9772 30.7945 63.6921 31.4245 62.83 31.5982L64.2039 33.1473V33.2057H64.2026ZM61.0393 29.4654V30.9181H62.3426C62.887 30.9181 63.1205 30.5556 63.1205 30.1917C63.1205 29.8292 62.8802 29.4654 62.3426 29.4654H61.0393Z" fill="#150958"/>
<path d="M69.758 29.764C69.6019 29.5047 69.1742 29.259 68.6814 29.259C68.046 29.259 67.7419 29.5251 67.7419 29.8618C67.7419 30.2569 68.2089 30.3668 68.7533 30.432C69.6996 30.5488 70.5807 30.7945 70.5807 31.8779C70.5807 32.8893 69.686 33.3238 68.6746 33.3238C67.7473 33.3238 67.0346 33.0387 66.6979 32.2092L67.4106 31.8399C67.6116 32.3395 68.137 32.5594 68.6882 32.5594C69.2258 32.5594 69.7322 32.3707 69.7322 31.8792C69.7322 31.4516 69.2855 31.2765 68.6827 31.2113C67.7555 31.1013 66.9002 30.8542 66.9002 29.8374C66.9002 28.9033 67.8206 28.5218 68.657 28.515C69.3629 28.515 70.0961 28.7159 70.4395 29.4165L69.758 29.764Z" fill="#150958"/>
<path d="M78.8517 31.8833C78.8517 32.1494 78.9684 32.3762 79.2603 32.3762V33.2261C78.9236 33.2261 78.5476 33.1487 78.405 32.6301C78.1064 33.1161 77.5877 33.2654 77.1085 33.2654C76.1174 33.2654 75.3137 32.9477 75.3069 31.8263C75.3069 31.4435 75.5852 31.0226 76.0074 30.8801C75.5988 30.7497 75.3979 30.3166 75.3979 29.9596C75.4046 28.9943 76.3183 28.5979 77.1288 28.5979C77.9204 28.5979 78.7825 28.902 78.7879 29.8808H77.9774C77.9774 29.4654 77.5687 29.3228 77.1085 29.3228C76.4405 29.3228 76.2206 29.6921 76.2274 29.9582C76.2274 30.4185 76.7976 30.5488 77.1031 30.5488H79.2291V31.2235H78.853V31.8833H78.8517ZM76.15 31.8318C76.15 32.311 76.6224 32.4997 77.0963 32.4997C77.4004 32.4997 78.0425 32.3382 78.0425 31.8779V31.2235H77.0569C76.4283 31.2222 76.15 31.5589 76.15 31.8318Z" fill="#150958"/>
<path d="M83.7268 29.4464H82.2877V28.6685H86.0212V29.4464H84.5821V33.2057H83.7268V29.4464Z" fill="#150958"/>
<path d="M92.7701 33.2057H91.7532L90.4309 31.6892H89.6081V33.2057H88.7528V28.6617C89.4724 28.6617 90.1919 28.6685 90.9115 28.6685C91.9813 28.6752 92.5447 29.388 92.5447 30.1727C92.5447 30.7945 92.2596 31.4245 91.3975 31.5982L92.7714 33.1473V33.2057H92.7701ZM89.6068 29.4654V30.9181H90.9101C91.4545 30.9181 91.688 30.5556 91.688 30.1917C91.688 29.8292 91.4477 29.4654 90.9101 29.4654H89.6068Z" fill="#150958"/>
<path d="M98.5455 32.3504H96.1737L95.7854 33.2057H94.8582L96.8933 28.6685H97.8273L99.8624 33.2057H98.9284L98.5455 32.3504ZM97.3589 29.6215L96.5158 31.5534H98.2007L97.3589 29.6215Z" fill="#150958"/>
<path d="M104.171 33.2247H103.284L101.398 28.6685H102.356L103.725 32.201L105.099 28.6685H106.059L104.171 33.2247Z" fill="#150958"/>
<path d="M112.171 33.2057H108.774V28.6685H112.171V29.498H109.624V30.542H112.08V31.3389H109.624V32.3626H112.171V33.2057Z" fill="#150958"/>
<path d="M115.892 28.6685V32.4142H118.226V33.2057H115.037V28.6685H115.892Z" fill="#150958"/>
<path d="M123.833 29.764C123.677 29.5047 123.249 29.259 122.756 29.259C122.121 29.259 121.817 29.5251 121.817 29.8618C121.817 30.2569 122.284 30.3668 122.828 30.432C123.775 30.5488 124.656 30.7945 124.656 31.8779C124.656 32.8893 123.761 33.3238 122.75 33.3238C121.822 33.3238 121.11 33.0387 120.773 32.2092L121.486 31.8399C121.687 32.3395 122.212 32.5594 122.763 32.5594C123.301 32.5594 123.807 32.3707 123.807 31.8792C123.807 31.4516 123.361 31.2765 122.758 31.2113C121.831 31.1013 120.975 30.8542 120.975 29.8374C120.975 28.9033 121.896 28.5218 122.732 28.515C123.438 28.515 124.171 28.7159 124.515 29.4165L123.833 29.764Z" fill="#150958"/>
<path d="M90.9361 13.9C90.6659 13.862 90.389 13.843 90.1147 13.843C87.986 13.843 86.0174 14.9875 85.101 16.7606C83.7637 19.3469 84.5905 23.4565 87.451 24.7041C88.2493 25.053 90.9347 25.812 92.735 23.1999C92.7608 23.6886 92.7866 24.0782 92.8042 24.0633C92.9536 24.6634 93.3921 25.1902 94.0994 25.2295C94.8081 25.2635 95.6295 24.6715 95.6295 23.861V19.0957C95.4462 16.2623 93.6487 14.272 90.9361 13.9ZM90.0333 23.7986C89.1875 23.8488 88.3512 23.4212 87.8814 22.3174C87.4836 21.2706 87.413 20.1587 87.413 19.4962C87.4157 18.1657 87.7131 16.918 88.2521 15.9799C88.768 15.0812 89.349 14.6793 90.1378 14.6793V14.4566L90.146 14.6793C90.9755 14.682 91.6041 15.1137 92.0697 15.9989C92.902 17.586 92.8721 19.3048 92.7336 20.7792C92.7146 20.9706 92.6915 21.1539 92.6603 21.3317C92.4159 22.7247 91.2158 23.728 90.0333 23.7986Z" fill="#150958"/>
<path d="M124.904 21.4132C124.653 20.5144 123.624 19.2559 122.891 18.6423C122.182 18.0517 121.448 17.4923 120.725 16.9181C119.998 16.3383 120.085 15.293 120.929 14.9142C121.915 14.4716 123.469 15.2658 123.862 16.3343C123.917 16.485 124.058 16.5841 124.216 16.5909H124.227C124.515 16.6017 124.763 16.3112 124.646 16.0464C123.453 13.3502 120.454 13.7059 119.582 14.1227C118.53 14.6264 117.497 15.6554 117.683 17.0117C117.821 18.0327 117.984 18.7441 120.791 20.8389C121.854 21.6331 122.739 22.9039 121.924 23.8447C120.975 24.9417 118.682 24.0443 118.241 22.278C118.18 22.0309 117.922 21.8925 117.682 21.9644C117.458 22.0309 117.297 22.2672 117.367 22.4925C117.965 24.434 119.341 25.3667 121.323 25.2716C124.019 25.1426 125.388 23.1415 124.904 21.4132Z" fill="#150958"/>
<path d="M49.6567 21.8368C49.4625 21.8069 49.2915 21.9169 49.2277 22.0812C48.3927 23.5718 46.64 24.1122 45.6557 24.1122C45.5064 24.1122 45.3706 24.1 45.2538 24.0769C43.5636 23.7253 42.5046 21.5069 42.5182 19.5668H49.0702C49.5114 19.5641 49.7938 19.4758 49.9852 19.279C50.1767 19.0794 50.2554 18.7929 50.2405 18.3476C50.197 16.9941 49.6757 15.8876 48.6901 15.0581C47.7573 14.2706 46.5002 13.8376 45.1534 13.8376C43.5229 13.8376 41.9548 14.4865 40.8483 15.6147C39.1961 17.3023 38.8689 20.3203 40.103 22.4844C40.498 23.1781 40.9949 23.7225 41.6235 24.1516C42.3892 24.6702 43.2771 25.0232 44.1908 25.1712C44.5886 25.235 44.9579 25.2675 45.319 25.2675C47.2523 25.2675 48.8027 24.3226 49.9309 22.4586C49.9499 22.4287 49.9975 22.312 49.9866 22.1938C49.9689 22.0146 49.8318 21.8626 49.6567 21.8368ZM43.8243 15.2889C44.2058 14.8897 44.6823 14.6684 45.1683 14.6684C45.8118 14.6684 46.4092 15.0391 46.807 15.6826C47.3541 16.5718 47.4587 17.5738 47.4885 18.4372C47.4912 18.5418 47.4682 18.6273 47.4193 18.6762C47.3799 18.7183 47.3175 18.7386 47.2319 18.7386C46.3196 18.7414 45.4086 18.7427 44.4868 18.7427H42.5386C42.6431 17.5141 42.8943 16.2637 43.8243 15.2889Z" fill="#150958"/>
<path d="M114.978 21.8368C114.784 21.8069 114.613 21.9169 114.549 22.0812C113.714 23.5718 111.962 24.1122 110.977 24.1122C110.828 24.1122 110.692 24.1 110.576 24.0769C108.885 23.7253 107.826 21.5069 107.84 19.5668H114.392C114.833 19.5641 115.116 19.4758 115.307 19.279C115.498 19.0794 115.577 18.7929 115.562 18.3476C115.519 16.9941 114.997 15.8876 114.012 15.0581C113.079 14.2706 111.822 13.8376 110.475 13.8376C108.845 13.8376 107.277 14.4865 106.17 15.6147C104.518 17.3023 104.191 20.3203 105.425 22.4844C105.82 23.1781 106.317 23.7225 106.945 24.1516C107.711 24.6702 108.599 25.0232 109.514 25.1712C109.912 25.235 110.281 25.2675 110.642 25.2675C112.575 25.2675 114.126 24.3226 115.254 22.4586C115.273 22.4287 115.321 22.312 115.31 22.1938C115.291 22.0146 115.154 21.8626 114.978 21.8368ZM109.146 15.2889C109.528 14.8897 110.004 14.6684 110.49 14.6684C111.134 14.6684 111.731 15.0391 112.129 15.6826C112.676 16.5718 112.78 17.5738 112.81 18.4372C112.813 18.5418 112.789 18.6273 112.741 18.6762C112.702 18.7183 112.639 18.7386 112.554 18.7386C111.641 18.7414 110.73 18.7427 109.81 18.7427H107.862C107.965 17.5141 108.216 16.2637 109.146 15.2889Z" fill="#150958"/>
<path d="M83.7242 14.2679C83.7242 14.4702 83.5736 14.6372 83.3794 14.6644L83.1988 14.6997C81.6308 15.0092 80.9587 15.779 80.8746 17.3539L80.8759 23.804C80.8488 24.6566 80.3614 25.1522 79.5386 25.1739H79.483C78.6426 25.1739 78.1199 24.6865 78.0833 23.8705V18.8323C78.1226 18.1318 78.2258 17.6091 78.2692 17.4163C78.9711 14.2924 81.9159 13.8973 83.1513 13.8742L83.279 13.8715L83.3495 13.8701C83.3604 13.8701 83.3699 13.8715 83.3808 13.8715C83.5736 13.8973 83.7242 14.0643 83.7242 14.2679Z" fill="#150958"/>
<path d="M103.597 24.8277C103.597 25.0422 103.452 25.1902 103.177 25.2187C103.113 25.2255 102.932 25.2309 102.932 25.2309C100.695 25.1915 98.3678 24.829 98.3678 20.972C98.3392 18.8649 98.3474 16.7185 98.3542 14.6426L98.3596 13.2225C98.361 12.3794 98.8796 11.8377 99.7118 11.8133C99.7308 11.812 99.7512 11.812 99.7702 11.812C100.567 11.812 101.097 12.3184 101.151 13.1343L101.159 14.982H102.358C102.476 14.982 102.583 15.0296 102.663 15.107C102.741 15.1843 102.79 15.2916 102.79 15.4124C102.79 15.65 102.597 15.8428 102.359 15.8428H101.163L101.186 21.8286C101.186 23.2691 102.139 24.286 103.024 24.4027L103.196 24.4244H103.198C103.418 24.4272 103.597 24.6077 103.597 24.8277Z" fill="#150958"/>
</svg>
