<svg width="226" height="55" viewBox="0 0 226 55" fill="none" xmlns="http://www.w3.org/2000/svg">
<path d="M0.269591 22.5694C0.163148 22.2851 0.0567001 21.9297 0.0212191 21.4321C-0.014262 20.97 -0.0142577 20.4724 0.0921855 19.9393C0.305072 18.9797 0.659884 18.2688 1.1921 17.8423C1.72432 17.4158 2.32749 17.2025 3.03711 17.2025H19.3229C19.4294 17.4869 19.5358 17.8423 19.5713 18.3399C19.6068 18.802 19.6068 19.2995 19.5003 19.8327C19.2874 20.7923 18.9326 21.5032 18.4004 21.9297C17.8682 22.3562 17.265 22.5694 16.5554 22.5694H12.4041L8.82052 39.8431C8.53668 39.9141 8.07542 39.9852 7.47224 40.0563C6.86906 40.1274 6.30136 40.1629 5.69819 40.1629C5.13049 40.1629 4.63376 40.1274 4.20799 40.0208C3.78222 39.9497 3.46288 39.772 3.21451 39.5587C2.96615 39.3455 2.78874 39.0256 2.71778 38.6346C2.64682 38.2436 2.68231 37.7105 2.82423 37.0707L5.84012 22.5339H0.269591V22.5694Z" fill="#00ADEE"/>
<path d="M22.1258 39.9497C21.8775 40.0208 21.4517 40.0919 20.9195 40.163C20.3518 40.234 19.8196 40.2696 19.2164 40.2696C18.6842 40.2696 18.1874 40.234 17.7617 40.163C17.3359 40.0919 17.0166 39.9497 16.7682 39.7009C16.5198 39.4876 16.3424 39.1678 16.2715 38.7768C16.2005 38.3858 16.2005 37.8882 16.3424 37.2485L18.6487 26.0171C18.7551 25.4484 18.968 24.9508 19.2874 24.5243C19.5712 24.0978 19.9615 23.7424 20.4227 23.4225C20.884 23.1026 21.4517 22.8182 22.0904 22.5339C22.729 22.2851 23.4032 22.0363 24.1128 21.8586C24.8224 21.6454 25.5675 21.5032 26.3126 21.3966C27.0577 21.2899 27.8028 21.2188 28.5124 21.2188C29.7188 21.2188 30.6058 21.4676 31.209 21.8942C31.8122 22.3562 31.9896 23.1026 31.7767 24.1689C31.7057 24.5243 31.5993 24.8442 31.4219 25.1996C31.2445 25.5195 31.0671 25.8394 30.8542 26.1237C30.322 26.1237 29.7897 26.1592 29.222 26.1948C28.6544 26.2303 28.1221 26.337 27.5544 26.408C27.0222 26.5147 26.49 26.6213 26.0288 26.7279C25.532 26.8345 25.1417 26.9767 24.7869 27.1189L22.1258 39.9497Z" fill="#00ADEE"/>
<path d="M41.1438 21.2544C42.4921 21.2544 43.6984 21.3965 44.7274 21.6809C45.7918 21.9652 46.6434 22.3562 47.3175 22.9249C47.9916 23.4935 48.4529 24.2044 48.7013 25.0574C48.9496 25.9104 48.9496 26.9412 48.7013 28.1141L46.9627 36.5021C46.8208 37.1418 46.5369 37.675 46.0757 38.1015C45.6144 38.528 45.1177 38.8834 44.55 39.1677C42.7404 40.1274 40.3632 40.625 37.4183 40.625C36.1055 40.625 34.9346 40.4828 33.9411 40.234C32.9477 39.9852 32.0961 39.5943 31.4575 39.0967C30.7833 38.5991 30.3576 37.9593 30.1092 37.1774C29.8608 36.3954 29.8253 35.5069 30.0382 34.4761C30.393 32.7701 31.1736 31.4195 32.38 30.4954C33.5863 29.5713 35.2894 29.0026 37.4892 28.7894L42.4921 28.2562L42.563 28.0074C42.705 27.2966 42.4921 26.7634 41.9244 26.4436C41.3567 26.1237 40.4696 25.9815 39.2633 25.9815C38.3053 25.9815 37.3828 26.0881 36.4248 26.2659C35.5023 26.4791 34.6153 26.7279 33.8347 27.0122C33.5508 26.799 33.338 26.4436 33.2315 25.9815C33.0896 25.5195 33.0896 25.0574 33.196 24.5243C33.338 23.8845 33.5863 23.3514 33.9766 22.9604C34.3669 22.5694 34.8991 22.2496 35.6087 21.9652C36.3893 21.6809 37.2764 21.5032 38.3053 21.361C39.3343 21.2899 40.2922 21.2544 41.1438 21.2544ZM38.4117 35.9689C38.8375 35.9689 39.2988 35.9334 39.831 35.8268C40.3632 35.7557 40.7535 35.6135 41.0373 35.4713L41.6405 32.4858L38.9085 32.699C38.1989 32.7346 37.5957 32.9123 37.0989 33.1611C36.6022 33.4099 36.2829 33.8008 36.2119 34.2984C36.1055 34.796 36.2119 35.187 36.5313 35.5069C36.8861 35.7912 37.4892 35.9689 38.4117 35.9689Z" fill="#00ADEE"/>
<path d="M61.1906 39.5232C60.8003 39.8075 60.2326 40.0208 59.523 40.1985C58.8134 40.3762 58.0328 40.4473 57.1813 40.4473C56.2233 40.4473 55.4072 40.3051 54.7331 40.0563C54.0589 39.8075 53.6687 39.4166 53.4913 38.8479C53.3493 38.4214 53.2074 37.8172 53.0655 37.0708C52.9235 36.3244 52.7461 35.4714 52.6042 34.5117C52.4623 33.5876 52.2849 32.5569 52.143 31.4906C52.0011 30.4243 51.8591 29.3581 51.7527 28.2918C51.6462 27.2611 51.5398 26.2303 51.4688 25.2707C51.3979 24.311 51.3624 23.4225 51.3269 22.6761C51.7527 22.3207 52.2849 22.0363 52.9236 21.752C53.5622 21.5032 54.2364 21.361 54.946 21.361C55.833 21.361 56.5071 21.5387 56.9684 21.8942C57.4651 22.2496 57.7135 22.9249 57.7845 23.9201L58.0683 29.6424C58.1038 30.7798 58.1747 31.7749 58.2102 32.699C58.2812 33.6232 58.3167 34.2985 58.3167 34.8316H58.4941C59.3456 32.9834 60.2681 30.9219 61.2616 28.6828C62.2551 26.4436 63.1776 24.24 64.0646 22.0719C64.5258 21.8586 65.0581 21.6809 65.6258 21.5387C66.1935 21.4321 66.7257 21.361 67.2224 21.361C68.1094 21.361 68.7836 21.5387 69.3158 21.9297C69.848 22.3207 69.9899 22.9604 69.8125 23.8845C69.7416 24.2755 69.5287 24.8797 69.1739 25.6261C68.8191 26.3725 68.4288 27.2611 67.932 28.2207C67.4353 29.1804 66.9031 30.2111 66.2999 31.2774C65.6967 32.3436 65.0936 33.4099 64.4904 34.4051C63.8872 35.4358 63.284 36.3955 62.7163 37.284C62.0777 38.2081 61.5809 38.919 61.1906 39.5232Z" fill="#00ADEE"/>
<path d="M77.8312 40.5894C76.3765 40.5894 75.0282 40.3762 73.8574 39.9852C72.6865 39.5587 71.7285 38.9545 70.9479 38.137C70.1673 37.3195 69.6706 36.2888 69.3867 35.0448C69.1029 33.8008 69.1384 32.3436 69.4932 30.6731C69.848 29.0382 70.3802 27.6165 71.1608 26.408C71.9414 25.2351 72.8284 24.2399 73.8928 23.4935C74.9218 22.7472 76.0217 22.1785 77.2281 21.8231C78.4344 21.4676 79.6053 21.2899 80.7762 21.2899C82.089 21.2899 83.2598 21.5032 84.2533 21.8941C85.2468 22.2851 86.0628 22.8538 86.7015 23.5291C87.3402 24.2399 87.7659 25.0574 88.0143 26.0526C88.2627 27.0122 88.2627 28.0785 88.0143 29.2514C87.8369 30.1044 87.4821 30.7442 86.9144 31.2063C86.3467 31.6683 85.6371 31.9526 84.75 32.0593L75.2411 33.4454C75.3476 34.2629 75.7733 34.9027 76.5539 35.2936C77.299 35.7201 78.257 35.8979 79.3569 35.8979C80.3859 35.8979 81.3793 35.7557 82.3373 35.5069C83.2953 35.2581 84.1114 34.9382 84.75 34.5828C85.1048 34.8316 85.3532 35.187 85.5306 35.6135C85.708 36.0755 85.7435 36.5376 85.6371 37.0352C85.3887 38.1726 84.7146 38.99 83.5437 39.5587C82.6567 39.9852 81.6987 40.2696 80.6697 40.4117C79.6762 40.5183 78.7183 40.5894 77.8312 40.5894ZM79.8536 25.8749C79.2505 25.8749 78.7183 25.9815 78.257 26.1592C77.7957 26.3725 77.37 26.6213 77.0506 26.9412C76.6958 27.261 76.4475 27.6165 76.2346 27.9719C76.0217 28.3629 75.8443 28.7538 75.7379 29.1448L82.3373 28.1141C82.3728 27.6165 82.1954 27.1189 81.8406 26.6213C81.4148 26.1237 80.7762 25.8749 79.8536 25.8749Z" fill="#00ADEE"/>
<path d="M94.6136 39.9497C94.3298 39.9852 93.904 40.0563 93.3718 40.1629C92.8041 40.234 92.2719 40.3051 91.7042 40.3051C91.172 40.3051 90.6752 40.2696 90.2495 40.1985C89.8237 40.1274 89.5044 39.9852 89.256 39.7364C89.0076 39.5232 88.8302 39.2033 88.7593 38.8123C88.6883 38.4213 88.6883 37.9238 88.8302 37.284L93.3008 15.5676C93.5847 15.5321 94.0105 15.461 94.5427 15.3543C95.1104 15.2833 95.6426 15.2122 96.2103 15.2122C96.7425 15.2122 97.2392 15.2477 97.665 15.3188C98.0908 15.3899 98.4101 15.532 98.6585 15.7808C98.9068 15.9941 99.0842 16.314 99.1552 16.7049C99.2262 17.0959 99.2262 17.5935 99.0842 18.2333L94.6136 39.9497Z" fill="#00ADEE"/>
<path d="M107.706 17.9845C108.167 17.7357 108.877 17.4869 109.764 17.2736C110.687 17.0604 111.574 16.9538 112.425 16.9538C113.667 16.9538 114.731 17.1315 115.618 17.4869C116.506 17.8423 117.002 18.411 117.109 19.1929C117.286 20.508 117.463 22.0008 117.641 23.7068C117.818 25.4129 117.96 27.19 118.102 29.0382C118.244 30.8864 118.386 32.699 118.528 34.4762C118.67 36.2533 118.776 37.8527 118.847 39.2033C118.492 39.5587 117.96 39.8431 117.322 40.0563C116.683 40.2696 115.938 40.3762 115.122 40.3762C114.519 40.3762 114.022 40.3406 113.632 40.234C113.241 40.1274 112.922 39.9852 112.709 39.772C112.496 39.5587 112.319 39.3099 112.248 38.99C112.141 38.6702 112.07 38.2792 112.035 37.8527L111.893 35.2581H105.116C104.761 36.0045 104.406 36.7864 104.052 37.5683C103.697 38.3503 103.342 39.1322 102.987 39.8786C102.597 40.0208 102.207 40.0919 101.816 40.1985C101.426 40.2696 100.929 40.3407 100.397 40.3407C99.1198 40.3407 98.2328 40.1274 97.7005 39.7009C97.1683 39.2744 96.9909 38.6702 97.1683 37.8882C97.2393 37.5328 97.3457 37.1774 97.5231 36.8575C97.7005 36.5021 97.878 36.1111 98.1263 35.6135C98.4457 34.9382 98.8714 34.1207 99.3682 33.09C99.9004 32.0948 100.468 31.0285 101.071 29.8556C101.674 28.6827 102.313 27.5098 103.023 26.2659C103.697 25.0574 104.336 23.8845 104.939 22.8183C105.542 21.7164 106.074 20.7568 106.571 19.9038C107.068 19.0863 107.422 18.4465 107.706 17.9845ZM111.183 22.8183C110.616 23.849 109.977 25.0219 109.267 26.3014C108.558 27.5809 107.919 28.896 107.28 30.2111H111.928C111.857 28.8605 111.787 27.5454 111.68 26.2659C111.574 24.9863 111.503 23.8134 111.396 22.8183H111.183Z" fill="url(#paint0_linear_268_275)"/>
<path d="M136.978 34.5828C136.588 36.4665 135.559 37.9593 133.927 39.0256C132.295 40.0919 130.095 40.625 127.327 40.625C126.298 40.625 125.34 40.5539 124.453 40.4117C123.602 40.2696 122.857 40.0208 122.289 39.7364C121.721 39.4166 121.295 39.0256 121.047 38.5635C120.799 38.1015 120.728 37.5328 120.87 36.893C120.976 36.2888 121.224 35.7912 121.544 35.3647C121.863 34.9382 122.253 34.6183 122.644 34.334C123.282 34.725 124.027 35.0804 124.915 35.4003C125.802 35.7201 126.83 35.8623 128.037 35.8623C128.817 35.8623 129.421 35.7557 129.882 35.5424C130.343 35.3292 130.591 35.0093 130.698 34.6539C130.769 34.2984 130.662 34.0141 130.414 33.8364C130.166 33.6231 129.704 33.481 129.03 33.3388L127.966 33.1256C125.873 32.699 124.418 32.0237 123.531 31.1352C122.644 30.2111 122.395 28.9315 122.75 27.2255C122.928 26.3014 123.318 25.4839 123.85 24.702C124.418 23.9556 125.092 23.3159 125.908 22.8183C126.724 22.3207 127.682 21.9297 128.746 21.6454C129.811 21.361 130.946 21.2188 132.188 21.2188C133.111 21.2188 133.962 21.2899 134.743 21.4321C135.523 21.5743 136.197 21.7875 136.73 22.0363C137.262 22.3207 137.688 22.6761 137.936 23.1026C138.184 23.5291 138.255 24.0622 138.149 24.6665C138.043 25.2351 137.83 25.7327 137.51 26.1592C137.226 26.5857 136.872 26.9056 136.481 27.19C136.304 27.0833 136.02 26.9412 135.665 26.799C135.31 26.6568 134.885 26.5502 134.423 26.408C133.962 26.3014 133.501 26.1948 133.04 26.1237C132.578 26.0526 132.117 26.0171 131.727 26.0171C130.911 26.0171 130.237 26.1237 129.775 26.3014C129.279 26.4791 128.995 26.799 128.924 27.19C128.853 27.4743 128.959 27.6876 129.172 27.8653C129.385 28.043 129.811 28.1852 130.485 28.3629L131.585 28.6117C133.856 29.1448 135.417 29.9267 136.233 30.8864C137.049 31.8105 137.297 33.0545 136.978 34.5828Z" fill="url(#paint1_linear_268_275)"/>
<path d="M144.677 39.9497C144.394 39.9852 143.968 40.0563 143.436 40.163C142.868 40.234 142.336 40.3051 141.768 40.3051C141.236 40.3051 140.739 40.2696 140.313 40.1985C139.887 40.1274 139.568 39.9852 139.32 39.7364C139.071 39.5232 138.894 39.2033 138.823 38.8123C138.752 38.4214 138.752 37.9238 138.894 37.284L142.052 22.0363C142.336 22.0008 142.761 21.9297 143.294 21.8231C143.861 21.752 144.393 21.6809 144.961 21.6809C145.493 21.6809 145.99 21.7164 146.416 21.7875C146.842 21.8586 147.161 22.0008 147.409 22.2496C147.658 22.4628 147.835 22.7827 147.906 23.1737C147.977 23.5646 147.977 24.0622 147.835 24.702L144.677 39.9497ZM142.832 16.7405C143.045 15.7809 143.506 14.9989 144.287 14.3592C145.068 13.7194 145.955 13.3995 147.019 13.3995C148.048 13.3995 148.829 13.7194 149.325 14.3592C149.822 14.9989 149.964 15.8164 149.787 16.7405C149.574 17.7001 149.112 18.4821 148.332 19.1218C147.551 19.7616 146.664 20.0815 145.6 20.0815C144.571 20.0815 143.79 19.7616 143.294 19.1218C142.761 18.4821 142.619 17.7001 142.832 16.7405Z" fill="url(#paint2_linear_268_275)"/>
<path d="M159.296 21.2544C160.644 21.2544 161.85 21.3965 162.879 21.6809C163.944 21.9652 164.795 22.3562 165.469 22.9249C166.143 23.4935 166.605 24.2044 166.853 25.0574C167.101 25.9104 167.101 26.9412 166.853 28.1141L165.115 36.5021C164.973 37.1418 164.689 37.675 164.228 38.1015C163.766 38.528 163.27 38.8834 162.702 39.1677C160.892 40.1274 158.515 40.625 155.57 40.625C154.257 40.625 153.086 40.4828 152.093 40.234C151.1 39.9852 150.248 39.5943 149.609 39.0967C148.935 38.5991 148.509 37.9593 148.261 37.1774C148.013 36.3954 147.977 35.5069 148.19 34.4761C148.545 32.7701 149.325 31.4195 150.532 30.4954C151.738 29.5713 153.441 29.0026 155.641 28.7894L160.644 28.2562L160.715 28.0074C160.857 27.2966 160.644 26.7634 160.076 26.4436C159.509 26.1237 158.622 25.9815 157.415 25.9815C156.457 25.9815 155.535 26.0881 154.577 26.2659C153.654 26.4791 152.767 26.7279 151.987 27.0122C151.703 26.799 151.49 26.4436 151.383 25.9815C151.241 25.5195 151.241 25.0574 151.348 24.5243C151.49 23.8845 151.738 23.3514 152.128 22.9604C152.519 22.5694 153.051 22.2496 153.761 21.9652C154.541 21.6809 155.428 21.5032 156.457 21.361C157.486 21.2899 158.444 21.2544 159.296 21.2544ZM156.564 35.9689C156.989 35.9689 157.451 35.9334 157.983 35.8268C158.515 35.7557 158.905 35.6135 159.189 35.4713L159.792 32.4858L157.06 32.699C156.351 32.7346 155.748 32.9123 155.251 33.1611C154.754 33.4099 154.435 33.8008 154.328 34.2984C154.222 34.796 154.328 35.187 154.648 35.5069C155.002 35.7912 155.641 35.9689 156.564 35.9689Z" fill="url(#paint3_linear_268_275)"/>
<path d="M181.72 36.04H190.093L189.596 39.1322H175.865L176.326 35.8268C188.638 26.9412 188.177 22.2496 185.339 21.8941C182.5 21.5387 182.252 25.3417 182.252 25.3417H177.462C177.462 25.3417 178.81 18.411 186.545 18.411C194.28 18.411 192.612 27.3321 185.942 32.4858L181.72 36.04Z" fill="url(#paint4_linear_268_275)"/>
<path d="M204.002 18.411H199.176L188.958 32.0948V34.9027H196.302L195.806 39.1322H198.609L202.866 31.4195L201.908 31.2418L204.002 18.411ZM197.367 31.5261H193.286L198.502 24.8797L197.367 31.5261Z" fill="url(#paint5_linear_268_275)"/>
<path d="M210.388 18.411C210.282 18.873 198.147 43.6105 198.147 43.6105H200.844L212.908 18.411H210.388Z" fill="url(#paint6_linear_268_275)"/>
<path d="M214.149 18.411H226L214.149 39.5587H209.04L219.152 22.2496H212.411L214.149 18.411Z" fill="url(#paint7_linear_268_275)"/>
<path d="M219.471 38.3503C217.555 42.2599 214.504 45.6364 210.956 48.231C207.372 50.8256 203.257 52.7094 198.892 53.6335C198.36 53.7757 197.792 53.8468 197.26 53.9534C196.976 53.9889 196.728 54.06 196.444 54.0955L195.628 54.1666L193.961 54.3088C193.393 54.3443 192.825 54.3088 192.293 54.3088C191.158 54.3443 190.058 54.2022 188.922 54.0955C188.355 54.06 187.822 53.9178 187.255 53.8112C186.687 53.7046 186.155 53.6335 185.587 53.4558L183.955 52.9937C183.423 52.816 182.89 52.6028 182.358 52.3895L181.578 52.0696L180.833 51.6787C180.336 51.3943 179.804 51.1811 179.342 50.8967C177.391 49.7238 175.617 48.231 174.091 46.525C172.601 44.7834 171.466 42.722 170.685 40.5894L170.188 38.9545C170.046 38.3858 169.975 37.8171 169.869 37.2485C169.833 36.9641 169.762 36.6798 169.727 36.3954L169.691 35.5424C169.656 34.9737 169.585 34.4051 169.621 33.8364L169.727 32.1303L169.762 31.7038L169.833 31.2773L169.975 30.4243C170.117 29.287 170.543 28.2207 170.827 27.1544C171.04 26.6213 171.253 26.1237 171.466 25.5905C171.572 25.3417 171.678 25.0574 171.785 24.8086L172.175 24.0622C172.459 23.5646 172.707 23.067 172.991 22.605L173.949 21.2188C174.233 20.7568 174.623 20.3303 174.978 19.9038C175.333 19.4772 175.652 19.0152 176.043 18.6242C176.823 17.8423 177.568 16.9893 178.455 16.314C180.123 14.8212 181.968 13.6128 183.884 12.5109C187.787 10.4495 192.045 9.13441 196.409 8.81453C192.115 9.59647 188.035 11.1603 184.416 13.3995C182.642 14.5724 180.903 15.8164 179.378 17.3092C178.597 18.02 177.923 18.8375 177.178 19.6194C176.823 20.0104 176.539 20.4724 176.22 20.8634C175.901 21.2899 175.581 21.6809 175.297 22.1429L174.446 23.4935C174.198 23.9556 173.985 24.4176 173.736 24.8797L173.382 25.5905C173.275 25.8393 173.204 26.0881 173.098 26.3014C172.92 26.799 172.707 27.261 172.53 27.7586C172.282 28.7538 171.927 29.749 171.82 30.7797L171.678 31.5617L171.607 31.9526L171.572 32.3436L171.501 33.9075C171.466 34.1563 171.501 34.4051 171.536 34.6894L171.572 35.4713L171.607 36.2533C171.643 36.5021 171.714 36.7509 171.749 36.9997C171.856 37.4972 171.927 38.0304 172.033 38.4924L172.494 39.9497C173.204 41.869 174.233 43.6816 175.581 45.2099C176.93 46.7383 178.526 48.0889 180.265 49.1907C180.691 49.475 181.187 49.6883 181.649 49.9371L182.323 50.2925L183.032 50.5769C183.529 50.7546 183.99 50.9678 184.487 51.1455L185.977 51.6076C186.474 51.7853 187.006 51.8564 187.503 51.963C188 52.0696 188.532 52.2118 189.029 52.2474C190.058 52.354 191.122 52.5317 192.151 52.4961C192.683 52.4961 193.215 52.5317 193.712 52.5317L195.273 52.4251L196.054 52.3895C196.302 52.354 196.586 52.3184 196.834 52.2829C197.367 52.2118 197.899 52.1763 198.396 52.0341C200.489 51.6787 202.511 51.0745 204.498 50.2925C206.485 49.5106 208.366 48.5509 210.175 47.378C214.007 45.0678 217.165 42.0111 219.471 38.3503Z" fill="url(#paint8_linear_268_275)"/>
<path d="M214.185 13.6127C215.888 11.9423 215.923 9.95187 214.433 6.00666C214.611 5.90004 214.824 5.82896 215.001 5.72233C215.604 5.3669 215.64 4.97594 215.001 4.6916C214.469 4.4428 213.83 4.40726 213.227 4.30063C213.014 4.26509 212.801 4.33618 212.553 4.37172C211.808 2.73677 210.388 1.91929 208.827 1.27953C207.053 0.533138 205.173 0.213254 203.257 0C203.683 0.213254 204.108 0.390971 204.534 0.604225C205.74 1.20845 206.84 1.95484 207.727 2.95003C207.976 3.23436 208.224 3.55424 208.437 3.90966C209.076 4.94039 209.04 5.18919 208.047 5.82895C207.373 6.25546 206.663 6.64643 205.989 7.00186C205.386 7.32174 204.747 7.57054 204.002 7.35728C203.753 7.2862 203.434 7.39282 203.079 7.49945C203.931 7.9615 204.57 8.53018 204.463 9.70308C205.705 8.74344 206.982 8.17475 208.437 7.96149C209.253 7.81933 210.105 7.85488 210.921 7.74825C211.63 7.67716 212.056 8.06813 212.269 8.60126C212.872 10.023 213.404 11.4802 213.972 12.9374C214.043 13.0796 214.114 13.3284 214.185 13.6127Z" fill="url(#paint9_linear_268_275)"/>
<defs>
<linearGradient id="paint0_linear_268_275" x1="236.568" y1="21.7182" x2="102.623" y2="29.2585" gradientUnits="userSpaceOnUse">
<stop stop-color="#FAAF40"/>
<stop offset="1" stop-color="#EC1C24"/>
</linearGradient>
<linearGradient id="paint1_linear_268_275" x1="236.746" y1="24.8782" x2="102.801" y2="32.4185" gradientUnits="userSpaceOnUse">
<stop stop-color="#FAAF40"/>
<stop offset="1" stop-color="#EC1C24"/>
</linearGradient>
<linearGradient id="paint2_linear_268_275" x1="236.564" y1="21.6359" x2="102.618" y2="29.1762" gradientUnits="userSpaceOnUse">
<stop stop-color="#FAAF40"/>
<stop offset="1" stop-color="#EC1C24"/>
</linearGradient>
<linearGradient id="paint3_linear_268_275" x1="236.834" y1="26.4392" x2="102.888" y2="33.9794" gradientUnits="userSpaceOnUse">
<stop stop-color="#FAAF40"/>
<stop offset="1" stop-color="#EC1C24"/>
</linearGradient>
<linearGradient id="paint4_linear_268_275" x1="236.81" y1="26.0112" x2="102.864" y2="33.5514" gradientUnits="userSpaceOnUse">
<stop stop-color="#FAAF40"/>
<stop offset="1" stop-color="#EC1C24"/>
</linearGradient>
<linearGradient id="paint5_linear_268_275" x1="236.845" y1="26.6324" x2="102.899" y2="34.1727" gradientUnits="userSpaceOnUse">
<stop stop-color="#FAAF40"/>
<stop offset="1" stop-color="#EC1C24"/>
</linearGradient>
<linearGradient id="paint6_linear_268_275" x1="236.992" y1="29.2393" x2="103.046" y2="36.7796" gradientUnits="userSpaceOnUse">
<stop stop-color="#FAAF40"/>
<stop offset="1" stop-color="#EC1C24"/>
</linearGradient>
<linearGradient id="paint7_linear_268_275" x1="236.905" y1="27.6972" x2="102.959" y2="35.2375" gradientUnits="userSpaceOnUse">
<stop stop-color="#FAAF40"/>
<stop offset="1" stop-color="#EC1C24"/>
</linearGradient>
<linearGradient id="paint8_linear_268_275" x1="236.988" y1="29.179" x2="103.043" y2="36.7193" gradientUnits="userSpaceOnUse">
<stop stop-color="#FAAF40"/>
<stop offset="1" stop-color="#EC1C24"/>
</linearGradient>
<linearGradient id="paint9_linear_268_275" x1="203.105" y1="6.79066" x2="215.529" y2="6.79066" gradientUnits="userSpaceOnUse">
<stop stop-color="#FAAF40"/>
<stop offset="1" stop-color="#EC1C24"/>
</linearGradient>
</defs>
</svg>
