<svg width="330" height="213" viewBox="0 0 330 213" fill="none" xmlns="http://www.w3.org/2000/svg">
<path d="M60.2292 94.5112C58.8536 92.7238 57.4775 90.9132 56.1258 89.079C55.7436 88.5747 54.9945 88.4256 54.4537 88.7839C53.9129 89.1421 53.7514 89.8421 54.1337 90.3463C55.4857 92.2038 56.8622 94.0376 58.2628 95.8246C58.6451 96.3288 59.4185 96.4543 59.9589 96.0728C60.3033 95.8575 60.4707 95.4826 60.4644 95.1342C60.4602 94.902 60.3818 94.6943 60.2288 94.488L60.2292 94.5112ZM50.1276 84.7961C48.8253 82.9377 47.5226 81.0561 46.2443 79.1508C45.8864 78.6229 46.0479 77.923 46.6389 77.5871C47.205 77.2516 47.9545 77.4238 48.3123 77.9518C49.5902 79.8338 50.8681 81.7159 52.17 83.5511C52.2977 83.7347 52.376 83.9424 52.3798 84.1514C52.3865 84.523 52.1943 84.8982 51.825 85.114C51.2589 85.4495 50.5103 85.3236 50.1525 84.7957L50.1276 84.7961ZM87.7418 126.077C87.7472 126.379 87.6284 126.683 87.359 126.92C86.8692 127.347 86.0978 127.338 85.6418 126.881C84.0203 125.261 82.3985 123.617 80.7762 121.951C80.3202 121.494 80.3818 120.773 80.8716 120.346C81.3614 119.919 82.1336 119.975 82.5897 120.431C84.1871 122.098 85.8085 123.719 87.4295 125.316C87.6571 125.521 87.7616 125.797 87.7667 126.076L87.7418 126.077ZM306.733 113.453C305.456 111.641 304.129 109.806 302.752 107.949C302.37 107.445 302.507 106.745 303.047 106.364C303.588 106.005 304.336 106.131 304.744 106.635C306.146 108.515 307.498 110.372 308.774 112.185C308.902 112.368 308.956 112.577 308.96 112.786C308.966 113.157 308.774 113.532 308.405 113.748C307.839 114.084 307.09 113.935 306.732 113.43L306.733 113.453ZM42.5337 73.4327C41.3052 71.5265 40.1011 69.5966 38.9214 67.643C38.588 67.0914 38.7997 66.4139 39.3662 66.1016C39.9576 65.7889 40.6826 65.9848 41.0156 66.5132C42.1948 68.4435 43.3989 70.3734 44.6022 72.2568C44.705 72.4408 44.7581 72.6258 44.7615 72.8116C44.7686 73.2064 44.5515 73.582 44.1822 73.7978C43.6157 74.1101 42.8663 73.9378 42.5333 73.4094L42.5337 73.4327ZM78.1835 116.143C78.1894 116.468 78.0461 116.796 77.7514 117.01C77.2363 117.414 76.489 117.358 76.0578 116.901C74.5097 115.21 72.9616 113.519 71.4376 111.78C71.0309 111.3 71.0925 110.579 71.608 110.197C72.1231 109.793 72.8957 109.872 73.3025 110.353C74.8261 112.068 76.3493 113.759 77.8974 115.451C78.1001 115.656 78.1793 115.91 78.1839 116.166L78.1835 116.143ZM294.226 97.2993C293.819 96.8188 293.906 96.097 294.421 95.7159C294.937 95.3349 295.709 95.4138 296.116 95.8944C297.641 97.6791 299.091 99.4651 300.491 101.206C300.644 101.412 300.723 101.643 300.727 101.852C300.733 102.2 300.565 102.552 300.246 102.767C299.705 103.148 298.957 103.046 298.55 102.542C297.15 100.801 295.7 99.0385 294.201 97.2766L294.226 97.2993ZM68.8298 105.136C69.0076 105.342 69.0864 105.573 69.0906 105.805C69.0969 106.154 68.9287 106.482 68.6345 106.72C68.119 107.101 67.3463 107.022 66.9396 106.541C65.4653 104.802 64.015 103.016 62.5647 101.23C62.158 100.749 62.2694 100.027 62.8098 99.6457C63.3502 99.2642 64.0983 99.3668 64.5055 99.8706C65.9309 101.657 67.3808 103.42 68.8546 105.136L68.8298 105.136ZM285.11 87.0554C284.678 86.5753 284.715 85.8776 285.23 85.4501C285.745 85.0458 286.492 85.0787 286.949 85.5584C288.547 87.2721 290.095 88.9866 291.593 90.6556C291.771 90.8615 291.875 91.1152 291.879 91.3474C291.885 91.6726 291.742 92.0005 291.448 92.2381C290.933 92.6424 290.16 92.5634 289.753 92.0828C288.255 90.4139 286.732 88.7221 285.134 87.0084L285.11 87.0554ZM226.125 202.664C228.473 203.156 230.794 203.602 233.09 204.002C233.664 204.107 234.07 204.565 234.08 205.099C234.081 205.169 234.083 205.262 234.084 205.331C233.971 205.937 233.331 206.344 232.683 206.239C230.362 205.84 227.991 205.395 225.618 204.903C224.969 204.776 224.56 204.179 224.698 203.549C224.837 202.943 225.501 202.559 226.15 202.687L226.125 202.664ZM240.125 205.083C242.494 205.412 244.862 205.671 247.18 205.908C247.803 205.966 248.26 206.446 248.27 207.003C248.271 207.05 248.271 207.096 248.272 207.143C248.209 207.771 247.62 208.223 246.947 208.142C244.58 207.93 242.211 207.647 239.792 207.319C239.144 207.238 238.661 206.643 238.774 206.036C238.862 205.408 239.477 205.001 240.15 205.082L240.125 205.083ZM35.4069 61.7587C34.277 59.8042 33.1466 57.8266 32.0407 55.8252C31.7322 55.2732 31.9687 54.5951 32.5606 54.3056C33.1524 54.0161 33.8778 54.2354 34.1863 54.7874C35.2918 56.7655 36.3972 58.7437 37.5267 60.6749C37.6292 60.8357 37.6574 61.021 37.6603 61.1836C37.6675 61.5785 37.4259 61.9778 37.0318 62.194C36.4399 62.4835 35.715 62.2875 35.3816 61.7359L35.4069 61.7587ZM212.333 199.335C214.633 199.967 216.932 200.553 219.206 201.116C219.731 201.246 220.088 201.704 220.096 202.192C220.098 202.285 220.1 202.401 220.052 202.495C219.889 203.102 219.224 203.462 218.574 203.311C216.275 202.749 213.976 202.163 211.651 201.508C211.001 201.334 210.641 200.713 210.829 200.106C211.017 199.498 211.683 199.161 212.333 199.335ZM254.255 206.43C256.645 206.55 259.035 206.623 261.349 206.651C261.995 206.639 262.527 207.141 262.538 207.768L262.539 207.791C262.55 208.418 261.987 208.916 261.315 208.905C258.951 208.878 256.537 208.806 254.097 208.687C253.424 208.653 252.917 208.104 252.956 207.499C252.994 206.871 253.558 206.397 254.23 206.431L254.255 206.43ZM205.555 197.343C206.055 197.497 206.387 197.932 206.395 198.397C206.397 198.513 206.4 198.652 206.327 198.77C206.114 199.354 205.423 199.692 204.798 199.494C202.547 198.815 200.269 198.066 197.991 197.294C197.365 197.073 197.03 196.428 197.269 195.843C197.507 195.258 198.198 194.944 198.824 195.165C201.077 195.937 203.328 196.64 205.555 197.343ZM153.858 175.206C154.235 175.409 154.44 175.777 154.447 176.148C154.451 176.357 154.405 176.567 154.284 176.755C153.945 177.296 153.202 177.472 152.624 177.157C150.589 176.032 148.528 174.861 146.491 173.667C145.913 173.328 145.751 172.634 146.115 172.117C146.478 171.576 147.222 171.423 147.775 171.761C149.812 172.956 151.823 174.105 153.858 175.229L153.858 175.206ZM179.084 187.599C179.51 187.777 179.766 188.19 179.773 188.608C179.776 188.771 179.73 188.935 179.658 189.099C179.37 189.661 178.653 189.907 178.051 189.662C175.895 188.725 173.738 187.765 171.556 186.782C170.954 186.514 170.718 185.821 171.006 185.259C171.294 184.696 172.037 184.473 172.638 184.741C174.796 185.725 176.928 186.685 179.059 187.599L179.084 187.599ZM326.497 162.282C326.459 160.168 326.245 157.988 325.906 155.764C325.821 155.161 326.283 154.572 326.928 154.491C327.598 154.409 328.203 154.839 328.289 155.442C328.629 157.759 328.844 160.032 328.884 162.239C328.896 162.866 328.358 163.387 327.711 163.398C327.04 163.411 326.484 162.933 326.472 162.306L326.497 162.282ZM314.053 124.845C312.95 122.96 311.77 121.029 310.517 119.1C310.184 118.572 310.37 117.872 310.936 117.559C311.503 117.247 312.252 117.419 312.585 117.948C313.865 119.923 315.045 121.876 316.174 123.784C316.276 123.945 316.304 124.13 316.307 124.293C316.314 124.688 316.073 125.087 315.679 125.303C315.087 125.593 314.362 125.397 314.028 124.845L314.053 124.845ZM318.679 186.726C320.066 184.981 321.277 183.147 322.311 181.2C322.599 180.637 323.342 180.415 323.944 180.683C324.37 180.884 324.601 181.275 324.608 181.67C324.612 181.856 324.565 182.019 324.493 182.183C323.411 184.224 322.103 186.222 320.644 188.061C320.255 188.556 319.485 188.663 318.957 188.301C318.427 187.915 318.315 187.22 318.704 186.725L318.679 186.726ZM192.862 194.297C192.624 194.882 191.908 195.173 191.282 194.929C189.078 194.109 186.848 193.267 184.643 192.377C184.041 192.133 183.756 191.464 184.019 190.902C184.282 190.316 184.999 190.071 185.601 190.315C187.806 191.205 189.986 192.048 192.189 192.845C192.665 193.022 192.946 193.435 192.954 193.877C192.957 194.016 192.935 194.179 192.863 194.32L192.862 194.297ZM165.182 183.714C163.073 182.684 160.964 181.607 158.855 180.506C158.277 180.215 158.066 179.521 158.404 178.981C158.743 178.44 159.46 178.242 160.038 178.556C162.123 179.657 164.207 180.712 166.315 181.719C166.716 181.921 166.947 182.288 166.955 182.706C166.958 182.892 166.912 183.079 166.815 183.243C166.502 183.807 165.759 184.006 165.182 183.714ZM295.441 203.084C295.206 202.484 295.518 201.851 296.161 201.631C298.411 200.846 300.559 199.971 302.607 199.005C303.198 198.715 303.924 198.935 304.233 199.51C304.31 199.671 304.363 199.833 304.366 199.995C304.373 200.413 304.132 200.813 303.713 201.029C301.592 202.043 299.344 202.944 297.02 203.753C296.402 203.973 295.701 203.683 295.466 203.084L295.441 203.084ZM267.314 207.728C267.277 207.055 267.791 206.581 268.462 206.545C270.873 206.432 273.233 206.273 275.518 206.023C276.188 205.964 276.768 206.395 276.854 207.021C276.855 207.044 276.855 207.091 276.856 207.114C276.866 207.695 276.403 208.191 275.782 208.249C273.448 208.5 271.013 208.66 268.577 208.774C267.905 208.786 267.35 208.331 267.314 207.705L267.314 207.728ZM324.79 175.184C325.424 173.151 325.883 171.006 326.167 168.817C326.255 168.188 326.845 167.759 327.517 167.816C328.115 167.875 328.572 168.355 328.582 168.912C328.583 168.959 328.584 169.005 328.585 169.075C328.278 171.381 327.797 173.666 327.139 175.816C326.951 176.423 326.286 176.76 325.636 176.586C324.986 176.412 324.626 175.791 324.814 175.184L324.79 175.184ZM281.545 206.402C281.434 205.8 281.871 205.188 282.516 205.083C284.872 204.692 287.202 204.185 289.406 203.635C290.049 203.46 290.703 203.82 290.888 204.421C290.889 204.514 290.916 204.606 290.918 204.699C290.927 205.21 290.562 205.681 290.017 205.807C287.739 206.383 285.359 206.867 282.929 207.283C282.259 207.388 281.63 206.981 281.519 206.379L281.545 206.402ZM308.272 197.253C307.89 196.749 308.026 196.026 308.592 195.69C310.535 194.447 312.376 193.066 314.016 191.619C314.506 191.192 315.277 191.202 315.733 191.658C315.936 191.863 316.066 192.14 316.071 192.419C316.076 192.721 315.957 193.025 315.688 193.262C313.949 194.804 312.01 196.256 309.969 197.571C309.428 197.929 308.655 197.804 308.297 197.276L308.272 197.253ZM106.255 145.584C104.462 144.106 102.693 142.605 100.924 141.08C100.444 140.647 100.406 139.951 100.87 139.478C101.335 139.028 102.081 138.991 102.586 139.423C104.33 140.949 106.098 142.427 107.866 143.882C108.119 144.11 108.273 144.409 108.279 144.711C108.284 144.989 108.189 145.27 107.969 145.483C107.53 145.956 106.76 145.993 106.255 145.584ZM320.116 136.817C319.234 134.835 318.277 132.807 317.245 130.781C316.962 130.229 317.223 129.55 317.815 129.261C318.407 128.995 319.133 129.237 319.417 129.79C320.474 131.862 321.457 133.935 322.364 135.963C322.417 136.101 322.444 136.24 322.446 136.38C322.454 136.821 322.164 137.268 321.694 137.439C321.077 137.682 320.375 137.393 320.116 136.817ZM97.7658 135.63C97.7709 135.909 97.652 136.213 97.4319 136.426C96.9674 136.876 96.1965 136.89 95.716 136.457C93.9963 134.909 92.3011 133.336 90.6055 131.74C90.125 131.308 90.1369 130.587 90.6263 130.137C91.0908 129.687 91.8622 129.696 92.3431 130.152C94.0139 131.749 95.7086 133.298 97.4034 134.847C97.631 135.052 97.7608 135.352 97.7658 135.63ZM134.467 166.31C133.913 165.948 133.776 165.253 134.165 164.735C134.554 164.217 135.298 164.087 135.851 164.449C137.815 165.715 139.778 166.98 141.74 168.176C142.092 168.379 142.273 168.747 142.279 169.096C142.283 169.328 142.212 169.539 142.067 169.75C141.703 170.268 140.935 170.421 140.381 170.06C138.394 168.841 136.405 167.576 134.442 166.287L134.467 166.31ZM130.549 161.478C130.553 161.71 130.483 161.967 130.312 162.156C129.923 162.651 129.154 162.781 128.625 162.396C126.71 161.083 124.795 159.747 122.88 158.364C122.35 157.979 122.263 157.283 122.652 156.788C123.066 156.293 123.811 156.21 124.34 156.572C126.23 157.932 128.145 159.268 130.034 160.558C130.362 160.784 130.517 161.107 130.523 161.455L130.549 161.478ZM324.547 149.353C324.012 147.295 323.352 145.169 322.591 143.022C322.381 142.422 322.718 141.788 323.362 141.591C324.005 141.393 324.682 141.706 324.892 142.307C325.678 144.5 326.34 146.695 326.9 148.822C326.902 148.915 326.928 148.984 326.93 149.077C326.939 149.588 326.575 150.06 326.005 150.186C325.361 150.337 324.707 149.954 324.547 149.353ZM111.683 149.97C111.178 149.561 111.115 148.842 111.554 148.369C111.993 147.896 112.739 147.836 113.268 148.245C115.085 149.676 116.927 151.106 118.768 152.49C119.071 152.717 119.201 153.017 119.207 153.342C119.211 153.598 119.117 153.855 118.946 154.067C118.532 154.562 117.762 154.623 117.233 154.237C115.367 152.854 113.525 151.423 111.683 149.97Z" fill="black"/>
<path d="M11.8524 13.7876C9.38995 8.30248 7.44523 1.18159 8.70474 0.67092C9.98955 0.183027 14.009 6.47648 16.4715 11.9616C16.7045 12.4686 16.9123 12.9527 17.1201 13.4368C17.9458 13.7007 19.6975 14.2732 21.8999 15.0001C21.8995 14.9769 21.8497 14.9778 21.824 14.9318L21.1754 13.4565C21.0975 13.272 21.218 13.0608 21.4402 12.9638L22.9716 12.3553C23.1937 12.2584 23.4441 12.3467 23.5221 12.5312L24.1706 14.0065C24.1706 14.0065 24.1736 14.169 24.1753 14.2619L24.9524 15.9672C26.8293 16.5839 28.8812 17.2437 30.8833 17.9046L30.2352 16.4526C30.1572 16.2682 30.2778 16.0568 30.4999 15.9599L32.0313 15.3514C32.2534 15.2544 32.5038 15.3429 32.5818 15.5273L33.2304 17.0025C33.2304 17.0025 33.2333 17.1651 33.235 17.258L33.9864 18.9173C39.1169 20.6136 43.3968 22.0464 43.498 22.1375C43.7762 22.3881 44.662 24.6025 44.662 24.6025C44.8951 25.1095 45.0274 25.5485 44.9532 25.573C44.9035 25.5739 44.5954 25.0451 44.3627 24.5614L33.9878 23.1226C34.1445 23.538 34.1757 23.8859 34.0767 23.9109C33.9283 23.9601 33.648 23.5934 33.4149 23.0864L33.4141 23.04L31.3441 22.7522C31.4756 23.1448 31.5312 23.469 31.4077 23.5177C31.2593 23.5668 30.979 23.2002 30.746 22.6933L28.8753 22.425L27.5846 22.5877C27.7671 23.0491 27.8493 23.4658 27.7009 23.515C27.5525 23.5641 27.2723 23.1974 27.0392 22.6905L27.0388 22.6673L24.4321 22.97C24.6146 23.4313 24.6715 23.8253 24.548 23.874C24.3996 23.9232 24.1193 23.5564 23.8863 23.0495L23.8858 23.0263L21.5026 23.3017C23.1121 27.0132 23.7109 28.4894 24.9293 31.209C26.1481 33.9518 27.1178 36.6758 27.8321 39.0328C30.6102 39.9584 36.1904 41.7628 36.1904 41.7628L37.0135 43.2581L29.1489 44.4457C29.2331 44.9785 29.266 45.4194 29.2718 45.7445C29.6912 46.9219 29.9035 47.6615 29.8049 47.7098C29.6814 47.7585 29.2717 47.1153 28.7053 46.0568C28.4773 45.8286 28.1721 45.4624 27.8147 44.9577L21.3273 49.3964L20.7761 47.8032C20.7761 47.8032 23.4915 42.5033 24.6917 40.0885C23.4606 38.043 22.0985 35.6281 20.709 33.0742C19.1796 29.6633 18.4813 28.1889 17.0319 25.0786L15.1662 26.4599C15.3993 26.9668 15.4823 27.4299 15.3339 27.4791C15.2104 27.5278 14.9558 27.2071 14.7236 26.7467L12.6614 28.2709L12.6619 28.2941C12.8949 28.801 12.9779 29.2642 12.8295 29.3134C12.706 29.3621 12.4266 29.0418 12.2192 28.5809L11.1882 29.343L10.0698 30.7805C10.3028 31.2874 10.3859 31.7506 10.2375 31.7997C10.114 31.8484 9.9104 31.5965 9.70473 31.2285L8.48939 32.8072L8.49023 32.8536C8.74816 33.3601 8.80629 33.8237 8.68278 33.8724C8.55927 33.9211 8.33042 33.6465 8.12433 33.2552L1.94899 41.1966C2.15676 41.6807 2.36663 42.281 2.31731 42.3051C2.24312 42.3297 2.01216 41.9389 1.77911 41.432C1.77911 41.432 0.695986 39.314 0.68927 38.9424C0.686752 38.803 2.60704 34.9348 4.91222 30.3393L4.16079 28.6801C4.16079 28.6801 3.98503 28.5903 3.9589 28.5211L3.31031 27.0458C3.23234 26.8613 3.35291 26.6501 3.57505 26.5531L5.10645 25.9446C5.3286 25.8477 5.57897 25.9361 5.65693 26.1206L6.3051 27.5725C7.21781 25.767 8.13011 23.9383 8.99518 22.2499L8.21805 20.5446C8.21805 20.5446 8.04228 20.4549 8.01615 20.3856L7.36756 18.9104C7.2896 18.7259 7.41017 18.5146 7.63231 18.4177L9.16371 17.8092C9.38585 17.7122 9.63622 17.8007 9.71419 17.9851L10.3628 19.4603C10.3628 19.4603 10.364 19.53 10.3645 19.5533C11.3493 17.6071 12.1422 16.0593 12.5267 15.3089C12.3189 14.8247 12.0863 14.341 11.8533 13.834L11.8524 13.7876Z" fill="black"/>
</svg>
