<svg width="340" height="214" viewBox="0 0 340 214" fill="none" xmlns="http://www.w3.org/2000/svg">
<path d="M279.25 118.989C280.626 120.776 282.002 122.587 283.354 124.421C283.736 124.925 284.485 125.074 285.026 124.716C285.567 124.358 285.728 123.658 285.346 123.154C283.994 121.296 282.617 119.462 281.217 117.675C280.835 117.171 280.061 117.046 279.521 117.427C279.176 117.643 279.009 118.017 279.015 118.366C279.019 118.598 279.098 118.806 279.251 119.012L279.25 118.989ZM289.352 128.704C290.654 130.562 291.957 132.444 293.235 134.349C293.593 134.877 293.432 135.577 292.841 135.913C292.275 136.248 291.525 136.076 291.167 135.548C289.889 133.666 288.612 131.784 287.31 129.949C287.182 129.765 287.104 129.558 287.1 129.349C287.093 128.977 287.285 128.602 287.655 128.386C288.221 128.05 288.969 128.176 289.327 128.704L289.352 128.704ZM251.738 87.4234C251.732 87.1214 251.851 86.8172 252.121 86.58C252.61 86.153 253.382 86.1622 253.838 86.6187C255.459 88.239 257.081 89.8825 258.703 91.5493C259.159 92.0057 259.098 92.7271 258.608 93.1541C258.118 93.5812 257.346 93.5255 256.89 93.069C255.293 91.4018 253.671 89.7815 252.05 88.1844C251.822 87.9794 251.718 87.7025 251.713 87.4238L251.738 87.4234ZM32.747 100.047C34.0236 101.859 35.3504 103.694 36.7273 105.551C37.1096 106.055 36.973 106.755 36.4325 107.136C35.8917 107.495 35.1431 107.369 34.736 106.865C33.3338 104.985 31.9817 103.128 30.7051 101.315C30.5774 101.132 30.5239 100.923 30.5201 100.714C30.5134 100.343 30.7056 99.9676 31.0749 99.7518C31.641 99.4163 32.39 99.5654 32.7474 100.07L32.747 100.047ZM296.946 140.067C298.174 141.974 299.379 143.903 300.558 145.857C300.892 146.409 300.68 147.086 300.113 147.398C299.522 147.711 298.797 147.515 298.464 146.987C297.285 145.057 296.081 143.127 294.877 141.243C294.775 141.059 294.721 140.874 294.718 140.688C294.711 140.294 294.928 139.918 295.297 139.702C295.864 139.39 296.613 139.562 296.946 140.091L296.946 140.067ZM261.296 97.3573C261.29 97.0321 261.434 96.7043 261.728 96.4898C262.243 96.0856 262.991 96.1418 263.422 96.5986C264.97 98.29 266.518 99.9813 268.042 101.72C268.449 102.2 268.387 102.921 267.872 103.303C267.356 103.707 266.584 103.628 266.177 103.147C264.654 101.432 263.13 99.7405 261.582 98.0492C261.379 97.8437 261.3 97.5896 261.296 97.3341L261.296 97.3573ZM45.2536 116.201C45.6604 116.681 45.5739 117.403 45.0584 117.784C44.5428 118.165 43.7702 118.086 43.3635 117.606C41.8386 115.821 40.3883 114.035 38.9886 112.294C38.8356 112.088 38.7568 111.857 38.753 111.648C38.7467 111.3 38.9145 110.948 39.234 110.733C39.7745 110.352 40.5226 110.454 40.9298 110.958C42.3295 112.699 43.7794 114.462 45.279 116.223L45.2536 116.201ZM270.65 108.364C270.472 108.158 270.393 107.927 270.389 107.695C270.383 107.346 270.551 107.018 270.845 106.78C271.361 106.399 272.133 106.478 272.54 106.959C274.014 108.698 275.465 110.484 276.915 112.27C277.322 112.751 277.21 113.473 276.67 113.854C276.129 114.236 275.381 114.133 274.974 113.629C273.549 111.843 272.099 110.08 270.625 108.364L270.65 108.364ZM54.3697 126.445C54.8013 126.925 54.7642 127.622 54.2495 128.05C53.7344 128.454 52.9874 128.421 52.531 127.942C50.9327 126.228 49.3842 124.513 47.8863 122.844C47.7085 122.638 47.6044 122.385 47.6002 122.153C47.5943 121.827 47.7376 121.5 48.0319 121.262C48.547 120.858 49.3196 120.937 49.7263 121.417C51.2243 123.086 52.7475 124.778 54.3457 126.492L54.3697 126.445ZM113.354 10.8362C111.007 10.3443 108.685 9.89832 106.389 9.49836C105.815 9.39257 105.409 8.93522 105.399 8.40102C105.398 8.33133 105.397 8.23848 105.395 8.1688C105.509 7.56268 106.148 7.15613 106.797 7.26058C109.118 7.66009 111.489 8.10516 113.861 8.59666C114.51 8.72434 114.919 9.32103 114.781 9.95082C114.643 10.5574 113.978 10.9411 113.329 10.8135L113.354 10.8362ZM99.3545 8.41736C96.9853 8.08844 94.6172 7.82918 92.2993 7.59226C91.6764 7.53382 91.2199 7.05413 91.2098 6.4967C91.209 6.45026 91.2081 6.4038 91.2073 6.35734C91.2706 5.7289 91.8595 5.27678 92.5326 5.35756C94.8998 5.57035 97.2683 5.85283 99.6873 6.18086C100.336 6.26207 100.819 6.85741 100.706 7.46355C100.617 8.09244 100.003 8.49858 99.3297 8.41781L99.3545 8.41736ZM304.073 151.741C305.203 153.696 306.333 155.673 307.439 157.675C307.747 158.227 307.511 158.905 306.919 159.194C306.327 159.484 305.602 159.265 305.293 158.713C304.188 156.734 303.082 154.756 301.953 152.825C301.85 152.664 301.822 152.479 301.819 152.316C301.812 151.922 302.054 151.522 302.448 151.306C303.04 151.016 303.765 151.212 304.098 151.764L304.073 151.741ZM127.147 14.165C124.847 13.5328 122.547 12.947 120.273 12.384C119.749 12.2541 119.392 11.7959 119.383 11.3081C119.382 11.2152 119.38 11.0991 119.428 11.0053C119.591 10.3983 120.256 10.0378 120.905 10.1886C123.204 10.7512 125.504 11.3369 127.829 11.9919C128.479 12.166 128.838 12.7869 128.65 13.3944C128.462 14.0018 127.797 14.3392 127.147 14.165ZM85.2248 7.06956C82.8344 6.95011 80.4448 6.87714 78.1307 6.84926C77.4841 6.86094 76.9527 6.35935 76.9413 5.73224L76.9409 5.70907C76.9296 5.08196 77.4927 4.58388 78.1646 4.59497C80.5285 4.62195 82.9429 4.69447 85.383 4.81302C86.0553 4.84734 86.5628 5.39575 86.5239 6.00053C86.4855 6.62854 85.9219 7.10343 85.2496 7.06911L85.2248 7.06956ZM133.925 16.1568C133.424 16.0032 133.093 15.5677 133.085 15.1032C133.083 14.9871 133.08 14.8477 133.153 14.7302C133.366 14.1455 134.056 13.8078 134.682 14.0056C136.933 14.6852 139.21 15.434 141.488 16.206C142.114 16.427 142.449 17.0715 142.211 17.6567C141.973 18.2418 141.282 18.5564 140.656 18.3353C138.403 17.5629 136.151 16.86 133.925 16.1568ZM185.622 38.2938C185.245 38.0915 185.039 37.7234 185.032 37.3518C185.029 37.1428 185.075 36.9328 185.196 36.7448C185.534 36.2043 186.277 36.0282 186.855 36.343C188.891 37.4679 190.952 38.6389 192.988 39.8335C193.567 40.1715 193.728 40.8656 193.365 41.3833C193.001 41.9243 192.258 42.0771 191.704 41.7386C189.668 40.544 187.657 39.3954 185.621 38.2705L185.622 38.2938ZM160.396 25.9013C159.97 25.7232 159.714 25.3096 159.706 24.8915C159.703 24.7289 159.75 24.5654 159.822 24.4015C160.11 23.8386 160.827 23.5934 161.428 23.8381C163.585 24.775 165.742 25.735 167.924 26.7179C168.526 26.9858 168.762 27.6785 168.474 28.2413C168.185 28.8042 167.443 29.0267 166.841 28.7588C164.684 27.7755 162.552 26.815 160.421 25.9009L160.396 25.9013ZM12.9827 51.2181C13.0209 53.3317 13.2345 55.5118 13.5732 57.7361C13.6587 58.3387 13.1967 58.9278 12.5513 59.0092C11.8811 59.091 11.2763 58.6605 11.1908 58.058C10.8504 55.7407 10.6352 53.4677 10.5953 51.2613C10.584 50.6341 11.1218 50.1132 11.7684 50.1016C12.4399 50.0894 12.9959 50.5673 13.0072 51.1944L12.9827 51.2181ZM25.4262 88.6552C26.53 90.5404 27.7092 92.4707 28.9631 94.3997C29.296 94.9281 29.1097 95.6285 28.5432 95.9407C27.9766 96.253 27.2272 96.0807 26.8942 95.5523C25.6147 93.5774 24.435 91.6238 23.3059 89.7158C23.2035 89.555 23.1753 89.3696 23.1724 89.2071C23.1652 88.8122 23.4068 88.4129 23.8009 88.1967C24.3927 87.9072 25.1177 88.1032 25.4511 88.6547L25.4262 88.6552ZM20.8003 26.7743C19.4138 28.5186 18.2031 30.3527 17.1685 32.2998C16.8802 32.8627 16.1379 33.0852 15.536 32.8172C15.1094 32.6158 14.8785 32.2251 14.8713 31.8302C14.868 31.6444 14.9148 31.4809 14.9865 31.317C16.0691 29.2761 17.3763 27.2776 18.8357 25.439C19.2248 24.944 19.9941 24.8372 20.5231 25.1994C21.0525 25.5848 21.1645 26.2798 20.7754 26.7747L20.8003 26.7743ZM146.617 19.2034C146.856 18.6182 147.572 18.3265 148.198 18.5708C150.402 19.3906 152.631 20.2332 154.837 21.1227C155.438 21.3674 155.724 22.036 155.46 22.5983C155.197 23.1839 154.48 23.4293 153.879 23.1846C151.674 22.2951 149.494 21.4516 147.29 20.655C146.815 20.4777 146.533 20.0646 146.525 19.6233C146.523 19.484 146.545 19.3209 146.617 19.1802L146.617 19.2034ZM174.298 29.7857C176.406 30.8164 178.515 31.8935 180.625 32.9938C181.203 33.2854 181.414 33.9786 181.076 34.5191C180.737 35.0596 180.019 35.2584 179.441 34.9436C177.357 33.8428 175.273 32.7885 173.165 31.781C172.763 31.5792 172.533 31.2116 172.525 30.7935C172.522 30.6077 172.568 30.4211 172.665 30.2567C172.978 29.6934 173.721 29.4941 174.298 29.7857ZM44.0386 10.416C44.2734 11.0158 43.9614 11.6488 43.3186 11.8695C41.0689 12.6536 38.9204 13.5288 36.873 14.4952C36.2812 14.7847 35.5558 14.5655 35.2469 13.9902C35.1694 13.829 35.1167 13.6673 35.1137 13.5047C35.1062 13.0867 35.3477 12.6873 35.7667 12.4706C37.8879 11.4565 40.1354 10.5562 42.4593 9.74748C43.0772 9.5272 43.779 9.8166 44.0137 10.4164L44.0386 10.416ZM72.1656 5.7721C72.2026 6.44522 71.6888 6.91918 71.0177 6.95453C68.6067 7.06782 66.2462 7.2266 63.962 7.47698C63.2914 7.53556 62.7114 7.10459 62.6255 6.47884C62.6251 6.45561 62.6242 6.40921 62.6238 6.38598C62.6133 5.80532 63.077 5.30901 63.6979 5.25132C66.0318 5.00005 68.4669 4.83991 70.9028 4.72619C71.5743 4.71406 72.1298 5.16869 72.166 5.79535L72.1656 5.7721ZM14.69 38.3157C14.0551 40.3485 13.5963 42.4944 13.3125 44.6835C13.2243 45.3124 12.635 45.7412 11.9623 45.6836C11.3641 45.6248 10.9077 45.1451 10.8976 44.5876C10.8968 44.5412 10.8959 44.4948 10.8947 44.4251C11.2013 42.1194 11.6824 39.8338 12.3401 37.6844C12.5282 37.0769 13.1938 36.7396 13.8437 36.9137C14.4937 37.0878 14.8532 37.7087 14.6651 38.3162L14.69 38.3157ZM57.9348 7.09799C58.0452 7.70009 57.6085 8.31205 56.9636 8.41663C54.6073 8.80772 52.278 9.31451 50.0739 9.86547C49.4302 10.0397 48.7769 9.6798 48.5919 9.07906C48.5902 8.98616 48.5637 8.89371 48.562 8.8008C48.5527 8.28984 48.9174 7.81856 49.4624 7.69254C51.7407 7.117 54.1202 6.6326 56.5507 6.21693C57.2205 6.1119 57.8498 6.51872 57.9601 7.12079L57.9348 7.09799ZM31.2078 16.2472C31.5901 16.7514 31.4539 17.4741 30.8878 17.8096C28.9449 19.0529 27.1041 20.4338 25.4634 21.8807C24.9736 22.3077 24.2022 22.2984 23.7462 21.842C23.5435 21.6365 23.4141 21.36 23.409 21.0813C23.4036 20.7794 23.5225 20.4752 23.7918 20.238C25.5303 18.6964 27.4693 17.2441 29.5104 15.9294C30.0512 15.5711 30.8247 15.6965 31.1825 16.2244L31.2078 16.2472ZM233.225 67.9163C235.018 69.3941 236.786 70.8955 238.555 72.4202C239.036 72.8529 239.073 73.5493 238.609 74.0223C238.145 74.4722 237.399 74.5089 236.894 74.0766C235.15 72.5515 233.381 71.0732 231.614 69.6182C231.361 69.3904 231.206 69.0912 231.201 68.7892C231.196 68.5105 231.29 68.23 231.51 68.0169C231.949 67.5443 232.72 67.5072 233.225 67.9163ZM19.3637 76.6831C20.2453 78.6653 21.2024 80.6926 22.2341 82.7185C22.5178 83.271 22.2564 83.9496 21.6646 84.2391C21.0723 84.5053 20.3465 84.2628 20.0629 83.7103C19.0055 81.6384 18.0226 79.5651 17.1153 77.537C17.063 77.3985 17.0356 77.2596 17.0331 77.1203C17.0251 76.679 17.3156 76.2323 17.7852 76.0611C18.4027 75.8176 19.1045 76.107 19.3637 76.6831ZM241.714 77.8696C241.709 77.5909 241.828 77.2867 242.048 77.0736C242.512 76.6238 243.283 76.6098 243.764 77.0426C245.483 78.5914 247.178 80.1639 248.874 81.7596C249.355 82.1923 249.343 82.9128 248.853 83.3631C248.389 83.8129 247.617 83.8037 247.136 83.3477C245.466 81.7515 243.771 80.2022 242.076 78.653C241.849 78.448 241.719 78.1483 241.714 77.8696ZM205.013 47.1904C205.566 47.5521 205.703 48.2467 205.315 48.7649C204.926 49.283 204.182 49.4126 203.628 49.0509C201.665 47.7853 199.702 46.5197 197.74 45.3237C197.388 45.121 197.207 44.7525 197.201 44.4041C197.196 44.1719 197.267 43.9615 197.413 43.7498C197.776 43.232 198.545 43.0787 199.099 43.4404C201.086 44.6591 203.074 45.9243 205.038 47.2132L205.013 47.1904ZM208.931 52.0219C208.927 51.7897 208.997 51.5328 209.168 51.3438C209.557 50.8489 210.325 50.7189 210.855 51.1043C212.769 52.4172 214.684 53.7534 216.6 55.1361C217.129 55.5215 217.216 56.2169 216.827 56.7118C216.413 57.2072 215.668 57.2904 215.14 56.9282C213.249 55.5684 211.334 54.2322 209.445 52.942C209.118 52.7155 208.963 52.393 208.956 52.0447L208.931 52.0219ZM14.9329 64.1473C15.4676 66.2054 16.128 68.331 16.8882 70.478C17.0981 71.0783 16.7613 71.7117 16.118 71.9092C15.4748 72.1067 14.7974 71.7937 14.5875 71.1934C13.8016 69.0004 13.14 66.8051 12.5791 64.6777C12.5775 64.5848 12.5514 64.5156 12.5497 64.4227C12.5404 63.9117 12.9051 63.4405 13.475 63.314C14.119 63.163 14.7728 63.5461 14.9329 64.1473ZM227.797 63.5302C228.302 63.9393 228.365 64.6584 227.925 65.1311C227.486 65.6037 226.741 65.6636 226.211 65.2549C224.394 63.824 222.552 62.3936 220.711 61.0096C220.409 60.7827 220.279 60.4831 220.273 60.1579C220.268 59.9024 220.363 59.6451 220.533 59.4329C220.947 58.9375 221.717 58.8772 222.247 59.2626C224.113 60.6461 225.955 62.0766 227.797 63.5302Z" fill="black"/>
<path d="M327.627 199.712C330.09 205.198 332.034 212.318 330.775 212.829C329.49 213.317 325.471 207.024 323.008 201.538C322.775 201.031 322.567 200.547 322.36 200.063C321.534 199.799 319.782 199.227 317.58 198.5C317.58 198.523 317.63 198.522 317.656 198.568L318.304 200.044C318.382 200.228 318.262 200.439 318.039 200.536L316.508 201.145C316.286 201.242 316.035 201.153 315.958 200.969L315.309 199.494C315.309 199.494 315.306 199.331 315.304 199.238L314.527 197.533C312.65 196.916 310.598 196.256 308.596 195.595L309.244 197.047C309.322 197.232 309.202 197.443 308.98 197.54L307.448 198.149C307.226 198.246 306.976 198.157 306.898 197.973L306.249 196.497C306.249 196.497 306.246 196.335 306.245 196.242L305.493 194.583C300.363 192.886 296.083 191.454 295.982 191.362C295.703 191.112 294.818 188.897 294.818 188.897C294.585 188.391 294.452 187.952 294.526 187.927C294.576 187.926 294.884 188.455 295.117 188.939L305.492 190.377C305.335 189.962 305.304 189.614 305.403 189.589C305.551 189.54 305.832 189.907 306.065 190.414L306.065 190.46L308.135 190.748C308.004 190.355 307.948 190.031 308.072 189.982C308.22 189.933 308.501 190.3 308.734 190.807L310.604 191.075L311.895 190.912C311.712 190.451 311.63 190.034 311.779 189.985C311.927 189.936 312.207 190.303 312.44 190.81L312.441 190.833L315.047 190.53C314.865 190.069 314.808 189.675 314.932 189.626C315.08 189.577 315.36 189.944 315.593 190.45L315.594 190.474L317.977 190.198C316.368 186.487 315.769 185.011 314.55 182.291C313.331 179.548 312.362 176.824 311.648 174.467C308.869 173.542 303.289 171.737 303.289 171.737L302.466 170.242L310.331 169.054C310.246 168.521 310.214 168.081 310.208 167.755C309.788 166.578 309.576 165.838 309.675 165.79C309.798 165.742 310.208 166.385 310.774 167.443C311.002 167.671 311.307 168.038 311.665 168.542L318.152 164.104L318.703 165.697C318.703 165.697 315.988 170.997 314.788 173.411C316.019 175.457 317.381 177.872 318.771 180.426C320.3 183.837 320.998 185.311 322.448 188.421L324.313 187.04C324.08 186.533 323.997 186.07 324.146 186.021C324.269 185.972 324.524 186.293 324.756 186.753L326.818 185.229L326.818 185.206C326.585 184.699 326.502 184.236 326.65 184.187C326.774 184.138 327.053 184.458 327.26 184.919L328.291 184.157L329.41 182.72C329.177 182.213 329.094 181.749 329.242 181.7C329.366 181.652 329.569 181.903 329.775 182.271L330.99 180.693L330.989 180.646C330.731 180.14 330.673 179.676 330.797 179.628C330.92 179.579 331.149 179.854 331.355 180.245L337.531 172.303C337.323 171.819 337.113 171.219 337.162 171.195C337.236 171.17 337.467 171.561 337.7 172.068C337.7 172.068 338.784 174.186 338.79 174.558C338.793 174.697 336.873 178.565 334.567 183.161L335.319 184.82C335.319 184.82 335.495 184.91 335.521 184.979L336.169 186.454C336.247 186.639 336.127 186.85 335.905 186.947L334.373 187.555C334.151 187.652 333.901 187.564 333.823 187.379L333.174 185.927C332.262 187.733 331.349 189.562 330.484 191.25L331.262 192.955C331.262 192.955 331.437 193.045 331.463 193.114L332.112 194.59C332.19 194.774 332.069 194.985 331.847 195.082L330.316 195.691C330.094 195.788 329.843 195.699 329.765 195.515L329.117 194.04C329.117 194.04 329.116 193.97 329.115 193.947C328.13 195.893 327.337 197.441 326.953 198.191C327.161 198.675 327.393 199.159 327.626 199.666L327.627 199.712Z" fill="black"/>
</svg>
