<svg width="188" height="157" viewBox="0 0 188 157" fill="none" xmlns="http://www.w3.org/2000/svg">
<path d="M44.323 69.5503C43.3107 68.235 42.298 66.9026 41.3034 65.5527C41.0221 65.1817 40.4709 65.0719 40.0729 65.3356C39.6749 65.5992 39.556 66.1143 39.8373 66.4854C40.8323 67.8523 41.8453 69.2018 42.8759 70.5168C43.1573 70.8879 43.7264 70.9802 44.1241 70.6995C44.3776 70.541 44.5007 70.2652 44.4961 70.0088C44.493 69.8379 44.4353 69.685 44.3227 69.5332L44.323 69.5503ZM36.8893 62.401C35.9309 61.0334 34.9723 59.6488 34.0316 58.2467C33.7682 57.8582 33.8871 57.3431 34.322 57.0959C34.7386 56.849 35.2901 56.9758 35.5534 57.3643C36.4938 58.7493 37.4342 60.1343 38.3923 61.4848C38.4862 61.6199 38.5439 61.7727 38.5467 61.9266C38.5516 62.2 38.4102 62.4762 38.1384 62.635C37.7218 62.8819 37.1709 62.7892 36.9076 62.4007L36.8893 62.401ZM64.5694 92.7791C64.5734 93.0013 64.4859 93.2252 64.2877 93.3998C63.9272 93.7141 63.3596 93.7072 63.024 93.3713C61.8308 92.179 60.6373 90.9695 59.4435 89.7429C59.1079 89.407 59.1532 88.8762 59.5137 88.5619C59.8741 88.2477 60.4424 88.2887 60.778 88.6245C61.9535 89.8514 63.1467 91.0438 64.3396 92.2191C64.5071 92.37 64.584 92.5737 64.5877 92.7788L64.5694 92.7791ZM225.724 83.4896C224.784 82.1559 223.808 80.8057 222.795 79.4391C222.513 79.0681 222.614 78.5533 223.012 78.2725C223.41 78.0089 223.96 78.1015 224.26 78.4722C225.292 79.8556 226.287 81.2226 227.226 82.5563C227.32 82.6914 227.36 82.8445 227.363 82.9983C227.367 83.2718 227.226 83.5479 226.954 83.7067C226.538 83.9536 225.986 83.8439 225.723 83.4725L225.724 83.4896ZM31.301 54.0387C30.3969 52.6359 29.5108 51.2157 28.6427 49.7781C28.3974 49.3722 28.5531 48.8736 28.97 48.6438C29.4053 48.4137 29.9388 48.5579 30.1838 48.9467C31.0516 50.3672 31.9377 51.7874 32.8232 53.1734C32.8988 53.3088 32.9379 53.4449 32.9404 53.5816C32.9456 53.8722 32.7859 54.1486 32.5141 54.3074C32.0972 54.5372 31.5457 54.4104 31.3007 54.0216L31.301 54.0387ZM57.5355 85.4688C57.5398 85.7081 57.4344 85.9494 57.2175 86.1072C56.8385 86.4047 56.2885 86.3633 55.9712 86.0271C54.832 84.7825 53.6927 83.5378 52.5712 82.2587C52.2719 81.905 52.3172 81.3742 52.6966 81.0938C53.0757 80.7963 53.6443 80.8544 53.9436 81.208C55.0648 82.4701 56.1857 83.715 57.3249 84.9597C57.4741 85.1109 57.5324 85.2979 57.5358 85.4859L57.5355 85.4688ZM216.52 71.6021C216.221 71.2484 216.284 70.7173 216.664 70.4368C217.043 70.1564 217.612 70.2145 217.911 70.5682C219.033 71.8815 220.101 73.1959 221.131 74.4767C221.243 74.6285 221.301 74.7984 221.304 74.9523C221.309 75.2086 221.185 75.4674 220.95 75.6255C220.552 75.9062 220.002 75.8307 219.702 75.4599C218.672 74.1791 217.605 72.8819 216.502 71.5853L216.52 71.6021ZM50.6521 77.3693C50.783 77.5208 50.841 77.6907 50.8441 77.8616C50.8487 78.118 50.725 78.3596 50.5084 78.5345C50.1291 78.8149 49.5605 78.7568 49.2612 78.4031C48.1762 77.1233 47.109 75.809 46.0417 74.4947C45.7424 74.141 45.8244 73.6095 46.222 73.3288C46.6197 73.048 47.1703 73.1235 47.4699 73.4943C48.5189 74.8089 49.5858 76.1062 50.6704 77.3689L50.6521 77.3693ZM209.812 64.0636C209.494 63.7103 209.521 63.1969 209.9 62.8822C210.279 62.5847 210.829 62.609 211.165 62.962C212.341 64.223 213.48 65.4848 214.583 66.713C214.714 66.8645 214.79 67.0512 214.793 67.2221C214.798 67.4614 214.692 67.7027 214.476 67.8776C214.097 68.1751 213.528 68.1169 213.229 67.7633C212.126 66.5351 211.005 65.2901 209.829 64.029L209.812 64.0636ZM166.405 149.139C168.133 149.501 169.841 149.829 171.531 150.124C171.953 150.202 172.252 150.538 172.259 150.931C172.26 150.983 172.261 151.051 172.262 151.102C172.179 151.548 171.708 151.847 171.231 151.771C169.523 151.477 167.778 151.149 166.032 150.787C165.554 150.693 165.254 150.254 165.355 149.791C165.457 149.344 165.946 149.062 166.424 149.156L166.405 149.139ZM176.708 150.919C178.451 151.161 180.194 151.352 181.899 151.527C182.358 151.57 182.694 151.923 182.701 152.333C182.702 152.367 182.702 152.401 182.703 152.435C182.657 152.898 182.223 153.23 181.728 153.171C179.986 153.014 178.243 152.807 176.463 152.565C175.986 152.505 175.63 152.067 175.713 151.621C175.778 151.158 176.231 150.86 176.726 150.919L176.708 150.919ZM26.0564 45.4479C25.2249 44.0096 24.3931 42.5542 23.5792 41.0815C23.3522 40.6752 23.5263 40.1762 23.9618 39.9632C24.3973 39.7502 24.9311 39.9115 25.1582 40.3177C25.9717 41.7734 26.7852 43.2291 27.6164 44.6503C27.6917 44.7686 27.7125 44.905 27.7147 45.0247C27.7199 45.3152 27.5422 45.6091 27.2521 45.7682C26.8166 45.9813 26.2831 45.837 26.0378 45.4311L26.0564 45.4479ZM156.255 146.69C157.948 147.155 159.64 147.586 161.313 148C161.7 148.096 161.962 148.433 161.969 148.792C161.97 148.86 161.971 148.946 161.936 149.015C161.816 149.462 161.326 149.727 160.848 149.616C159.157 149.202 157.465 148.771 155.753 148.289C155.275 148.161 155.01 147.704 155.149 147.257C155.287 146.81 155.777 146.562 156.255 146.69ZM187.106 151.911C188.865 151.999 190.623 152.053 192.326 152.073C192.802 152.065 193.193 152.434 193.201 152.895L193.202 152.912C193.21 153.374 192.796 153.74 192.301 153.732C190.562 153.712 188.785 153.659 186.989 153.572C186.494 153.546 186.121 153.143 186.15 152.698C186.178 152.236 186.593 151.886 187.087 151.911L187.106 151.911ZM151.268 145.224C151.636 145.337 151.88 145.657 151.886 145.999C151.887 146.085 151.889 146.187 151.836 146.274C151.679 146.704 151.171 146.953 150.71 146.807C149.054 146.307 147.378 145.756 145.702 145.188C145.241 145.025 144.994 144.551 145.17 144.12C145.345 143.69 145.853 143.458 146.314 143.621C147.972 144.189 149.629 144.706 151.268 145.224ZM113.224 128.933C113.501 129.082 113.653 129.353 113.658 129.627C113.66 129.78 113.627 129.935 113.537 130.073C113.288 130.471 112.741 130.601 112.316 130.369C110.818 129.541 109.302 128.679 107.803 127.8C107.377 127.552 107.258 127.041 107.526 126.66C107.793 126.262 108.341 126.149 108.748 126.398C110.247 127.277 111.726 128.123 113.224 128.951L113.224 128.933ZM131.787 138.053C132.101 138.184 132.29 138.488 132.295 138.796C132.297 138.916 132.263 139.036 132.21 139.157C131.998 139.571 131.47 139.751 131.028 139.571C129.441 138.882 127.854 138.175 126.248 137.452C125.805 137.255 125.631 136.745 125.843 136.331C126.055 135.917 126.602 135.753 127.044 135.95C128.632 136.674 130.201 137.381 131.769 138.053L131.787 138.053ZM240.268 119.422C240.24 117.867 240.083 116.263 239.834 114.626C239.771 114.182 240.111 113.749 240.586 113.689C241.079 113.629 241.524 113.946 241.587 114.389C241.837 116.094 241.996 117.767 242.025 119.391C242.033 119.852 241.638 120.236 241.162 120.244C240.668 120.253 240.259 119.901 240.25 119.44L240.268 119.422ZM231.111 91.8727C230.299 90.4853 229.431 89.0648 228.508 87.6453C228.263 87.2565 228.4 86.7411 228.817 86.5113C229.234 86.2815 229.786 86.4083 230.031 86.7971C230.972 88.2505 231.841 89.6881 232.671 91.0922C232.747 91.2105 232.768 91.3469 232.77 91.4666C232.775 91.7571 232.597 92.051 232.307 92.2101C231.872 92.4231 231.338 92.2789 231.093 91.873L231.111 91.8727ZM234.515 137.411C235.536 136.127 236.427 134.777 237.188 133.344C237.4 132.93 237.946 132.766 238.389 132.964C238.703 133.112 238.873 133.399 238.878 133.69C238.881 133.827 238.846 133.947 238.794 134.068C237.997 135.569 237.035 137.04 235.961 138.393C235.675 138.757 235.109 138.836 234.719 138.57C234.33 138.286 234.247 137.774 234.534 137.41L234.515 137.411ZM141.927 142.982C141.752 143.413 141.225 143.627 140.764 143.447C139.142 142.844 137.501 142.224 135.879 141.57C135.436 141.389 135.226 140.897 135.42 140.484C135.613 140.053 136.141 139.872 136.583 140.052C138.206 140.707 139.81 141.328 141.432 141.914C141.782 142.044 141.989 142.348 141.995 142.673C141.997 142.775 141.98 142.895 141.927 142.999L141.927 142.982ZM121.557 135.194C120.005 134.436 118.453 133.643 116.901 132.834C116.476 132.619 116.32 132.109 116.569 131.711C116.819 131.313 117.347 131.167 117.772 131.399C119.306 132.209 120.84 132.985 122.391 133.726C122.686 133.875 122.856 134.145 122.862 134.453C122.864 134.59 122.83 134.727 122.759 134.848C122.529 135.262 121.982 135.409 121.557 135.194ZM217.414 149.449C217.242 149.007 217.471 148.541 217.944 148.379C219.6 147.802 221.181 147.158 222.687 146.447C223.123 146.234 223.657 146.395 223.884 146.818C223.941 146.937 223.98 147.056 223.982 147.176C223.988 147.483 223.81 147.777 223.502 147.937C221.941 148.683 220.287 149.345 218.577 149.941C218.122 150.103 217.605 149.89 217.433 149.448L217.414 149.449ZM196.716 152.866C196.689 152.371 197.067 152.022 197.56 151.996C199.335 151.912 201.072 151.796 202.753 151.611C203.246 151.568 203.673 151.885 203.736 152.346C203.737 152.363 203.737 152.397 203.738 152.414C203.745 152.842 203.404 153.207 202.947 153.249C201.23 153.434 199.438 153.552 197.645 153.636C197.151 153.645 196.742 153.31 196.715 152.849L196.716 152.866ZM239.012 128.917C239.479 127.421 239.817 125.842 240.026 124.231C240.09 123.768 240.524 123.453 241.019 123.495C241.459 123.539 241.795 123.892 241.803 124.302C241.803 124.336 241.804 124.37 241.805 124.421C241.579 126.118 241.225 127.8 240.741 129.382C240.603 129.829 240.113 130.077 239.635 129.949C239.156 129.821 238.892 129.364 239.03 128.917L239.012 128.917ZM207.188 151.89C207.107 151.447 207.428 150.997 207.903 150.92C209.637 150.632 211.351 150.259 212.973 149.854C213.447 149.725 213.927 149.99 214.064 150.432C214.065 150.501 214.084 150.569 214.086 150.637C214.092 151.013 213.824 151.36 213.423 151.453C211.746 151.876 209.995 152.233 208.207 152.539C207.714 152.616 207.251 152.317 207.17 151.873L207.188 151.89ZM226.856 145.157C226.575 144.786 226.675 144.255 227.092 144.008C228.522 143.093 229.876 142.077 231.084 141.012C231.444 140.697 232.012 140.704 232.347 141.04C232.497 141.191 232.592 141.395 232.596 141.6C232.6 141.822 232.512 142.046 232.314 142.221C231.035 143.355 229.608 144.424 228.106 145.391C227.708 145.655 227.138 145.563 226.875 145.174L226.856 145.157ZM78.193 107.134C76.8735 106.047 75.5721 104.942 74.2703 103.82C73.9167 103.501 73.8891 102.989 74.2307 102.641C74.5725 102.31 75.1213 102.283 75.4932 102.601C76.7766 103.723 78.0778 104.811 79.3786 105.882C79.5647 106.05 79.6786 106.27 79.6826 106.492C79.6863 106.697 79.6168 106.903 79.4548 107.06C79.1316 107.408 78.5646 107.435 78.193 107.134ZM235.572 100.683C234.924 99.2242 234.219 97.7323 233.46 96.2414C233.251 95.8349 233.444 95.3355 233.879 95.1225C234.315 94.9265 234.849 95.105 235.058 95.5116C235.836 97.0363 236.559 98.562 237.227 100.055C237.266 100.156 237.286 100.259 237.288 100.361C237.293 100.686 237.08 101.015 236.734 101.141C236.28 101.32 235.763 101.107 235.572 100.683ZM71.9461 99.8098C71.9498 100.015 71.8623 100.239 71.7003 100.396C71.3585 100.727 70.7912 100.737 70.4376 100.418C69.1721 99.2786 67.9246 98.1214 66.6768 96.9471C66.3232 96.6287 66.3319 96.0985 66.6921 95.7671C67.034 95.4361 67.6016 95.4429 67.9555 95.7785C69.185 96.9531 70.4322 98.0932 71.6793 99.2333C71.8468 99.3841 71.9424 99.6047 71.9461 99.8098ZM98.9543 122.386C98.5467 122.12 98.4459 121.609 98.7319 121.228C99.018 120.846 99.5655 120.751 99.973 121.017C101.418 121.949 102.863 122.88 104.306 123.76C104.565 123.909 104.699 124.18 104.703 124.437C104.706 124.608 104.654 124.763 104.547 124.918C104.279 125.299 103.714 125.412 103.306 125.146C101.844 124.249 100.381 123.318 98.9357 122.37L98.9543 122.386ZM96.0707 118.831C96.0738 119.002 96.0223 119.191 95.8967 119.33C95.6103 119.694 95.0445 119.79 94.655 119.506C93.2462 118.54 91.8371 117.557 90.4273 116.539C90.0378 116.256 89.9736 115.744 90.2599 115.38C90.5646 115.015 91.1127 114.954 91.5019 115.22C92.893 116.221 94.3021 117.204 95.6923 118.154C95.9333 118.32 96.0475 118.558 96.0521 118.814L96.0707 118.831ZM238.833 109.908C238.44 108.393 237.954 106.829 237.394 105.249C237.24 104.807 237.488 104.341 237.961 104.196C238.434 104.051 238.933 104.281 239.087 104.723C239.666 106.337 240.152 107.952 240.565 109.518C240.566 109.586 240.586 109.637 240.587 109.705C240.594 110.081 240.325 110.428 239.906 110.521C239.432 110.632 238.951 110.35 238.833 109.908ZM82.1874 110.362C81.8158 110.061 81.7696 109.532 82.0928 109.184C82.4161 108.836 82.9645 108.792 83.3544 109.093C84.6915 110.146 86.047 111.198 87.4018 112.217C87.6245 112.384 87.72 112.604 87.7243 112.844C87.7277 113.032 87.6579 113.221 87.5326 113.377C87.228 113.742 86.6612 113.786 86.2717 113.503C84.8985 112.484 83.5431 111.432 82.1874 110.362Z" fill="black"/>
<path d="M44.323 69.5874C43.3107 68.2721 42.298 66.9397 41.3034 65.5898C41.0221 65.2188 40.4709 65.109 40.0729 65.3727C39.6749 65.6363 39.556 66.1514 39.8373 66.5225C40.8323 67.8894 41.8453 69.2389 42.8759 70.5539C43.1573 70.925 43.7264 71.0173 44.1241 70.7366C44.3776 70.5781 44.5007 70.3023 44.4961 70.0459C44.493 69.875 44.4353 69.7221 44.3227 69.5703L44.323 69.5874ZM36.8893 62.4381C35.9309 61.0705 34.9723 59.6859 34.0316 58.2838C33.7682 57.8953 33.8871 57.3802 34.322 57.133C34.7386 56.8861 35.2901 57.0129 35.5534 57.4014C36.4938 58.7864 37.4342 60.1714 38.3923 61.5219C38.4862 61.657 38.5439 61.8099 38.5467 61.9637C38.5516 62.2372 38.4102 62.5133 38.1384 62.6721C37.7218 62.919 37.1709 62.8263 36.9076 62.4378L36.8893 62.4381ZM64.5694 92.8163C64.5734 93.0385 64.4859 93.2623 64.2877 93.4369C63.9272 93.7512 63.3596 93.7443 63.024 93.4084C61.8308 92.2161 60.6373 91.0066 59.4435 89.78C59.1079 89.4442 59.1532 88.9133 59.5137 88.599C59.8741 88.2848 60.4424 88.3258 60.778 88.6617C61.9535 89.8885 63.1467 91.0809 64.3396 92.2562C64.5071 92.4071 64.584 92.6108 64.5877 92.8159L64.5694 92.8163ZM225.724 83.5267C224.784 82.193 223.808 80.8428 222.795 79.4762C222.513 79.1052 222.614 78.5904 223.012 78.3096C223.41 78.046 223.96 78.1386 224.26 78.5094C225.292 79.8927 226.287 81.2597 227.226 82.5934C227.32 82.7285 227.36 82.8816 227.363 83.0354C227.367 83.3089 227.226 83.585 226.954 83.7438C226.538 83.9907 225.986 83.881 225.723 83.5096L225.724 83.5267ZM31.301 54.0758C30.3969 52.6731 29.5108 51.2528 28.6427 49.8152C28.3974 49.4093 28.5531 48.9107 28.97 48.6809C29.4053 48.4508 29.9388 48.595 30.1838 48.9838C31.0516 50.4043 31.9377 51.8245 32.8232 53.2105C32.8988 53.3459 32.9379 53.482 32.9404 53.6188C32.9456 53.9093 32.7859 54.1857 32.5141 54.3445C32.0972 54.5743 31.5457 54.4475 31.3007 54.0587L31.301 54.0758ZM57.5355 85.5059C57.5398 85.7452 57.4344 85.9865 57.2175 86.1443C56.8385 86.4418 56.2885 86.4004 55.9712 86.0642C54.832 84.8196 53.6927 83.5749 52.5712 82.2958C52.2719 81.9421 52.3172 81.4113 52.6966 81.1309C53.0757 80.8334 53.6443 80.8915 53.9436 81.2451C55.0648 82.5072 56.1857 83.7521 57.3249 84.9968C57.4741 85.148 57.5324 85.335 57.5358 85.523L57.5355 85.5059ZM216.52 71.6392C216.221 71.2855 216.284 70.7544 216.664 70.474C217.043 70.1935 217.612 70.2516 217.911 70.6053C219.033 71.9186 220.101 73.233 221.131 74.5138C221.243 74.6656 221.301 74.8355 221.304 74.9894C221.309 75.2458 221.185 75.5045 220.95 75.6626C220.552 75.9433 220.002 75.8678 219.702 75.4971C218.672 74.2162 217.605 72.919 216.502 71.6225L216.52 71.6392ZM50.6521 77.4064C50.783 77.5579 50.841 77.7278 50.8441 77.8987C50.8487 78.1551 50.725 78.3967 50.5084 78.5716C50.1291 78.852 49.5605 78.7939 49.2612 78.4403C48.1762 77.1604 47.109 75.8461 46.0417 74.5318C45.7424 74.1781 45.8244 73.6466 46.222 73.3659C46.6197 73.0851 47.1703 73.1606 47.4699 73.5314C48.5189 74.846 49.5858 76.1433 50.6704 77.406L50.6521 77.4064ZM209.812 64.1007C209.494 63.7474 209.521 63.234 209.9 62.9194C210.279 62.6218 210.829 62.6461 211.165 62.9991C212.341 64.2602 213.48 65.5219 214.583 66.7501C214.714 66.9016 214.79 67.0883 214.793 67.2592C214.798 67.4985 214.692 67.7398 214.476 67.9147C214.097 68.2122 213.528 68.154 213.229 67.8004C212.126 66.5722 211.005 65.3272 209.829 64.0661L209.812 64.1007ZM166.405 149.176C168.133 149.538 169.841 149.867 171.531 150.161C171.953 150.239 172.252 150.575 172.259 150.968C172.26 151.02 172.261 151.088 172.262 151.139C172.179 151.585 171.708 151.885 171.231 151.808C169.523 151.514 167.778 151.186 166.032 150.824C165.554 150.731 165.254 150.291 165.355 149.828C165.457 149.382 165.946 149.099 166.424 149.193L166.405 149.176ZM176.708 150.956C178.451 151.198 180.194 151.389 181.899 151.564C182.358 151.607 182.694 151.96 182.701 152.37C182.702 152.404 182.702 152.438 182.703 152.472C182.657 152.935 182.223 153.268 181.728 153.208C179.986 153.052 178.243 152.844 176.463 152.602C175.986 152.543 175.63 152.104 175.713 151.658C175.778 151.196 176.231 150.897 176.726 150.956L176.708 150.956ZM26.0564 45.485C25.2249 44.0467 24.3931 42.5914 23.5792 41.1186C23.3522 40.7123 23.5263 40.2134 23.9618 40.0003C24.3973 39.7873 24.9311 39.9486 25.1582 40.3548C25.9717 41.8105 26.7852 43.2662 27.6164 44.6874C27.6917 44.8057 27.7125 44.9421 27.7147 45.0618C27.7199 45.3524 27.5422 45.6462 27.2521 45.8053C26.8166 46.0184 26.2831 45.8742 26.0378 45.4682L26.0564 45.485ZM156.255 146.727C157.948 147.192 159.64 147.623 161.313 148.037C161.7 148.133 161.962 148.47 161.969 148.829C161.97 148.897 161.971 148.983 161.936 149.052C161.816 149.499 161.326 149.764 160.848 149.653C159.157 149.239 157.465 148.808 155.753 148.326C155.275 148.198 155.01 147.741 155.149 147.294C155.287 146.847 155.777 146.599 156.255 146.727ZM187.106 151.948C188.865 152.036 190.623 152.09 192.326 152.11C192.802 152.102 193.193 152.471 193.201 152.932L193.202 152.949C193.21 153.411 192.796 153.777 192.301 153.769C190.562 153.749 188.785 153.696 186.989 153.609C186.494 153.584 186.121 153.18 186.15 152.735C186.178 152.273 186.593 151.923 187.087 151.949L187.106 151.948ZM151.268 145.261C151.636 145.374 151.88 145.695 151.886 146.036C151.887 146.122 151.889 146.224 151.836 146.311C151.679 146.741 151.171 146.99 150.71 146.844C149.054 146.344 147.378 145.793 145.702 145.225C145.241 145.062 144.994 144.588 145.17 144.157C145.345 143.727 145.853 143.495 146.314 143.658C147.972 144.226 149.629 144.744 151.268 145.261ZM113.224 128.971C113.501 129.119 113.653 129.39 113.658 129.664C113.66 129.818 113.627 129.972 113.537 130.11C113.288 130.508 112.741 130.638 112.316 130.406C110.818 129.578 109.302 128.717 107.803 127.837C107.377 127.589 107.258 127.078 107.526 126.697C107.793 126.299 108.341 126.186 108.748 126.435C110.247 127.315 111.726 128.16 113.224 128.988L113.224 128.971ZM131.787 138.09C132.101 138.221 132.29 138.526 132.295 138.833C132.297 138.953 132.263 139.073 132.21 139.194C131.998 139.608 131.47 139.788 131.028 139.608C129.441 138.919 127.854 138.212 126.248 137.489C125.805 137.292 125.631 136.782 125.843 136.368C126.055 135.954 126.602 135.79 127.044 135.987C128.632 136.711 130.201 137.418 131.769 138.09L131.787 138.09ZM240.268 119.46C240.24 117.904 240.083 116.3 239.834 114.663C239.771 114.22 240.111 113.786 240.586 113.726C241.079 113.666 241.524 113.983 241.587 114.426C241.837 116.131 241.996 117.804 242.025 119.428C242.033 119.889 241.638 120.273 241.162 120.281C240.668 120.29 240.259 119.938 240.25 119.477L240.268 119.46ZM231.111 91.9098C230.299 90.5225 229.431 89.1019 228.508 87.6824C228.263 87.2936 228.4 86.7782 228.817 86.5484C229.234 86.3186 229.786 86.4454 230.031 86.8342C230.972 88.2876 231.841 89.7252 232.671 91.1293C232.747 91.2476 232.768 91.384 232.77 91.5037C232.775 91.7942 232.597 92.0881 232.307 92.2472C231.872 92.4602 231.338 92.316 231.093 91.9101L231.111 91.9098ZM234.515 137.448C235.536 136.164 236.427 134.814 237.188 133.381C237.4 132.967 237.946 132.804 238.389 133.001C238.703 133.149 238.873 133.436 238.878 133.727C238.881 133.864 238.846 133.984 238.794 134.105C237.997 135.607 237.035 137.077 235.961 138.43C235.675 138.795 235.109 138.873 234.719 138.607C234.33 138.323 234.247 137.812 234.534 137.447L234.515 137.448ZM141.927 143.019C141.752 143.45 141.225 143.664 140.764 143.485C139.142 142.881 137.501 142.261 135.879 141.607C135.436 141.427 135.226 140.935 135.42 140.521C135.613 140.09 136.141 139.909 136.583 140.089C138.206 140.744 139.81 141.365 141.432 141.951C141.782 142.081 141.989 142.385 141.995 142.71C141.997 142.813 141.98 142.933 141.927 143.036L141.927 143.019ZM121.557 135.232C120.005 134.473 118.453 133.68 116.901 132.871C116.476 132.656 116.32 132.146 116.569 131.748C116.819 131.351 117.347 131.204 117.772 131.436C119.306 132.246 120.84 133.022 122.391 133.763C122.686 133.912 122.856 134.182 122.862 134.49C122.864 134.627 122.83 134.764 122.759 134.885C122.529 135.299 121.982 135.446 121.557 135.232ZM217.414 149.486C217.242 149.044 217.471 148.578 217.944 148.416C219.6 147.839 221.181 147.195 222.687 146.484C223.123 146.271 223.657 146.432 223.884 146.855C223.941 146.974 223.98 147.093 223.982 147.213C223.988 147.52 223.81 147.814 223.502 147.974C221.941 148.72 220.287 149.382 218.577 149.978C218.122 150.14 217.605 149.927 217.433 149.485L217.414 149.486ZM196.716 152.903C196.689 152.408 197.067 152.059 197.56 152.033C199.335 151.95 201.072 151.833 202.753 151.648C203.246 151.605 203.673 151.922 203.736 152.383C203.737 152.4 203.737 152.434 203.738 152.451C203.745 152.879 203.404 153.244 202.947 153.286C201.23 153.471 199.438 153.589 197.645 153.673C197.151 153.682 196.742 153.347 196.715 152.886L196.716 152.903ZM239.012 128.954C239.479 127.458 239.817 125.879 240.026 124.268C240.09 123.806 240.524 123.49 241.019 123.532C241.459 123.576 241.795 123.929 241.803 124.339C241.803 124.373 241.804 124.407 241.805 124.458C241.579 126.155 241.225 127.837 240.741 129.419C240.603 129.866 240.113 130.114 239.635 129.986C239.156 129.858 238.892 129.401 239.03 128.954L239.012 128.954ZM207.188 151.927C207.107 151.484 207.428 151.034 207.903 150.957C209.637 150.669 211.351 150.296 212.973 149.891C213.447 149.763 213.927 150.027 214.064 150.469C214.065 150.538 214.084 150.606 214.086 150.674C214.092 151.05 213.824 151.397 213.423 151.49C211.746 151.913 209.995 152.27 208.207 152.576C207.714 152.653 207.251 152.354 207.17 151.911L207.188 151.927ZM226.856 145.194C226.575 144.823 226.675 144.292 227.092 144.045C228.522 143.13 229.876 142.114 231.084 141.049C231.444 140.735 232.012 140.741 232.347 141.077C232.497 141.228 232.592 141.432 232.596 141.637C232.6 141.859 232.512 142.083 232.314 142.258C231.035 143.392 229.608 144.461 228.106 145.428C227.708 145.692 227.138 145.6 226.875 145.211L226.856 145.194ZM78.193 107.171C76.8735 106.084 75.5721 104.979 74.2703 103.857C73.9167 103.539 73.8891 103.026 74.2307 102.678C74.5725 102.347 75.1213 102.32 75.4932 102.638C76.7766 103.76 78.0778 104.848 79.3786 105.919C79.5647 106.087 79.6786 106.307 79.6826 106.529C79.6863 106.734 79.6168 106.941 79.4548 107.097C79.1316 107.445 78.5646 107.473 78.193 107.171ZM235.572 100.72C234.924 99.2613 234.219 97.7694 233.46 96.2786C233.251 95.872 233.444 95.3726 233.879 95.1596C234.315 94.9636 234.849 95.1421 235.058 95.5487C235.836 97.0734 236.559 98.5991 237.227 100.092C237.266 100.194 237.286 100.296 237.288 100.398C237.293 100.723 237.08 101.052 236.734 101.178C236.28 101.357 235.763 101.144 235.572 100.72ZM71.9461 99.8469C71.9498 100.052 71.8623 100.276 71.7003 100.433C71.3585 100.764 70.7912 100.774 70.4376 100.455C69.1721 99.3157 67.9246 98.1585 66.6768 96.9842C66.3232 96.6658 66.3319 96.1356 66.6921 95.8042C67.034 95.4732 67.6016 95.48 67.9555 95.8156C69.185 96.9902 70.4322 98.1303 71.6793 99.2704C71.8468 99.4212 71.9424 99.6418 71.9461 99.8469ZM98.9543 122.424C98.5467 122.157 98.4459 121.646 98.7319 121.265C99.018 120.884 99.5655 120.788 99.973 121.054C101.418 121.986 102.863 122.917 104.306 123.797C104.565 123.946 104.699 124.218 104.703 124.474C104.706 124.645 104.654 124.8 104.547 124.955C104.279 125.336 103.714 125.449 103.306 125.183C101.844 124.286 100.381 123.355 98.9357 122.407L98.9543 122.424ZM96.0707 118.868C96.0738 119.039 96.0223 119.228 95.8967 119.367C95.6103 119.731 95.0445 119.827 94.655 119.543C93.2462 118.577 91.8371 117.594 90.4273 116.576C90.0378 116.293 89.9736 115.781 90.2599 115.417C90.5646 115.052 91.1127 114.991 91.5019 115.258C92.893 116.258 94.3021 117.242 95.6923 118.191C95.9333 118.358 96.0475 118.595 96.0521 118.851L96.0707 118.868ZM238.833 109.945C238.44 108.43 237.954 106.866 237.394 105.286C237.24 104.845 237.488 104.378 237.961 104.233C238.434 104.088 238.933 104.318 239.087 104.76C239.666 106.374 240.152 107.989 240.565 109.555C240.566 109.623 240.586 109.674 240.587 109.742C240.594 110.118 240.325 110.465 239.906 110.558C239.432 110.669 238.951 110.387 238.833 109.945ZM82.1874 110.399C81.8158 110.098 81.7696 109.569 82.0928 109.221C82.4161 108.873 82.9645 108.829 83.3544 109.13C84.6915 110.183 86.047 111.236 87.4018 112.254C87.6245 112.421 87.72 112.642 87.7243 112.881C87.7277 113.069 87.6579 113.258 87.5326 113.414C87.228 113.779 86.6612 113.823 86.2717 113.54C84.8985 112.522 83.5431 111.469 82.1874 110.399Z" fill="black"/>
<path d="M8.72275 10.1465C6.91063 6.10999 5.47952 0.869761 6.40639 0.493961C7.35187 0.134923 10.3098 4.76625 12.1219 8.80274C12.2934 9.17579 12.4463 9.53205 12.5992 9.88833C13.2068 10.0825 14.4959 10.5038 16.1166 11.0387C16.1163 11.0216 16.0797 11.0223 16.0608 10.9885L15.5835 9.90281C15.5261 9.76707 15.6149 9.6116 15.7783 9.54025L16.9053 9.09245C17.0688 9.0211 17.253 9.08614 17.3104 9.22189L17.7877 10.3075C17.7877 10.3075 17.7898 10.4272 17.7911 10.4955L18.363 11.7504C19.7442 12.2042 21.2542 12.6898 22.7275 13.1761L22.2505 12.1076C22.1931 11.9719 22.2819 11.8164 22.4453 11.745L23.5723 11.2972C23.7358 11.2259 23.92 11.291 23.9774 11.4267L24.4547 12.5123C24.4547 12.5123 24.4569 12.632 24.4581 12.7003L25.0111 13.9214C28.7866 15.1697 31.9361 16.2241 32.0106 16.2911C32.2153 16.4755 32.8672 18.1051 32.8672 18.1051C33.0387 18.4782 33.1361 18.8012 33.0815 18.8193C33.0449 18.82 32.8181 18.4308 32.6469 18.0749L25.0121 17.016C25.1274 17.3217 25.1504 17.5778 25.0775 17.5962C24.9683 17.6323 24.762 17.3625 24.5905 16.9894L24.5899 16.9553L23.0666 16.7434C23.1633 17.0324 23.2043 17.271 23.1134 17.3068C23.0042 17.343 22.7979 17.0732 22.6264 16.7001L21.2498 16.5027L20.3 16.6225C20.4343 16.962 20.4948 17.2686 20.3856 17.3048C20.2764 17.341 20.0701 17.0711 19.8986 16.6981L19.8983 16.681L17.9801 16.9037C18.1144 17.2432 18.1562 17.5332 18.0654 17.569C17.9562 17.6052 17.7499 17.3353 17.5784 16.9623L17.5781 16.9452L15.8243 17.1478C17.0087 19.8792 17.4494 20.9655 18.346 22.9668C19.2429 24.9852 19.9565 26.9898 20.4821 28.7243C22.5265 29.4054 26.633 30.7333 26.633 30.7333L27.2387 31.8336L21.4511 32.7076C21.5131 33.0997 21.5373 33.4241 21.5416 33.6634C21.8502 34.5298 22.0065 35.0741 21.9339 35.1096C21.843 35.1455 21.5415 34.6722 21.1247 33.8932C20.9569 33.7253 20.7324 33.4558 20.4693 33.0844L15.6953 36.3508L15.2897 35.1784C15.2897 35.1784 17.2879 31.2782 18.1711 29.5012C17.2652 27.9959 16.2628 26.2188 15.2403 24.3394C14.1148 21.8293 13.6009 20.7443 12.5343 18.4554L11.1613 19.4719C11.3328 19.845 11.3939 20.1858 11.2847 20.222C11.1938 20.2578 11.0065 20.0219 10.8356 19.683L9.3181 20.8046L9.31841 20.8217C9.48991 21.1948 9.551 21.5356 9.44181 21.5718C9.35092 21.6076 9.14528 21.372 8.9927 21.0328L8.23393 21.5936L7.41092 22.6514C7.58242 23.0245 7.64351 23.3653 7.53432 23.4015C7.44343 23.4373 7.29362 23.252 7.14227 22.9812L6.24791 24.1429L6.24853 24.177C6.43833 24.5498 6.48111 24.8909 6.39022 24.9268C6.29934 24.9626 6.13092 24.7605 5.97926 24.4726L1.43486 30.3166C1.58775 30.6729 1.74219 31.1146 1.7059 31.1324C1.65131 31.1504 1.48135 30.8629 1.30984 30.4899C1.30984 30.4899 0.512777 28.9312 0.507835 28.6578C0.505982 28.5552 1.91911 25.7086 3.61548 22.3268L3.06251 21.1058C3.06251 21.1058 2.93317 21.0397 2.91394 20.9888L2.43664 19.9031C2.37927 19.7674 2.468 19.6119 2.63147 19.5406L3.75842 19.0928C3.92189 19.0214 4.10614 19.0865 4.16352 19.2222L4.6405 20.2907C5.31216 18.9621 5.98351 17.6163 6.62012 16.3738L6.04823 15.1189C6.04823 15.1189 5.91888 15.0529 5.89966 15.0019L5.42236 13.9163C5.36499 13.7805 5.45371 13.6251 5.61719 13.5537L6.74413 13.1059C6.90761 13.0346 7.09186 13.0997 7.14923 13.2354L7.62653 14.321C7.62653 14.321 7.62745 14.3723 7.62776 14.3894C8.35247 12.9572 8.93602 11.8182 9.21896 11.266C9.06606 10.9097 8.89487 10.5537 8.72336 10.1806L8.72275 10.1465Z" fill="black"/>
</svg>
