<svg width="19" height="18" viewBox="0 0 19 18" fill="none" xmlns="http://www.w3.org/2000/svg">
<path d="M5.61462 17.2164C5.97928 17.6975 8.43382 16.7879 11.096 15.1842C13.7589 13.5806 15.6213 11.8909 15.2558 11.4098C14.8904 10.9287 12.4366 11.839 9.77371 13.4427C7.11156 15.0457 5.2492 16.736 5.61462 17.2164Z" fill="#D16D56"/>
<path d="M14.969 9.93863C15.1536 10.9234 16.2001 11.588 17.3055 11.4229C18.411 11.2584 19.1564 10.3262 18.9718 9.34153C18.7871 8.35681 17.7407 7.69282 16.6352 7.85728C15.5305 8.02243 14.7843 8.95392 14.969 9.93863Z" fill="#D16D56"/>
<path d="M14.3417 10.0355C14.3172 9.56737 14.0782 9.30941 14.0177 9.23298C14.0154 9.23025 14.0138 9.22957 14.0138 9.22957C13.1374 8.22506 10.6017 7.28607 7.51511 6.92439C7.29984 6.89846 7.08687 6.8773 6.87619 6.85888C4.56567 4.29438 3.53988 1.68416 4.58252 0.887786C5.68492 0.047056 8.68339 1.55382 11.2789 4.25275C13.4124 6.47331 14.5961 8.80784 14.3417 10.0355Z" fill="#D16D56"/>
<path d="M13.9495 10.6886C12.936 11.5511 10.0839 11.949 6.82952 11.5675C2.87268 11.1041 -0.180181 9.68951 0.00827637 8.40658C0.187541 7.1953 3.2021 6.53541 6.87549 6.85887C7.00725 7.00627 7.14438 7.15299 7.28534 7.29971C9.16379 9.25277 11.2514 10.5814 12.6801 10.8482C12.6801 10.8482 12.6817 10.8482 12.6824 10.8489C12.9942 10.9069 13.2754 10.9144 13.5152 10.8674C13.5512 10.8605 13.5864 10.8517 13.6232 10.8407C13.794 10.7896 13.9495 10.6886 13.9495 10.6886Z" fill="#D16D56"/>
</svg>
