<svg width="168" height="157" viewBox="0 0 168 157" fill="none" xmlns="http://www.w3.org/2000/svg">
<path d="M123.307 69.5503C124.319 68.235 125.332 66.9026 126.326 65.5527C126.608 65.1817 127.159 65.0719 127.557 65.3356C127.955 65.5992 128.074 66.1143 127.792 66.4854C126.797 67.8523 125.784 69.2018 124.754 70.5168C124.472 70.8879 123.903 70.9802 123.505 70.6995C123.252 70.541 123.129 70.2652 123.133 70.0088C123.137 69.8379 123.194 69.685 123.307 69.5332L123.307 69.5503ZM130.74 62.401C131.699 61.0334 132.657 59.6488 133.598 58.2467C133.861 57.8582 133.742 57.3431 133.308 57.0959C132.891 56.849 132.339 56.9758 132.076 57.3643C131.136 58.7493 130.195 60.1343 129.237 61.4848C129.143 61.6199 129.086 61.7727 129.083 61.9266C129.078 62.2 129.219 62.4762 129.491 62.635C129.908 62.8819 130.459 62.7892 130.722 62.4007L130.74 62.401ZM103.06 92.7791C103.056 93.0013 103.144 93.2252 103.342 93.3998C103.702 93.7141 104.27 93.7072 104.606 93.3713C105.799 92.179 106.992 90.9695 108.186 89.7429C108.522 89.407 108.476 88.8762 108.116 88.5619C107.755 88.2477 107.187 88.2887 106.852 88.6245C105.676 89.8514 104.483 91.0438 103.29 92.2191C103.122 92.37 103.046 92.5737 103.042 92.7788L103.06 92.7791ZM-58.0942 83.4896C-57.1547 82.1559 -56.1784 80.8057 -55.1651 79.4391C-54.8838 79.0681 -54.9843 78.5533 -55.382 78.2725C-55.78 78.0089 -56.3309 78.1015 -56.6305 78.4722C-57.6624 79.8556 -58.6573 81.2226 -59.5968 82.5563C-59.6908 82.6914 -59.7302 82.8445 -59.7329 82.9983C-59.7379 83.2718 -59.5964 83.5479 -59.3247 83.7067C-58.9081 83.9536 -58.3569 83.8439 -58.0939 83.4725L-58.0942 83.4896ZM136.329 54.0387C137.233 52.6359 138.119 51.2157 138.987 49.7781C139.232 49.3722 139.076 48.8736 138.66 48.6438C138.224 48.4137 137.691 48.5579 137.446 48.9467C136.578 50.3672 135.692 51.7874 134.806 53.1734C134.731 53.3088 134.692 53.4449 134.689 53.5816C134.684 53.8722 134.844 54.1486 135.115 54.3074C135.532 54.5372 136.084 54.4104 136.329 54.0216L136.329 54.0387ZM110.094 85.4688C110.09 85.7081 110.195 85.9494 110.412 86.1072C110.791 86.4047 111.341 86.3633 111.658 86.0271C112.798 84.7825 113.937 83.5378 115.058 82.2587C115.358 81.905 115.312 81.3742 114.933 81.0938C114.554 80.7963 113.985 80.8544 113.686 81.208C112.565 82.4701 111.444 83.715 110.305 84.9597C110.155 85.1109 110.097 85.2979 110.094 85.4859L110.094 85.4688ZM-48.8906 71.6021C-48.5913 71.2484 -48.6549 70.7173 -49.0343 70.4368C-49.4137 70.1564 -49.9822 70.2145 -50.2815 70.5682C-51.4037 71.8815 -52.471 73.1959 -53.501 74.4767C-53.6136 74.6285 -53.6716 74.7984 -53.6744 74.9523C-53.679 75.2086 -53.5555 75.4674 -53.3204 75.6255C-52.9227 75.9062 -52.3721 75.8307 -52.0725 75.4599C-51.0425 74.1791 -49.9755 72.8819 -48.872 71.5853L-48.8906 71.6021ZM116.977 77.3693C116.847 77.5208 116.789 77.6907 116.785 77.8616C116.781 78.118 116.905 78.3596 117.121 78.5345C117.501 78.8149 118.069 78.7568 118.368 78.4031C119.453 77.1233 120.521 75.809 121.588 74.4947C121.887 74.141 121.805 73.6095 121.408 73.3288C121.01 73.048 120.459 73.1235 120.16 73.4943C119.111 74.8089 118.044 76.1062 116.959 77.3689L116.977 77.3693ZM-42.1821 64.0636C-41.8645 63.7103 -41.8918 63.1969 -42.2706 62.8822C-42.6497 62.5847 -43.1993 62.609 -43.5352 62.962C-44.7114 64.223 -45.8509 65.4848 -46.9532 66.713C-47.0841 66.8645 -47.1607 67.0512 -47.1638 67.2221C-47.1681 67.4614 -47.0626 67.7027 -46.8461 67.8776C-46.467 68.1751 -45.8985 68.1169 -45.5992 67.7633C-44.4968 66.5351 -43.3759 65.2901 -42.1998 64.029L-42.1821 64.0636ZM1.22447 149.139C-0.502937 149.501 -2.21143 149.829 -3.901 150.124C-4.32346 150.202 -4.62247 150.538 -4.62958 150.931C-4.6305 150.983 -4.63174 151.051 -4.63266 151.102C-4.54919 151.548 -4.07861 151.847 -3.60124 151.771C-1.89336 151.477 -0.148266 151.149 1.59745 150.787C2.07513 150.693 2.37599 150.254 2.27451 149.791C2.17274 149.344 1.68355 149.062 1.20587 149.156L1.22447 149.139ZM-9.07798 150.919C-10.8215 151.161 -12.5642 151.352 -14.2699 151.527C-14.7283 151.57 -15.0642 151.923 -15.0716 152.333C-15.0723 152.367 -15.0729 152.401 -15.0735 152.435C-15.0269 152.898 -14.5936 153.23 -14.0982 153.171C-12.3562 153.014 -10.6133 152.807 -8.83311 152.565C-8.35604 152.505 -8.00029 152.067 -8.08377 151.621C-8.14863 151.158 -8.60093 150.86 -9.09628 150.919L-9.07798 150.919ZM141.573 45.4479C142.405 44.0096 143.237 42.5542 144.05 41.0815C144.277 40.6752 144.103 40.1762 143.668 39.9632C143.232 39.7502 142.698 39.9115 142.471 40.3177C141.658 41.7734 140.844 43.2291 140.013 44.6503C139.938 44.7686 139.917 44.905 139.915 45.0247C139.91 45.3152 140.087 45.6091 140.377 45.7682C140.813 45.9813 141.346 45.837 141.592 45.4311L141.573 45.4479ZM11.3743 146.69C9.68159 147.155 7.98955 147.586 6.31611 148C5.92994 148.096 5.66755 148.433 5.66106 148.792C5.65983 148.86 5.6583 148.946 5.69366 149.015C5.81374 149.462 6.30323 149.727 6.78123 149.616C8.47296 149.202 10.165 148.771 11.8763 148.289C12.3546 148.161 12.6191 147.704 12.4807 147.257C12.3424 146.81 11.8526 146.562 11.3743 146.69ZM-19.476 151.911C-21.2351 151.999 -22.9935 152.053 -24.6965 152.073C-25.1723 152.065 -25.5634 152.434 -25.5718 152.895L-25.5721 152.912C-25.5804 153.374 -25.166 153.74 -24.6715 153.732C-22.932 153.712 -21.1552 153.659 -19.3596 153.572C-18.8648 153.546 -18.4914 153.143 -18.52 152.698C-18.5482 152.236 -18.963 151.886 -19.4577 151.911L-19.476 151.911ZM16.362 145.224C15.9938 145.337 15.75 145.657 15.7438 145.999C15.7423 146.085 15.7404 146.187 15.7938 146.274C15.9508 146.704 16.4589 146.953 16.9192 146.807C18.5759 146.307 20.2518 145.756 21.928 145.188C22.3886 145.025 22.6352 144.551 22.4599 144.12C22.2846 143.69 21.7762 143.458 21.3156 143.621C19.6576 144.189 18.0007 144.706 16.362 145.224ZM54.4056 128.933C54.1283 129.082 53.977 129.353 53.972 129.627C53.9692 129.78 54.0031 129.935 54.0921 130.073C54.3412 130.471 54.8881 130.601 55.3133 130.369C56.8112 129.541 58.3279 128.679 59.8267 127.8C60.2522 127.552 60.3713 127.041 60.1036 126.66C59.8362 126.262 59.289 126.149 58.8817 126.398C57.383 127.277 55.9031 128.123 54.4053 128.951L54.4056 128.933ZM35.8422 138.053C35.5286 138.184 35.34 138.488 35.3345 138.796C35.3323 138.916 35.3667 139.036 35.4195 139.157C35.6317 139.571 36.1593 139.751 36.6019 139.571C38.1888 138.882 39.776 138.175 41.3818 137.452C41.8247 137.255 41.9987 136.745 41.7865 136.331C41.5743 135.917 41.028 135.753 40.5851 135.95C38.9976 136.674 37.4287 137.381 35.8605 138.053L35.8422 138.053ZM-72.6386 119.422C-72.6105 117.867 -72.4534 116.263 -72.2041 114.626C-72.1412 114.182 -72.4812 113.749 -72.9561 113.689C-73.4493 113.629 -73.8944 113.946 -73.9573 114.389C-74.2078 116.094 -74.3662 117.767 -74.3955 119.391C-74.4039 119.852 -74.008 120.236 -73.5322 120.244C-73.0381 120.253 -72.629 119.901 -72.6206 119.44L-72.6386 119.422ZM-63.4815 91.8727C-62.6692 90.4853 -61.8014 89.0648 -60.8787 87.6453C-60.6337 87.2565 -60.7709 86.7411 -61.1878 86.5113C-61.6047 86.2815 -62.1562 86.4083 -62.4012 86.7971C-63.3428 88.2505 -64.2109 89.6881 -65.0418 91.0922C-65.1172 91.2105 -65.138 91.3469 -65.1401 91.4666C-65.1454 91.7571 -64.9676 92.051 -64.6776 92.2101C-64.2421 92.4231 -63.7085 92.2789 -63.4632 91.873L-63.4815 91.8727ZM-66.8857 137.411C-67.906 136.127 -68.797 134.777 -69.5583 133.344C-69.7705 132.93 -70.3168 132.766 -70.7597 132.964C-71.0736 133.112 -71.2435 133.399 -71.2488 133.69C-71.2513 133.827 -71.2168 133.947 -71.1641 134.068C-70.3674 135.569 -69.4054 137.04 -68.3314 138.393C-68.0451 138.757 -67.479 138.836 -67.0897 138.57C-66.7001 138.286 -66.6177 137.774 -66.904 137.41L-66.8857 137.411ZM25.7025 142.982C25.8778 143.413 26.4048 143.627 26.8657 143.447C28.4877 142.844 30.1282 142.224 31.7511 141.57C32.1937 141.389 32.404 140.897 32.2101 140.484C32.0165 140.053 31.4888 139.872 31.0462 140.052C29.4233 140.707 27.8194 141.328 26.1978 141.914C25.8476 142.044 25.6407 142.348 25.6348 142.673C25.633 142.775 25.6491 142.895 25.7022 142.999L25.7025 142.982ZM46.0726 135.194C47.6241 134.436 49.1762 133.643 50.7286 132.834C51.1536 132.619 51.3092 132.109 51.0601 131.711C50.811 131.313 50.2828 131.167 49.8575 131.399C48.3234 132.209 46.7899 132.985 45.2387 133.726C44.9431 133.875 44.7734 134.145 44.7679 134.453C44.7654 134.59 44.7995 134.727 44.8706 134.848C45.1011 135.262 45.6476 135.409 46.0726 135.194ZM-49.7847 149.449C-49.612 149.007 -49.8415 148.541 -50.3146 148.379C-51.9701 147.802 -53.5512 147.158 -55.0578 146.447C-55.4934 146.234 -56.0272 146.395 -56.2545 146.818C-56.3116 146.937 -56.3503 147.056 -56.3525 147.176C-56.3581 147.483 -56.1803 147.777 -55.872 147.937C-54.311 148.683 -52.6571 149.345 -50.9469 149.941C-50.4922 150.103 -49.9758 149.89 -49.803 149.448L-49.7847 149.449ZM-29.0862 152.866C-29.059 152.371 -29.4371 152.022 -29.9309 151.996C-31.7052 151.912 -33.4423 151.796 -35.1232 151.611C-35.6167 151.568 -36.0435 151.885 -36.1067 152.346C-36.1071 152.363 -36.1077 152.397 -36.108 152.414C-36.1157 152.842 -35.7745 153.207 -35.3175 153.249C-33.6 153.434 -31.8081 153.552 -30.0155 153.636C-29.5213 153.645 -29.1125 153.31 -29.0859 152.849L-29.0862 152.866ZM-71.3822 128.917C-71.8495 127.421 -72.1871 125.842 -72.396 124.231C-72.4609 123.768 -72.8945 123.453 -73.3896 123.495C-73.8297 123.539 -74.1656 123.892 -74.1731 124.302C-74.1737 124.336 -74.1743 124.37 -74.1752 124.421C-73.9496 126.118 -73.5955 127.8 -73.1115 129.382C-72.9731 129.829 -72.4833 130.077 -72.005 129.949C-71.5267 129.821 -71.2622 129.364 -71.4005 128.917L-71.3822 128.917ZM-39.5585 151.89C-39.4773 151.447 -39.7987 150.997 -40.2733 150.92C-42.0073 150.632 -43.7214 150.259 -45.3434 149.854C-45.8171 149.725 -46.2978 149.99 -46.434 150.432C-46.4352 150.501 -46.4548 150.569 -46.456 150.637C-46.4628 151.013 -46.1944 151.36 -45.7934 151.453C-44.1168 151.876 -42.3657 152.233 -40.5772 152.539C-40.0843 152.616 -39.6212 152.317 -39.5399 151.873L-39.5585 151.89ZM-59.2269 145.157C-58.9456 144.786 -59.0458 144.255 -59.4624 144.008C-60.8921 143.093 -62.2468 142.077 -63.4541 141.012C-63.8146 140.697 -64.3822 140.704 -64.7178 141.04C-64.867 141.191 -64.9622 141.395 -64.9659 141.6C-64.97 141.822 -64.8825 142.046 -64.6842 142.221C-63.4049 143.355 -61.978 144.424 -60.476 145.391C-60.078 145.655 -59.5088 145.563 -59.2455 145.174L-59.2269 145.157ZM89.4366 107.134C90.756 106.047 92.0575 104.942 93.3593 103.82C93.7129 103.501 93.7404 102.989 93.3989 102.641C93.057 102.31 92.5083 102.283 92.1364 102.601C90.8529 103.723 89.5518 104.811 88.2509 105.882C88.0648 106.05 87.951 106.27 87.947 106.492C87.9433 106.697 88.0128 106.903 88.1747 107.06C88.498 107.408 89.065 107.435 89.4366 107.134ZM-67.9429 100.683C-67.2941 99.2242 -66.5898 97.7323 -65.8305 96.2414C-65.6218 95.8349 -65.8142 95.3355 -66.2497 95.1225C-66.6855 94.9265 -67.2196 95.105 -67.4284 95.5116C-68.2065 97.0363 -68.9298 98.562 -69.5975 100.055C-69.636 100.156 -69.6561 100.259 -69.6579 100.361C-69.6638 100.686 -69.4501 101.015 -69.1045 101.141C-68.6501 101.32 -68.1336 101.107 -67.9429 100.683ZM95.6835 99.8098C95.6798 100.015 95.7673 100.239 95.9292 100.396C96.2711 100.727 96.8384 100.737 97.192 100.418C98.4575 99.2786 99.705 98.1214 100.953 96.9471C101.306 96.6287 101.298 96.0985 100.937 95.7671C100.596 95.4361 100.028 95.4429 99.6741 95.7785C98.4446 96.9531 97.1974 98.0932 95.9502 99.2333C95.7827 99.3841 95.6872 99.6047 95.6835 99.8098ZM68.6753 122.386C69.0829 122.12 69.1837 121.609 68.8976 121.228C68.6116 120.846 68.0641 120.751 67.6566 121.017C66.2118 121.949 64.767 122.88 63.3231 123.76C63.0641 123.909 62.9311 124.18 62.9264 124.437C62.9234 124.608 62.9755 124.763 63.0825 124.918C63.3502 125.299 63.9157 125.412 64.3233 125.146C65.7857 124.249 67.2488 123.318 68.6939 122.37L68.6753 122.386ZM71.5589 118.831C71.5558 119.002 71.6073 119.191 71.7329 119.33C72.0192 119.694 72.585 119.79 72.9746 119.506C74.3834 118.54 75.7925 117.557 77.2022 116.539C77.5918 116.256 77.656 115.744 77.3697 115.38C77.065 115.015 76.5169 114.954 76.1277 115.22C74.7365 116.221 73.3274 117.204 71.9372 118.154C71.6962 118.32 71.5821 118.558 71.5775 118.814L71.5589 118.831ZM-71.2035 109.908C-70.81 108.393 -70.324 106.829 -69.7646 105.249C-69.6101 104.807 -69.858 104.341 -70.3314 104.196C-70.8047 104.051 -71.3032 104.281 -71.4576 104.723C-72.036 106.337 -72.5229 107.952 -72.9356 109.518C-72.9368 109.586 -72.9561 109.637 -72.9573 109.705C-72.9641 110.081 -72.6958 110.428 -72.2764 110.521C-71.8024 110.632 -71.3213 110.35 -71.2035 109.908ZM85.4422 110.362C85.8138 110.061 85.86 109.532 85.5367 109.184C85.2135 108.836 84.6651 108.792 84.2752 109.093C82.9381 110.146 81.5826 111.198 80.2278 112.217C80.0051 112.384 79.9096 112.604 79.9052 112.844C79.9019 113.032 79.9717 113.221 80.097 113.377C80.4016 113.742 80.9683 113.786 81.3579 113.503C82.731 112.484 84.0865 111.432 85.4422 110.362Z" fill="black"/>
<path d="M123.307 69.5874C124.319 68.2721 125.332 66.9397 126.326 65.5898C126.608 65.2188 127.159 65.109 127.557 65.3727C127.955 65.6363 128.074 66.1514 127.792 66.5225C126.797 67.8894 125.784 69.2389 124.754 70.5539C124.472 70.925 123.903 71.0173 123.505 70.7366C123.252 70.5781 123.129 70.3023 123.133 70.0459C123.137 69.875 123.194 69.7221 123.307 69.5703L123.307 69.5874ZM130.74 62.4381C131.699 61.0705 132.657 59.6859 133.598 58.2838C133.861 57.8953 133.742 57.3802 133.308 57.133C132.891 56.8861 132.339 57.0129 132.076 57.4014C131.136 58.7864 130.195 60.1714 129.237 61.5219C129.143 61.657 129.086 61.8099 129.083 61.9637C129.078 62.2372 129.219 62.5133 129.491 62.6721C129.908 62.919 130.459 62.8263 130.722 62.4378L130.74 62.4381ZM103.06 92.8163C103.056 93.0385 103.144 93.2623 103.342 93.4369C103.702 93.7512 104.27 93.7443 104.606 93.4084C105.799 92.2161 106.992 91.0066 108.186 89.78C108.522 89.4442 108.476 88.9133 108.116 88.599C107.755 88.2848 107.187 88.3258 106.852 88.6617C105.676 89.8885 104.483 91.0809 103.29 92.2562C103.122 92.4071 103.046 92.6108 103.042 92.8159L103.06 92.8163ZM-58.0942 83.5267C-57.1547 82.193 -56.1784 80.8428 -55.1651 79.4762C-54.8838 79.1052 -54.9843 78.5904 -55.382 78.3096C-55.78 78.046 -56.3309 78.1386 -56.6305 78.5094C-57.6624 79.8927 -58.6573 81.2597 -59.5968 82.5934C-59.6908 82.7285 -59.7302 82.8816 -59.7329 83.0354C-59.7379 83.3089 -59.5964 83.585 -59.3247 83.7438C-58.9081 83.9907 -58.3569 83.881 -58.0939 83.5096L-58.0942 83.5267ZM136.329 54.0758C137.233 52.6731 138.119 51.2528 138.987 49.8152C139.232 49.4093 139.076 48.9107 138.66 48.6809C138.224 48.4508 137.691 48.595 137.446 48.9838C136.578 50.4043 135.692 51.8245 134.806 53.2105C134.731 53.3459 134.692 53.482 134.689 53.6188C134.684 53.9093 134.844 54.1857 135.115 54.3445C135.532 54.5743 136.084 54.4475 136.329 54.0587L136.329 54.0758ZM110.094 85.5059C110.09 85.7452 110.195 85.9865 110.412 86.1443C110.791 86.4418 111.341 86.4004 111.658 86.0642C112.798 84.8196 113.937 83.5749 115.058 82.2958C115.358 81.9421 115.312 81.4113 114.933 81.1309C114.554 80.8334 113.985 80.8915 113.686 81.2451C112.565 82.5072 111.444 83.7521 110.305 84.9968C110.155 85.148 110.097 85.335 110.094 85.523L110.094 85.5059ZM-48.8906 71.6392C-48.5913 71.2855 -48.6549 70.7544 -49.0343 70.474C-49.4137 70.1935 -49.9822 70.2516 -50.2815 70.6053C-51.4037 71.9186 -52.471 73.233 -53.501 74.5138C-53.6136 74.6656 -53.6716 74.8355 -53.6744 74.9894C-53.679 75.2458 -53.5555 75.5045 -53.3204 75.6626C-52.9227 75.9433 -52.3721 75.8678 -52.0725 75.4971C-51.0425 74.2162 -49.9755 72.919 -48.872 71.6225L-48.8906 71.6392ZM116.977 77.4064C116.847 77.5579 116.789 77.7278 116.785 77.8987C116.781 78.1551 116.905 78.3967 117.121 78.5716C117.501 78.852 118.069 78.7939 118.368 78.4403C119.453 77.1604 120.521 75.8461 121.588 74.5318C121.887 74.1781 121.805 73.6466 121.408 73.3659C121.01 73.0851 120.459 73.1606 120.16 73.5314C119.111 74.846 118.044 76.1433 116.959 77.406L116.977 77.4064ZM-42.1821 64.1007C-41.8645 63.7474 -41.8918 63.234 -42.2706 62.9194C-42.6497 62.6218 -43.1993 62.6461 -43.5352 62.9991C-44.7114 64.2602 -45.8509 65.5219 -46.9532 66.7501C-47.0841 66.9016 -47.1607 67.0883 -47.1638 67.2592C-47.1681 67.4985 -47.0626 67.7398 -46.8461 67.9147C-46.467 68.2122 -45.8985 68.154 -45.5992 67.8004C-44.4968 66.5722 -43.3759 65.3272 -42.1998 64.0661L-42.1821 64.1007ZM1.22447 149.176C-0.502937 149.538 -2.21143 149.867 -3.901 150.161C-4.32346 150.239 -4.62247 150.575 -4.62958 150.968C-4.6305 151.02 -4.63174 151.088 -4.63266 151.139C-4.54919 151.585 -4.07861 151.885 -3.60124 151.808C-1.89336 151.514 -0.148266 151.186 1.59745 150.824C2.07513 150.731 2.37599 150.291 2.27451 149.828C2.17274 149.382 1.68355 149.099 1.20587 149.193L1.22447 149.176ZM-9.07798 150.956C-10.8215 151.198 -12.5642 151.389 -14.2699 151.564C-14.7283 151.607 -15.0642 151.96 -15.0716 152.37C-15.0723 152.404 -15.0729 152.438 -15.0735 152.472C-15.0269 152.935 -14.5936 153.268 -14.0982 153.208C-12.3562 153.052 -10.6133 152.844 -8.83311 152.602C-8.35604 152.543 -8.00029 152.104 -8.08377 151.658C-8.14863 151.196 -8.60093 150.897 -9.09628 150.956L-9.07798 150.956ZM141.573 45.485C142.405 44.0467 143.237 42.5914 144.05 41.1186C144.277 40.7123 144.103 40.2134 143.668 40.0003C143.232 39.7873 142.698 39.9486 142.471 40.3548C141.658 41.8105 140.844 43.2662 140.013 44.6874C139.938 44.8057 139.917 44.9421 139.915 45.0618C139.91 45.3524 140.087 45.6462 140.377 45.8053C140.813 46.0184 141.346 45.8742 141.592 45.4682L141.573 45.485ZM11.3743 146.727C9.68159 147.192 7.98955 147.623 6.31611 148.037C5.92994 148.133 5.66755 148.47 5.66106 148.829C5.65983 148.897 5.6583 148.983 5.69366 149.052C5.81374 149.499 6.30323 149.764 6.78123 149.653C8.47296 149.239 10.165 148.808 11.8763 148.326C12.3546 148.198 12.6191 147.741 12.4807 147.294C12.3424 146.847 11.8526 146.599 11.3743 146.727ZM-19.476 151.948C-21.2351 152.036 -22.9935 152.09 -24.6965 152.11C-25.1723 152.102 -25.5634 152.471 -25.5718 152.932L-25.5721 152.949C-25.5804 153.411 -25.166 153.777 -24.6715 153.769C-22.932 153.749 -21.1552 153.696 -19.3596 153.609C-18.8648 153.584 -18.4914 153.18 -18.52 152.735C-18.5482 152.273 -18.963 151.923 -19.4577 151.949L-19.476 151.948ZM16.362 145.261C15.9938 145.374 15.75 145.695 15.7438 146.036C15.7423 146.122 15.7404 146.224 15.7938 146.311C15.9508 146.741 16.4589 146.99 16.9192 146.844C18.5759 146.344 20.2518 145.793 21.928 145.225C22.3886 145.062 22.6352 144.588 22.4599 144.157C22.2846 143.727 21.7762 143.495 21.3156 143.658C19.6576 144.226 18.0007 144.744 16.362 145.261ZM54.4056 128.971C54.1283 129.119 53.977 129.39 53.972 129.664C53.9692 129.818 54.0031 129.972 54.0921 130.11C54.3412 130.508 54.8881 130.638 55.3133 130.406C56.8112 129.578 58.3279 128.717 59.8267 127.837C60.2522 127.589 60.3713 127.078 60.1036 126.697C59.8362 126.299 59.289 126.186 58.8817 126.435C57.383 127.315 55.9031 128.16 54.4053 128.988L54.4056 128.971ZM35.8422 138.09C35.5286 138.221 35.34 138.526 35.3345 138.833C35.3323 138.953 35.3667 139.073 35.4195 139.194C35.6317 139.608 36.1593 139.788 36.6019 139.608C38.1888 138.919 39.776 138.212 41.3818 137.489C41.8247 137.292 41.9987 136.782 41.7865 136.368C41.5743 135.954 41.028 135.79 40.5851 135.987C38.9976 136.711 37.4287 137.418 35.8605 138.09L35.8422 138.09ZM-72.6386 119.46C-72.6105 117.904 -72.4534 116.3 -72.2041 114.663C-72.1412 114.22 -72.4812 113.786 -72.9561 113.726C-73.4493 113.666 -73.8944 113.983 -73.9573 114.426C-74.2078 116.131 -74.3662 117.804 -74.3955 119.428C-74.4039 119.889 -74.008 120.273 -73.5322 120.281C-73.0381 120.29 -72.629 119.938 -72.6206 119.477L-72.6386 119.46ZM-63.4815 91.9098C-62.6692 90.5225 -61.8014 89.1019 -60.8787 87.6824C-60.6337 87.2936 -60.7709 86.7782 -61.1878 86.5484C-61.6047 86.3186 -62.1562 86.4454 -62.4012 86.8342C-63.3428 88.2876 -64.2109 89.7252 -65.0418 91.1293C-65.1172 91.2476 -65.138 91.384 -65.1401 91.5037C-65.1454 91.7942 -64.9676 92.0881 -64.6776 92.2472C-64.2421 92.4602 -63.7085 92.316 -63.4632 91.9101L-63.4815 91.9098ZM-66.8857 137.448C-67.906 136.164 -68.797 134.814 -69.5583 133.381C-69.7705 132.967 -70.3168 132.804 -70.7597 133.001C-71.0736 133.149 -71.2435 133.436 -71.2488 133.727C-71.2513 133.864 -71.2168 133.984 -71.1641 134.105C-70.3674 135.607 -69.4054 137.077 -68.3314 138.43C-68.0451 138.795 -67.479 138.873 -67.0897 138.607C-66.7001 138.323 -66.6177 137.812 -66.904 137.447L-66.8857 137.448ZM25.7025 143.019C25.8778 143.45 26.4048 143.664 26.8657 143.485C28.4877 142.881 30.1282 142.261 31.7511 141.607C32.1937 141.427 32.404 140.935 32.2101 140.521C32.0165 140.09 31.4888 139.909 31.0462 140.089C29.4233 140.744 27.8194 141.365 26.1978 141.951C25.8476 142.081 25.6407 142.385 25.6348 142.71C25.633 142.813 25.6491 142.933 25.7022 143.036L25.7025 143.019ZM46.0726 135.232C47.6241 134.473 49.1762 133.68 50.7286 132.871C51.1536 132.656 51.3092 132.146 51.0601 131.748C50.811 131.351 50.2828 131.204 49.8575 131.436C48.3234 132.246 46.7899 133.022 45.2387 133.763C44.9431 133.912 44.7734 134.182 44.7679 134.49C44.7654 134.627 44.7995 134.764 44.8706 134.885C45.1011 135.299 45.6476 135.446 46.0726 135.232ZM-49.7847 149.486C-49.612 149.044 -49.8415 148.578 -50.3146 148.416C-51.9701 147.839 -53.5512 147.195 -55.0578 146.484C-55.4934 146.271 -56.0272 146.432 -56.2545 146.855C-56.3116 146.974 -56.3503 147.093 -56.3525 147.213C-56.3581 147.52 -56.1803 147.814 -55.872 147.974C-54.311 148.72 -52.6571 149.382 -50.9469 149.978C-50.4922 150.14 -49.9758 149.927 -49.803 149.485L-49.7847 149.486ZM-29.0862 152.903C-29.059 152.408 -29.4371 152.059 -29.9309 152.033C-31.7052 151.95 -33.4423 151.833 -35.1232 151.648C-35.6167 151.605 -36.0435 151.922 -36.1067 152.383C-36.1071 152.4 -36.1077 152.434 -36.108 152.451C-36.1157 152.879 -35.7745 153.244 -35.3175 153.286C-33.6 153.471 -31.8081 153.589 -30.0155 153.673C-29.5213 153.682 -29.1125 153.347 -29.0859 152.886L-29.0862 152.903ZM-71.3822 128.954C-71.8495 127.458 -72.1871 125.879 -72.396 124.268C-72.4609 123.806 -72.8945 123.49 -73.3896 123.532C-73.8297 123.576 -74.1656 123.929 -74.1731 124.339C-74.1737 124.373 -74.1743 124.407 -74.1752 124.458C-73.9496 126.155 -73.5955 127.837 -73.1115 129.419C-72.9731 129.866 -72.4833 130.114 -72.005 129.986C-71.5267 129.858 -71.2622 129.401 -71.4005 128.954L-71.3822 128.954ZM-39.5585 151.927C-39.4773 151.484 -39.7987 151.034 -40.2733 150.957C-42.0073 150.669 -43.7214 150.296 -45.3434 149.891C-45.8171 149.763 -46.2978 150.027 -46.434 150.469C-46.4352 150.538 -46.4548 150.606 -46.456 150.674C-46.4628 151.05 -46.1944 151.397 -45.7934 151.49C-44.1168 151.913 -42.3657 152.27 -40.5772 152.576C-40.0843 152.653 -39.6212 152.354 -39.5399 151.911L-39.5585 151.927ZM-59.2269 145.194C-58.9456 144.823 -59.0458 144.292 -59.4624 144.045C-60.8921 143.13 -62.2468 142.114 -63.4541 141.049C-63.8146 140.735 -64.3822 140.741 -64.7178 141.077C-64.867 141.228 -64.9622 141.432 -64.9659 141.637C-64.97 141.859 -64.8825 142.083 -64.6842 142.258C-63.4049 143.392 -61.978 144.461 -60.476 145.428C-60.078 145.692 -59.5088 145.6 -59.2455 145.211L-59.2269 145.194ZM89.4366 107.171C90.756 106.084 92.0575 104.979 93.3593 103.857C93.7129 103.539 93.7404 103.026 93.3989 102.678C93.057 102.347 92.5083 102.32 92.1364 102.638C90.8529 103.76 89.5518 104.848 88.2509 105.919C88.0648 106.087 87.951 106.307 87.947 106.529C87.9433 106.734 88.0128 106.941 88.1747 107.097C88.498 107.445 89.065 107.473 89.4366 107.171ZM-67.9429 100.72C-67.2941 99.2613 -66.5898 97.7694 -65.8305 96.2786C-65.6218 95.872 -65.8142 95.3726 -66.2497 95.1596C-66.6855 94.9636 -67.2196 95.1421 -67.4284 95.5487C-68.2065 97.0734 -68.9298 98.5991 -69.5975 100.092C-69.636 100.194 -69.6561 100.296 -69.6579 100.398C-69.6638 100.723 -69.4501 101.052 -69.1045 101.178C-68.6501 101.357 -68.1336 101.144 -67.9429 100.72ZM95.6835 99.8469C95.6798 100.052 95.7673 100.276 95.9292 100.433C96.2711 100.764 96.8384 100.774 97.192 100.455C98.4575 99.3157 99.705 98.1585 100.953 96.9842C101.306 96.6658 101.298 96.1356 100.937 95.8042C100.596 95.4732 100.028 95.48 99.6741 95.8156C98.4446 96.9902 97.1974 98.1303 95.9502 99.2704C95.7827 99.4212 95.6872 99.6418 95.6835 99.8469ZM68.6753 122.424C69.0829 122.157 69.1837 121.646 68.8976 121.265C68.6116 120.884 68.0641 120.788 67.6566 121.054C66.2118 121.986 64.767 122.917 63.3231 123.797C63.0641 123.946 62.9311 124.218 62.9264 124.474C62.9234 124.645 62.9755 124.8 63.0825 124.955C63.3502 125.336 63.9157 125.449 64.3233 125.183C65.7857 124.286 67.2488 123.355 68.6939 122.407L68.6753 122.424ZM71.5589 118.868C71.5558 119.039 71.6073 119.228 71.7329 119.367C72.0192 119.731 72.585 119.827 72.9746 119.543C74.3834 118.577 75.7925 117.594 77.2022 116.576C77.5918 116.293 77.656 115.781 77.3697 115.417C77.065 115.052 76.5169 114.991 76.1277 115.258C74.7365 116.258 73.3274 117.242 71.9372 118.191C71.6962 118.358 71.5821 118.595 71.5775 118.851L71.5589 118.868ZM-71.2035 109.945C-70.81 108.43 -70.324 106.866 -69.7646 105.286C-69.6101 104.845 -69.858 104.378 -70.3314 104.233C-70.8047 104.088 -71.3032 104.318 -71.4576 104.76C-72.036 106.374 -72.5229 107.989 -72.9356 109.555C-72.9368 109.623 -72.9561 109.674 -72.9573 109.742C-72.9641 110.118 -72.6958 110.465 -72.2764 110.558C-71.8024 110.669 -71.3213 110.387 -71.2035 109.945ZM85.4422 110.399C85.8138 110.098 85.86 109.569 85.5367 109.221C85.2135 108.873 84.6651 108.829 84.2752 109.13C82.9381 110.183 81.5826 111.236 80.2278 112.254C80.0051 112.421 79.9096 112.642 79.9052 112.881C79.9019 113.069 79.9717 113.258 80.097 113.414C80.4016 113.779 80.9683 113.823 81.3579 113.54C82.731 112.522 84.0865 111.469 85.4422 110.399Z" fill="black"/>
<path d="M158.907 10.1462C160.719 6.10975 162.15 0.869516 161.223 0.493717C160.278 0.134679 157.32 4.766 155.508 8.80249C155.336 9.17554 155.183 9.5318 155.03 9.88809C154.423 10.0823 153.134 10.5036 151.513 11.0385C151.513 11.0214 151.55 11.0221 151.569 10.9882L152.046 9.90257C152.103 9.76682 152.015 9.61135 151.851 9.54001L150.724 9.0922C150.561 9.02086 150.377 9.0859 150.319 9.22164L149.842 10.3073C149.842 10.3073 149.84 10.4269 149.839 10.4953L149.267 11.7502C147.885 12.204 146.375 12.6896 144.902 13.1759L145.379 12.1074C145.436 11.9716 145.348 11.8161 145.184 11.7448L144.057 11.297C143.894 11.2256 143.71 11.2907 143.652 11.4265L143.175 12.5121C143.175 12.5121 143.173 12.6317 143.171 12.7001L142.619 13.9211C138.843 15.1694 135.693 16.2239 135.619 16.2909C135.414 16.4753 134.762 18.1049 134.762 18.1049C134.591 18.4779 134.494 18.801 134.548 18.8191C134.585 18.8197 134.811 18.4306 134.983 18.0746L142.618 17.0158C142.502 17.3215 142.479 17.5775 142.552 17.5959C142.661 17.6321 142.868 17.3622 143.039 16.9892L143.04 16.955L144.563 16.7432C144.466 17.0321 144.425 17.2707 144.516 17.3066C144.625 17.3427 144.832 17.0729 145.003 16.6999L146.38 16.5025L147.33 16.6222C147.195 16.9617 147.135 17.2684 147.244 17.3046C147.353 17.3407 147.559 17.0709 147.731 16.6978L147.731 16.6808L149.649 16.9035C149.515 17.243 149.473 17.5329 149.564 17.5688C149.673 17.6049 149.88 17.3351 150.051 16.962L150.051 16.945L151.805 17.1476C150.621 19.8789 150.18 20.9652 149.284 22.9666C148.387 24.985 147.673 26.9896 147.147 28.724C145.103 29.4052 140.997 30.733 140.997 30.733L140.391 31.8334L146.178 32.7074C146.116 33.0995 146.092 33.4239 146.088 33.6632C145.779 34.5296 145.623 35.0739 145.696 35.1094C145.787 35.1452 146.088 34.6719 146.505 33.893C146.673 33.725 146.897 33.4556 147.16 33.0842L151.934 36.3506L152.34 35.1782C152.34 35.1782 150.342 31.278 149.458 29.501C150.364 27.9957 151.367 26.2185 152.389 24.3392C153.515 21.8291 154.029 20.7441 155.095 18.4552L156.468 19.4717C156.297 19.8447 156.236 20.1855 156.345 20.2217C156.436 20.2575 156.623 20.0216 156.794 19.6827L158.311 20.8044L158.311 20.8215C158.14 21.1945 158.079 21.5354 158.188 21.5716C158.279 21.6074 158.484 21.3717 158.637 21.0325L159.396 21.5934L160.219 22.6512C160.047 23.0242 159.986 23.3651 160.095 23.4013C160.186 23.4371 160.336 23.2517 160.487 22.9809L161.382 24.1426L161.381 24.1768C161.191 24.5495 161.148 24.8907 161.239 24.9265C161.33 24.9624 161.499 24.7603 161.65 24.4723L166.195 30.3164C166.042 30.6726 165.887 31.1144 165.924 31.1321C165.978 31.1502 166.148 30.8627 166.32 30.4896C166.32 30.4896 167.117 28.931 167.122 28.6575C167.124 28.555 165.71 25.7084 164.014 22.3266L164.567 21.1055C164.567 21.1055 164.696 21.0395 164.716 20.9885L165.193 19.9029C165.25 19.7671 165.162 19.6117 164.998 19.5403L163.871 19.0925C163.708 19.0212 163.523 19.0863 163.466 19.222L162.989 20.2905C162.317 18.9618 161.646 17.6161 161.009 16.3736L161.581 15.1187C161.581 15.1187 161.711 15.0526 161.73 15.0017L162.207 13.916C162.265 13.7803 162.176 13.6248 162.012 13.5535L160.885 13.1057C160.722 13.0343 160.538 13.0994 160.48 13.2352L160.003 14.3208C160.003 14.3208 160.002 14.3721 160.002 14.3891C159.277 12.9569 158.694 11.818 158.411 11.2657C158.564 10.9094 158.735 10.5535 158.906 10.1804L158.907 10.1462Z" fill="black"/>
</svg>
