<svg width="128" height="118" viewBox="0 0 128 118" fill="none" xmlns="http://www.w3.org/2000/svg">
<path fill-rule="evenodd" clip-rule="evenodd" d="M111.082 26.7808L123.301 93.9667L127.995 98.3958L87.3574 105.786L89.5173 100.111L89.6153 100.093L82.2288 59.4766L79.188 54.2521L81.3097 53.8663C80.2628 49.9023 77.7608 46.4783 74.3012 44.2783C70.8415 42.0784 66.6784 41.2641 62.6451 41.9976C58.6117 42.7311 55.0019 44.959 52.5383 48.2361C50.0748 51.5133 48.9384 55.5989 49.3542 59.6777L51.5303 59.282L50.5236 65.2425L57.916 105.891L58.014 105.873L62.6106 110.32L22.0162 117.703L24.0783 112.045L10.4906 37.33L0.485291 32.0682L0.169786 32.1256L0.0471079 31.451L9.12131 29.8008L7.10502 18.7138L106.333 0.668065L108.352 11.766L117.524 10.0979L117.646 10.7725L117.168 10.8596L109.71 19.2971L111.071 26.7828L111.082 26.7808Z" fill="#150958" fill-opacity="0.15"/>
</svg>
