<svg width="137" height="155" viewBox="0 0 137 155" fill="none" xmlns="http://www.w3.org/2000/svg">
<path fill-rule="evenodd" clip-rule="evenodd" d="M110.147 49.3288L110.149 48.1795L106.666 46.4688L106.656 52.3302L110.147 49.3288ZM33.4771 17.5928L58.8761 17.6361L58.8635 25.0298L33.4645 24.9865L33.4771 17.5928ZM58.8614 26.2557L58.8421 37.5569L33.4431 37.5136L33.4624 26.2124L58.8614 26.2557ZM58.8391 39.3383L58.8045 59.5847L33.4055 59.5414L33.4402 39.2375L58.8391 39.3383ZM39.9282 19.9311L44.2571 19.9385L44.2555 20.8962L39.9266 20.8888L39.9282 19.9311ZM54.7848 29.8881L54.776 35.0694L50.6865 35.0625L50.6953 29.8811C50.7632 29.3928 51.0111 28.9479 51.3918 28.6344C51.7716 28.3219 52.2555 28.1628 52.7477 28.1895C52.9939 28.1631 53.242 28.1874 53.4794 28.2587C53.7158 28.331 53.9359 28.4501 54.1252 28.6084C54.3155 28.7668 54.4713 28.9615 54.5849 29.181C54.6985 29.4015 54.7661 29.6419 54.7848 29.8881ZM48.3201 29.8771L48.3113 35.0584L44.2313 35.0515L44.2402 29.8701C44.2598 29.624 44.3282 29.3838 44.4425 29.1637C44.5569 28.9446 44.7133 28.7504 44.9042 28.5927C45.0941 28.435 45.3146 28.3166 45.5513 28.2452C45.7889 28.1747 46.037 28.1512 46.2831 28.1784C46.7763 28.1438 47.2636 28.3017 47.6433 28.6184C48.0229 28.9351 48.2654 29.3857 48.3201 29.8771ZM41.7693 29.8659L41.7604 35.0472L37.6805 35.0403L37.6893 29.8589C37.7089 29.6128 37.7773 29.3726 37.8917 29.1525C38.006 28.9334 38.1624 28.7392 38.3533 28.5815C38.5432 28.4238 38.7637 28.3054 39.0003 28.234C39.238 28.1636 39.4861 28.14 39.7322 28.1673C40.2255 28.1327 40.7127 28.2906 41.0924 28.6073C41.4721 28.924 41.7146 29.3745 41.7693 29.8659ZM48.1219 44.9994L52.4509 45.0068L52.4494 45.8592L48.1205 45.8518L48.1219 44.9994ZM42.7584 45.1626L47.0969 45.17L47.0954 46.0224L42.7569 46.015L42.7584 45.1626ZM45.8212 46.2692L50.1502 46.2766L50.1485 47.2344L45.8196 47.227L45.8212 46.2692ZM48.366 47.8922L52.7046 47.8996L52.7029 48.8573L48.3644 48.8499L48.366 47.8922ZM43.2709 47.8835L47.5999 47.8909L47.5982 48.8486L43.2693 48.8412L43.2709 47.8835ZM39.9424 56.5453L44.1851 56.5525L44.1835 57.5102L39.9408 57.503L39.9424 56.5453ZM37.8181 55.4403L42.147 55.4476L42.1454 56.4054L37.8164 56.398L37.8181 55.4403ZM35.694 54.2395L40.0325 54.2469L40.031 55.0992L35.6925 55.0918L35.694 54.2395ZM52.1769 54.0186L56.5155 54.026L56.5138 54.9837L52.1753 54.9763L52.1769 54.0186ZM49.7754 18.9135L54.1044 18.9209L54.1028 19.8787L49.7738 19.8713L49.7754 18.9135ZM42.9702 22.0529L47.3087 22.0603L47.3071 23.018L42.9686 23.0106L42.9702 22.0529ZM0.121391 83.6674L43.1235 83.7407L43.0661 117.386L0.0639788 117.312L0.121391 83.6674ZM43.0637 118.832L43.0022 154.862L2.98671e-05 154.788L0.06156 118.73L43.0637 118.832ZM31.6308 145.409L38.9383 145.421L38.9357 146.954L31.6282 146.941L31.6308 145.409ZM24.771 130.016L32.0785 130.028L32.0759 131.561L24.7684 131.548L24.771 130.016ZM15.8539 130.345L23.1614 130.358L23.1588 131.89L15.8513 131.878L15.8539 130.345ZM20.9458 132.27L28.2533 132.282L28.2507 133.805L20.9432 133.792L20.9458 132.27ZM25.1935 134.997L32.501 135.009L32.4984 136.532L25.1909 136.52L25.1935 134.997ZM16.5739 134.982L23.7952 134.994L23.7926 136.517L16.5713 136.505L16.5739 134.982ZM10.8024 149.673L18.1099 149.686L18.1073 151.209L10.7998 151.196L10.8024 149.673ZM7.32914 147.752L14.6366 147.765L14.634 149.287L7.32654 149.275L7.32914 147.752ZM3.85608 145.687L11.1636 145.699L11.1608 147.318L3.85332 147.306L3.85608 145.687ZM13.9538 104.522L13.9389 113.266L7.05276 113.254L7.06768 104.51C7.18499 103.68 7.59908 102.92 8.23308 102.37C8.86612 101.821 9.6769 101.52 10.5159 101.521C11.3548 101.522 12.1646 101.826 12.7957 102.378C13.4279 102.93 13.8393 103.691 13.9538 104.522ZM36.2114 104.56L36.1965 113.304L29.32 113.292L29.3349 104.548C29.3596 104.128 29.4685 103.717 29.654 103.34C29.8385 102.962 30.0977 102.625 30.4143 102.348C30.7317 102.072 31.1008 101.861 31.4994 101.728C31.899 101.595 32.3206 101.543 32.74 101.575C33.5915 101.531 34.4271 101.816 35.0736 102.371C35.7201 102.928 36.1276 103.711 36.2114 104.56ZM25.0826 104.541L25.0677 113.285L18.1816 113.273L18.1965 104.529C18.3138 103.699 18.7279 102.939 19.3619 102.389C19.9949 101.84 20.8057 101.539 21.6447 101.54C22.4837 101.541 23.2934 101.845 23.9246 102.397C24.5567 102.949 24.9681 103.71 25.0826 104.541ZM10.8316 87.6507L18.1391 87.6631L18.1365 89.2051L10.829 89.1926L10.8316 87.6507ZM27.662 85.8884L34.9695 85.9009L34.9669 87.4333L27.6594 87.4208L27.662 85.8884ZM16.007 91.1169L23.3241 91.1294L23.3214 92.7384L16.0043 92.7259L16.007 91.1169ZM0.11135 95.1697L43.1134 95.2431L43.1108 96.7659L0.108751 96.6925L0.11135 95.1697ZM46.331 0.0786082L37.8238 7.19922L55.3311 7.22909L46.331 0.0786082ZM53.6259 7.48476L53.6096 16.995L39.5885 16.9711L39.6047 7.46084L53.6259 7.48476ZM45.0001 11.119L47.8733 11.1239L47.8781 8.31776L45.0049 8.31286L45.0001 11.119ZM119.21 42.008L107.212 52.1012L132.026 52.1436L119.21 42.008ZM129.305 52.8189L129.282 66.3229L136.848 66.3358L136.748 125.054L101.178 124.994L101.278 66.3039L109.898 66.3186L109.921 52.8146L129.305 52.8189ZM117.402 57.3862L121.396 57.393L121.403 53.3993L117.409 53.3924L117.402 57.3862ZM110.16 69.6041L116.194 69.6144L116.192 70.8115L110.158 70.8012L110.16 69.6041ZM131.159 83.6515L131.146 90.7866L125.457 90.7769L125.47 83.6418C125.487 83.2932 125.574 82.9525 125.726 82.6386C125.878 82.3247 126.091 82.0445 126.353 81.8141C126.616 81.5847 126.921 81.409 127.252 81.2994C127.583 81.1898 127.932 81.1473 128.28 81.1757C128.985 81.1386 129.677 81.3763 130.212 81.8369C130.746 82.2985 131.082 82.9484 131.149 83.6515L131.159 83.6515ZM121.983 83.6359L121.971 90.771L116.282 90.7613L116.295 83.6262C116.345 82.93 116.667 82.2812 117.19 81.8205C117.714 81.3588 118.398 81.1215 119.095 81.16C119.8 81.1258 120.49 81.3635 121.025 81.8241C121.559 82.2857 121.896 82.9337 121.964 83.6358L121.983 83.6359ZM112.808 83.6202L112.796 90.7553L107.098 90.7456L107.11 83.6105C107.201 82.9182 107.541 82.2838 108.066 81.8241C108.592 81.3643 109.265 81.1107 109.963 81.1119C110.662 81.1131 111.335 81.369 111.859 81.8305C112.382 82.2921 112.72 82.9276 112.808 83.6202ZM121.699 104.619L127.732 104.63L127.73 105.903L121.696 105.893L121.699 104.619ZM114.305 104.856L120.338 104.866L120.336 106.149L114.302 106.139L114.305 104.856ZM118.545 106.482L124.664 106.492L124.662 107.852L118.542 107.842L118.545 106.482ZM122.113 108.786L128.147 108.796L128.144 110.061L122.082 110.05L122.113 108.786ZM114.892 108.774L121.012 108.784L121.009 110.049L114.89 110.038L114.892 108.774ZM110.197 120.91L116.231 120.92L116.229 122.194L110.195 122.184L110.197 120.91ZM107.327 119.296L113.36 119.306L113.358 120.58L107.325 120.57L107.327 119.296ZM104.456 117.673L110.49 117.683L110.488 118.957L104.454 118.946L104.456 117.673ZM127.442 117.367L133.476 117.377L133.474 118.574L127.44 118.564L127.442 117.367ZM124.069 68.2199L130.103 68.2302L130.101 69.4178L124.067 69.4075L124.069 68.2199ZM114.484 72.5325L120.518 72.5428L120.516 73.8166L114.482 73.8063L114.484 72.5325ZM101.224 75.8237L136.832 75.8844L136.829 77.5796L101.259 77.5189L101.224 75.8237ZM101.192 94.1738L136.801 94.2345L136.795 97.8069L101.225 97.7462L101.192 94.1738ZM21.7684 54.2732L7.22852 66.402L37.3012 66.4533L21.7684 54.2732ZM34.0438 67.1277L34.0175 82.528L10.419 82.4878L10.4453 67.0875L34.0438 67.1277ZM19.5914 72.8495L24.4567 72.8578L24.4649 68.05L19.6188 68.0417L19.5914 72.8495ZM44.175 107.37L45.3636 106.778L45.3481 115.877L47.265 115.027L47.2805 105.939L51.3638 103.982L51.3482 113.081L53.2175 112.126L53.233 103.037L57.3162 101.129L57.3007 110.218L59.2178 109.263L59.2333 100.165L63.3165 98.2562L63.301 107.345L65.1702 106.39L65.1857 97.3016L69.2689 95.3931L69.2534 104.482L71.1703 103.633L71.1859 94.4674L75.2692 92.5589L75.2536 101.648L77.1706 100.799L77.1861 91.7098L81.2599 89.6767L81.2444 98.7656L83.1613 97.9261L83.1768 88.8372L87.1739 86.9285L87.1583 96.0174L89.0754 95.063L89.091 85.9741L93.1741 84.0656L93.1586 93.1545L95.0278 92.1999L95.0433 83.1015L99.1266 81.193L99.111 90.2914L99.964 89.9481L99.9118 120.538L43.9537 147.259L44.175 107.37ZM106.637 52.2439L106.633 54.1594L105.026 53.3904L105.039 45.5849L101.47 43.8741L101.456 51.7754L99.8486 50.9202L99.862 43.1051L96.3978 41.4519L96.3843 49.3532L94.681 48.4979L94.6943 40.6828L91.2973 38.9819L91.2838 46.8832L89.59 46.0279L89.6034 38.2128L86.1201 36.5883L86.1069 44.3076L84.4992 43.5482L84.5126 35.6852L80.9431 33.9744L80.9298 41.7895L79.3125 41.0205L79.3259 33.2055L75.8522 31.5043L75.8389 39.3194L74.2216 38.5505L74.2349 30.7354L70.6751 29.0245L70.6618 36.8492L69.0445 36.0803L69.0579 28.2556L65.5746 26.5545L65.5613 34.3695L63.8673 33.6101L63.8807 25.7854L60.4837 24.0844L60.4703 31.8995L60.0396 31.7264L59.9947 58.0735L100.186 77.4309L100.207 65.2007L109.22 65.216L109.242 52.2963L106.637 52.2439Z" fill="#150958" fill-opacity="0.15"/>
</svg>
