<svg width="60" height="211" viewBox="0 0 60 211" fill="none" xmlns="http://www.w3.org/2000/svg">
<path fill-rule="evenodd" clip-rule="evenodd" d="M37.2495 51.4063L35.4894 51.6493L33.7536 39.0745L33.5819 39.3012L33.2555 39.1433L33.8117 43.1725L33.357 42.7389L33.0643 43.4787L32.7606 44.22L32.1788 43.6009L31.6856 42.9697L31.2932 43.7232L30.9895 44.4645L30.4077 43.8454L29.9255 43.2126L29.5221 43.9677L29.2295 44.7075L28.7362 44.0761L28.1544 43.4571L27.8507 44.1984L27.4584 44.9519L26.9651 44.3206L26.3833 43.7016L26.0907 44.4413L25.7869 45.1827L25.2051 44.5636L24.7119 43.9323L24.3196 44.6858L24.0158 45.4271L23.434 44.8081L22.9519 44.1753L22.5485 44.9303L22.2558 45.6701L21.7625 45.0388L21.1808 44.4197L20.877 45.161L20.4847 45.9146L20.0025 45.2818L19.4097 44.6642L19.117 45.404L18.8132 46.1453L18.2314 45.5262L17.7382 44.895L17.3459 45.6485L17.0421 46.3898L16.4603 45.7707L15.9782 45.1379L15.5748 45.893L15.2821 46.6328L14.7889 46.0015L14.2071 45.3824L13.9033 46.1237L13.511 46.8772L13.0288 46.2444L12.436 45.6269L12.1433 46.3666L11.8395 47.108L11.2577 46.4889L10.7756 45.8561L10.3722 46.6111L10.0685 47.3525L9.48666 46.7334L9.00449 46.1006L8.60111 46.8556L8.30842 47.5954L7.82626 46.9626L7.23341 46.345L6.92965 47.0863L6.53733 47.8399L6.05516 47.2071L5.46231 46.5895L5.16961 47.3293L4.86585 48.0706L4.28408 47.4515L3.80191 46.8187L3.48439 47.4604L2.91444 43.3316L2.64307 43.5721L2.32777 43.4125L4.0636 55.9873L2.39214 56.218L1.7137 51.3032L1.5557 51.6296L1.22664 51.3705L6.85281 92.1278L42.6953 87.1801L37.0691 46.4228L36.8115 46.7629L36.571 46.4915L37.2495 51.4063ZM59.5592 204.852L21.5803 210.094L18.4509 187.424L56.4519 182.178L59.5592 204.852ZM52.4534 180.914L49.5242 159.694L47.9302 159.914L50.8594 181.134L49.675 181.298L46.7458 160.078L45.0854 160.307L48.0146 181.527L46.8302 181.691L43.901 160.471L42.3292 160.688L45.2584 181.908L43.9854 182.083L41.0562 160.863L39.4843 161.08L42.4135 182.3L41.1406 182.476L38.2114 161.256L36.6395 161.473L39.5687 182.693L38.2847 182.87L35.3555 161.65L33.7836 161.867L36.7128 183.087L35.4399 183.263L32.5107 162.043L30.9388 162.26L33.868 183.48L32.6947 183.642L29.7655 162.422L28.094 162.653L31.0232 183.873L29.8499 184.035L26.9206 162.815L25.3377 163.033L28.2669 184.253L26.994 184.429L24.0648 163.209L22.4929 163.426L25.4221 184.646L24.1491 184.821L21.2199 163.602L19.7034 163.811L22.6326 185.031L21.3486 185.208L15.2885 141.307L47.6995 136.833L53.7596 180.734L52.4534 180.914ZM47.7904 158.738L49.3622 158.521L46.5293 137.999L44.9353 138.219L47.7904 158.738ZM19.5083 162.642L21.0801 162.425L18.2472 141.903L16.7085 142.115L19.5083 162.642ZM22.3531 162.249L23.9249 162.032L21.092 141.51L19.5201 141.727L22.3531 162.249ZM25.1979 161.857L26.7808 161.638L23.9479 141.116L22.3649 141.334L25.1979 161.857ZM27.9542 161.476L29.6256 161.246L26.7927 140.723L25.1212 140.954L27.9542 161.476ZM30.799 161.084L32.3708 160.867L29.5379 140.344L27.966 140.561L30.799 161.084ZM33.6438 160.691L35.2156 160.474L32.3827 139.951L30.8109 140.168L33.6438 160.691ZM36.4997 160.297L38.0715 160.08L35.2386 139.557L33.6446 139.777L36.4997 160.297ZM39.3445 159.904L40.9163 159.687L38.0834 139.164L36.5116 139.381L39.3445 159.904ZM42.1893 159.511L43.7612 159.294L40.9282 138.772L39.3564 138.989L42.1893 159.511ZM44.9456 159.131L46.606 158.902L43.773 138.379L42.1126 138.608L44.9456 159.131ZM3.65177 42.1356L2.33135 41.3139L1.36041 42.4519L2.62932 43.4724L3.65177 42.1356ZM34.4909 37.8785L33.248 37.0462L32.2771 38.1841L33.546 39.2047L34.4909 37.8785ZM37.7622 45.2329L36.5193 44.4005L35.6812 45.5202L36.8172 46.559L37.7622 45.2329ZM2.40674 50.1134L1.28558 49.2642L0.314638 50.4022L1.58354 51.4227L2.40674 50.1134ZM2.11266 41.4456L2.02251 40.7925L2.60918 40.7116L2.70392 41.3978L2.36379 41.1402L2.11266 41.4456ZM33.0404 37.1763L32.9502 36.5233L33.4483 36.4545L33.5431 37.1408L33.3026 36.8694L33.0404 37.1763ZM1.01152 49.4036L0.903027 48.6177L1.39008 48.5504L1.48482 49.2367L1.25807 49.065L1.01152 49.4036ZM36.3422 44.425L36.2474 43.7387L36.7455 43.6699L36.854 44.4558L36.5139 44.1982L36.3422 44.425ZM9.37007 34.6119L6.21583 46.9818L6.3292 47.0677L6.45635 47.2532L7.16465 45.8469L8.00374 46.8591L8.23048 47.0309L8.40224 46.8041L8.93573 45.6024L10.0012 46.8654L10.1592 46.539L10.6946 45.2694L11.4432 46.3618L11.7723 46.6209L12.3672 45.1288L13.3059 46.1272L13.4331 46.3127L13.6048 46.0859L14.1383 44.8843L14.9774 45.8965L15.2042 46.0682L15.3759 45.8415L15.9094 44.6398L16.7485 45.652L16.9779 45.9249L17.1359 45.5985L17.6603 44.3304L18.42 45.4213L18.749 45.6804L18.8074 45.3678L19.3409 44.1661L20.2796 45.1646L20.4068 45.35L21.1151 43.9438L21.9541 44.956L22.1809 45.1277L22.3526 44.901L22.8862 43.6993L23.9516 44.9622L24.1096 44.6359L24.6339 43.3678L25.4822 44.4464L25.7227 44.7178L26.3176 43.2256L27.2564 44.224L27.3835 44.4095L28.0918 43.0032L28.9309 44.0154L29.1576 44.1872L29.3294 43.9604L29.8629 42.7588L30.9146 43.9221L30.9867 43.7091L31.0726 43.5957L24.7435 32.5574L9.37007 34.6119ZM12.0406 42.3538L10.8357 40.8168L10.4834 40.4706L9.48354 42.7068L9.90954 42.851L10.5919 41.2565L11.581 42.6203L12.0406 42.3538ZM18.8703 37.4065L17.6406 35.7714L17.3879 35.4115L16.4129 37.7457L16.8278 37.8915L17.5086 36.286L18.4993 37.6608L18.8703 37.4065ZM23.774 36.7296L22.4226 35.1113L22.1699 34.7514L21.1949 37.0856L21.6098 37.2314L22.2906 35.6259L23.2813 37.0007L23.774 36.7296ZM26.7739 40.32L25.4362 38.8013L25.1835 38.4414L24.2833 40.6638L24.6096 40.8218L25.2919 39.2273L26.3697 40.5788L26.7739 40.32ZM21.7705 41.0107L20.6542 39.4614L20.3019 39.1153L19.3131 41.3499L19.7281 41.4956L20.4104 39.9012L21.4991 41.2512L21.7705 41.0107ZM16.8557 41.6891L15.7394 40.1399L15.3982 39.7922L14.3983 42.0283L14.8243 42.1725L15.5067 40.5781L16.4847 41.9433L16.8557 41.6891ZM14.4536 38.0162L13.3125 36.3689L12.9712 36.0212L11.9962 38.3554L12.4112 38.5012L13.092 36.8956L14.0826 38.2705L14.4536 38.0162ZM8.30632 49.378L4.77521 49.8654L5.43837 54.6695L8.96948 54.1821L8.30632 49.378ZM32.8581 45.9888L29.4266 46.4625L30.0898 51.2666L33.4327 50.8051L32.8581 45.9888ZM28.054 46.652L24.3569 47.1624L25.02 51.9664L28.6618 51.4637L28.054 46.652ZM23.1392 47.3304L19.4863 47.8347L20.1495 52.6388L23.7803 52.1376L23.1392 47.3304ZM18.2244 48.0089L14.5937 48.5101L15.2569 53.3142L18.8876 52.813L18.2244 48.0089ZM13.2211 48.6995L9.67892 49.1885L10.3421 53.9926L13.8843 53.5036L13.2211 48.6995ZM14.395 3.59692L11.5501 3.98962L11.269 1.95287L14.1138 1.56017L14.395 3.59692ZM7.35775 20.6878L6.09802 19.7337L5.14389 20.9935L6.40362 21.9476L7.35775 20.6878ZM25.124 18.2354L23.8643 17.2812L22.9102 18.541L24.1699 19.4951L25.124 18.2354ZM24.0347 22.6835L23.7558 23.5229L23.4769 24.3623L23.3772 24.3761L22.9699 23.6314L22.3743 22.9127L21.9847 23.7674L21.7943 24.5946L21.2984 23.8622L20.7029 23.1435L20.4129 23.9844L20.1339 24.8238L19.6269 24.0929L19.131 23.3604L18.7414 24.2151L18.4625 25.0545L17.9555 24.3236L17.4595 23.5912L17.081 24.4443L16.8906 25.2715L16.791 25.2853L16.2951 24.5528L15.7881 23.8219L15.4095 24.6751L15.2191 25.5022L15.1195 25.516L14.6236 24.7836L14.1166 24.0526L13.7381 24.9058L13.5477 25.733L13.4591 25.7452L12.9521 25.0143L12.4562 24.2818L12.0666 25.1365L11.8762 25.9637L11.7876 25.9759L11.2807 25.245L10.6851 24.5263L10.3951 25.3673L10.1162 26.2066L9.70882 25.462L9.11327 24.7433L8.73471 25.5965L8.54432 26.4236L8.4447 26.4374L8.04842 25.6912L7.44179 24.974L7.21017 25.5023L6.73954 22.093L6.4777 22.3209L6.15286 22.174L6.7763 26.6903L7.81993 34.2506L26.184 31.7156L25.1403 24.1553L24.5169 19.639L24.255 19.8669L23.9302 19.72L24.4039 23.1515L24.0347 22.6835ZM12.5792 0.576297C12.6205 0.875169 12.5621 1.1878 12.6019 1.4756L12.7015 1.46185L12.5792 0.576297ZM12.6808 4.17196C12.509 11.0992 10.2141 17.5186 8.93724 24.2036L8.91584 24.0486L9.89125 25.3127L10.0184 25.4982L10.532 23.8255L11.5074 25.0896L11.6345 25.2751L11.6956 25.0637L12.3031 23.581L13.306 25.0444L13.367 24.8329L13.9635 23.3518L14.9664 24.8152L15.0385 24.6022L15.6349 23.1211L16.5107 24.399L16.6378 24.5845L16.71 24.3715L17.3064 22.8904L18.3093 24.3537L18.3814 24.1407L18.9779 22.6596L19.9808 24.123L20.0529 23.91L20.6493 22.4289L21.4255 23.7205L21.6412 23.8938L21.7133 23.6808L22.2212 22.2119C22.3681 21.8871 13.9708 6.73498 13.2045 4.04327L12.6808 4.17196ZM15.527 13.1868L14.3248 11.751L14.0568 11.2803L13.0696 13.526L13.4968 13.7604L14.1791 12.1659L15.1682 13.5296L15.527 13.1868ZM12.9625 22.1477L11.8325 20.4988L11.4801 20.1526L10.5051 22.4869L10.92 22.6326L11.5871 20.9275L12.593 22.413L12.9625 22.1477ZM16.6929 21.6327L15.4632 19.9976L15.2105 19.6377L14.2355 21.9719L14.6504 22.1177L15.3175 20.4125L16.3219 21.887L16.6929 21.6327ZM20.4232 21.1178L19.1936 19.4827L18.8523 19.135L17.8662 21.4707L18.3808 21.6028L18.9593 19.9098L20.0522 21.372L20.4232 21.1178ZM13.9671 17.903L12.7485 16.2663L12.3961 15.9202L11.5284 18.296L11.9433 18.4418L12.5123 16.7614L13.6148 18.211L13.9671 17.903ZM18.2952 17.3055L17.0655 15.6704L16.8128 15.3105L15.8454 17.7001L16.1718 17.8581L16.9289 16.1518L17.9318 17.6151L18.2952 17.3055ZM5.81517 19.7276L5.72043 19.0413L6.30711 18.9604L6.40184 19.6466L6.0743 19.3986L5.81517 19.7276ZM23.5925 17.2736L23.4978 16.5873L24.0845 16.5064L24.1792 17.1926L23.8517 16.9446L23.5925 17.2736ZM10.7114 27.6586L7.96622 28.0375L8.64466 32.9523L11.3899 32.5734L10.7114 27.6586ZM24.3599 25.7745L21.6147 26.1535L22.2931 31.0683L25.0162 30.6924L24.3599 25.7745ZM20.9284 26.2482L18.1721 26.6287L18.8506 31.5435L21.6068 31.163L20.9284 26.2482ZM17.6076 26.7066L14.8624 27.0856L15.5409 32.0004L18.286 31.6214L17.6076 26.7066ZM14.1761 27.1803L11.4198 27.5608L12.0983 32.4756L14.8546 32.0951L14.1761 27.1803ZM44.7384 134.749L46.3102 134.532L43.2175 112.128L41.6457 112.345L44.7384 134.749ZM16.3566 138.667L17.9284 138.45L14.8357 116.045L13.1421 116.279L16.3566 138.667ZM19.2014 138.274L20.6626 138.072L17.5699 115.668L15.998 115.885L19.2014 138.274ZM22.0462 137.881L23.6181 137.664L20.5254 115.26L18.9535 115.477L22.0462 137.881ZM24.9021 137.487L26.4629 137.272L23.3702 114.867L21.8094 115.083L24.9021 137.487ZM27.7469 137.094L29.3188 136.877L26.2261 114.473L24.6542 114.69L27.7469 137.094ZM30.4921 136.715L32.1636 136.485L29.0709 114.08L27.3994 114.311L30.4921 136.715ZM33.3369 136.323L34.9199 136.104L31.8272 113.7L30.2442 113.918L33.3369 136.323ZM36.1928 135.929L37.7647 135.712L34.672 113.307L33.0669 113.529L36.1928 135.929ZM39.0377 135.536L40.5874 135.322L37.4947 112.918L35.9228 113.135L39.0377 135.536ZM41.8935 135.142L43.4543 134.926L40.3616 112.522L38.8008 112.737L41.8935 135.142ZM41.4852 111.182L43.0571 110.965L40.2088 90.3321L38.637 90.549L41.4852 111.182ZM13.1034 115.1L14.6753 114.883L11.8271 94.2499L10.1334 94.4837L13.1034 115.1ZM15.9482 114.707L17.4094 114.506L14.5612 93.8725L12.9893 94.0895L15.9482 114.707ZM18.7931 114.315L20.3649 114.098L17.5167 93.4645L15.9448 93.6815L18.7931 114.315ZM21.649 113.92L23.2097 113.705L20.3615 93.0718L18.8007 93.2872L21.649 113.92ZM24.4938 113.528L26.0656 113.311L23.2174 92.6776L21.6455 92.8945L24.4938 113.528ZM27.239 113.149L28.9104 112.918L26.0622 92.2849L24.3908 92.5156L27.239 113.149ZM30.0838 112.756L31.6667 112.538L28.8185 91.9044L27.2356 92.1229L30.0838 112.756ZM32.9397 112.362L34.5115 112.145L31.6633 91.5117L30.0582 91.7333L32.9397 112.362ZM35.7845 111.969L37.3342 111.755L34.486 91.122L32.9141 91.339L35.7845 111.969ZM38.6404 111.575L40.2012 111.36L37.3529 90.7263L35.7922 90.9417L38.6404 111.575ZM41.2615 89.2956L8.9058 93.762L15.2501 139.722L47.5615 135.262L41.2615 89.2956ZM12.4005 88.2712L10.4412 88.5416L10.6918 90.357L12.5625 90.0988L12.4005 88.2712ZM38.2253 84.7063L36.3656 84.963L36.6162 86.7784L38.3652 86.537L38.2253 84.7063ZM35.8675 85.0318L34.0078 85.2885L34.2584 87.1038L36.1181 86.8471L35.8675 85.0318ZM33.5097 85.3572L31.6501 85.6139L31.9007 87.4293L33.7603 87.1726L33.5097 85.3572ZM31.152 85.6827L29.2591 85.944L29.5097 87.7594L31.3693 87.5027L31.152 85.6827ZM28.8052 86.0066L26.9345 86.2649L27.1851 88.0803L29.0558 87.822L28.8052 86.0066ZM26.4364 86.3336L24.4993 86.601L24.7499 88.4164L26.6095 88.1597L26.4364 86.3336ZM24.0897 86.6576L22.219 86.9158L22.4696 88.7312L24.3403 88.473L24.0897 86.6576ZM21.7319 86.983L19.8612 87.2413L20.1118 89.0567L21.9825 88.7984L21.7319 86.983ZM19.3742 87.3085L17.6031 87.553L17.8537 89.3684L19.5473 89.1346L19.3742 87.3085ZM17.1603 87.6141L15.2896 87.8724L15.5402 89.6877L17.3334 89.4402L17.1603 87.6141ZM14.8025 87.9396L12.9318 88.1978L13.1824 90.0132L15.0531 89.755L14.8025 87.9396ZM22.6236 72.8499C22.4354 72.8759 22.2224 72.8037 22.0232 72.8312L21.4332 73.6233C21.387 74.0245 21.4267 74.3123 21.255 74.5391C21.1898 74.5977 21.1082 74.636 21.0219 74.648C20.9344 74.66 20.8466 74.6451 20.768 74.6063C20.5999 74.4107 20.4089 74.2362 20.1999 74.0869C19.9869 74.0148 19.9609 73.8266 20.1327 73.5998C20.3148 73.375 20.5779 73.2293 20.8663 73.194L21.5575 72.3992C21.3555 72.3256 21.3143 72.0267 21.2883 71.8385L21.247 71.5396L13.1301 64.9557L13.1026 64.7564L13.2908 64.7305C13.277 64.6308 13.3766 64.6171 13.3904 64.7167L21.8249 70.659C21.9586 70.5491 22.1254 70.4911 22.2982 70.4921C22.5408 70.4767 22.7838 70.5131 23.012 70.5966L24.0436 69.3262C23.9912 69.3312 23.9395 69.3157 23.8968 69.2844C23.8551 69.2518 23.8262 69.2062 23.8168 69.1544C23.7673 69.1387 23.7225 69.1088 23.6887 69.0683C23.655 69.0279 23.6335 68.979 23.6264 68.9269C23.6192 68.8749 23.6265 68.822 23.6481 68.7739C23.6697 68.7258 23.7046 68.6849 23.7481 68.6563C24.0659 68.3846 24.4649 68.2269 24.8817 68.2066L25.0534 67.9798L24.9847 67.4817L25.5713 67.4007L25.6523 67.9874L25.2649 68.0409L25.0058 68.3699C25.0745 68.868 25.1417 69.3551 24.97 69.5818C24.8872 69.644 24.79 69.6834 24.6871 69.6976C24.5841 69.7118 24.4799 69.7003 24.3833 69.6628L24.27 69.577L23.2586 70.9123C23.3943 71.0785 23.4901 71.274 23.5403 71.4825C23.5663 71.6707 23.4804 71.7841 23.4942 71.8837C23.9167 72.3623 24.4898 72.6814 25.1192 72.7874C25.1458 72.7837 25.1726 72.7902 25.194 72.8064C25.2154 72.8226 25.2289 72.8467 25.2326 72.8733C25.2463 72.9729 25.2601 73.0725 25.1605 73.0863C25.0608 73.1 24.9734 73.2023 24.9872 73.302C25.0009 73.4016 24.9013 73.4153 24.9151 73.5149C24.9155 73.5916 24.8899 73.6673 24.843 73.728C24.6437 73.7555 24.5552 73.7677 24.5674 73.8562C24.5157 73.8656 24.47 73.8945 24.4374 73.9362C24.4061 73.9789 24.3907 74.0306 24.3956 74.083L24.2407 74.1044C24.1548 74.2177 24.141 74.1181 24.0414 74.1319C23.7704 73.5331 23.2767 73.062 22.6648 72.8216L22.6236 72.8499ZM20.7635 61.4993L20.0661 61.5955L19.8018 60.3348L20.5878 60.2263L20.7635 61.4993ZM19.4932 61.7761C19.2191 61.9155 18.9203 61.9567 18.6352 62.0976L18.1701 60.8533C18.5079 60.677 18.8728 60.5589 19.2495 60.5013L19.4932 61.7761ZM18.0939 62.2626C17.9031 62.4164 17.6768 62.5176 17.4351 62.5566L16.775 61.452L17.6304 61.0293L18.0939 62.2626ZM17.042 62.8139C16.787 63.0262 16.5033 63.2018 16.2004 63.3361L15.3613 62.3239C15.6687 62.0503 16.0196 61.8304 16.3995 61.673L17.042 62.8139ZM15.7531 63.6912C15.6055 63.8807 15.4249 64.0433 15.2214 64.1707L14.2827 63.1722C14.5459 63.0039 14.7868 62.8037 15.0014 62.5767L15.7531 63.6912ZM14.8737 64.512C14.7556 64.6941 14.606 64.8523 14.4306 64.9792L14.6558 65.1399C14.7417 65.0265 14.9149 64.8108 14.9897 64.699L15.0451 64.6913L15.131 64.578C15.4023 64.3374 15.5645 64.1233 15.8359 63.8828L15.9355 63.869L18.4956 67.2156C18.3328 67.3193 18.1828 67.4415 18.0498 67.5817L18.2766 67.7534C19.1214 66.8133 20.2875 66.2226 21.5446 66.0953C22.9281 65.928 24.3254 66.2687 25.4782 67.0526L25.8767 66.9976C25.548 66.7248 25.1794 66.5061 24.783 66.3477L26.2411 62.4465L26.3407 62.4327L27.5561 63.0658L27.6695 63.1517C27.9098 63.3396 28.166 63.5039 28.4368 63.6436C28.7163 63.9277 29.0207 64.1879 29.345 64.4207L29.3587 64.5203L29.4706 64.5951C29.698 64.813 29.8988 65.0583 30.0676 65.3249L26.8146 67.8269C26.5741 67.5556 26.2217 67.2094 25.9923 66.9365L26.0595 67.4235C27.0697 68.3185 27.7337 69.541 27.9349 70.8759C28.1036 71.9919 27.9362 73.1329 27.4533 74.1538C26.9703 75.1737 26.1946 76.0264 25.2241 76.6037C24.2536 77.181 23.1343 77.4562 22.0065 77.393C20.8801 77.3308 19.7976 76.9331 18.897 76.252C18.2891 75.8035 17.779 75.2377 17.3958 74.5867C17.0138 73.9356 16.7664 73.214 16.6709 72.4646C16.4735 71.2555 16.7287 70.0156 17.3858 68.9818L17.159 68.8101C17.0732 68.9235 17.0011 69.1365 16.9263 69.2483L13.0999 67.6784C13.2426 67.2413 13.4566 66.8305 13.733 66.463L13.7192 66.3634C13.8188 66.3496 13.8051 66.25 13.891 66.1366L13.6642 65.9649C13.5894 66.0767 13.6032 66.1763 13.5062 66.2912L12.2771 65.5585C12.4379 65.4573 12.5572 65.2998 12.611 65.1176L12.5438 64.6305L12.8289 64.4896C12.901 64.2766 13.0892 64.2507 13.2995 64.2216C13.4801 64.0016 13.6877 63.806 13.9186 63.6399L14.8737 64.512ZM13.4356 66.5153L13.3471 66.5275L12.353 65.8638L13.4219 66.4157L13.4356 66.5153ZM13.275 66.7405C13.0832 66.9937 12.9508 67.285 12.8853 67.5952L12.2436 67.2777L11.6157 67.0598C11.7497 66.7311 11.9053 66.4118 12.0817 66.1043L12.1813 66.0906L13.275 66.7405ZM12.651 68.0224C12.5653 68.2598 12.4973 68.5027 12.4469 68.7499L11.0929 68.339C11.165 68.126 11.3245 67.8107 11.3856 67.5992L12.651 68.0224ZM12.2263 69.2767L12.0497 70.2035L10.8228 69.978L10.7232 69.9918C10.7678 69.5795 10.9273 69.2642 10.9578 68.8314L12.2263 69.2767ZM12.0219 70.7375C11.9732 70.9732 11.9384 71.2115 11.9173 71.4513L10.6169 71.4278C10.6768 71.1262 10.6355 70.8274 10.6939 70.5147L10.7076 70.6144L12.0219 70.7375ZM11.9449 71.6506L10.7578 71.7129L10.744 71.6133L11.9449 71.6506ZM11.9846 71.9384C11.9514 72.2374 11.9628 72.5404 12.0183 72.8361L10.7342 73.0134C10.6652 72.6439 10.647 72.2674 10.6811 71.8927L11.9846 71.9384ZM12.0993 73.4228C12.1159 73.6574 12.1789 73.8856 12.2825 74.0969L10.9237 74.386L10.8152 73.6001L12.0993 73.4228ZM12.3513 74.595C12.4922 74.8801 12.5457 75.2675 12.685 75.5416L11.4533 76.0162C11.2866 75.6749 11.1676 75.3111 11.1013 74.9368L12.3513 74.595ZM12.8534 76.026L13.2333 76.5714L12.0275 77.2342L12.0413 77.3338L11.6202 76.4895L11.7198 76.4757L12.8534 76.026ZM13.3741 76.8565L12.3344 77.4964L12.3207 77.3967L13.3741 76.8565ZM13.4887 77.0325C13.6205 77.3335 13.7955 77.6128 14.0094 77.863L12.9213 78.7239C12.6918 78.451 12.5372 78.0662 12.2982 77.8059L12.3318 77.7223L13.4887 77.0325ZM14.366 78.3214C14.4681 78.5137 14.6324 78.6659 14.8317 78.7534L13.7668 79.7013C13.5852 79.5053 13.4195 79.2935 13.2736 79.07L14.366 78.3214ZM15.173 79.1011C15.4246 79.371 15.6402 79.5442 15.8792 79.8045L15.1297 80.9119L15.03 80.9257C14.7911 80.6654 14.462 80.4063 14.2215 80.1349L15.173 79.1011ZM16.3327 80.148C16.5347 80.2217 16.6618 80.4072 16.8733 80.4682L16.2401 81.6836L16.1405 81.6974C15.9138 81.5257 15.6981 81.3524 15.4618 81.1932L16.3327 80.148ZM17.3157 80.8132C17.6421 80.9712 17.8535 81.0323 18.1689 81.1918L17.7457 82.4572L17.6461 82.4709C17.3036 82.3107 16.9764 82.1223 16.6658 81.9069L17.3157 80.8132ZM18.6972 81.4234L19.3362 81.6398L19 82.8819C18.704 82.8461 18.4191 82.7511 18.1606 82.603L18.6972 81.4234ZM19.8713 81.7577L20.7981 81.9343L20.686 83.247L19.5394 83.112L19.8713 81.7577ZM21.0333 82.0034L20.9868 83.1378L20.8872 83.1516L21.0333 82.0034ZM21.3348 82.0633C21.5341 82.0358 21.8467 82.0941 22.0349 82.0682L22.0224 83.3671C21.7235 83.4084 21.422 83.3485 21.2227 83.376L21.3348 82.0633ZM22.2463 82.1292L22.346 82.1155L22.2995 83.2499L22.2463 82.1292ZM22.5452 82.0879C22.833 82.0482 23.2453 82.0928 23.5441 82.0516L23.7214 83.3356C23.3263 83.4071 22.9243 83.4287 22.5232 83.3995L22.5452 82.0879ZM24.0312 81.9844C24.2669 81.9676 24.4959 81.9021 24.7037 81.79L25.0802 83.0465L25.094 83.1461L24.2084 83.2684L24.0312 81.9844ZM25.2904 81.709C25.5771 81.5792 25.8649 81.5395 26.15 81.3986L26.6246 82.6303C26.3395 82.7712 25.941 82.8262 25.5452 82.9824L25.2904 81.709ZM26.4351 81.2577L26.8757 82.3249L26.7761 82.3387L26.4351 81.2577ZM26.6095 81.1321C26.8463 81.0656 27.0718 80.9668 27.2794 80.8366L27.9299 81.9538L27.9422 82.0423C27.7098 82.1895 27.4524 82.2938 27.1838 82.3501L26.6095 81.1321ZM27.4538 80.711L27.5534 80.6972L28.1047 81.7492L27.4538 80.711ZM27.7405 80.5812C27.9886 80.4093 28.2218 80.2192 28.4401 80.0108L29.2792 81.023L29.2914 81.1116C28.9612 81.2858 28.6533 81.4986 28.375 81.7457L28.3612 81.6461L27.7405 80.5812ZM28.9172 79.7081C29.1199 79.5831 29.3011 79.425 29.4504 79.2397L30.3891 80.2381C30.2269 80.4523 29.9418 80.5932 29.77 80.8199L28.9172 79.7081ZM29.8076 78.8858C30.0331 78.6809 30.2362 78.4521 30.4129 78.2044L31.5203 78.9539C31.2876 79.2782 31.0272 79.5815 30.7433 79.8621L29.8076 78.8858ZM30.7786 77.7478C30.9408 77.5337 31.0129 77.3207 31.0987 77.2073L32.3142 77.8404C32.2119 78.0801 32.071 78.3015 31.897 78.4959L30.7786 77.7478ZM31.4189 76.6668C31.6107 76.4135 31.7431 76.1223 31.8086 75.8121L33.0767 76.3364C32.9523 76.7021 32.8017 77.0579 32.626 77.4026L32.5264 77.4163L31.4189 76.6668ZM32.0524 75.3723C32.1135 75.1609 32.1871 74.9589 32.2592 74.7459L33.6105 75.0557C33.4727 75.324 33.3747 75.6106 33.322 75.9077L33.2224 75.9215L32.0524 75.3723ZM32.3867 74.1982C32.4865 73.9001 32.5427 73.5878 32.5522 73.2729L33.876 73.3834L33.9756 73.3697C33.8634 73.7495 33.7817 74.1387 33.7299 74.5316L32.3867 74.1982ZM32.6827 72.7473C32.6567 72.5591 32.7151 72.2465 32.6892 72.0583L34.0877 72.057C34.0267 72.2685 34.0664 72.5563 34.008 72.8689L32.6827 72.7473ZM32.7475 71.7456L33.9594 71.7814L33.8598 71.7952L32.7475 71.7456ZM32.7063 71.4468C32.7484 71.1477 32.7415 70.8441 32.6836 70.5475L33.8791 70.3825C33.9493 70.7518 33.9663 71.1285 33.9323 71.5031L32.7063 71.4468ZM32.6027 69.9608C32.5905 69.7583 32.5282 69.5605 32.422 69.3879L33.7671 68.9992L33.8756 69.7851L32.6027 69.9608ZM32.3808 69.089L32.367 68.9894L33.5377 68.7263L33.5514 68.8259L32.3808 69.089ZM32.3411 68.8012C32.2002 68.5161 32.1604 68.2283 32.0196 67.9432L33.2624 67.467L33.2486 67.3674C33.4125 67.7374 33.5306 68.1271 33.6003 68.5259L32.3411 68.8012ZM31.8512 67.4588C31.7391 67.2351 31.611 67.0182 31.4686 66.8122L32.6744 66.1495C32.8226 66.3817 32.9268 66.638 32.9821 66.9079L31.8512 67.4588ZM31.3293 66.5382L32.3675 65.8873L32.3812 65.9869L31.3293 66.5382ZM31.2022 66.3527C31.0675 66.0554 30.8969 65.7755 30.6925 65.5206L31.7184 64.7811L31.8181 64.7674C32.0586 65.0387 32.2117 65.4124 32.4522 65.6838L31.2022 66.3527ZM30.3401 65.1745L29.9603 64.629L30.8354 63.696C31.0565 63.8753 31.2522 64.0841 31.4172 64.3151L30.3401 65.1745ZM29.501 64.1623C29.2522 63.9857 29.0234 63.7826 28.8196 63.5569L29.6715 62.5369C29.9171 62.7884 30.1827 63.0202 30.4663 63.2281L30.48 63.3277L29.501 64.1623ZM28.3799 63.3131C28.2397 63.1226 28.0469 62.9766 27.8256 62.8933L28.4587 61.6778C28.6855 61.8496 29.0008 62.0091 29.2275 62.1808L28.3799 63.3131ZM27.5988 62.7215L28.2625 61.7275L27.6985 62.7078L27.5988 62.7215ZM27.3858 62.6494C27.061 62.5025 26.8453 62.3292 26.5189 62.1712L27.0524 60.9695L28.0205 61.445L27.3858 62.6494ZM26.0044 62.0392C25.8067 61.9063 25.5916 61.8029 25.3642 61.7327L25.6878 60.4811C25.9816 60.5342 26.2648 60.6327 26.5287 60.7711L26.0044 62.0392ZM24.8165 61.6053L23.8897 61.4287L24.1124 60.1007C24.4251 60.1591 24.84 60.3048 25.1526 60.3632L24.8165 61.6053ZM23.3904 61.4074C23.1774 61.3352 22.8896 61.375 22.6766 61.3029L22.6986 59.9913C23.0001 60.0512 23.299 60.0099 23.512 60.0821L23.3904 61.4074ZM22.4773 61.3304L22.3777 61.3441L22.4135 60.1322L22.4773 61.3304ZM22.1895 61.3701C21.8561 61.3326 21.5204 61.344 21.1906 61.4065L21.0149 60.1335L22.1882 59.9715L22.1895 61.3701ZM16.3206 63.6354C16.592 63.3949 16.779 63.2788 17.0504 63.0383L17.139 63.0261L17.4241 62.8852C17.7092 62.7443 17.8836 62.6187 18.1687 62.4779L18.2684 62.4641L18.4539 62.337L18.642 62.311C18.9272 62.1701 19.215 62.1304 19.5016 62.0006L19.9887 61.9333L19.9749 61.8337L20.6723 61.7375L21.2422 65.8663C20.3922 66.0412 19.5876 66.3903 18.8796 66.8918L16.3206 63.6354ZM21.1593 61.6702C21.4559 61.6124 21.7595 61.6054 22.0586 61.6476L22.5125 61.585C22.7521 61.597 22.99 61.6285 23.2247 61.6784L23.3244 61.6646L23.637 61.723L23.7366 61.7093L24.6634 61.8859L24.6772 61.9855L24.8211 61.9656C24.9207 61.9519 25.0341 62.0378 25.1337 62.024L25.2471 62.1099C25.4463 62.0824 25.6605 62.2446 25.8735 62.3167L24.3036 66.1431C23.4825 65.8661 22.6167 65.7477 21.7514 65.796L21.1593 61.6702ZM30.4368 65.7928C30.6453 66.0449 30.817 66.3246 30.9465 66.6249L31.0583 66.6997C31.072 66.7993 31.0858 66.8989 31.1854 66.8852L31.1992 66.9848C31.34 67.2699 31.4932 67.6436 31.6508 68.0505C31.9427 68.7265 32.1393 69.4393 32.2366 70.1693L28.1078 70.7392C27.9605 69.8932 27.6459 69.085 27.1819 68.3628L30.4368 65.7928ZM32.3008 70.6342C32.3587 70.9308 32.3656 71.2344 32.3234 71.5335C32.3588 71.9369 32.3506 72.343 32.2987 72.7439C32.2187 73.619 32.0355 74.4813 31.7509 75.3124L27.8249 73.7563C28.1018 72.9352 28.2203 72.0694 28.1719 71.2041L32.3008 70.6342ZM31.507 75.7522C31.4219 76.0832 31.3001 76.4023 31.1422 76.705L30.9689 76.9206L30.8831 77.034C30.7224 77.2592 30.6503 77.4722 30.5644 77.5856L30.3789 77.7127L30.3053 77.9147L30.1198 78.0418L30.2194 78.0281C29.9991 78.2378 29.7971 78.4665 29.6141 78.7095L29.5144 78.7232L29.5282 78.8228L29.4423 78.9362C29.182 79.1752 28.9965 79.3023 28.7236 79.5318L26.1635 76.1852C26.4836 75.9053 26.7773 75.5974 27.0402 75.2633C27.3125 74.9392 27.5327 74.5738 27.6917 74.1807L31.507 75.7522ZM28.2778 79.8979C28.0476 80.0853 27.8036 80.2544 27.5469 80.4049L27.5332 80.3052L27.3477 80.4324L27.2729 80.5442L27.0874 80.6713C26.8782 80.7171 26.6834 80.8094 26.5156 80.942L26.4271 80.9542C26.3274 80.968 26.1419 81.0951 26.0423 81.1089L25.9427 81.1226C25.6013 81.2893 25.2375 81.4072 24.8633 81.4747L24.664 81.5022C24.4218 81.6191 24.1598 81.6902 23.8918 81.7103L23.3219 77.5814C24.166 77.3882 24.9675 77.0407 25.6845 76.5559L28.2778 79.8979ZM23.438 81.7729C23.1414 81.8308 22.838 81.8389 22.5387 81.7956L22.0406 81.8643C21.8006 81.8422 21.5623 81.8074 21.3268 81.7598C20.8066 81.7098 20.2916 81.6151 19.7873 81.476L19.6877 81.4897C19.3861 81.4299 19.0598 81.2719 18.7471 81.2135L20.3159 77.297C21.1375 77.5694 22.0031 77.6868 22.8681 77.6441L23.438 81.7729ZM18.2188 80.9819C17.9267 80.8755 17.6408 80.7492 17.3657 80.6033L17.4653 80.5895L17.3519 80.5037L17.0504 80.4438L17.0382 80.3552L16.9385 80.369C16.8114 80.1835 16.5984 80.1114 16.3716 79.9396L16.4713 79.9259L16.3579 79.84L16.1437 79.6778L15.9307 79.6057C15.6816 79.4269 15.4494 79.2243 15.2383 79.0019L15.0088 78.729L14.8954 78.6431L14.5156 78.0977L14.416 78.1114L17.7736 75.5498C18.0615 75.8869 18.4024 76.1748 18.7825 76.4032C19.1339 76.6773 19.5048 76.9284 19.8899 77.1528L18.2188 80.9819ZM14.1728 77.7389C13.9402 77.4676 13.7596 77.1564 13.6398 76.8198L13.5402 76.8336C13.3993 76.5485 13.2573 76.1733 13.1164 75.8881C13.0161 75.7497 12.9584 75.5851 12.9495 75.4148C12.6598 74.7701 12.4628 74.0867 12.3649 73.3861L16.4938 72.8162C16.6405 73.6747 16.9927 74.4856 17.5193 75.1788L14.1728 77.7389ZM12.2977 72.8991C12.2352 72.5693 12.2237 72.2325 12.2613 71.9002L12.1941 71.4131C12.2662 71.2001 12.2265 70.9123 12.2986 70.6993C12.2711 70.5001 12.2573 70.4004 12.3432 70.2871L12.3295 70.1874C12.3745 69.9093 12.4335 69.6339 12.5088 69.3618L12.5824 69.1599L12.5687 69.0602C12.5549 68.9606 12.6545 68.9468 12.6408 68.8472L12.8587 68.2193L16.7736 69.777C16.4545 70.587 16.3352 71.463 16.4265 72.3291L12.2977 72.8991ZM33.7265 56.5288L20.4433 58.3624C23.9768 57.8927 27.5517 58.842 30.3869 61.0022C33.2231 63.1623 35.0867 66.3579 35.5708 69.8895L33.7265 56.5288ZM23.6158 60.1805L23.7155 60.1668L23.5912 61.3909L23.6158 60.1805ZM29.1501 62.5187L29.2497 62.5049L28.586 63.499L28.4726 63.4131L29.1501 62.5187ZM31.473 78.6108L31.3871 78.7242L30.4789 77.9471L30.5785 77.9334L31.473 78.6108ZM15.3698 80.9352L15.2675 80.8478L15.9449 79.9534L16.0445 79.9396L15.3698 80.9352ZM17.727 60.9934L17.9151 60.9675L18.2779 62.1244L17.727 60.9934ZM30.4869 63.5411L29.6102 64.463L29.5965 64.3634L30.4869 63.5411ZM19.2936 82.9655L19.1802 82.8796L19.5144 81.7054L19.2936 82.9655ZM16.4188 81.6703L16.405 81.5706L17.0687 80.5766L16.4188 81.6703ZM14.1945 63.4325L14.1808 63.3329L15.0031 64.2234L15.0153 64.3119L14.1945 63.4325ZM16.5468 61.5963L17.1866 62.636L17.1008 62.7494L16.5468 61.5963ZM20.4849 58.2552L7.13526 60.098L8.97958 73.4586C8.49408 69.9171 9.43236 66.3279 11.5895 63.4786C13.7454 60.6282 16.9446 58.7495 20.4849 58.2552ZM8.97958 73.4586L10.8224 86.8082L24.172 84.9655C20.6315 85.4508 17.0435 84.5124 14.1952 82.3551C11.347 80.1978 9.47156 76.9982 8.97958 73.4586ZM24.172 84.9655L37.4552 83.1318L35.6216 69.8486C36.1087 73.3775 35.1792 76.9565 33.035 79.8018C30.8908 82.6471 27.7076 84.527 24.1811 85.0319L24.172 84.9655ZM24.0772 84.2792C21.5803 84.6261 19.0365 84.2249 16.7684 83.1245C14.4994 82.0255 12.6089 80.2774 11.3341 78.1026C10.0593 75.9277 9.45858 73.423 9.60763 70.9072C9.75764 68.3902 10.6504 65.9748 12.1733 63.9654C13.6953 61.9572 15.781 60.4454 18.1636 59.6213C20.5463 58.7983 23.1193 58.7003 25.5574 59.3406C27.9953 59.9798 30.1894 61.3284 31.8611 63.216C33.5317 65.1039 34.606 67.444 34.9463 69.9418C35.4021 73.2844 34.5204 76.6707 32.4933 79.3667C30.4661 82.0628 27.4575 83.8509 24.1196 84.341L24.0772 84.2792ZM35.1709 81.9469C35.0301 81.9731 34.8851 81.9683 34.7457 81.9311C34.6075 81.8938 34.4787 81.827 34.3699 81.7337C34.2612 81.6404 34.174 81.5239 34.1154 81.3932C34.0577 81.2613 34.0291 81.1197 34.0329 80.9759C34.018 80.8517 34.0299 80.7248 34.0652 80.6049C34.1016 80.4848 34.1619 80.3738 34.2434 80.278C34.3238 80.1823 34.4236 80.1042 34.5354 80.0482C34.6485 79.9931 34.7704 79.9605 34.8959 79.9544C35.14 79.9173 35.3893 79.9743 35.5924 80.1132C35.7956 80.2532 35.9387 80.4647 35.9922 80.7055C36.0268 80.8417 36.0328 80.983 36.0089 81.1206C35.9852 81.2592 35.9335 81.3915 35.856 81.5083C35.7785 81.625 35.6783 81.7246 35.5601 81.7995C35.442 81.8756 35.309 81.9256 35.1709 81.9469ZM32.1347 59.9521C31.8742 59.9847 31.6107 59.915 31.4015 59.7556C31.1912 59.5973 31.0528 59.3626 31.0136 59.1029C30.9889 58.9732 30.9919 58.8397 31.0227 58.7114C31.0535 58.5831 31.1102 58.4624 31.1905 58.3577C31.2708 58.253 31.3728 58.1667 31.4881 58.1034C31.6047 58.0411 31.7326 58.0031 31.8643 57.9928C32.1222 57.9572 32.3844 58.026 32.5922 58.1834C32.8001 58.3408 32.9373 58.5746 32.9729 58.8325C32.9808 59.0863 32.9025 59.3363 32.7502 59.54C32.5977 59.7427 32.3809 59.8888 32.1347 59.9521ZM9.8411 63.0296C9.57987 63.0656 9.31534 62.9961 9.10496 62.8368C8.89459 62.6774 8.756 62.4416 8.71994 62.1804C8.71194 61.9344 8.7962 61.695 8.95417 61.5073C9.11214 61.3197 9.33443 61.1976 9.57796 61.164C9.82148 61.1304 10.0685 61.1877 10.2714 61.3255C10.4743 61.4633 10.6203 61.671 10.6792 61.9099C10.715 62.1689 10.6475 62.4321 10.4904 62.6421C10.3331 62.8511 10.0997 62.9905 9.8411 63.0296ZM12.8773 85.0243C12.7365 85.0505 12.5915 85.0457 12.4521 85.0086C12.3138 84.9712 12.1851 84.9044 12.0763 84.8112C11.9675 84.7179 11.8804 84.6013 11.8217 84.4706C11.764 84.3387 11.7355 84.1972 11.7393 84.0534C11.7313 83.8074 11.8156 83.568 11.9735 83.3803C12.1315 83.1927 12.3538 83.0707 12.5973 83.037C12.8408 83.0034 13.0879 83.0607 13.2908 83.1985C13.4937 83.3363 13.6397 83.544 13.6986 83.7829C13.7411 83.9192 13.7519 84.0632 13.7318 84.2036C13.7119 84.3451 13.6605 84.4796 13.5822 84.5987C13.5037 84.7167 13.4002 84.8168 13.2774 84.8912C13.1555 84.9645 13.0186 85.0104 12.8773 85.0243ZM34.0784 55.9726L37.8755 83.4799L10.4789 87.2618L6.69092 59.8209L34.0784 55.9726ZM33.773 53.0255L31.9134 53.2822L32.1839 55.2415L34.0103 54.9894L33.773 53.0255ZM7.94829 56.5904L6.06651 56.8501L6.33697 58.8094L8.20769 58.5512L7.94829 56.5904ZM10.3061 56.2649L8.43534 56.5231L8.7058 58.4824L10.5765 58.2242L10.3061 56.2649ZM12.6638 55.9394L10.7931 56.1977L11.0636 58.1569L12.9786 57.8926L12.6638 55.9394ZM14.8777 55.6338L13.1066 55.8783L13.3771 57.8376L15.1924 57.587L14.8777 55.6338ZM17.2355 55.3084L15.3647 55.5666L15.6352 57.5259L17.5059 57.2676L17.2355 55.3084ZM19.5932 54.9829L17.7225 55.2411L17.993 57.2004L19.8637 56.9422L19.5932 54.9829ZM21.9399 54.6589L20.1246 54.9095L20.395 56.8688L22.2547 56.6121L21.9399 54.6589ZM24.3088 54.3319L22.438 54.5902L22.7085 56.5495L24.5792 56.2912L24.3088 54.3319ZM26.6555 54.008L24.8844 54.2525L25.1548 56.2118L27.0145 55.9551L26.6555 54.008ZM29.0132 53.6825L27.1536 53.9392L27.4241 55.8985L29.2837 55.6418L29.0132 53.6825ZM31.371 53.3571L29.5113 53.6138L29.7818 55.5731L31.6415 55.3163L31.371 53.3571ZM9.5635 90.3548L9.95093 90.3013L5.35617 57.0159L4.96874 57.0693L9.5635 90.3548ZM7.59316 90.6268L8.09127 90.5581L3.49652 57.2726L2.9984 57.3413L7.59316 90.6268ZM8.57833 90.4908L9.06538 90.4236L4.47062 57.1381L3.98357 57.2053L8.57833 90.4908ZM39.1186 86.275L39.7053 86.194L35.1105 52.9085L34.5239 52.9895L39.1186 86.275ZM41.089 86.003L41.6646 85.9236L37.0698 52.6381L36.5828 52.7053L41.089 86.003ZM40.1038 86.139L40.5908 86.0718L35.9961 52.7863L35.509 52.8535L40.1038 86.139Z" fill="#150958" fill-opacity="0.15"/>
</svg>
