<svg width="118" height="189" viewBox="0 0 118 189" fill="none" xmlns="http://www.w3.org/2000/svg">
<path fill-rule="evenodd" clip-rule="evenodd" d="M99.7757 31.3091L98.2174 45.6827L47.3432 40.0333L48.9015 25.6706L99.7757 31.3091ZM59.0156 162.429C85.5645 162.475 108.445 173.056 117.719 188.02L0.0308093 187.819C9.53963 172.887 32.3694 162.384 59.0048 162.429L59.0156 162.429ZM36.4643 123.637L90.4594 129.669L90.173 132.909L36.0808 126.876L36.4643 123.637ZM57.5919 2.97076L96.4684 7.24951L96.7542 4.37691L57.8776 0.0981626L57.5919 2.97076ZM47.8405 20.7759L101.976 26.7116L101.592 30.0701L47.5974 24.0374L47.8405 20.7759ZM45.6453 41.2942L99.6404 47.3269L99.3538 50.6747L45.2184 44.6418L45.6453 41.2942ZM43.45 61.8881L97.445 67.9208L97.0614 71.1605L43.0662 65.2249L43.45 61.8881ZM41.1143 82.4061L95.2498 88.4391L94.7688 91.7866L40.7738 85.7538L41.1143 82.4061ZM38.919 103L92.914 109.033L92.5302 112.391L38.5352 106.358L38.919 103ZM91.4703 24.6091L93.2266 8.16208L60.5595 4.56359L58.6413 20.9779L91.4703 24.6091ZM69.2621 12.69L68.6796 18.5324L63.0209 17.9503L63.6141 12.1079C63.6399 11.7278 63.7421 11.3564 63.9145 11.0154C64.087 10.6754 64.3262 10.3734 64.6179 10.1276C64.9095 9.88188 65.2477 9.69776 65.6122 9.58497C65.9767 9.47326 66.3601 9.43503 66.7395 9.47456C67.1188 9.51409 67.4865 9.62922 67.8205 9.81341C68.1544 9.9976 68.4478 10.2465 68.6832 10.5472C68.9187 10.8468 69.0913 11.1916 69.1907 11.5601C69.2902 11.9275 69.3144 12.3121 69.2621 12.69ZM88.7002 14.8834L88.0206 20.7256L82.3728 20.0463L83.0524 14.2041C83.0882 13.8261 83.1986 13.4591 83.377 13.1245C83.5555 12.7889 83.7986 12.4923 84.0922 12.252C84.3859 12.0116 84.7244 11.8318 85.0879 11.7223C85.4516 11.6138 85.8332 11.5777 86.2108 11.6172C86.5913 11.6568 86.9597 11.7741 87.2935 11.9615C87.6273 12.1478 87.9196 12.4011 88.1525 12.705C88.3854 13.0078 88.554 13.3559 88.6482 13.7265C88.7424 14.0982 88.7601 14.4839 88.7003 14.8618L88.7002 14.8834ZM78.9812 13.7867L78.3015 19.6289L72.6537 18.9496L73.3333 13.1074C73.3472 12.7218 73.4432 12.344 73.615 11.9986C73.7867 11.6533 74.0301 11.348 74.3291 11.1044C74.628 10.8598 74.9756 10.6832 75.3486 10.5845C75.7215 10.4858 76.1112 10.467 76.4917 10.5314C76.8692 10.5784 77.2335 10.7 77.5637 10.8896C77.8938 11.0781 78.183 11.3314 78.4146 11.6331C78.6462 11.9349 78.8155 12.2797 78.9128 12.6482C79.01 13.0156 79.0333 13.3991 78.9812 13.7759L78.9812 13.7867ZM54.2314 29.082L53.1351 38.5635L49.7766 38.1797L50.873 28.6874C50.9548 28.2825 51.192 27.9265 51.5337 27.6949C51.8753 27.4632 52.2942 27.3743 52.7004 27.4484C52.9103 27.4488 53.1179 27.4913 53.3105 27.5748C53.5031 27.6583 53.6765 27.7806 53.82 27.9332C53.9635 28.0868 54.0741 28.2674 54.1449 28.4651C54.2156 28.6629 54.2451 28.8725 54.2314 29.082ZM86.9493 116.821L85.7883 126.302L82.5486 125.919L83.6449 116.426C83.7242 116.023 83.9593 115.667 84.2992 115.435C84.6392 115.202 85.0568 115.114 85.4616 115.187C85.862 115.251 86.2297 115.446 86.5069 115.742C86.7841 116.038 86.955 116.417 86.9926 116.821L86.9493 116.821ZM82.2519 116.24L81.1445 125.873L77.7861 125.479L78.8823 115.997C78.9869 115.609 79.2244 115.272 79.5533 115.042C79.8822 114.813 80.2815 114.707 80.6809 114.742C81.0805 114.777 81.4547 114.953 81.738 115.236C82.0213 115.521 82.1955 115.895 82.2302 116.294L82.2519 116.24ZM77.5649 115.844L76.4687 125.239L73.2289 124.941L74.2066 115.363C74.319 114.961 74.5812 114.617 74.9392 114.403C75.2973 114.188 75.7238 114.12 76.1311 114.21C76.3332 114.221 76.5309 114.272 76.7128 114.361C76.8948 114.45 77.0572 114.574 77.1907 114.726C77.3242 114.879 77.426 115.055 77.4903 115.247C77.5546 115.44 77.5799 115.642 77.5649 115.844ZM72.9646 115.263L71.8683 124.745L68.5207 124.361L69.6169 114.88C69.7155 114.102 70.4832 113.628 71.4445 113.63C72.4054 113.826 73.0739 114.497 72.9754 115.263L72.9646 115.263ZM68.2023 114.726L67.1058 124.305L63.8662 123.91L64.8328 114.429C64.9266 114.03 65.1666 113.683 65.505 113.453C65.8435 113.224 66.2558 113.129 66.6603 113.19C67.0672 113.193 67.4566 113.356 67.7448 113.643C68.0331 113.931 68.1973 114.319 68.2023 114.726ZM63.6017 114.329L62.5055 123.724L59.1469 123.427L60.1246 113.848C60.2347 113.448 60.4948 113.103 60.8511 112.889C61.2073 112.675 61.6324 112.605 62.0383 112.696C62.2482 112.696 62.4558 112.738 62.6484 112.822C62.8409 112.905 63.0144 113.028 63.1579 113.18C63.3014 113.334 63.4119 113.514 63.4827 113.712C63.5535 113.91 63.5829 114.12 63.5693 114.329L63.6017 114.329ZM58.9042 113.749L57.8079 123.23L54.4494 122.846L55.5456 113.451C55.6348 113.038 55.8745 112.672 56.2182 112.425C56.5619 112.178 56.9851 112.068 57.4056 112.115C58.3666 112.311 59.0351 112.982 58.9366 113.749L58.9042 113.749ZM54.2174 113.266L53.2399 122.747L49.795 122.352L50.8913 112.871C50.995 112.459 51.2514 112.102 51.6089 111.871C51.9663 111.642 52.3978 111.556 52.816 111.632C53.2189 111.668 53.5923 111.858 53.8593 112.162C54.1261 112.466 54.2659 112.862 54.2498 113.266L54.2174 113.266ZM49.617 112.772L48.5207 122.264L45.173 121.869L46.2693 112.388C46.3631 111.989 46.603 111.642 46.9415 111.413C47.2799 111.183 47.6923 111.089 48.0968 111.149C48.3039 111.155 48.5078 111.201 48.6969 111.286C48.8858 111.372 49.0563 111.492 49.1985 111.643C49.3407 111.794 49.4518 111.971 49.5254 112.164C49.5991 112.358 49.6338 112.564 49.6278 112.772L49.617 112.772ZM44.9195 112.191L43.942 121.673L40.4971 121.289L41.5933 111.894C41.6657 111.48 41.895 111.11 42.2335 110.861C42.572 110.612 42.9935 110.504 43.4101 110.558C44.3711 110.754 45.0396 111.424 44.9411 112.191L44.9195 112.191ZM89.1234 96.065L88.1459 105.547L84.701 105.163L85.7973 95.6705C85.8933 95.2753 86.132 94.9311 86.4676 94.7016C86.8031 94.4732 87.2116 94.3767 87.614 94.4314C88.575 94.6167 89.2435 95.2983 89.145 96.065L89.1234 96.065ZM84.523 95.5711L83.3402 105.074L80.1006 104.68L81.1969 95.1982C81.2762 94.7943 81.5112 94.4383 81.8512 94.2067C82.1911 93.9739 82.6086 93.8861 83.0136 93.9591C83.4201 94.003 83.7978 94.1905 84.0784 94.488C84.3592 94.7855 84.5244 95.1736 84.5445 95.5819L84.523 95.5711ZM79.8361 95.0878L78.7398 104.569L75.3814 104.186L76.4778 94.596C76.5852 94.2117 76.8321 93.8827 77.1702 93.6705C77.5082 93.4594 77.9131 93.3823 78.3052 93.4542C78.515 93.4546 78.7227 93.4971 78.9152 93.5806C79.1079 93.6641 79.2812 93.7864 79.4247 93.9389C79.5682 94.0926 79.6787 94.2731 79.7496 94.4709C79.8203 94.6687 79.8498 94.8783 79.8361 95.0878ZM75.2359 94.5075L74.064 103.989L70.8241 103.702L71.7908 94.21C71.8829 93.7965 72.122 93.4297 72.4638 93.1796C72.8055 92.9286 73.2266 92.8105 73.6489 92.8468C74.0713 92.8832 74.466 93.0718 74.7598 93.3769C75.0538 93.682 75.2266 94.0841 75.2467 94.5075L75.2359 94.5075ZM70.5382 94.0134L69.4419 103.506L66.0943 103.111L67.1906 93.6297C67.3003 93.2389 67.5454 92.9012 67.8822 92.675C68.2188 92.4487 68.625 92.3501 69.0278 92.3961C69.4307 92.4422 69.804 92.6307 70.0807 92.9271C70.3575 93.2236 70.5197 93.6084 70.5382 94.0134ZM65.8406 93.5302L64.7443 103.012L61.5046 102.628L62.4823 93.0492C62.5957 92.6703 62.8418 92.3456 63.1754 92.1334C63.5091 91.9222 63.908 91.8376 64.2988 91.8966C64.5087 91.897 64.7163 91.9394 64.9089 92.0229C65.1015 92.1064 65.2749 92.2288 65.4184 92.3813C65.5619 92.5349 65.6724 92.7155 65.7432 92.9133C65.814 93.1111 65.8434 93.3206 65.8298 93.5302L65.8406 93.5302ZM61.2403 92.9499L60.144 102.431L56.7854 102.134L57.8817 92.6525C57.8832 91.7884 58.7481 91.3147 59.7094 91.3163C60.6595 91.5124 61.328 92.1831 61.2295 92.9499L61.2403 92.9499ZM56.5535 92.4558L55.4572 101.948L52.2176 101.554L53.195 92.0721C53.2361 91.8745 53.3164 91.6878 53.4314 91.5216C53.5463 91.3565 53.6935 91.2153 53.864 91.1076C54.0345 90.9999 54.225 90.9278 54.424 90.8958C54.6231 90.8637 54.8265 90.8716 55.0224 90.9195C55.2266 90.909 55.4309 90.9418 55.6218 91.0156C55.8127 91.0882 55.986 91.2019 56.1304 91.3458C56.2748 91.4908 56.3871 91.6649 56.46 91.8562C56.5329 92.0475 56.5648 92.2517 56.5535 92.4558ZM51.8559 91.9726L50.8784 101.454L47.4335 101.07L48.53 91.4917C48.6573 91.0998 48.9225 90.7665 49.2763 90.5543C49.6301 90.3432 50.0486 90.2662 50.4545 90.3392C50.6602 90.3396 50.8634 90.3831 51.0507 90.4688C51.238 90.5533 51.405 90.6768 51.5407 90.8314C51.6763 90.9861 51.7775 91.1677 51.8375 91.3644C51.8974 91.5611 51.9148 91.7685 51.8883 91.9726L51.8559 91.9726ZM47.2556 91.3923L46.1593 100.874L42.8007 100.576L43.897 91.0949C43.9812 90.6868 44.2134 90.3242 44.5489 90.0775C44.8844 89.8307 45.2994 89.718 45.7138 89.7587C46.5776 89.9546 47.3433 90.6255 47.2448 91.3923L47.2556 91.3923ZM91.4595 75.2661L90.3632 84.7583L87.0046 84.461L88.101 74.8823C88.1422 74.6858 88.2222 74.5002 88.3364 74.3351C88.4507 74.1701 88.5967 74.0299 88.7661 73.9222C88.9354 73.8155 89.1245 73.7424 89.3222 73.7092C89.5201 73.6761 89.7225 73.6829 89.9176 73.7297C90.7815 73.8284 91.5472 74.4994 91.4487 75.2661L91.4595 75.2661ZM86.7619 74.7828L85.7952 84.2645L82.3395 83.8806L83.4358 74.3883C83.5273 73.991 83.7651 73.6425 84.1017 73.413C84.4385 73.1835 84.8494 73.0892 85.2525 73.1493C85.6718 73.164 86.0681 73.344 86.3549 73.6502C86.6418 73.9563 86.7958 74.3638 86.7835 74.7829L86.7619 74.7828ZM82.1722 74.2998L81.0759 83.7812L77.7175 83.3866L78.8138 73.9052C78.8931 73.5013 79.1282 73.1453 79.4681 72.9137C79.808 72.681 80.2255 72.5931 80.6305 72.6662C81.0442 72.6993 81.4311 72.8846 81.7159 73.1865C82.0009 73.4883 82.1634 73.885 82.1722 74.2998ZM77.4748 73.7085L76.3785 83.2007L73.0306 82.9034L74.1269 73.4219C74.1594 73.2168 74.2332 73.0214 74.344 72.8466C74.4549 72.6707 74.6003 72.5198 74.7713 72.4034C74.9425 72.286 75.1357 72.2053 75.3391 72.1657C75.5424 72.1261 75.7519 72.1286 75.9544 72.1721C76.9156 72.271 77.5841 72.9418 77.4856 73.7085L77.4748 73.7085ZM72.8743 73.2254L71.7024 82.7067L68.4628 82.3231L69.4403 72.8415C69.5576 72.4453 69.8105 72.1033 70.1548 71.8749C70.4991 71.6454 70.9127 71.5457 71.3234 71.5918C71.7341 71.6379 72.1156 71.8264 72.4011 72.125C72.6866 72.4236 72.858 72.8127 72.8851 73.2254L72.8743 73.2254ZM68.1767 72.7421L67.0804 82.2236L63.7219 81.829L64.8182 72.3476C64.8976 71.9437 65.1327 71.5877 65.4725 71.356C65.8125 71.1233 66.2301 71.0355 66.6349 71.1085C67.0542 71.1233 67.4505 71.3032 67.7373 71.6094C68.0242 71.9156 68.1783 72.323 68.1659 72.7421L68.1767 72.7421ZM63.4899 72.2481L62.3937 81.6431L59.1539 81.346L60.1314 71.8643C60.1742 71.6559 60.2577 71.4584 60.3774 71.2825C60.4969 71.1067 60.65 70.9568 60.828 70.8405C61.0058 70.7241 61.2051 70.6445 61.414 70.606C61.623 70.5675 61.8375 70.57 62.0453 70.6146C62.2483 70.6247 62.4472 70.6747 62.6304 70.7625C62.8135 70.8514 62.9773 70.9748 63.1119 71.1273C63.2466 71.2788 63.3493 71.4572 63.4142 71.6496C63.4791 71.8419 63.5049 72.045 63.4899 72.2481ZM58.8896 71.6678L57.7933 81.1492L54.4456 80.7655L55.5419 71.284C55.5705 71.0799 55.6432 70.8856 55.7548 70.713C55.8664 70.5404 56.0144 70.3937 56.1882 70.2839C56.3622 70.174 56.558 70.1041 56.7619 70.0774C56.9659 70.0508 57.1731 70.0695 57.3693 70.1314C57.571 70.1307 57.7711 70.1688 57.9577 70.2458C58.1444 70.3229 58.3137 70.4365 58.4563 70.5793C58.5987 70.7222 58.7113 70.8919 58.7876 71.0789C58.8638 71.2659 58.9022 71.4658 58.9004 71.6678L58.8896 71.6678ZM54.192 71.1845L53.0957 80.666L49.856 80.2824L50.8227 70.7899C50.9165 70.3915 51.1564 70.0441 51.4949 69.8146C51.8334 69.5852 52.2457 69.4908 52.6502 69.5509C53.0695 69.5657 53.4658 69.7456 53.7526 70.0518C54.0395 70.358 54.1936 70.7654 54.1812 71.1845L54.192 71.1845ZM49.5915 70.7338L48.4953 80.1288L45.0503 79.8314L46.1466 70.3499C46.1879 70.1415 46.2706 69.9429 46.3901 69.767C46.5094 69.5912 46.6628 69.4413 46.8413 69.325C47.0199 69.2097 47.2197 69.1312 47.4292 69.0948C47.6386 69.0574 47.8533 69.0632 48.0605 69.111C48.2704 69.1082 48.4785 69.1485 48.6719 69.2298C48.8652 69.3122 49.0393 69.4324 49.1833 69.5849C49.3273 69.7375 49.438 69.9191 49.5082 70.1169C49.5785 70.3147 49.6069 70.5243 49.5915 70.7338ZM93.6982 54.6075L92.7316 63.992L89.373 63.7054L90.4695 54.1267C90.4708 53.3598 91.3249 52.8752 92.1888 52.9739C93.0527 53.0726 93.9157 53.7438 93.7198 54.6075L93.6982 54.6075ZM89.0979 54.0272L88.0016 63.5086L84.6431 63.1249L85.7393 53.7298C85.8117 53.3162 86.0411 52.9462 86.3795 52.6972C86.718 52.4483 87.1395 52.3388 87.5561 52.3936C88.4199 52.5895 89.1856 53.2604 89.0871 54.0272L89.0979 54.0272ZM84.4004 53.4467L83.4336 63.0256L79.9887 62.6309L81.1498 53.1495C81.174 52.954 81.2403 52.7652 81.344 52.5979C81.4476 52.4296 81.5863 52.2862 81.7506 52.1763C81.9149 52.0675 82.1008 51.9944 82.2957 51.9634C82.4906 51.9324 82.6898 51.9435 82.8799 51.9968C83.0771 51.9841 83.2747 52.0115 83.4605 52.0787C83.6462 52.146 83.816 52.2511 83.9588 52.3874C84.1018 52.5238 84.2149 52.6881 84.2909 52.8708C84.367 53.0535 84.4042 53.249 84.4004 53.4467ZM79.8106 53.05L78.7144 62.5315L75.3667 62.1478L76.4631 52.569C76.5661 52.1815 76.8116 51.8482 77.1505 51.6338C77.4895 51.4205 77.8967 51.3424 78.2905 51.4165C78.7032 51.4496 79.0888 51.6349 79.372 51.9368C79.6551 52.2397 79.8154 52.6363 79.8215 53.05L79.8106 53.05ZM75.1133 52.4155L74.017 61.897L70.6693 61.5133L71.7654 52.1182C71.8403 51.7036 72.0719 51.3335 72.4121 51.0846C72.7524 50.8356 73.1752 50.7273 73.5931 50.782C74.5541 50.978 75.2226 51.6489 75.1241 52.4156L75.1133 52.4155ZM70.5129 51.9216L69.3733 61.4462L66.1336 61.0519L67.1111 51.5702C67.2542 51.2011 67.5152 50.8904 67.8534 50.6858C68.1917 50.4801 68.5882 50.3933 68.9813 50.4371C69.3744 50.481 69.7419 50.6534 70.0267 50.9271C70.3116 51.202 70.4976 51.563 70.556 51.9541L70.5129 51.9216ZM65.8152 51.4384L64.7189 60.9306L61.3604 60.5361L62.4567 51.0546C62.5386 50.6519 62.7738 50.2958 63.1128 50.0631C63.4515 49.8293 63.8677 49.7371 64.2734 49.8048C64.4833 49.8052 64.6909 49.8476 64.8835 49.9311C65.0761 50.0146 65.2495 50.137 65.393 50.2895C65.5365 50.4431 65.6471 50.6237 65.7179 50.8215C65.7886 51.0193 65.8181 51.2288 65.8044 51.4384L65.8152 51.4384ZM61.1285 50.8579L60.0322 60.3394L56.7926 59.9558L57.7699 50.5606C57.8867 50.1568 58.1405 49.8051 58.4877 49.567C58.8348 49.33 59.2539 49.2195 59.6731 49.2569C60.0692 49.3094 60.4327 49.5044 60.6963 49.8052C60.9599 50.1048 61.1057 50.4906 61.1069 50.8903L61.1285 50.8579ZM56.5281 50.3748L55.4318 59.8563L52.0842 59.4617L53.1805 49.9803C53.3071 49.6046 53.5589 49.2842 53.8938 49.072C54.2285 48.8609 54.6261 48.7698 55.0196 48.8158C55.4131 48.8629 55.7788 49.0428 56.0554 49.3263C56.3321 49.6098 56.5027 49.9805 56.5389 50.3748L56.5281 50.3748ZM51.8305 49.8808L50.7342 59.3622L47.4945 58.9787L48.4612 49.497C48.555 49.0986 48.7945 48.749 49.1327 48.5174C49.4707 48.2868 49.8831 48.1903 50.2887 48.2472C50.4986 48.2475 50.7062 48.29 50.8988 48.3735C51.0914 48.457 51.2648 48.5793 51.4083 48.7319C51.5518 48.8855 51.6624 49.0661 51.7331 49.2639C51.8039 49.4616 51.8333 49.6712 51.8197 49.8808L51.8305 49.8808ZM96.0344 33.7546L94.9381 43.2361L91.5904 42.8523L92.6869 33.2628C92.8142 32.8731 93.0781 32.5431 93.4299 32.333C93.7817 32.1241 94.1975 32.0481 94.6006 32.1212C94.8031 32.1312 95.0017 32.1813 95.1843 32.2691C95.3669 32.358 95.53 32.4814 95.6636 32.6339C95.7974 32.7864 95.8992 32.9637 95.9629 33.1572C96.0265 33.3495 96.0509 33.5526 96.0344 33.7546ZM91.3369 33.1633L90.3702 42.6558L87.0116 42.3584L88.1079 32.877C88.1094 32.0129 88.9743 31.5283 89.8275 31.5298C90.7885 31.7258 91.5542 32.4076 91.3585 33.1634L91.3369 33.1633ZM86.7473 32.6802L85.651 42.1617L82.2925 41.7779L83.3888 32.2965C83.4224 32.0956 83.4981 31.9035 83.6111 31.733C83.7241 31.5636 83.8717 31.4192 84.0442 31.3104C84.2167 31.2016 84.4104 31.1306 84.6123 31.1018C84.8144 31.073 85.0201 31.0874 85.2162 31.1439C85.42 31.1345 85.6235 31.1683 85.8136 31.2432C86.0038 31.3169 86.1764 31.4296 86.3205 31.5745C86.4645 31.7195 86.5768 31.8925 86.6503 32.0828C86.7238 32.273 86.7568 32.4761 86.7473 32.6802ZM82.0496 32.197L81.0722 41.6786L77.6273 41.2947L78.7884 31.8026C78.8161 31.605 78.8834 31.416 78.9864 31.2456C79.0895 31.0751 79.226 30.9274 79.3878 30.8121C79.5497 30.6957 79.7334 30.6139 79.9277 30.5721C80.1221 30.5292 80.3231 30.5264 80.5187 30.5634C81.4798 30.6623 82.2455 31.3332 82.0496 32.197ZM77.4494 31.6059L76.3531 41.0981L73.0053 40.8008L74.1016 31.3193C74.1765 30.9047 74.408 30.5346 74.7483 30.2857C75.0885 30.0368 75.5113 29.9284 75.9292 29.9831C76.3286 30.0443 76.6962 30.2372 76.9736 30.5314C77.2509 30.8257 77.4222 31.204 77.4602 31.6059L77.4494 31.6059ZM72.7518 31.1226L71.6555 40.6041L68.297 40.2203L69.3933 30.728C69.5241 30.3589 69.7766 30.045 70.1094 29.8371C70.4421 29.6303 70.8354 29.5424 71.2247 29.5884C71.6139 29.6345 71.976 29.8111 72.2516 30.0902C72.5271 30.3683 72.6996 30.7326 72.741 31.1226L72.7518 31.1226ZM68.1513 30.6395L67.055 40.121L63.6966 39.7372L64.7929 30.2449C64.8722 29.8411 65.1072 29.4851 65.4472 29.2534C65.7871 29.0207 66.2048 28.9329 66.6096 29.0059C67.0223 29.039 67.4079 29.2244 67.691 29.5262C67.9742 29.8291 68.1344 30.2258 68.1405 30.6395L68.1513 30.6395ZM63.4647 30.0591L62.3684 39.5405L59.0097 39.254L60.106 29.7617C60.1368 29.5565 60.2098 29.3601 60.3203 29.1842C60.4308 29.0083 60.5766 28.8585 60.7483 28.7421C60.92 28.6258 61.1139 28.5461 61.318 28.5076C61.522 28.4701 61.7315 28.4748 61.9335 28.5227C62.8839 28.6215 63.5632 29.2924 63.4647 30.0591ZM58.8642 29.5652L57.6923 39.0573L54.4527 38.6629L55.4194 29.1812C55.5246 28.7753 55.7855 28.4269 56.1456 28.2104C56.5056 27.995 56.936 27.9298 57.3439 28.0288C57.7472 28.0403 58.1308 28.2062 58.4156 28.4918C58.7003 28.7775 58.8648 29.1623 58.875 29.5652L58.8642 29.5652ZM97.5372 51.8597L95.9791 66.1361L45.1049 60.4975L46.7169 46.2645L97.5372 51.8597ZM95.3419 72.4644L93.6865 86.7406L42.8123 81.0913L44.4677 66.8151L95.3419 72.4644ZM93.0061 93.0689L91.448 107.345L40.5738 101.696L42.1319 87.4195L93.0061 93.0689ZM90.8108 113.587L89.1554 127.961L38.4 122.311L39.9582 107.949L90.8108 113.587ZM88.4751 134.192L85.1831 164.429C84.4166 164.233 83.6608 164.048 82.7972 163.755L85.3193 141.628C85.5174 139.468 83.6089 137.499 80.9201 137.117C78.2313 136.734 75.9387 138.35 75.7404 140.651L73.4034 161.925L70.9089 161.629L73.2458 140.355C73.4439 138.195 71.5357 136.139 68.9331 135.843C66.3306 135.547 63.9517 137.088 63.7535 139.291L61.3188 160.889C60.6015 160.811 59.8802 160.777 59.1588 160.788L58.8779 160.787L61.3023 138.941C61.5004 136.781 59.5921 134.726 56.9895 134.43C54.387 134.133 52.0081 135.674 51.7128 137.866L49.1886 161.257L46.5959 161.533L49.229 137.581C49.5135 135.421 47.508 133.366 44.9163 133.07C42.3245 132.774 39.9349 134.303 39.7365 136.604L36.7206 163.342C35.759 163.524 34.7108 163.814 33.749 164.093L37.6442 128.456L88.4751 134.192Z" fill="#150958" fill-opacity="0.15"/>
</svg>
