<svg width="187" height="117" viewBox="0 0 187 117" fill="none" xmlns="http://www.w3.org/2000/svg">
<path fill-rule="evenodd" clip-rule="evenodd" d="M102.321 5.6842L101.546 14.1975L102.627 14.296L102.485 15.85L102.12 15.8167C130.942 37.9124 113.248 42.3368 116.493 46.5019C110.64 45.8461 104.761 45.3107 98.7506 44.8859L80.7646 43.2476C83.4298 39.2666 66.1892 32.1371 99.634 15.5903L99.2691 15.557L99.4107 14.003L100.492 14.1015L101.23 5.9936L100.514 5.92836C99.8552 5.86154 99.2313 5.59214 98.7298 5.15951C98.2282 4.72687 97.8721 4.14943 97.7099 3.50653C97.9695 3.81223 98.2875 4.06054 98.6459 4.23898C99.0045 4.41607 99.3957 4.51983 99.7957 4.54127C100.668 4.62754 101.539 4.36897 102.22 3.81922C102.902 3.26959 103.341 2.47298 103.442 1.60335C103.463 1.23603 103.419 0.866876 103.31 0.514896C103.62 0.821089 103.857 1.19288 104.007 1.60162C104.154 2.01159 104.211 2.44868 104.171 2.88233C104.125 3.4559 103.935 4.00674 103.617 4.48604C103.3 4.96534 102.865 5.35494 102.354 5.6191L102.321 5.6842ZM38.3725 46.8803C38.7891 46.1961 36.0006 45.0974 41.5121 42.3293C46.2436 46.0303 43.3995 46.7387 43.9534 47.3886L38.3725 46.8803ZM37.6271 52.3715L43.3837 52.8958L43.6668 49.7878L37.9102 49.2635L37.6271 52.3715ZM38.7734 51.7538L39.8544 51.8522L40.0181 50.055L38.9371 49.9565L38.7734 51.7538ZM41.4084 51.9938L42.3679 52.0812L42.5316 50.2839L41.5721 50.1965L41.4084 51.9938ZM40.0571 51.8707L41.0031 51.9569L41.1668 50.1596L40.2208 50.0734L40.0571 51.8707ZM37.1818 48.8837L44.4923 49.5496L44.5465 48.955L37.2359 48.2892L37.1818 48.8837ZM37.2802 47.8027L44.5908 48.4686L44.645 47.874L37.3344 47.2081L37.2802 47.8027ZM36.778 53.3161L44.0886 53.9819L44.1317 53.509L36.8211 52.8431L36.778 53.3161ZM36.7128 54.0323L44.0234 54.6981L44.0665 54.2252L36.7559 53.5593L36.7128 54.0323ZM37.2963 54.208L43.2962 54.7545L41.9422 69.619L35.9424 69.0725L37.2963 54.208ZM41.8536 70.5919L40.6856 83.4159L34.6857 82.8694L35.8538 70.0454L41.8536 70.5919ZM40.5982 84.3754L39.8769 92.2941L46.9443 92.9378L50.2909 56.1955L62.3881 54.8721L58.8273 93.9656L59.3002 94.0087L63.4506 48.4424L65.0046 48.5839L65.049 48.0974L78.9675 49.3652L79.349 45.1761L116.753 48.5831L116.437 52.0559L116.372 52.7721L130.75 54.0817L130.706 54.5682L131.908 54.6778L127.758 100.244L128.474 100.309L132.089 60.6212L143.307 64.913L139.984 101.399L147.781 102.109L148.502 94.1901L154.367 94.7242L153.645 102.643L164.321 103.615L165.494 90.7372L175.088 91.6111L173.919 104.449L186.148 105.563L185.854 108.792L0.723802 91.9298L1.01797 88.7001L13.6122 89.8473L14.7815 77.0098L24.484 77.8935L23.3147 90.731L33.8685 91.6923L34.5897 83.7736L40.5982 84.3754ZM29.4906 17.8397C28.981 16.7033 33.7625 15.8172 25.7464 9.88218C17.0172 14.1693 21.4296 16.1381 20.3828 17.0102L29.4906 17.8397ZM28.9142 26.8617L19.6847 26.021L20.1438 20.9806L29.3733 21.8213L28.9142 26.8617ZM27.3235 25.6268L25.7695 25.4852L26.0316 22.6069L27.5857 22.7485L27.3235 25.6268ZM23.0128 25.2341L21.4588 25.0926L21.7209 22.2143L23.275 22.3558L23.0128 25.2341ZM25.1749 25.431L23.6074 25.2883L23.8696 22.41L25.437 22.5528L25.1749 25.431ZM30.8278 21.7085L18.8417 20.6167L18.9648 19.2654L30.9509 20.3572L30.8278 21.7085ZM31.0026 19.7896L19.0165 18.6979L19.1297 17.4547L31.1159 18.5464L31.0026 19.7896ZM30.205 28.5462L18.2189 27.4544L18.3284 26.2517L30.3146 27.3435L30.205 28.5462ZM30.0955 29.7488L18.1093 28.6571L18.1856 27.8193L30.1718 28.911L30.0955 29.7488ZM185.161 116.4L0.0308463 99.5377L0.620412 93.0649L185.751 109.927L185.161 116.4ZM28.9173 29.8186L19.2149 28.9349L17.0191 53.0424L26.7215 53.9261L28.9173 29.8186ZM171.37 30.7082C172.185 29.6924 167.534 27.9471 176.612 23.5691C184.423 29.3628 179.728 30.502 180.6 31.5489L171.37 30.7082ZM179.658 40.5376L180.117 35.4971L181.469 35.6202L181.61 34.0662L169.611 32.9732L169.469 34.5272L170.82 34.6503L170.361 39.6907L169.01 39.5677L168.738 42.5541L169.941 42.6636L167.745 66.7711L177.339 67.645L179.535 43.5375L180.738 43.647L181.01 40.6606L179.658 40.5376ZM172.203 38.7685L173.757 38.91L174.019 36.0317L172.465 35.8901L172.203 38.7685ZM176.406 39.1512L178.149 39.31L178.411 36.4317L176.735 36.2791L176.406 39.1512ZM174.365 38.9654L175.919 39.1069L176.181 36.2286L174.627 36.0871L174.365 38.9654ZM169.606 32.7275L181.605 33.8205L181.747 32.2665L169.747 31.1735L169.606 32.7275ZM177.184 69.1977L175.295 89.9404L165.7 89.0666L167.59 68.3239L177.184 69.1977ZM77.0835 95.6285L110.069 98.633L114.034 55.1071L81.0615 52.1039L77.0835 95.6285ZM157.545 57.735C157.245 56.9856 160.2 56.4099 155.279 52.6917C149.822 55.4647 152.613 56.6862 151.964 57.2267L157.545 57.735ZM157.273 63.2693L151.489 62.7425L151.772 59.6345L157.515 60.1576L157.273 63.2693ZM156.149 62.4448L155.189 62.3574L155.353 60.5601L156.312 60.6475L156.149 62.4448ZM153.622 62.2146L152.662 62.1272L152.826 60.33L153.785 60.4174L153.622 62.2146ZM154.824 62.3242L153.865 62.2368L154.029 60.4395L154.988 60.5269L154.824 62.3242ZM158.3 59.9157L150.99 59.2498L151.055 58.5336L158.365 59.1995L158.3 59.9157ZM158.41 58.713L151.099 58.0471L151.153 57.4526L158.464 58.1184L158.41 58.713ZM157.908 64.2264L150.597 63.5605L150.651 62.9659L157.962 63.6318L157.908 64.2264ZM157.831 65.0642L157.115 64.999L155.761 79.8634L149.896 79.3293L151.25 64.4648L150.521 64.3983L150.575 63.8037L157.885 64.4696L157.831 65.0642ZM149.808 80.3022L148.64 93.1262L154.504 93.6604L155.672 80.8364L149.808 80.3022ZM16.88 54.5693L14.9906 75.312L24.6931 76.1958L26.5799 55.4801L16.88 54.5693ZM56.6956 81.1681L55.8882 90.0327L49.7692 89.598L50.52 81.355C50.6615 79.801 53.754 77.562 53.8756 77.5731C53.9972 77.5841 56.8322 79.6682 56.6907 81.2222L56.6956 81.1681ZM58.0495 66.3036L57.2531 75.0467L51.0788 75.22L51.8739 66.4905C52.0278 64.8014 55.1214 62.5489 55.243 62.56C55.3647 62.571 58.2107 64.5334 58.047 66.3307L58.0495 66.3036ZM133.058 88.1235L132.251 96.9882L138.361 97.6674L139.112 89.4243C139.254 87.8703 136.482 85.0971 136.36 85.0861C136.238 85.075 133.195 86.6236 133.054 88.1776L133.058 88.1235ZM134.412 73.2591L133.616 82.0021L139.671 83.2894L140.466 74.5599C140.62 72.8707 137.849 70.084 137.727 70.073C137.606 70.0619 134.574 71.4889 134.41 73.2861L134.412 73.2591ZM118.21 52.1901C119.049 50.9041 113.432 48.8528 124.564 43.4629L124.077 43.4185L124.12 42.9456L124.485 42.9788L124.682 40.8167L124.317 40.7835C124.112 40.7375 123.922 40.6398 123.764 40.4987C123.608 40.3591 123.491 40.1795 123.423 39.9799C123.626 40.1442 123.872 40.2483 124.132 40.2761C124.399 40.3085 124.667 40.2362 124.882 40.076C125.097 39.9157 125.242 39.6782 125.287 39.4139C125.299 39.3523 125.298 39.2882 125.285 39.2257C125.273 39.1633 125.247 39.105 125.211 39.0527C125.326 39.1367 125.415 39.2511 125.465 39.3838C125.516 39.5165 125.527 39.662 125.497 39.8009C125.487 39.958 125.443 40.1107 125.369 40.2498C125.296 40.3889 125.194 40.5104 125.069 40.6067L124.85 43.012L125.08 43.033L125.037 43.5059L124.631 43.469C134.141 50.5074 128.69 52.0138 129.547 53.2228L118.21 52.1901ZM98.8737 71.9569L98.2583 78.7134L105.217 79.3473L105.861 72.2799C106.23 68.226 97.2759 61.824 96.7759 61.7785C96.2759 61.7329 86.3281 66.3859 85.9564 70.4669L85.3126 77.5343L92.1503 78.1571L92.7657 71.4005C92.8752 70.1978 95.9074 68.7709 96.1371 68.7918C96.3668 68.8127 98.9832 70.7542 98.8737 71.9569ZM97.4878 87.1727L96.8723 93.9292L90.7644 93.3729L91.3798 86.6163C91.5029 85.265 94.5301 83.8921 94.7598 83.913C94.9895 83.9339 97.6071 85.8619 97.4878 87.1727ZM104.992 81.8202L85.1549 80.0134L83.9979 92.7157L81.1196 92.4535L84.4306 56.1032L109.97 58.4294L106.647 94.915L103.945 94.6688L104.992 81.8202ZM67.0843 70.6283L69.4896 70.8474L69.0748 75.4013L66.6695 75.1822L67.0843 70.6283ZM65.643 86.4522L68.0483 86.6712L67.6335 91.2252L65.2282 91.0061L65.643 86.4522ZM120.669 91.4641L123.074 91.6832L122.659 96.2371L120.254 96.018L120.669 91.4641ZM122.11 75.6402L124.515 75.8593L124.1 80.4132L121.695 80.1941L122.11 75.6402ZM66.7056 51.1505L68.8677 51.3474L68.5661 54.6582L66.4041 54.4612L66.7056 51.1505ZM126.65 56.6105L128.934 56.8185L128.632 60.1292L126.348 59.9212L126.65 56.6105ZM123.056 56.2831L125.218 56.48L124.916 59.7907L122.754 59.5938L123.056 56.2831ZM119.339 55.9446L121.501 56.1415L121.2 59.4523L119.105 59.2615L119.339 55.9446ZM74.1379 51.8275L76.2999 52.0244L75.9984 55.3351L73.8363 55.1382L74.1379 51.8275ZM70.4217 51.489L72.5838 51.6859L72.2823 54.9966L70.1202 54.7997L70.4217 51.489ZM118.334 82.6948L121.685 83C121.026 83.3038 120.39 83.6505 119.778 84.039C118.826 84.6022 118.135 85.5189 117.856 86.589L116.982 96.1833L126.212 97.024L127.086 87.4297C126.959 86.309 126.402 85.2814 125.535 84.5633C125.026 84.0442 124.46 83.5866 123.847 83.1969L127.441 83.5243L127.529 82.5649L118.421 81.7353L118.334 82.6948ZM64.6719 61.3614L68.7259 61.7306C67.8515 62.1755 67.0015 62.6663 66.1802 63.2019C65.1968 63.7514 64.4639 64.6615 64.1367 65.7408L63.2641 75.3217L72.4936 76.1623L73.3663 66.5815C73.2394 65.4608 72.6831 64.4332 71.8151 63.7152C71.1605 62.9743 70.4016 62.3315 69.5637 61.8069L73.7663 62.1897L73.8524 61.2438L64.7446 60.4142L64.6719 61.3614ZM63.1863 77.6717L66.6592 77.9881C65.9858 78.2605 65.3464 78.6084 64.7524 79.027C63.769 79.5765 63.0362 80.4867 62.709 81.566L61.8351 91.1603L71.0646 92.0009L71.9385 82.4066C71.901 81.8459 71.7423 81.2987 71.4753 80.8043C71.207 80.3098 70.8361 79.8796 70.3874 79.5403C69.9277 79.0216 69.4011 78.5662 68.8213 78.185L72.2942 78.5013L72.3816 77.5419L63.2737 76.7123L63.1863 77.6717ZM119.576 66.3622L123.873 66.7536C122.937 67.0839 122.07 67.5813 121.314 68.2237C120.811 68.4763 120.369 68.8325 120.015 69.2704C119.663 69.7084 119.409 70.2179 119.27 70.7626L118.398 80.3435L127.627 81.1841L128.5 71.6033C128.373 70.4826 127.817 69.455 126.949 68.737C126.238 68.0618 125.491 67.4255 124.711 66.83L128.549 67.1795L128.635 66.2336L119.635 65.4138L119.576 66.3622ZM73.6556 34.3841C73.7735 34.4657 73.8639 34.5802 73.9158 34.7144C73.9664 34.847 73.9762 34.9937 73.9417 35.1323C73.9342 35.2896 73.8916 35.4438 73.8176 35.5829C73.7436 35.7219 73.6399 35.8433 73.5141 35.9381L73.295 38.3434L73.6463 38.3754L73.6033 38.8484L72.5357 38.7512L72.5788 38.2782L72.9301 38.3102L73.127 36.1481L72.7758 36.1161C72.4109 36.0829 72.0792 35.6848 71.868 35.3113C72.079 35.4627 72.3205 35.5637 72.5768 35.6075C72.8449 35.6401 73.1144 35.5692 73.332 35.4092C73.5496 35.2492 73.6966 35.0119 73.7453 34.7465C73.7578 34.6836 73.757 34.6181 73.7409 34.5554C73.7262 34.4927 73.696 34.4341 73.6556 34.3841ZM73.0087 38.7942C82.5184 45.8327 77.189 47.3502 77.9246 48.5481L66.6546 47.5215C67.6155 46.2465 61.8764 44.1841 73.0087 38.7942Z" fill="#150958" fill-opacity="0.15"/>
</svg>
