<svg width="144" height="128" viewBox="0 0 144 128" fill="none" xmlns="http://www.w3.org/2000/svg">
<path fill-rule="evenodd" clip-rule="evenodd" d="M112.296 58.6829L111.808 61.67L96.6029 59.1894L93.9867 75.2257L100.567 76.2993L95.7419 77.0454L87.4353 127.962L77.3284 126.313L85.6185 75.4976L81.1958 73.139L87.8776 74.2291L90.4938 58.1928L39.8132 49.9246L37.197 65.961L43.8676 67.0492L39.0421 67.7953L30.7355 118.712L20.6285 117.063L28.9186 66.2475L24.6868 63.92L31.2564 64.9918L33.8726 48.9555L18.5998 46.4639L19.0872 43.4767L14.9995 42.8099L15.3659 40.5639L34.6926 43.7169L36.0978 35.1035L31.516 34.356L32.0656 30.987C25.9458 29.0663 19.6439 26.9199 13.3767 24.5602L14.5786 17.1933C12.2526 16.3988 9.84019 15.498 7.44424 14.4961L8.42989 8.45441C5.72548 7.50594 2.9981 6.41538 0.248537 5.39037L1.12793 0C46.8512 15.4903 94.8209 23.3162 143.097 23.161L142.217 28.5514C139.337 28.681 136.408 28.8257 133.475 28.8545L132.499 34.84C130.01 35.045 127.43 35.1661 124.873 35.2216L123.686 42.4986C117.18 42.8782 110.506 43.0115 103.88 42.8528L103.359 46.0421L98.8673 45.3092L97.453 53.9787L116.679 57.1152L116.312 59.3612L112.296 58.6829ZM46.9642 35.1354L46.6876 36.8311L42.1058 36.0837L40.6915 44.7532L61.5117 48.1498L63.0727 38.5819C57.71 37.6033 52.3803 36.4225 46.9642 35.1354ZM92.8201 44.3573L88.2383 43.6098L88.4985 42.0151C83.1286 41.6464 77.6266 40.9563 72.2197 40.1779L70.6753 49.6448L91.4058 53.0268L92.8201 44.3573Z" fill="#150958" fill-opacity="0.15"/>
</svg>
