<svg width="146" height="310" viewBox="0 0 146 310" fill="none" xmlns="http://www.w3.org/2000/svg">
<path fill-rule="evenodd" clip-rule="evenodd" d="M111.425 302.512L113.242 302.515L99.6089 276.045C92.5304 269.242 83.1882 265.295 73.3764 264.962C63.5646 264.628 53.9752 267.933 46.4518 274.239L31.8276 302.376L34.4509 302.381L34.4399 308.811L0.0308546 308.753L0.0418277 302.322L4.56369 302.33L33.0031 247.595L33.0171 239.348L39.0905 239.358L49.1837 210.58L49.1848 209.937L49.3686 209.937L52.1895 201.776L51.1075 201.774L51.1205 194.17L54.2848 194.175L54.2873 192.726L49.5817 192.718L49.5957 184.47L56.7409 184.482C62.1508 142.641 64.8151 70.7551 65.671 47.7185L65.4873 47.7181L65.4904 45.9012L65.7558 45.9017L65.8552 41.4616L64.5895 41.4595L64.602 34.1L67.8684 34.1055L67.8841 24.9189L71.6812 24.9254L71.7032 12.013L72.969 12.0152L72.9892 0.123597L74.4387 0.12607L74.4185 11.987L75.776 11.9894L75.7539 24.9425L79.4694 24.9489L79.4538 34.1355L82.8018 34.1412L82.7891 41.562L81.4009 41.5596L81.5771 46.0001L81.7608 46.0004L81.7577 47.8174L81.6658 47.8172C82.0929 60.7609 82.9525 89.384 84.7181 119.458L84.7993 119.724L84.7175 119.815C85.7684 138.017 87.0943 156.566 88.7105 172.533C89.1522 176.872 89.7172 180.772 90.0475 184.57L97.2846 184.582L97.2705 192.83L92.5649 192.822L92.5624 194.271L95.6246 194.276L95.6116 201.881L94.8869 201.88L97.68 210.05L107.837 239.506L111.001 239.511L110.988 247.208L111.622 246.943L140.322 302.592L145.762 302.601L145.751 309.032L111.414 308.973L111.425 302.512ZM41.6252 237.464L50.821 232.131L45.4913 226.967L41.6252 237.464ZM46.8153 222.713L54.9903 217.378L50.3845 212.756L46.8153 222.713ZM51.636 209.135L57.624 205.338L54.0056 202.269L51.636 209.135ZM92.9475 201.866L92.6719 201.866L89.2265 205.116L95.2836 208.658L92.9475 201.866ZM96.8177 212.927L92.5538 217.258L99.885 221.895L96.8177 212.927ZM101.592 226.695L95.7947 232.208L105.472 237.838L101.592 226.695ZM72.6634 41.5345L70.4861 43.3477L68.3151 41.5271L72.6634 41.5345ZM69.8522 43.9795L67.3072 45.9656L67.4979 41.8829L69.8522 43.9795ZM68.4912 45.9676L70.3006 44.4294L71.9311 45.9735L68.4912 45.9676ZM71.0261 43.9304L72.8353 42.4841L72.8301 45.5463L71.0261 43.9304ZM72.8259 48.0165L70.157 50.7679L67.3551 47.7826L72.8773 47.792L72.8259 48.0165ZM69.38 51.5424L67.1097 53.9883L67.21 49.0991L69.38 51.5424ZM67.0874 55.111L69.9914 52.1252L72.6198 55.1205L67.0874 55.111ZM70.6255 51.4118L72.8035 49.1495L72.7956 53.7632L70.6255 51.4118ZM72.7902 56.9377L69.8864 59.8316L67.2682 56.8364L72.7904 56.8458L72.7902 56.9377ZM69.1197 60.4632L66.7575 62.9906L66.9399 57.826L69.1197 60.4632ZM66.6635 64.2562L69.8432 61.1994L72.4611 64.3681L66.6633 64.3582L66.6635 64.2562ZM70.4773 60.4655L72.8291 58.1116L72.8203 63.2153L70.4773 60.4655ZM72.8151 66.2673L69.8297 69.1509L67.0177 66.0839L72.8154 66.0938L72.8151 66.2673ZM69.0118 69.8742L66.374 72.4114L66.3749 71.8704L66.5667 67.1549L69.0118 69.8742ZM66.556 73.412L69.6232 70.5081L72.2415 73.4217L66.556 73.412ZM70.2776 69.8764L72.813 67.533L72.8043 72.6367L70.2776 69.8764ZM72.7989 75.7704L69.8139 78.3886L66.5531 75.1269L72.6265 75.1372L72.7998 75.2294L72.7989 75.7704ZM68.9962 79.0201L66.0215 81.5566L66.3063 76.2186L68.9962 79.0201ZM66.0911 82.6387L69.628 79.6642L72.5218 82.6497L66.0911 82.6387ZM70.262 79.0222L72.7968 76.9851L72.7891 81.5171L70.262 79.0222ZM74.5244 75.4977L74.8006 75.1409L80.8638 75.1513L77.7961 78.4022L74.5345 75.5896L74.5244 75.4977ZM72.7841 84.4671L69.3393 87.3601L66.3536 84.3642L72.7842 84.3752L72.7841 84.4671ZM68.6135 87.9917L65.6286 90.518L65.8112 85.1799L68.6135 87.9917ZM65.4428 91.7018L69.2452 88.6461L72.3019 91.9074L65.4221 91.8957L65.4428 91.7018ZM69.971 87.994L72.6086 85.6406L72.5998 90.8055L69.971 87.994ZM72.5029 93.7043L69.0579 96.6892L66.0011 93.5095L72.5237 93.5206L72.5029 93.7043ZM68.3321 97.3208L65.1324 100.143L65.326 94.3453L68.3321 97.3208ZM65.4271 100.939L68.9639 97.9547L71.9496 100.951L65.4271 100.939ZM69.7816 97.3233L72.5009 94.8781L72.496 97.777L72.4016 99.2263L72.4 100.155L69.7816 97.3233ZM65.6235 93.5088L65.3465 94.3249L65.4397 93.5085L65.6235 93.5088ZM72.1201 102.707L68.859 105.6L65.9855 102.655L72.1201 102.707ZM68.0208 106.272L64.5757 109.329L64.8618 103.205L68.0208 106.272ZM65.2072 110.167L68.7445 106.906L72.0869 110.178L65.2072 110.167ZM69.5623 106.183L72.3735 103.748L72.279 105.279L72.275 107.637L72.1813 108.729L69.5623 106.183ZM71.543 111.892L68.3743 114.51L65.7452 111.882L71.543 111.892ZM67.4541 115.417L64.0094 118.218L64.4687 112.248L67.4541 115.417ZM64.5485 119.311L68.2694 116.143L71.2547 119.323L64.5485 119.311ZM69.2608 115.42L72.0721 112.893L72.0701 114.067L71.8896 118.15L69.2608 115.42ZM71.7928 121.039L68.348 123.932L65.6276 121.028L71.7928 121.039ZM67.4485 124.645L63.4515 128.078L63.9229 121.015L67.4485 124.645ZM64.8187 128.447L68.2636 125.554L71.1575 128.458L64.8187 128.447ZM69.2552 124.648L71.8003 122.61L71.7997 122.968L71.7071 123.427L71.7031 125.775L71.6087 127.224L69.2552 124.648ZM70.9708 130.173L67.7102 132.811L65.173 130.183L70.9708 130.173ZM66.79 133.697L62.8034 137.039L63.3561 130.16L66.79 133.697ZM63.9865 137.592L67.6154 134.536L70.6724 137.603L63.9865 137.592ZM68.6069 133.7L71.5101 131.174L71.4165 132.195L71.4153 132.909L71.2359 136.349L68.6069 133.7ZM70.3224 139.317L66.8675 142.119L64.1673 139.307L70.3224 139.317ZM65.9169 142.862L62.1963 145.847L62.7483 139.417L65.9169 142.862ZM62.8481 146.756L66.7422 143.772L69.4624 146.767L62.8481 146.756ZM67.5704 142.957L71.0147 140.339C70.9196 142.238 70.8242 144.32 70.6372 146.228L67.5704 142.957ZM70.0004 148.575L66.5866 151.182L63.9678 148.555L70.0004 148.575ZM65.6461 152.018L61.3839 155.358C61.5714 153.185 61.7592 150.827 61.9468 148.561L62.304 148.562L65.6461 152.018ZM62.6487 155.902L66.3694 152.846L69.2631 155.913L62.6487 155.902ZM67.371 152.102L70.4374 149.668C70.3425 151.475 70.2577 153.281 70.071 155.006L67.371 152.102ZM68.5354 157.626L65.5405 160.071L63.2786 157.618L68.5354 157.626ZM64.549 160.886L60.5629 163.941C60.8317 161.951 61.0191 159.788 61.1147 157.604L61.5638 157.604L64.549 160.886ZM61.1019 165.137L65.2724 161.704L68.6145 165.149L61.1019 165.137ZM66.2126 160.981L69.8412 158.088C69.6541 160.078 69.5687 162.252 69.2899 164.15L66.2126 160.981ZM68.6524 166.875L64.6663 169.93L61.8645 166.863L68.6524 166.875ZM63.828 170.664L59.9233 173.913L59.6578 173.913C59.8352 171.657 60.023 169.299 60.3026 166.942L63.828 170.664ZM61.781 173.916L64.6839 171.573L66.8439 173.925L61.781 173.916ZM65.6752 170.861L69.1198 168.141C68.8511 170.049 68.664 172.04 68.4773 173.764L65.6752 170.861ZM68.0249 175.662L63.5785 179.278L60.2061 175.669L68.0249 175.662ZM62.6688 180.001L58.5803 183.251C58.7678 181.077 59.1289 178.821 59.3165 176.556L62.6688 180.001ZM58.7007 184.506L63.3206 180.901L66.3773 184.162L66.3771 184.254L66.2848 184.519L58.7007 184.506ZM64.3223 180.086L67.8589 177.285C67.4982 179.275 67.2194 181.173 66.8287 182.805L64.3223 180.086ZM74.8886 41.5383L77.1414 43.3591L79.1859 41.5456L74.8886 41.5383ZM77.7833 43.993L79.9444 45.7217L79.8587 42.098L77.7833 43.993ZM78.9538 45.9855L77.313 44.4413L75.5955 45.9797L78.9538 45.9855ZM76.5075 43.9398L74.52 42.2114L74.514 45.7533L76.5075 43.9398ZM74.5104 47.8356L77.4961 50.8213L80.0324 47.9369L80.0326 47.845L74.5104 47.8356ZM78.1277 51.5471L80.1144 53.7246L80.0298 49.468L78.1277 51.5471ZM80.1633 55.0007L77.6264 52.1893L74.8143 55.1753L80.2446 55.1845L80.1633 55.0007ZM76.8213 51.4632L74.4676 49.0094L74.4589 54.1131L76.8213 51.4632ZM74.6379 56.8898L77.6235 59.8857L80.0682 56.8991L74.6379 56.8898ZM78.2553 60.5196L80.4258 62.6975L80.3416 58.1653L78.2553 60.5196ZM80.5052 63.9633L77.7131 61.2434L75.0742 64.4032L80.5045 64.4125L80.5052 63.9633ZM76.9794 60.5174L74.4523 57.9715L74.4425 63.6774L76.9794 60.5174ZM74.4383 66.1272L77.6995 69.195L80.5015 66.1375L74.4383 66.1272ZM78.423 69.9311L80.767 72.1093L80.5911 67.4952L78.423 69.9311ZM80.7646 73.4771L77.8605 70.563L75.3241 73.4678L80.7646 73.4771ZM77.0552 69.9288L74.4362 67.3929L74.4268 72.9151L77.0552 69.9288ZM78.4073 79.1178L81.1184 81.4803L80.9432 76.4988L78.4073 79.1178ZM81.2083 82.6543L77.7631 79.7597L74.7775 82.7352L81.3306 82.7464L81.2083 82.6543ZM77.0395 79.1154L74.42 76.8551L74.4117 81.7445L77.0395 79.1154ZM74.5908 84.4599L78.1175 87.4567L81.1133 84.4711L74.5908 84.4599ZM78.8411 88.0908L81.5522 90.4534L81.2849 85.6452L78.8411 88.0908ZM81.5502 91.6272L78.2583 88.641L75.1906 91.892L81.7131 91.9031L81.5502 91.6272ZM77.4733 88.0885L74.4869 85.5417L74.4776 90.9721L77.4733 88.0885ZM74.565 93.6057L78.2751 96.7866L81.4448 93.6175L74.565 93.6057ZM79.0804 97.4208L81.9749 99.9572L81.7185 94.7101L79.0804 97.4208ZM81.9731 101.049L78.3648 98.0524L75.3689 101.038L81.9731 101.049ZM77.6411 97.4183L74.5835 94.698L74.5781 97.8622L74.6675 99.3118L74.6657 100.404L77.6411 97.4183ZM75.2741 102.753L78.3314 105.657L81.225 102.763L75.2741 102.753ZM79.2488 106.383L82.4185 109.196L82.1525 103.581L79.2488 106.383ZM82.141 110.287L78.6149 107.015L75.2613 110.276L82.141 110.287ZM77.7077 106.289L74.6501 103.568L74.7389 105.375L74.7348 107.733L74.8244 109.091L77.7077 106.289ZM75.6564 111.991L78.8264 114.62L81.4542 112.001L75.6564 111.991ZM79.7334 115.53L82.7913 118.077L82.5249 112.636L79.7334 115.53ZM82.6256 119.434L79.0074 116.253L75.8377 119.422L82.6256 119.434ZM78.1513 115.476L74.8998 112.755L75.071 114.113L75.1554 118.462L78.1513 115.476ZM75.6001 121.086L78.8615 123.99L81.7654 121.096L75.6001 121.086ZM79.8504 124.717L83.5603 127.989L83.1223 121.466L79.8504 124.717ZM82.4774 128.529L79.1241 125.624L76.2203 128.518L82.4774 128.529ZM78.1356 124.663L75.2408 122.3L75.2397 122.933L75.3308 123.392L75.3267 125.74L75.4157 127.465L78.1356 124.663ZM76.4011 130.182L79.4589 132.811L82.1785 130.192L76.4011 130.182ZM80.4781 133.721L84.1884 136.789L83.8421 130.358L80.4781 133.721ZM83.3703 137.625L79.7519 134.556L76.5824 137.613L83.3703 137.625ZM78.7632 133.718L75.5934 130.997L75.6832 132.181L75.682 132.896L75.7674 136.703L78.7632 133.718ZM76.9367 139.329L80.4637 142.142L83.0102 139.339L76.9367 139.329ZM81.4628 142.868L84.7244 145.681L84.2751 139.801L81.4628 142.868ZM84.2632 146.772L80.5528 143.775L77.659 146.761L84.2632 146.772ZM79.5641 142.957L75.9353 139.97C76.0233 142.236 76.1931 144.411 76.2815 146.493L79.5641 142.957ZM77.1966 148.567L80.632 151.196L83.2598 148.577L77.1966 148.567ZM81.6309 152.025L85.6064 155.196C85.3449 152.929 85.1647 150.847 85.0767 148.58L84.9848 148.58L81.6309 152.025ZM84.615 155.919L80.7211 152.85L77.9088 155.907L84.615 155.919ZM79.8139 152.103L76.4705 149.382C76.5589 151.373 76.7393 153.364 76.8279 155.273L79.8139 152.103ZM78.7225 157.623L81.709 160.078L83.9691 157.632L78.7225 157.623ZM82.6977 160.897L86.3164 163.802C86.1362 161.76 85.8743 159.718 85.7859 157.676L85.694 157.676L82.6977 160.897ZM86.1304 165.159L81.7981 161.712L78.6177 165.146L86.1304 165.159ZM80.8909 160.985L76.9972 157.712C77.0851 160.07 77.3568 162.337 77.5369 164.511L80.8909 160.985ZM78.5229 166.871L82.3251 169.94L85.3211 166.883L78.5229 166.871ZM83.3139 170.676L87.2994 173.939C87.0275 171.775 86.8477 169.509 86.586 167.334L83.3139 170.676ZM85.3498 173.936L82.6285 171.584L80.3687 173.928L85.3498 173.936ZM81.6396 170.867L77.9292 167.87C78.1094 169.912 78.2896 172.036 78.6436 173.935L81.6396 170.867ZM79.1305 175.701L83.5645 179.333L86.9187 175.715L79.1305 175.701ZM84.5636 180.059L88.2638 183.056C88.0938 181.014 87.7298 178.972 87.5495 176.931L84.5636 180.059ZM88.2612 184.587L83.7455 180.966L80.3812 184.492L80.473 184.574L88.2612 184.587ZM82.7466 180.148L79.0363 177.079C79.308 179.346 79.6619 181.337 80.0468 183.063L82.7466 180.148ZM52.8084 209.974L62.9545 209.991L58.6634 206.34L52.8084 209.974ZM63.142 201.826L58.6664 204.615L55.4967 201.802L63.142 201.826ZM59.7875 205.627L65.6836 201.83L66.5002 201.831L65.4043 209.995L65.0368 209.995L59.7875 205.627ZM88.1429 206.033L83.8695 210.006L95.0159 210.025L88.1429 206.033ZM83.5261 201.86L88.0537 204.491L90.8652 201.873L83.5261 201.86ZM86.96 205.398L80.6272 201.855L81.9708 210.024L86.96 205.398ZM47.8947 224.256L61.9298 224.28L56.3252 218.748L47.8947 224.256ZM63.6763 211.697L56.329 216.492L51.5397 211.676L63.6763 211.697ZM57.7762 217.811L64.8474 213.302L63.1971 223.353L57.7762 217.811ZM91.1021 218.593L85.3864 224.289L100.422 224.315L91.1021 218.593ZM83.693 211.701L91.1059 216.337L95.7378 211.721L83.693 211.701ZM89.746 217.692L82.3332 213.056L83.8477 222.755L83.9383 223.48L89.746 217.692ZM94.3429 233.563L88.3513 239.442L104.02 239.469L94.3429 233.563ZM85.659 226.035L94.255 231.215L99.6023 226.059L85.659 226.035ZM92.7111 232.753L84.6556 227.84L86.362 238.806L92.7111 232.753ZM42.5304 239.364L58.3723 239.391L52.2579 233.491L42.5304 239.364ZM60.9265 225.993L52.4048 231.143L46.9833 225.969L60.9265 225.993ZM53.8516 232.687L62.5469 227.537L60.7203 239.211L53.8516 232.687ZM89.6692 256.746L89.6644 259.553C90.2968 259.819 90.9394 260.096 91.4801 260.281L89.6692 256.746ZM88.9401 259.276L88.9468 255.336L87.7769 253.068L87.767 258.866L88.9401 259.276ZM86.8997 258.64L86.9118 251.576L86.1895 250.126L85.7404 250.125L85.7267 258.178L86.8997 258.64ZM84.9105 257.912L84.9238 250.123L83.8316 250.122L83.8188 257.634L84.9105 257.912ZM83.0024 257.541L83.0151 250.12L81.8412 250.118L81.8291 257.182L83.0024 257.541ZM80.9617 257.088L80.9736 250.117L79.7997 250.115L79.7881 256.913L80.9617 257.088ZM79.0637 256.728L79.075 250.113L77.9828 250.112L77.9718 256.542L79.0637 256.728ZM77.1656 256.449L77.1764 250.11L75.9924 250.108L75.9818 256.335L77.1656 256.449ZM75.257 256.354L75.2676 250.107L74.2061 250.105L74.1956 256.23L75.257 256.354ZM73.2157 256.258L73.2261 250.134L72.0523 250.132L72.0418 256.256L73.2157 256.258ZM71.2252 256.255L71.2357 250.131L70.1435 250.129L70.133 256.253L71.2252 256.255ZM69.3266 256.252L69.3371 250.127L68.1531 250.125L68.1425 256.321L69.3266 256.252ZM67.3359 256.432L67.3467 250.093L66.1627 250.091L66.1517 256.522L67.3359 256.432ZM65.4268 256.613L65.438 250.09L64.2641 250.088L64.2528 256.703L65.4268 256.613ZM63.5276 256.967L63.5394 250.087L62.3553 250.085L62.3433 257.148L63.5276 256.967ZM61.6286 257.239L61.6408 250.094L60.6302 250.092L60.6174 257.605L61.6286 257.239ZM59.5862 257.777L59.5993 250.08L58.7827 250.079L58.4244 250.711L58.4117 258.132L59.5862 257.777ZM57.5948 258.314L57.6052 252.22L56.5194 254.485L56.5123 258.649L57.5948 258.314ZM116.113 300.438L120.839 294.475L110.701 289.925L116.113 300.438ZM122.558 292.477L127.191 286.779L109.839 286.749L122.558 292.477ZM128.903 288.507L124.914 293.604L133.512 297.324L128.903 288.507ZM123.185 295.561L117.651 302.523L136.127 302.554L135.313 300.92L123.185 295.561ZM107.639 284.03L112.892 280.334L104.2 277.257L107.639 284.03ZM114.976 278.939L119.871 275.599L106.132 275.576L114.976 278.939ZM122.494 275.961L117.149 279.668L126.014 282.857L122.494 275.961ZM114.973 281.113L109.444 285.003L125.898 285.031L114.973 281.113ZM104.206 273.848L119.517 273.874L109.469 270.243L104.206 273.848ZM102.033 273.129L107.296 269.505L98.5129 266.325L102.033 273.129ZM109.473 267.977L114.644 264.454L99.8124 264.429L109.473 267.977ZM116.806 265.183L111.697 268.787L120.378 271.977L116.806 265.183ZM96.7122 262.79L115.637 262.823L114.121 259.462L95.197 259.43L96.7122 262.79ZM28.3604 300.441L23.5734 294.309L33.9926 289.794L28.3604 300.441ZM21.8518 292.264L17.3397 286.551L34.631 286.58L21.8518 292.264ZM15.734 288.365L19.7267 293.394L11.4525 297.054L15.734 288.365ZM21.2545 295.346L26.8567 302.327L8.72839 302.296L9.54789 300.583L21.2545 295.346ZM37.024 283.961L31.692 280.155L40.5676 276.995L37.024 283.961ZM29.5508 278.783L24.759 275.427L38.8452 275.451L29.5508 278.783ZM22.3085 275.872L27.4672 279.504L18.7651 282.664L22.3085 275.872ZM29.547 280.988L35.1544 284.897L18.8226 284.869L29.547 280.988ZM40.4302 273.759L25.1192 273.733L35.1796 270.137L40.4302 273.759ZM113.083 257.766L94.3016 257.734L90.4154 250.123L109.34 250.155L113.083 257.766ZM42.6259 273.14L37.2938 269.406L46.3531 266.257L42.6259 273.14ZM35.2141 267.871L30.0552 264.33L44.9988 264.356L35.2141 267.871ZM27.8796 265.133L33.0385 268.674L24.4285 271.721L27.8796 265.133ZM48.1761 262.728L29.2618 262.696L31.013 259.32L50.0294 259.353L48.1761 262.728ZM50.7162 257.629L31.904 257.597L35.8979 249.999L54.8223 250.031L50.7162 257.629ZM67.6452 206.763L79.5062 206.784L84.442 239.395L62.5369 239.357L65.107 222.703L67.6452 206.763ZM79.1519 205.058L67.9442 205.039L68.4907 201.784L78.6981 201.801L79.1519 205.058ZM55.7871 258.903L55.7922 255.923L53.7953 259.716C54.4369 259.395 55.1029 259.122 55.7871 258.903ZM95.346 267.851L94.3285 265.941C87.5301 261.929 79.777 259.821 71.8826 259.839C64.6109 259.811 57.4494 261.606 51.0506 265.06L50.139 266.865C57.0562 262.929 64.9111 260.942 72.8685 261.116C80.8259 261.288 88.5867 263.617 95.3256 267.851L95.346 267.851Z" fill="#150958" fill-opacity="0.15"/>
</svg>
