<svg width="110" height="162" viewBox="0 0 110 162" fill="none" xmlns="http://www.w3.org/2000/svg">
<path fill-rule="evenodd" clip-rule="evenodd" d="M1.43836 109.176L1.41917 120.422L2.03348 120.423L1.96283 161.828L107.709 162.008L107.78 120.603L108.919 120.605L108.94 108.032L107.454 108.03L107.614 14.1532L109.764 14.1568L109.769 11.5214L105.509 11.5141L105.515 7.55096L104.019 7.54841L104.021 6.31984L103.575 6.31908L101.916 3.34389L100.158 0.170385L98.4879 3.33804L96.8084 6.30753L96.3725 6.30678L96.3704 7.53536L71.4027 7.49275L71.3959 11.4559L67.0861 11.4485L67.0816 14.084L69.4594 14.0881L69.3864 56.8997L59.0129 56.882L57.3599 44.3061L57.0189 40.9666L57.0495 23.0335L59.8633 23.0383L59.867 20.8387L57.0532 20.8339L57.0573 18.4561L54.6794 18.452L54.6753 20.8299L51.8714 20.8251L51.8677 23.0246L54.6716 23.0294L54.6417 40.5663L54.1101 44.3402L52.4241 56.9104L40.7329 56.8905L40.806 14.0392L42.9164 14.0428L42.9209 11.4073L38.7002 11.4001L38.7069 7.43696L14.2644 7.39525L14.2665 6.16668L13.8305 6.16594L12.1612 3.19073L10.5021 0.0173969L8.73308 3.18488L7.15267 6.15454L6.61764 6.15363L6.61554 7.3822L4.63398 7.37882L4.62722 11.3419L0.287589 11.3345L0.283092 13.97L2.65107 13.9741L2.49088 107.851L1.44063 107.849L1.43836 109.176ZM40.7262 60.804L52.5066 60.8241L52.494 68.2055L51.7886 69.3437L47.7354 75.6778L40.7009 75.6658L40.7262 60.804ZM59.0062 60.8352L69.3796 60.8529L69.3543 75.7147L63.7267 75.705L59.7743 69.3573L58.9836 68.2165L59.0062 60.8352ZM42.5139 93.1562C42.6667 90.1246 43.9239 87.2545 46.0489 85.0873C48.1739 82.9202 51.0197 81.6073 54.0469 81.3954C51.0246 81.6221 48.1877 82.94 46.0657 85.1042C43.9437 87.2674 42.6806 90.1296 42.5139 93.1562ZM101.177 76.6408L75.6839 76.5973L75.7169 57.2573L101.21 57.3008L101.177 76.6408ZM92.0595 60.3665C92.9413 60.368 93.733 60.8945 93.732 61.5088L93.7096 74.6069L90.3608 74.6012L90.3831 61.5031C90.3842 60.8888 91.0885 60.3649 92.0595 60.3665ZM85.4708 60.3553C86.3427 60.3568 87.1344 60.8832 87.1334 61.4975L87.111 74.5956L83.7721 74.5899L83.7944 61.4918C83.7955 60.8775 84.4998 60.3536 85.4708 60.3553ZM95.7759 83.0519L99.204 83.0578L99.2098 79.6297L95.7817 79.6238L95.7759 83.0519ZM77.7536 83.0212L81.2708 83.0272L81.2767 79.5991L77.7594 79.5931L77.7536 83.0212ZM25.2214 60.2525C26.1032 60.254 26.8949 60.7804 26.8939 61.3947L26.8715 74.4929L23.5623 74.4872L23.5847 61.3891C23.5857 60.7748 24.2901 60.2509 25.2511 60.2525L25.2214 60.2525ZM18.6327 60.2412C19.5145 60.2427 20.2171 60.769 20.216 61.3833L20.1937 74.4815L16.934 74.4759L16.9564 61.3778C16.9574 60.7635 17.6618 60.2396 18.6327 60.2412ZM28.9675 82.9379L32.3956 82.9438L32.4014 79.5157L29.0031 79.5099L28.9675 82.9379ZM10.9452 82.9072L14.3733 82.913L14.3791 79.4849L10.951 79.4791L10.9452 82.9072ZM101.263 159.451L98.8953 159.447L98.9349 136.233C98.947 129.119 88.4942 123.335 88.4942 123.335C88.4942 123.335 78.0217 129.123 78.0096 136.197L77.97 159.411L74.5419 159.405L74.6082 120.547L101.359 120.592L101.293 159.451L101.263 159.451ZM68.1216 159.394L65.4069 159.39L65.4465 136.176C65.4586 129.062 55.0058 123.278 55.0058 123.278C55.0058 123.278 44.5333 129.066 44.5212 136.14L44.4816 159.354L41.5092 159.349L41.5755 120.49L68.2077 120.536L68.1414 159.394L68.1216 159.394ZM34.9899 159.338L32.0176 159.333L32.0572 136.119C32.0693 129.005 21.6165 123.221 21.6165 123.221C21.6165 123.221 11.1539 129.009 11.1418 136.083L11.1022 159.297L8.45678 159.292L8.52309 120.434L35.076 120.479L35.0097 159.338L34.9899 159.338Z" fill="#150958" fill-opacity="0.15"/>
</svg>
